<svg width="22" height="24" viewBox="0 0 22 24" fill="none" xmlns="http://www.w3.org/2000/svg">
<path d="M22 11.25C22 10.1423 21.5054 9.18563 20.7778 8.66625V1.50047C20.7778 1.09031 20.5112 0 19.5556 0C19.2836 0 19.0136 0.111563 18.7924 0.329062L15.5448 3.51797C13.9135 5.11828 11.8655 6 9.77778 6H2.44444C1.09427 6 0 7.34297 0 9V13.5C0 15.157 1.09427 16.5 2.44444 16.5H3.7316C3.67851 16.9912 3.64833 17.4909 3.64833 18C3.64833 19.8642 4.00201 21.6258 4.62458 23.2003C4.82281 23.7014 5.25556 24 5.70931 24H8.54639C9.54135 24 10.1387 22.6012 9.53563 21.63C8.90924 20.6213 8.53684 19.3631 8.53684 18C8.53684 17.4792 8.59871 16.9786 8.70528 16.5H9.77778C11.8655 16.5 13.9135 17.3817 15.5444 18.982L18.792 22.1709C19.0087 22.3837 19.2778 22.4997 19.5552 22.5C20.507 22.5 20.7774 21.4322 20.7774 21V13.8342C21.5054 13.3144 22 12.3577 22 11.25ZM18.3333 17.8791L17.071 16.6397C15.0085 14.6147 12.4178 13.5 9.77778 13.5V9C12.4178 9 15.0085 7.88531 17.071 5.86031L18.3333 4.62094V17.8791Z" fill="black"/>
</svg>
