<svg width="200" height="37" viewBox="0 0 200 37" fill="none" xmlns="http://www.w3.org/2000/svg">
<path d="M28.6719 24.6328C28.4062 28.3047 27.0469 31.1953 24.5938 33.3047C22.1562 35.4141 18.9375 36.4688 14.9375 36.4688C10.5625 36.4688 7.11719 35 4.60156 32.0625C2.10156 29.1094 0.851562 25.0625 0.851562 19.9219V17.8359C0.851562 14.5547 1.42969 11.6641 2.58594 9.16406C3.74219 6.66406 5.39062 4.75 7.53125 3.42188C9.6875 2.07813 12.1875 1.40625 15.0312 1.40625C18.9688 1.40625 22.1406 2.46094 24.5469 4.57031C26.9531 6.67969 28.3438 9.64062 28.7188 13.4531H21.6875C21.5156 11.25 20.8984 9.65625 19.8359 8.67188C18.7891 7.67188 17.1875 7.17188 15.0312 7.17188C12.6875 7.17188 10.9297 8.01562 9.75781 9.70312C8.60156 11.375 8.00781 13.9766 7.97656 17.5078V20.0859C7.97656 23.7734 8.53125 26.4688 9.64062 28.1719C10.7656 29.875 12.5312 30.7266 14.9375 30.7266C17.1094 30.7266 18.7266 30.2344 19.7891 29.25C20.8672 28.25 21.4844 26.7109 21.6406 24.6328H28.6719ZM39.4531 13.4062C41.25 11.25 43.5078 10.1719 46.2266 10.1719C51.7266 10.1719 54.5156 13.3672 54.5938 19.7578V36H47.8203V19.9453C47.8203 18.4922 47.5078 17.4219 46.8828 16.7344C46.2578 16.0312 45.2188 15.6797 43.7656 15.6797C41.7812 15.6797 40.3438 16.4453 39.4531 17.9766V36H32.6797V0H39.4531V13.4062ZM71.375 36.4688C67.6562 36.4688 64.625 35.3281 62.2812 33.0469C59.9531 30.7656 58.7891 27.7266 58.7891 23.9297V23.2734C58.7891 20.7266 59.2812 18.4531 60.2656 16.4531C61.25 14.4375 62.6406 12.8906 64.4375 11.8125C66.25 10.7188 68.3125 10.1719 70.625 10.1719C74.0938 10.1719 76.8203 11.2656 78.8047 13.4531C80.8047 15.6406 81.8047 18.7422 81.8047 22.7578V25.5234H65.6562C65.875 27.1797 66.5312 28.5078 67.625 29.5078C68.7344 30.5078 70.1328 31.0078 71.8203 31.0078C74.4297 31.0078 76.4688 30.0625 77.9375 28.1719L81.2656 31.8984C80.25 33.3359 78.875 34.4609 77.1406 35.2734C75.4062 36.0703 73.4844 36.4688 71.375 36.4688ZM70.6016 15.6562C69.2578 15.6562 68.1641 16.1094 67.3203 17.0156C66.4922 17.9219 65.9609 19.2188 65.7266 20.9062H75.1484V20.3672C75.1172 18.8672 74.7109 17.7109 73.9297 16.8984C73.1484 16.0703 72.0391 15.6562 70.6016 15.6562ZM96.2188 31.0078C97.4688 31.0078 98.4844 30.6641 99.2656 29.9766C100.047 29.2891 100.453 28.375 100.484 27.2344H106.836C106.82 28.9531 106.352 30.5312 105.43 31.9688C104.508 33.3906 103.242 34.5 101.633 35.2969C100.039 36.0781 98.2734 36.4688 96.3359 36.4688C92.7109 36.4688 89.8516 35.3203 87.7578 33.0234C85.6641 30.7109 84.6172 27.5234 84.6172 23.4609V23.0156C84.6172 19.1094 85.6562 15.9922 87.7344 13.6641C89.8125 11.3359 92.6641 10.1719 96.2891 10.1719C99.4609 10.1719 102 11.0781 103.906 12.8906C105.828 14.6875 106.805 17.0859 106.836 20.0859H100.484C100.453 18.7734 100.047 17.7109 99.2656 16.8984C98.4844 16.0703 97.4531 15.6562 96.1719 15.6562C94.5938 15.6562 93.3984 16.2344 92.5859 17.3906C91.7891 18.5312 91.3906 20.3906 91.3906 22.9688V23.6719C91.3906 26.2812 91.7891 28.1562 92.5859 29.2969C93.3828 30.4375 94.5938 31.0078 96.2188 31.0078ZM119.914 25.8281L117.477 28.2656V36H110.703V0H117.477V19.9453L118.789 18.2578L125.281 10.6406H133.414L124.25 21.2109L134.211 36H126.43L119.914 25.8281ZM143.492 36H136.695V0H143.492V36ZM156.242 36H149.445V10.6406H156.242V36ZM149.047 4.07812C149.047 3.0625 149.383 2.22656 150.055 1.57031C150.742 0.914062 151.672 0.585938 152.844 0.585938C154 0.585938 154.922 0.914062 155.609 1.57031C156.297 2.22656 156.641 3.0625 156.641 4.07812C156.641 5.10938 156.289 5.95312 155.586 6.60938C154.898 7.26562 153.984 7.59375 152.844 7.59375C151.703 7.59375 150.781 7.26562 150.078 6.60938C149.391 5.95312 149.047 5.10938 149.047 4.07812ZM175.578 28.9922C175.578 28.1641 175.164 27.5156 174.336 27.0469C173.523 26.5625 172.211 26.1328 170.398 25.7578C164.367 24.4922 161.352 21.9297 161.352 18.0703C161.352 15.8203 162.281 13.9453 164.141 12.4453C166.016 10.9297 168.461 10.1719 171.477 10.1719C174.695 10.1719 177.266 10.9297 179.188 12.4453C181.125 13.9609 182.094 15.9297 182.094 18.3516H175.32C175.32 17.3828 175.008 16.5859 174.383 15.9609C173.758 15.3203 172.781 15 171.453 15C170.312 15 169.43 15.2578 168.805 15.7734C168.18 16.2891 167.867 16.9453 167.867 17.7422C167.867 18.4922 168.219 19.1016 168.922 19.5703C169.641 20.0234 170.844 20.4219 172.531 20.7656C174.219 21.0938 175.641 21.4688 176.797 21.8906C180.375 23.2031 182.164 25.4766 182.164 28.7109C182.164 31.0234 181.172 32.8984 179.188 34.3359C177.203 35.7578 174.641 36.4688 171.5 36.4688C169.375 36.4688 167.484 36.0938 165.828 35.3438C164.188 34.5781 162.898 33.5391 161.961 32.2266C161.023 30.8984 160.555 29.4688 160.555 27.9375H166.977C167.039 29.1406 167.484 30.0625 168.312 30.7031C169.141 31.3438 170.25 31.6641 171.641 31.6641C172.938 31.6641 173.914 31.4219 174.57 30.9375C175.242 30.4375 175.578 29.7891 175.578 28.9922ZM194.656 4.40625V10.6406H198.992V15.6094H194.656V28.2656C194.656 29.2031 194.836 29.875 195.195 30.2812C195.555 30.6875 196.242 30.8906 197.258 30.8906C198.008 30.8906 198.672 30.8359 199.25 30.7266V35.8594C197.922 36.2656 196.555 36.4688 195.148 36.4688C190.398 36.4688 187.977 34.0703 187.883 29.2734V15.6094H184.18V10.6406H187.883V4.40625H194.656Z" fill="black"/>
</svg>
