<svg width="228" height="37" viewBox="0 0 228 37" fill="none" xmlns="http://www.w3.org/2000/svg">
<path d="M0.273438 36V1.875H10.7734C13.7734 1.875 16.4531 2.55469 18.8125 3.91406C21.1875 5.25781 23.0391 7.17969 24.3672 9.67969C25.6953 12.1641 26.3594 14.9922 26.3594 18.1641V19.7344C26.3594 22.9062 25.7031 25.7266 24.3906 28.1953C23.0938 30.6641 21.2578 32.5781 18.8828 33.9375C16.5078 35.2969 13.8281 35.9844 10.8438 36H0.273438ZM7.30469 7.57031V30.3516H10.7031C13.4531 30.3516 15.5547 29.4531 17.0078 27.6562C18.4609 25.8594 19.2031 23.2891 19.2344 19.9453V18.1406C19.2344 14.6719 18.5156 12.0469 17.0781 10.2656C15.6406 8.46875 13.5391 7.57031 10.7734 7.57031H7.30469ZM45.7422 36C45.4297 35.3906 45.2031 34.6328 45.0625 33.7266C43.4219 35.5547 41.2891 36.4688 38.6641 36.4688C36.1797 36.4688 34.1172 35.75 32.4766 34.3125C30.8516 32.875 30.0391 31.0625 30.0391 28.875C30.0391 26.1875 31.0312 24.125 33.0156 22.6875C35.0156 21.25 37.8984 20.5234 41.6641 20.5078H44.7812V19.0547C44.7812 17.8828 44.4766 16.9453 43.8672 16.2422C43.2734 15.5391 42.3281 15.1875 41.0312 15.1875C39.8906 15.1875 38.9922 15.4609 38.3359 16.0078C37.6953 16.5547 37.375 17.3047 37.375 18.2578H30.6016C30.6016 16.7891 31.0547 15.4297 31.9609 14.1797C32.8672 12.9297 34.1484 11.9531 35.8047 11.25C37.4609 10.5312 39.3203 10.1719 41.3828 10.1719C44.5078 10.1719 46.9844 10.9609 48.8125 12.5391C50.6562 14.1016 51.5781 16.3047 51.5781 19.1484V30.1406C51.5938 32.5469 51.9297 34.3672 52.5859 35.6016V36H45.7422ZM40.1406 31.2891C41.1406 31.2891 42.0625 31.0703 42.9062 30.6328C43.75 30.1797 44.375 29.5781 44.7812 28.8281V24.4688H42.25C38.8594 24.4688 37.0547 25.6406 36.8359 27.9844L36.8125 28.3828C36.8125 29.2266 37.1094 29.9219 37.7031 30.4688C38.2969 31.0156 39.1094 31.2891 40.1406 31.2891ZM70.5156 28.9922C70.5156 28.1641 70.1016 27.5156 69.2734 27.0469C68.4609 26.5625 67.1484 26.1328 65.3359 25.7578C59.3047 24.4922 56.2891 21.9297 56.2891 18.0703C56.2891 15.8203 57.2188 13.9453 59.0781 12.4453C60.9531 10.9297 63.3984 10.1719 66.4141 10.1719C69.6328 10.1719 72.2031 10.9297 74.125 12.4453C76.0625 13.9609 77.0312 15.9297 77.0312 18.3516H70.2578C70.2578 17.3828 69.9453 16.5859 69.3203 15.9609C68.6953 15.3203 67.7188 15 66.3906 15C65.25 15 64.3672 15.2578 63.7422 15.7734C63.1172 16.2891 62.8047 16.9453 62.8047 17.7422C62.8047 18.4922 63.1562 19.1016 63.8594 19.5703C64.5781 20.0234 65.7812 20.4219 67.4688 20.7656C69.1562 21.0938 70.5781 21.4688 71.7344 21.8906C75.3125 23.2031 77.1016 25.4766 77.1016 28.7109C77.1016 31.0234 76.1094 32.8984 74.125 34.3359C72.1406 35.7578 69.5781 36.4688 66.4375 36.4688C64.3125 36.4688 62.4219 36.0938 60.7656 35.3438C59.125 34.5781 57.8359 33.5391 56.8984 32.2266C55.9609 30.8984 55.4922 29.4688 55.4922 27.9375H61.9141C61.9766 29.1406 62.4219 30.0625 63.25 30.7031C64.0781 31.3438 65.1875 31.6641 66.5781 31.6641C67.875 31.6641 68.8516 31.4219 69.5078 30.9375C70.1797 30.4375 70.5156 29.7891 70.5156 28.9922ZM88.0938 13.4062C89.8906 11.25 92.1484 10.1719 94.8672 10.1719C100.367 10.1719 103.156 13.3672 103.234 19.7578V36H96.4609V19.9453C96.4609 18.4922 96.1484 17.4219 95.5234 16.7344C94.8984 16.0312 93.8594 15.6797 92.4062 15.6797C90.4219 15.6797 88.9844 16.4453 88.0938 17.9766V36H81.3203V0H88.0938V13.4062ZM131.195 23.5547C131.195 27.6172 130.328 30.7891 128.594 33.0703C126.859 35.3359 124.438 36.4688 121.328 36.4688C118.578 36.4688 116.383 35.4141 114.742 33.3047L114.438 36H108.344V0H115.117V12.9141C116.68 11.0859 118.734 10.1719 121.281 10.1719C124.375 10.1719 126.797 11.3125 128.547 13.5938C130.312 15.8594 131.195 19.0547 131.195 23.1797V23.5547ZM124.422 23.0625C124.422 20.5 124.016 18.6328 123.203 17.4609C122.391 16.2734 121.18 15.6797 119.57 15.6797C117.414 15.6797 115.93 16.5625 115.117 18.3281V28.3359C115.945 30.1172 117.445 31.0078 119.617 31.0078C121.805 31.0078 123.242 29.9297 123.93 27.7734C124.258 26.7422 124.422 25.1719 124.422 23.0625ZM134.336 23.0859C134.336 20.5703 134.82 18.3281 135.789 16.3594C136.758 14.3906 138.148 12.8672 139.961 11.7891C141.789 10.7109 143.906 10.1719 146.312 10.1719C149.734 10.1719 152.523 11.2188 154.68 13.3125C156.852 15.4062 158.062 18.25 158.312 21.8438L158.359 23.5781C158.359 27.4688 157.273 30.5938 155.102 32.9531C152.93 35.2969 150.016 36.4688 146.359 36.4688C142.703 36.4688 139.781 35.2969 137.594 32.9531C135.422 30.6094 134.336 27.4219 134.336 23.3906V23.0859ZM141.109 23.5781C141.109 25.9844 141.562 27.8281 142.469 29.1094C143.375 30.375 144.672 31.0078 146.359 31.0078C148 31.0078 149.281 30.3828 150.203 29.1328C151.125 27.8672 151.586 25.8516 151.586 23.0859C151.586 20.7266 151.125 18.8984 150.203 17.6016C149.281 16.3047 147.984 15.6562 146.312 15.6562C144.656 15.6562 143.375 16.3047 142.469 17.6016C141.562 18.8828 141.109 20.875 141.109 23.5781ZM177.227 36C176.914 35.3906 176.688 34.6328 176.547 33.7266C174.906 35.5547 172.773 36.4688 170.148 36.4688C167.664 36.4688 165.602 35.75 163.961 34.3125C162.336 32.875 161.523 31.0625 161.523 28.875C161.523 26.1875 162.516 24.125 164.5 22.6875C166.5 21.25 169.383 20.5234 173.148 20.5078H176.266V19.0547C176.266 17.8828 175.961 16.9453 175.352 16.2422C174.758 15.5391 173.812 15.1875 172.516 15.1875C171.375 15.1875 170.477 15.4609 169.82 16.0078C169.18 16.5547 168.859 17.3047 168.859 18.2578H162.086C162.086 16.7891 162.539 15.4297 163.445 14.1797C164.352 12.9297 165.633 11.9531 167.289 11.25C168.945 10.5312 170.805 10.1719 172.867 10.1719C175.992 10.1719 178.469 10.9609 180.297 12.5391C182.141 14.1016 183.062 16.3047 183.062 19.1484V30.1406C183.078 32.5469 183.414 34.3672 184.07 35.6016V36H177.227ZM171.625 31.2891C172.625 31.2891 173.547 31.0703 174.391 30.6328C175.234 30.1797 175.859 29.5781 176.266 28.8281V24.4688H173.734C170.344 24.4688 168.539 25.6406 168.32 27.9844L168.297 28.3828C168.297 29.2266 168.594 29.9219 169.188 30.4688C169.781 31.0156 170.594 31.2891 171.625 31.2891ZM202.516 16.9922C201.594 16.8672 200.781 16.8047 200.078 16.8047C197.516 16.8047 195.836 17.6719 195.039 19.4062V36H188.266V10.6406H194.664L194.852 13.6641C196.211 11.3359 198.094 10.1719 200.5 10.1719C201.25 10.1719 201.953 10.2734 202.609 10.4766L202.516 16.9922ZM204.273 23.1328C204.273 19.1797 205.156 16.0312 206.922 13.6875C208.703 11.3438 211.133 10.1719 214.211 10.1719C216.68 10.1719 218.719 11.0938 220.328 12.9375V0H227.125V36H221.008L220.68 33.3047C218.992 35.4141 216.82 36.4688 214.164 36.4688C211.18 36.4688 208.781 35.2969 206.969 32.9531C205.172 30.5938 204.273 27.3203 204.273 23.1328ZM211.047 23.625C211.047 26 211.461 27.8203 212.289 29.0859C213.117 30.3516 214.32 30.9844 215.898 30.9844C217.992 30.9844 219.469 30.1016 220.328 28.3359V18.3281C219.484 16.5625 218.023 15.6797 215.945 15.6797C212.68 15.6797 211.047 18.3281 211.047 23.625Z" fill="black"/>
</svg>
