<svg width="1440" height="420" viewBox="0 0 1440 420" fill="none" xmlns="http://www.w3.org/2000/svg">
<g clip-path="url(#clip0)">
<rect width="1440" height="420" fill="white"/>
<path d="M95 -24C95 -29.5228 99.4772 -34 105 -34H1315C1320.52 -34 1325 -29.5228 1325 -24V393C1325 398.523 1320.52 403 1315 403H105C99.4771 403 95 398.523 95 393V-24Z" fill="#691E83" fill-opacity="0.09"/>
<path d="M173.805 33.5234C173.805 32.8594 173.57 32.3516 173.102 32C172.633 31.6406 171.789 31.2656 170.57 30.875C169.352 30.4766 168.387 30.0859 167.676 29.7031C165.738 28.6562 164.77 27.2461 164.77 25.4727C164.77 24.5508 165.027 23.7305 165.543 23.0117C166.066 22.2852 166.812 21.7188 167.781 21.3125C168.758 20.9062 169.852 20.7031 171.062 20.7031C172.281 20.7031 173.367 20.9258 174.32 21.3711C175.273 21.8086 176.012 22.4297 176.535 23.2344C177.066 24.0391 177.332 24.9531 177.332 25.9766H173.816C173.816 25.1953 173.57 24.5898 173.078 24.1602C172.586 23.7227 171.895 23.5039 171.004 23.5039C170.145 23.5039 169.477 23.6875 169 24.0547C168.523 24.4141 168.285 24.8906 168.285 25.4844C168.285 26.0391 168.562 26.5039 169.117 26.8789C169.68 27.2539 170.504 27.6055 171.59 27.9336C173.59 28.5352 175.047 29.2812 175.961 30.1719C176.875 31.0625 177.332 32.1719 177.332 33.5C177.332 34.9766 176.773 36.1367 175.656 36.9805C174.539 37.8164 173.035 38.2344 171.145 38.2344C169.832 38.2344 168.637 37.9961 167.559 37.5195C166.48 37.0352 165.656 36.375 165.086 35.5391C164.523 34.7031 164.242 33.7344 164.242 32.6328H167.77C167.77 34.5156 168.895 35.457 171.145 35.457C171.98 35.457 172.633 35.2891 173.102 34.9531C173.57 34.6094 173.805 34.1328 173.805 33.5234ZM185.336 38.2344C183.477 38.2344 181.961 37.6641 180.789 36.5234C179.625 35.3828 179.043 33.8633 179.043 31.9648V31.6367C179.043 30.3633 179.289 29.2266 179.781 28.2266C180.273 27.2188 180.969 26.4453 181.867 25.9062C182.773 25.3594 183.805 25.0859 184.961 25.0859C186.695 25.0859 188.059 25.6328 189.051 26.7266C190.051 27.8203 190.551 29.3711 190.551 31.3789V32.7617H182.477C182.586 33.5898 182.914 34.2539 183.461 34.7539C184.016 35.2539 184.715 35.5039 185.559 35.5039C186.863 35.5039 187.883 35.0312 188.617 34.0859L190.281 35.9492C189.773 36.668 189.086 37.2305 188.219 37.6367C187.352 38.0352 186.391 38.2344 185.336 38.2344ZM184.949 27.8281C184.277 27.8281 183.73 28.0547 183.309 28.5078C182.895 28.9609 182.629 29.6094 182.512 30.4531H187.223V30.1836C187.207 29.4336 187.004 28.8555 186.613 28.4492C186.223 28.0352 185.668 27.8281 184.949 27.8281ZM197.758 35.5039C198.383 35.5039 198.891 35.332 199.281 34.9883C199.672 34.6445 199.875 34.1875 199.891 33.6172H203.066C203.059 34.4766 202.824 35.2656 202.363 35.9844C201.902 36.6953 201.27 37.25 200.465 37.6484C199.668 38.0391 198.785 38.2344 197.816 38.2344C196.004 38.2344 194.574 37.6602 193.527 36.5117C192.48 35.3555 191.957 33.7617 191.957 31.7305V31.5078C191.957 29.5547 192.477 27.9961 193.516 26.832C194.555 25.668 195.98 25.0859 197.793 25.0859C199.379 25.0859 200.648 25.5391 201.602 26.4453C202.562 27.3438 203.051 28.543 203.066 30.043H199.891C199.875 29.3867 199.672 28.8555 199.281 28.4492C198.891 28.0352 198.375 27.8281 197.734 27.8281C196.945 27.8281 196.348 28.1172 195.941 28.6953C195.543 29.2656 195.344 30.1953 195.344 31.4844V31.8359C195.344 33.1406 195.543 34.0781 195.941 34.6484C196.34 35.2188 196.945 35.5039 197.758 35.5039ZM212.594 36.7109C211.758 37.7266 210.602 38.2344 209.125 38.2344C207.766 38.2344 206.727 37.8438 206.008 37.0625C205.297 36.2812 204.934 35.1367 204.918 33.6289V25.3203H208.305V33.5117C208.305 34.832 208.906 35.4922 210.109 35.4922C211.258 35.4922 212.047 35.0938 212.477 34.2969V25.3203H215.875V38H212.688L212.594 36.7109ZM225.555 28.4961C225.094 28.4336 224.688 28.4023 224.336 28.4023C223.055 28.4023 222.215 28.8359 221.816 29.7031V38H218.43V25.3203H221.629L221.723 26.832C222.402 25.668 223.344 25.0859 224.547 25.0859C224.922 25.0859 225.273 25.1367 225.602 25.2383L225.555 28.4961ZM230.77 38H227.371V25.3203H230.77V38ZM227.172 22.0391C227.172 21.5312 227.34 21.1133 227.676 20.7852C228.02 20.457 228.484 20.293 229.07 20.293C229.648 20.293 230.109 20.457 230.453 20.7852C230.797 21.1133 230.969 21.5312 230.969 22.0391C230.969 22.5547 230.793 22.9766 230.441 23.3047C230.098 23.6328 229.641 23.7969 229.07 23.7969C228.5 23.7969 228.039 23.6328 227.688 23.3047C227.344 22.9766 227.172 22.5547 227.172 22.0391ZM237.625 22.2031V25.3203H239.793V27.8047H237.625V34.1328C237.625 34.6016 237.715 34.9375 237.895 35.1406C238.074 35.3438 238.418 35.4453 238.926 35.4453C239.301 35.4453 239.633 35.418 239.922 35.3633V37.9297C239.258 38.1328 238.574 38.2344 237.871 38.2344C235.496 38.2344 234.285 37.0352 234.238 34.6367V27.8047H232.387V25.3203H234.238V22.2031H237.625ZM246.414 33.207L248.758 25.3203H252.391L247.293 39.9688L247.012 40.6367C246.254 42.293 245.004 43.1211 243.262 43.1211C242.77 43.1211 242.27 43.0469 241.762 42.8984V40.332L242.277 40.3438C242.918 40.3438 243.395 40.2461 243.707 40.0508C244.027 39.8555 244.277 39.5312 244.457 39.0781L244.855 38.0352L240.414 25.3203H244.059L246.414 33.207ZM263.441 35.1758H270.906V38H259.926V20.9375H263.441V35.1758ZM278.547 38.2344C276.688 38.2344 275.172 37.6641 274 36.5234C272.836 35.3828 272.254 33.8633 272.254 31.9648V31.6367C272.254 30.3633 272.5 29.2266 272.992 28.2266C273.484 27.2188 274.18 26.4453 275.078 25.9062C275.984 25.3594 277.016 25.0859 278.172 25.0859C279.906 25.0859 281.27 25.6328 282.262 26.7266C283.262 27.8203 283.762 29.3711 283.762 31.3789V32.7617H275.688C275.797 33.5898 276.125 34.2539 276.672 34.7539C277.227 35.2539 277.926 35.5039 278.77 35.5039C280.074 35.5039 281.094 35.0312 281.828 34.0859L283.492 35.9492C282.984 36.668 282.297 37.2305 281.43 37.6367C280.562 38.0352 279.602 38.2344 278.547 38.2344ZM278.16 27.8281C277.488 27.8281 276.941 28.0547 276.52 28.5078C276.105 28.9609 275.84 29.6094 275.723 30.4531H280.434V30.1836C280.418 29.4336 280.215 28.8555 279.824 28.4492C279.434 28.0352 278.879 27.8281 278.16 27.8281ZM290.277 33.8633L292.633 25.3203H296.172L291.895 38H288.66L284.383 25.3203H287.922L290.277 33.8633ZM303.344 38.2344C301.484 38.2344 299.969 37.6641 298.797 36.5234C297.633 35.3828 297.051 33.8633 297.051 31.9648V31.6367C297.051 30.3633 297.297 29.2266 297.789 28.2266C298.281 27.2188 298.977 26.4453 299.875 25.9062C300.781 25.3594 301.812 25.0859 302.969 25.0859C304.703 25.0859 306.066 25.6328 307.059 26.7266C308.059 27.8203 308.559 29.3711 308.559 31.3789V32.7617H300.484C300.594 33.5898 300.922 34.2539 301.469 34.7539C302.023 35.2539 302.723 35.5039 303.566 35.5039C304.871 35.5039 305.891 35.0312 306.625 34.0859L308.289 35.9492C307.781 36.668 307.094 37.2305 306.227 37.6367C305.359 38.0352 304.398 38.2344 303.344 38.2344ZM302.957 27.8281C302.285 27.8281 301.738 28.0547 301.316 28.5078C300.902 28.9609 300.637 29.6094 300.52 30.4531H305.23V30.1836C305.215 29.4336 305.012 28.8555 304.621 28.4492C304.23 28.0352 303.676 27.8281 302.957 27.8281ZM314.066 38H310.668V20H314.066V38Z" fill="black"/>
<g clip-path="url(#clip1)">
<path d="M151 74.5C151 69.8056 154.806 66 159.5 66H382.5C387.194 66 391 69.8056 391 74.5C391 79.1944 387.194 83 382.5 83H159.5C154.806 83 151 79.1944 151 74.5Z" fill="#DDDDDD"/>
<rect x="151" y="66" width="323" height="20" rx="10" fill="#0ACF83"/>
<path d="M165.734 80C165.672 79.875 165.621 79.6523 165.582 79.332C165.078 79.8555 164.477 80.1172 163.777 80.1172C163.152 80.1172 162.639 79.9414 162.236 79.5898C161.838 79.2344 161.639 78.7852 161.639 78.2422C161.639 77.582 161.889 77.0703 162.389 76.707C162.893 76.3398 163.6 76.1562 164.51 76.1562H165.564V75.6582C165.564 75.2793 165.451 74.9785 165.225 74.7559C164.998 74.5293 164.664 74.416 164.223 74.416C163.836 74.416 163.512 74.5137 163.25 74.709C162.988 74.9043 162.857 75.1406 162.857 75.418H161.768C161.768 75.1016 161.879 74.7969 162.102 74.5039C162.328 74.207 162.633 73.9727 163.016 73.8008C163.402 73.6289 163.826 73.543 164.287 73.543C165.018 73.543 165.59 73.7266 166.004 74.0938C166.418 74.457 166.633 74.959 166.648 75.5996V78.5176C166.648 79.0996 166.723 79.5625 166.871 79.9062V80H165.734ZM163.936 79.1738C164.275 79.1738 164.598 79.0859 164.902 78.9102C165.207 78.7344 165.428 78.5059 165.564 78.2246V76.9238H164.715C163.387 76.9238 162.723 77.3125 162.723 78.0898C162.723 78.4297 162.836 78.6953 163.062 78.8867C163.289 79.0781 163.58 79.1738 163.936 79.1738ZM172.039 78.3184C172.039 78.0254 171.928 77.7988 171.705 77.6387C171.486 77.4746 171.102 77.334 170.551 77.2168C170.004 77.0996 169.568 76.959 169.244 76.7949C168.924 76.6309 168.686 76.4355 168.529 76.209C168.377 75.9824 168.301 75.7129 168.301 75.4004C168.301 74.8809 168.52 74.4414 168.957 74.082C169.398 73.7227 169.961 73.543 170.645 73.543C171.363 73.543 171.945 73.7285 172.391 74.0996C172.84 74.4707 173.064 74.9453 173.064 75.5234H171.975C171.975 75.2266 171.848 74.9707 171.594 74.7559C171.344 74.541 171.027 74.4336 170.645 74.4336C170.25 74.4336 169.941 74.5195 169.719 74.6914C169.496 74.8633 169.385 75.0879 169.385 75.3652C169.385 75.627 169.488 75.8242 169.695 75.957C169.902 76.0898 170.275 76.2168 170.814 76.3379C171.357 76.459 171.797 76.6035 172.133 76.7715C172.469 76.9395 172.717 77.1426 172.877 77.3809C173.041 77.6152 173.123 77.9023 173.123 78.2422C173.123 78.8086 172.896 79.2637 172.443 79.6074C171.99 79.9473 171.402 80.1172 170.68 80.1172C170.172 80.1172 169.723 80.0273 169.332 79.8477C168.941 79.668 168.635 79.418 168.412 79.0977C168.193 78.7734 168.084 78.4238 168.084 78.0488H169.168C169.188 78.4121 169.332 78.7012 169.602 78.916C169.875 79.127 170.234 79.2324 170.68 79.2324C171.09 79.2324 171.418 79.1504 171.664 78.9863C171.914 78.8184 172.039 78.5957 172.039 78.3184ZM174.271 76.7773C174.271 75.8047 174.502 75.0234 174.963 74.4336C175.424 73.8398 176.027 73.543 176.773 73.543C177.516 73.543 178.104 73.7969 178.537 74.3047V71H179.621V80H178.625L178.572 79.3203C178.139 79.8516 177.535 80.1172 176.762 80.1172C176.027 80.1172 175.428 79.8164 174.963 79.2148C174.502 78.6133 174.271 77.8281 174.271 76.8594V76.7773ZM175.355 76.9004C175.355 77.6191 175.504 78.1816 175.801 78.5879C176.098 78.9941 176.508 79.1973 177.031 79.1973C177.719 79.1973 178.221 78.8887 178.537 78.2715V75.3594C178.213 74.7617 177.715 74.4629 177.043 74.4629C176.512 74.4629 176.098 74.668 175.801 75.0781C175.504 75.4883 175.355 76.0957 175.355 76.9004ZM184.818 80V74.498H183.816V73.6602H184.818V73.0098C184.818 72.3301 185 71.8047 185.363 71.4336C185.727 71.0625 186.24 70.877 186.904 70.877C187.154 70.877 187.402 70.9102 187.648 70.9766L187.59 71.8555C187.406 71.8203 187.211 71.8027 187.004 71.8027C186.652 71.8027 186.381 71.9062 186.189 72.1133C185.998 72.3164 185.902 72.6094 185.902 72.9922V73.6602H187.256V74.498H185.902V80H184.818ZM192.371 80C192.309 79.875 192.258 79.6523 192.219 79.332C191.715 79.8555 191.113 80.1172 190.414 80.1172C189.789 80.1172 189.275 79.9414 188.873 79.5898C188.475 79.2344 188.275 78.7852 188.275 78.2422C188.275 77.582 188.525 77.0703 189.025 76.707C189.529 76.3398 190.236 76.1562 191.146 76.1562H192.201V75.6582C192.201 75.2793 192.088 74.9785 191.861 74.7559C191.635 74.5293 191.301 74.416 190.859 74.416C190.473 74.416 190.148 74.5137 189.887 74.709C189.625 74.9043 189.494 75.1406 189.494 75.418H188.404C188.404 75.1016 188.516 74.7969 188.738 74.5039C188.965 74.207 189.27 73.9727 189.652 73.8008C190.039 73.6289 190.463 73.543 190.924 73.543C191.654 73.543 192.227 73.7266 192.641 74.0938C193.055 74.457 193.27 74.959 193.285 75.5996V78.5176C193.285 79.0996 193.359 79.5625 193.508 79.9062V80H192.371ZM190.572 79.1738C190.912 79.1738 191.234 79.0859 191.539 78.9102C191.844 78.7344 192.064 78.5059 192.201 78.2246V76.9238H191.352C190.023 76.9238 189.359 77.3125 189.359 78.0898C189.359 78.4297 189.473 78.6953 189.699 78.8867C189.926 79.0781 190.217 79.1738 190.572 79.1738ZM198.676 78.3184C198.676 78.0254 198.564 77.7988 198.342 77.6387C198.123 77.4746 197.738 77.334 197.188 77.2168C196.641 77.0996 196.205 76.959 195.881 76.7949C195.561 76.6309 195.322 76.4355 195.166 76.209C195.014 75.9824 194.938 75.7129 194.938 75.4004C194.938 74.8809 195.156 74.4414 195.594 74.082C196.035 73.7227 196.598 73.543 197.281 73.543C198 73.543 198.582 73.7285 199.027 74.0996C199.477 74.4707 199.701 74.9453 199.701 75.5234H198.611C198.611 75.2266 198.484 74.9707 198.23 74.7559C197.98 74.541 197.664 74.4336 197.281 74.4336C196.887 74.4336 196.578 74.5195 196.355 74.6914C196.133 74.8633 196.021 75.0879 196.021 75.3652C196.021 75.627 196.125 75.8242 196.332 75.957C196.539 76.0898 196.912 76.2168 197.451 76.3379C197.994 76.459 198.434 76.6035 198.77 76.7715C199.105 76.9395 199.354 77.1426 199.514 77.3809C199.678 77.6152 199.76 77.9023 199.76 78.2422C199.76 78.8086 199.533 79.2637 199.08 79.6074C198.627 79.9473 198.039 80.1172 197.316 80.1172C196.809 80.1172 196.359 80.0273 195.969 79.8477C195.578 79.668 195.271 79.418 195.049 79.0977C194.83 78.7734 194.721 78.4238 194.721 78.0488H195.805C195.824 78.4121 195.969 78.7012 196.238 78.916C196.512 79.127 196.871 79.2324 197.316 79.2324C197.727 79.2324 198.055 79.1504 198.301 78.9863C198.551 78.8184 198.676 78.5957 198.676 78.3184ZM200.908 76.7773C200.908 75.8047 201.139 75.0234 201.6 74.4336C202.061 73.8398 202.664 73.543 203.41 73.543C204.152 73.543 204.74 73.7969 205.174 74.3047V71H206.258V80H205.262L205.209 79.3203C204.775 79.8516 204.172 80.1172 203.398 80.1172C202.664 80.1172 202.064 79.8164 201.6 79.2148C201.139 78.6133 200.908 77.8281 200.908 76.8594V76.7773ZM201.992 76.9004C201.992 77.6191 202.141 78.1816 202.438 78.5879C202.734 78.9941 203.145 79.1973 203.668 79.1973C204.355 79.1973 204.857 78.8887 205.174 78.2715V75.3594C204.85 74.7617 204.352 74.4629 203.68 74.4629C203.148 74.4629 202.734 74.668 202.438 75.0781C202.141 75.4883 201.992 76.0957 201.992 76.9004ZM208.479 80V74.498H207.477V73.6602H208.479V73.0098C208.479 72.3301 208.66 71.8047 209.023 71.4336C209.387 71.0625 209.9 70.877 210.564 70.877C210.814 70.877 211.062 70.9102 211.309 70.9766L211.25 71.8555C211.066 71.8203 210.871 71.8027 210.664 71.8027C210.312 71.8027 210.041 71.9062 209.85 72.1133C209.658 72.3164 209.562 72.6094 209.562 72.9922V73.6602H210.916V74.498H209.562V80H208.479ZM215.809 78.3184C215.809 78.0254 215.697 77.7988 215.475 77.6387C215.256 77.4746 214.871 77.334 214.32 77.2168C213.773 77.0996 213.338 76.959 213.014 76.7949C212.693 76.6309 212.455 76.4355 212.299 76.209C212.146 75.9824 212.07 75.7129 212.07 75.4004C212.07 74.8809 212.289 74.4414 212.727 74.082C213.168 73.7227 213.73 73.543 214.414 73.543C215.133 73.543 215.715 73.7285 216.16 74.0996C216.609 74.4707 216.834 74.9453 216.834 75.5234H215.744C215.744 75.2266 215.617 74.9707 215.363 74.7559C215.113 74.541 214.797 74.4336 214.414 74.4336C214.02 74.4336 213.711 74.5195 213.488 74.6914C213.266 74.8633 213.154 75.0879 213.154 75.3652C213.154 75.627 213.258 75.8242 213.465 75.957C213.672 76.0898 214.045 76.2168 214.584 76.3379C215.127 76.459 215.566 76.6035 215.902 76.7715C216.238 76.9395 216.486 77.1426 216.646 77.3809C216.811 77.6152 216.893 77.9023 216.893 78.2422C216.893 78.8086 216.666 79.2637 216.213 79.6074C215.76 79.9473 215.172 80.1172 214.449 80.1172C213.941 80.1172 213.492 80.0273 213.102 79.8477C212.711 79.668 212.404 79.418 212.182 79.0977C211.963 78.7734 211.854 78.4238 211.854 78.0488H212.938C212.957 78.4121 213.102 78.7012 213.371 78.916C213.645 79.127 214.004 79.2324 214.449 79.2324C214.859 79.2324 215.188 79.1504 215.434 78.9863C215.684 78.8184 215.809 78.5957 215.809 78.3184ZM221.996 78.3184C221.996 78.0254 221.885 77.7988 221.662 77.6387C221.443 77.4746 221.059 77.334 220.508 77.2168C219.961 77.0996 219.525 76.959 219.201 76.7949C218.881 76.6309 218.643 76.4355 218.486 76.209C218.334 75.9824 218.258 75.7129 218.258 75.4004C218.258 74.8809 218.477 74.4414 218.914 74.082C219.355 73.7227 219.918 73.543 220.602 73.543C221.32 73.543 221.902 73.7285 222.348 74.0996C222.797 74.4707 223.021 74.9453 223.021 75.5234H221.932C221.932 75.2266 221.805 74.9707 221.551 74.7559C221.301 74.541 220.984 74.4336 220.602 74.4336C220.207 74.4336 219.898 74.5195 219.676 74.6914C219.453 74.8633 219.342 75.0879 219.342 75.3652C219.342 75.627 219.445 75.8242 219.652 75.957C219.859 76.0898 220.232 76.2168 220.771 76.3379C221.314 76.459 221.754 76.6035 222.09 76.7715C222.426 76.9395 222.674 77.1426 222.834 77.3809C222.998 77.6152 223.08 77.9023 223.08 78.2422C223.08 78.8086 222.854 79.2637 222.4 79.6074C221.947 79.9473 221.359 80.1172 220.637 80.1172C220.129 80.1172 219.68 80.0273 219.289 79.8477C218.898 79.668 218.592 79.418 218.369 79.0977C218.15 78.7734 218.041 78.4238 218.041 78.0488H219.125C219.145 78.4121 219.289 78.7012 219.559 78.916C219.832 79.127 220.191 79.2324 220.637 79.2324C221.047 79.2324 221.375 79.1504 221.621 78.9863C221.871 78.8184 221.996 78.5957 221.996 78.3184ZM228.184 78.3184C228.184 78.0254 228.072 77.7988 227.85 77.6387C227.631 77.4746 227.246 77.334 226.695 77.2168C226.148 77.0996 225.713 76.959 225.389 76.7949C225.068 76.6309 224.83 76.4355 224.674 76.209C224.521 75.9824 224.445 75.7129 224.445 75.4004C224.445 74.8809 224.664 74.4414 225.102 74.082C225.543 73.7227 226.105 73.543 226.789 73.543C227.508 73.543 228.09 73.7285 228.535 74.0996C228.984 74.4707 229.209 74.9453 229.209 75.5234H228.119C228.119 75.2266 227.992 74.9707 227.738 74.7559C227.488 74.541 227.172 74.4336 226.789 74.4336C226.395 74.4336 226.086 74.5195 225.863 74.6914C225.641 74.8633 225.529 75.0879 225.529 75.3652C225.529 75.627 225.633 75.8242 225.84 75.957C226.047 76.0898 226.42 76.2168 226.959 76.3379C227.502 76.459 227.941 76.6035 228.277 76.7715C228.613 76.9395 228.861 77.1426 229.021 77.3809C229.186 77.6152 229.268 77.9023 229.268 78.2422C229.268 78.8086 229.041 79.2637 228.588 79.6074C228.135 79.9473 227.547 80.1172 226.824 80.1172C226.316 80.1172 225.867 80.0273 225.477 79.8477C225.086 79.668 224.779 79.418 224.557 79.0977C224.338 78.7734 224.229 78.4238 224.229 78.0488H225.312C225.332 78.4121 225.477 78.7012 225.746 78.916C226.02 79.127 226.379 79.2324 226.824 79.2324C227.234 79.2324 227.562 79.1504 227.809 78.9863C228.059 78.8184 228.184 78.5957 228.184 78.3184ZM234.371 78.3184C234.371 78.0254 234.26 77.7988 234.037 77.6387C233.818 77.4746 233.434 77.334 232.883 77.2168C232.336 77.0996 231.9 76.959 231.576 76.7949C231.256 76.6309 231.018 76.4355 230.861 76.209C230.709 75.9824 230.633 75.7129 230.633 75.4004C230.633 74.8809 230.852 74.4414 231.289 74.082C231.73 73.7227 232.293 73.543 232.977 73.543C233.695 73.543 234.277 73.7285 234.723 74.0996C235.172 74.4707 235.396 74.9453 235.396 75.5234H234.307C234.307 75.2266 234.18 74.9707 233.926 74.7559C233.676 74.541 233.359 74.4336 232.977 74.4336C232.582 74.4336 232.273 74.5195 232.051 74.6914C231.828 74.8633 231.717 75.0879 231.717 75.3652C231.717 75.627 231.82 75.8242 232.027 75.957C232.234 76.0898 232.607 76.2168 233.146 76.3379C233.689 76.459 234.129 76.6035 234.465 76.7715C234.801 76.9395 235.049 77.1426 235.209 77.3809C235.373 77.6152 235.455 77.9023 235.455 78.2422C235.455 78.8086 235.229 79.2637 234.775 79.6074C234.322 79.9473 233.734 80.1172 233.012 80.1172C232.504 80.1172 232.055 80.0273 231.664 79.8477C231.273 79.668 230.967 79.418 230.744 79.0977C230.525 78.7734 230.416 78.4238 230.416 78.0488H231.5C231.52 78.4121 231.664 78.7012 231.934 78.916C232.207 79.127 232.566 79.2324 233.012 79.2324C233.422 79.2324 233.75 79.1504 233.996 78.9863C234.246 78.8184 234.371 78.5957 234.371 78.3184ZM240.559 78.3184C240.559 78.0254 240.447 77.7988 240.225 77.6387C240.006 77.4746 239.621 77.334 239.07 77.2168C238.523 77.0996 238.088 76.959 237.764 76.7949C237.443 76.6309 237.205 76.4355 237.049 76.209C236.896 75.9824 236.82 75.7129 236.82 75.4004C236.82 74.8809 237.039 74.4414 237.477 74.082C237.918 73.7227 238.48 73.543 239.164 73.543C239.883 73.543 240.465 73.7285 240.91 74.0996C241.359 74.4707 241.584 74.9453 241.584 75.5234H240.494C240.494 75.2266 240.367 74.9707 240.113 74.7559C239.863 74.541 239.547 74.4336 239.164 74.4336C238.77 74.4336 238.461 74.5195 238.238 74.6914C238.016 74.8633 237.904 75.0879 237.904 75.3652C237.904 75.627 238.008 75.8242 238.215 75.957C238.422 76.0898 238.795 76.2168 239.334 76.3379C239.877 76.459 240.316 76.6035 240.652 76.7715C240.988 76.9395 241.236 77.1426 241.396 77.3809C241.561 77.6152 241.643 77.9023 241.643 78.2422C241.643 78.8086 241.416 79.2637 240.963 79.6074C240.51 79.9473 239.922 80.1172 239.199 80.1172C238.691 80.1172 238.242 80.0273 237.852 79.8477C237.461 79.668 237.154 79.418 236.932 79.0977C236.713 78.7734 236.604 78.4238 236.604 78.0488H237.688C237.707 78.4121 237.852 78.7012 238.121 78.916C238.395 79.127 238.754 79.2324 239.199 79.2324C239.609 79.2324 239.938 79.1504 240.184 78.9863C240.434 78.8184 240.559 78.5957 240.559 78.3184ZM251.387 76.9004C251.387 77.8652 251.166 78.6426 250.725 79.2324C250.283 79.8223 249.686 80.1172 248.932 80.1172C248.162 80.1172 247.557 79.873 247.115 79.3848V82.4375H246.031V73.6602H247.021L247.074 74.3633C247.516 73.8164 248.129 73.543 248.914 73.543C249.676 73.543 250.277 73.8301 250.719 74.4043C251.164 74.9785 251.387 75.7773 251.387 76.8008V76.9004ZM250.303 76.7773C250.303 76.0625 250.15 75.498 249.846 75.084C249.541 74.6699 249.123 74.4629 248.592 74.4629C247.936 74.4629 247.443 74.7539 247.115 75.3359V78.3652C247.439 78.9434 247.936 79.2324 248.604 79.2324C249.123 79.2324 249.535 79.0273 249.84 78.6172C250.148 78.2031 250.303 77.5898 250.303 76.7773ZM258.125 76.9004C258.125 77.8652 257.904 78.6426 257.463 79.2324C257.021 79.8223 256.424 80.1172 255.67 80.1172C254.9 80.1172 254.295 79.873 253.854 79.3848V82.4375H252.77V73.6602H253.76L253.812 74.3633C254.254 73.8164 254.867 73.543 255.652 73.543C256.414 73.543 257.016 73.8301 257.457 74.4043C257.902 74.9785 258.125 75.7773 258.125 76.8008V76.9004ZM257.041 76.7773C257.041 76.0625 256.889 75.498 256.584 75.084C256.279 74.6699 255.861 74.4629 255.33 74.4629C254.674 74.4629 254.182 74.7539 253.854 75.3359V78.3652C254.178 78.9434 254.674 79.2324 255.342 79.2324C255.861 79.2324 256.273 79.0273 256.578 78.6172C256.887 78.2031 257.041 77.5898 257.041 76.7773ZM264.863 76.9004C264.863 77.8652 264.643 78.6426 264.201 79.2324C263.76 79.8223 263.162 80.1172 262.408 80.1172C261.639 80.1172 261.033 79.873 260.592 79.3848V82.4375H259.508V73.6602H260.498L260.551 74.3633C260.992 73.8164 261.605 73.543 262.391 73.543C263.152 73.543 263.754 73.8301 264.195 74.4043C264.641 74.9785 264.863 75.7773 264.863 76.8008V76.9004ZM263.779 76.7773C263.779 76.0625 263.627 75.498 263.322 75.084C263.018 74.6699 262.6 74.4629 262.068 74.4629C261.412 74.4629 260.92 74.7539 260.592 75.3359V78.3652C260.916 78.9434 261.412 79.2324 262.08 79.2324C262.6 79.2324 263.012 79.0273 263.316 78.6172C263.625 78.2031 263.779 77.5898 263.779 76.7773ZM271.602 76.9004C271.602 77.8652 271.381 78.6426 270.939 79.2324C270.498 79.8223 269.9 80.1172 269.146 80.1172C268.377 80.1172 267.771 79.873 267.33 79.3848V82.4375H266.246V73.6602H267.236L267.289 74.3633C267.73 73.8164 268.344 73.543 269.129 73.543C269.891 73.543 270.492 73.8301 270.934 74.4043C271.379 74.9785 271.602 75.7773 271.602 76.8008V76.9004ZM270.518 76.7773C270.518 76.0625 270.365 75.498 270.061 75.084C269.756 74.6699 269.338 74.4629 268.807 74.4629C268.15 74.4629 267.658 74.7539 267.33 75.3359V78.3652C267.654 78.9434 268.15 79.2324 268.818 79.2324C269.338 79.2324 269.75 79.0273 270.055 78.6172C270.363 78.2031 270.518 77.5898 270.518 76.7773ZM278.34 76.9004C278.34 77.8652 278.119 78.6426 277.678 79.2324C277.236 79.8223 276.639 80.1172 275.885 80.1172C275.115 80.1172 274.51 79.873 274.068 79.3848V82.4375H272.984V73.6602H273.975L274.027 74.3633C274.469 73.8164 275.082 73.543 275.867 73.543C276.629 73.543 277.23 73.8301 277.672 74.4043C278.117 74.9785 278.34 75.7773 278.34 76.8008V76.9004ZM277.256 76.7773C277.256 76.0625 277.104 75.498 276.799 75.084C276.494 74.6699 276.076 74.4629 275.545 74.4629C274.889 74.4629 274.396 74.7539 274.068 75.3359V78.3652C274.393 78.9434 274.889 79.2324 275.557 79.2324C276.076 79.2324 276.488 79.0273 276.793 78.6172C277.102 78.2031 277.256 77.5898 277.256 76.7773ZM285.078 76.9004C285.078 77.8652 284.857 78.6426 284.416 79.2324C283.975 79.8223 283.377 80.1172 282.623 80.1172C281.854 80.1172 281.248 79.873 280.807 79.3848V82.4375H279.723V73.6602H280.713L280.766 74.3633C281.207 73.8164 281.82 73.543 282.605 73.543C283.367 73.543 283.969 73.8301 284.41 74.4043C284.855 74.9785 285.078 75.7773 285.078 76.8008V76.9004ZM283.994 76.7773C283.994 76.0625 283.842 75.498 283.537 75.084C283.232 74.6699 282.814 74.4629 282.283 74.4629C281.627 74.4629 281.135 74.7539 280.807 75.3359V78.3652C281.131 78.9434 281.627 79.2324 282.295 79.2324C282.814 79.2324 283.227 79.0273 283.531 78.6172C283.84 78.2031 283.994 77.5898 283.994 76.7773ZM291.816 76.9004C291.816 77.8652 291.596 78.6426 291.154 79.2324C290.713 79.8223 290.115 80.1172 289.361 80.1172C288.592 80.1172 287.986 79.873 287.545 79.3848V82.4375H286.461V73.6602H287.451L287.504 74.3633C287.945 73.8164 288.559 73.543 289.344 73.543C290.105 73.543 290.707 73.8301 291.148 74.4043C291.594 74.9785 291.816 75.7773 291.816 76.8008V76.9004ZM290.732 76.7773C290.732 76.0625 290.58 75.498 290.275 75.084C289.971 74.6699 289.553 74.4629 289.021 74.4629C288.365 74.4629 287.873 74.7539 287.545 75.3359V78.3652C287.869 78.9434 288.365 79.2324 289.033 79.2324C289.553 79.2324 289.965 79.0273 290.27 78.6172C290.578 78.2031 290.732 77.5898 290.732 76.7773ZM298.555 76.9004C298.555 77.8652 298.334 78.6426 297.893 79.2324C297.451 79.8223 296.854 80.1172 296.1 80.1172C295.33 80.1172 294.725 79.873 294.283 79.3848V82.4375H293.199V73.6602H294.189L294.242 74.3633C294.684 73.8164 295.297 73.543 296.082 73.543C296.844 73.543 297.445 73.8301 297.887 74.4043C298.332 74.9785 298.555 75.7773 298.555 76.8008V76.9004ZM297.471 76.7773C297.471 76.0625 297.318 75.498 297.014 75.084C296.709 74.6699 296.291 74.4629 295.76 74.4629C295.104 74.4629 294.611 74.7539 294.283 75.3359V78.3652C294.607 78.9434 295.104 79.2324 295.771 79.2324C296.291 79.2324 296.703 79.0273 297.008 78.6172C297.316 78.2031 297.471 77.5898 297.471 76.7773ZM305.293 76.9004C305.293 77.8652 305.072 78.6426 304.631 79.2324C304.189 79.8223 303.592 80.1172 302.838 80.1172C302.068 80.1172 301.463 79.873 301.021 79.3848V82.4375H299.938V73.6602H300.928L300.98 74.3633C301.422 73.8164 302.035 73.543 302.82 73.543C303.582 73.543 304.184 73.8301 304.625 74.4043C305.07 74.9785 305.293 75.7773 305.293 76.8008V76.9004ZM304.209 76.7773C304.209 76.0625 304.057 75.498 303.752 75.084C303.447 74.6699 303.029 74.4629 302.498 74.4629C301.842 74.4629 301.35 74.7539 301.021 75.3359V78.3652C301.346 78.9434 301.842 79.2324 302.51 79.2324C303.029 79.2324 303.441 79.0273 303.746 78.6172C304.055 78.2031 304.209 77.5898 304.209 76.7773ZM312.031 76.9004C312.031 77.8652 311.811 78.6426 311.369 79.2324C310.928 79.8223 310.33 80.1172 309.576 80.1172C308.807 80.1172 308.201 79.873 307.76 79.3848V82.4375H306.676V73.6602H307.666L307.719 74.3633C308.16 73.8164 308.773 73.543 309.559 73.543C310.32 73.543 310.922 73.8301 311.363 74.4043C311.809 74.9785 312.031 75.7773 312.031 76.8008V76.9004ZM310.947 76.7773C310.947 76.0625 310.795 75.498 310.49 75.084C310.186 74.6699 309.768 74.4629 309.236 74.4629C308.58 74.4629 308.088 74.7539 307.76 75.3359V78.3652C308.084 78.9434 308.58 79.2324 309.248 79.2324C309.768 79.2324 310.18 79.0273 310.484 78.6172C310.793 78.2031 310.947 77.5898 310.947 76.7773ZM318.77 76.9004C318.77 77.8652 318.549 78.6426 318.107 79.2324C317.666 79.8223 317.068 80.1172 316.314 80.1172C315.545 80.1172 314.939 79.873 314.498 79.3848V82.4375H313.414V73.6602H314.404L314.457 74.3633C314.898 73.8164 315.512 73.543 316.297 73.543C317.059 73.543 317.66 73.8301 318.102 74.4043C318.547 74.9785 318.77 75.7773 318.77 76.8008V76.9004ZM317.686 76.7773C317.686 76.0625 317.533 75.498 317.229 75.084C316.924 74.6699 316.506 74.4629 315.975 74.4629C315.318 74.4629 314.826 74.7539 314.498 75.3359V78.3652C314.822 78.9434 315.318 79.2324 315.986 79.2324C316.506 79.2324 316.918 79.0273 317.223 78.6172C317.531 78.2031 317.686 77.5898 317.686 76.7773ZM325.508 76.9004C325.508 77.8652 325.287 78.6426 324.846 79.2324C324.404 79.8223 323.807 80.1172 323.053 80.1172C322.283 80.1172 321.678 79.873 321.236 79.3848V82.4375H320.152V73.6602H321.143L321.195 74.3633C321.637 73.8164 322.25 73.543 323.035 73.543C323.797 73.543 324.398 73.8301 324.84 74.4043C325.285 74.9785 325.508 75.7773 325.508 76.8008V76.9004ZM324.424 76.7773C324.424 76.0625 324.271 75.498 323.967 75.084C323.662 74.6699 323.244 74.4629 322.713 74.4629C322.057 74.4629 321.564 74.7539 321.236 75.3359V78.3652C321.561 78.9434 322.057 79.2324 322.725 79.2324C323.244 79.2324 323.656 79.0273 323.961 78.6172C324.27 78.2031 324.424 77.5898 324.424 76.7773ZM332.246 76.9004C332.246 77.8652 332.025 78.6426 331.584 79.2324C331.143 79.8223 330.545 80.1172 329.791 80.1172C329.021 80.1172 328.416 79.873 327.975 79.3848V82.4375H326.891V73.6602H327.881L327.934 74.3633C328.375 73.8164 328.988 73.543 329.773 73.543C330.535 73.543 331.137 73.8301 331.578 74.4043C332.023 74.9785 332.246 75.7773 332.246 76.8008V76.9004ZM331.162 76.7773C331.162 76.0625 331.01 75.498 330.705 75.084C330.4 74.6699 329.982 74.4629 329.451 74.4629C328.795 74.4629 328.303 74.7539 327.975 75.3359V78.3652C328.299 78.9434 328.795 79.2324 329.463 79.2324C329.982 79.2324 330.395 79.0273 330.699 78.6172C331.008 78.2031 331.162 77.5898 331.162 76.7773ZM338.984 76.9004C338.984 77.8652 338.764 78.6426 338.322 79.2324C337.881 79.8223 337.283 80.1172 336.529 80.1172C335.76 80.1172 335.154 79.873 334.713 79.3848V82.4375H333.629V73.6602H334.619L334.672 74.3633C335.113 73.8164 335.727 73.543 336.512 73.543C337.273 73.543 337.875 73.8301 338.316 74.4043C338.762 74.9785 338.984 75.7773 338.984 76.8008V76.9004ZM337.9 76.7773C337.9 76.0625 337.748 75.498 337.443 75.084C337.139 74.6699 336.721 74.4629 336.189 74.4629C335.533 74.4629 335.041 74.7539 334.713 75.3359V78.3652C335.037 78.9434 335.533 79.2324 336.201 79.2324C336.721 79.2324 337.133 79.0273 337.438 78.6172C337.746 78.2031 337.9 77.5898 337.9 76.7773ZM345.723 76.9004C345.723 77.8652 345.502 78.6426 345.061 79.2324C344.619 79.8223 344.021 80.1172 343.268 80.1172C342.498 80.1172 341.893 79.873 341.451 79.3848V82.4375H340.367V73.6602H341.357L341.41 74.3633C341.852 73.8164 342.465 73.543 343.25 73.543C344.012 73.543 344.613 73.8301 345.055 74.4043C345.5 74.9785 345.723 75.7773 345.723 76.8008V76.9004ZM344.639 76.7773C344.639 76.0625 344.486 75.498 344.182 75.084C343.877 74.6699 343.459 74.4629 342.928 74.4629C342.271 74.4629 341.779 74.7539 341.451 75.3359V78.3652C341.775 78.9434 342.271 79.2324 342.939 79.2324C343.459 79.2324 343.871 79.0273 344.176 78.6172C344.484 78.2031 344.639 77.5898 344.639 76.7773ZM352.461 76.9004C352.461 77.8652 352.24 78.6426 351.799 79.2324C351.357 79.8223 350.76 80.1172 350.006 80.1172C349.236 80.1172 348.631 79.873 348.189 79.3848V82.4375H347.105V73.6602H348.096L348.148 74.3633C348.59 73.8164 349.203 73.543 349.988 73.543C350.75 73.543 351.352 73.8301 351.793 74.4043C352.238 74.9785 352.461 75.7773 352.461 76.8008V76.9004ZM351.377 76.7773C351.377 76.0625 351.225 75.498 350.92 75.084C350.615 74.6699 350.197 74.4629 349.666 74.4629C349.01 74.4629 348.518 74.7539 348.189 75.3359V78.3652C348.514 78.9434 349.01 79.2324 349.678 79.2324C350.197 79.2324 350.609 79.0273 350.914 78.6172C351.223 78.2031 351.377 77.5898 351.377 76.7773ZM359.199 76.9004C359.199 77.8652 358.979 78.6426 358.537 79.2324C358.096 79.8223 357.498 80.1172 356.744 80.1172C355.975 80.1172 355.369 79.873 354.928 79.3848V82.4375H353.844V73.6602H354.834L354.887 74.3633C355.328 73.8164 355.941 73.543 356.727 73.543C357.488 73.543 358.09 73.8301 358.531 74.4043C358.977 74.9785 359.199 75.7773 359.199 76.8008V76.9004ZM358.115 76.7773C358.115 76.0625 357.963 75.498 357.658 75.084C357.354 74.6699 356.936 74.4629 356.404 74.4629C355.748 74.4629 355.256 74.7539 354.928 75.3359V78.3652C355.252 78.9434 355.748 79.2324 356.416 79.2324C356.936 79.2324 357.348 79.0273 357.652 78.6172C357.961 78.2031 358.115 77.5898 358.115 76.7773ZM365.938 76.9004C365.938 77.8652 365.717 78.6426 365.275 79.2324C364.834 79.8223 364.236 80.1172 363.482 80.1172C362.713 80.1172 362.107 79.873 361.666 79.3848V82.4375H360.582V73.6602H361.572L361.625 74.3633C362.066 73.8164 362.68 73.543 363.465 73.543C364.227 73.543 364.828 73.8301 365.27 74.4043C365.715 74.9785 365.938 75.7773 365.938 76.8008V76.9004ZM364.854 76.7773C364.854 76.0625 364.701 75.498 364.396 75.084C364.092 74.6699 363.674 74.4629 363.143 74.4629C362.486 74.4629 361.994 74.7539 361.666 75.3359V78.3652C361.99 78.9434 362.486 79.2324 363.154 79.2324C363.674 79.2324 364.086 79.0273 364.391 78.6172C364.699 78.2031 364.854 77.5898 364.854 76.7773ZM372.676 76.9004C372.676 77.8652 372.455 78.6426 372.014 79.2324C371.572 79.8223 370.975 80.1172 370.221 80.1172C369.451 80.1172 368.846 79.873 368.404 79.3848V82.4375H367.32V73.6602H368.311L368.363 74.3633C368.805 73.8164 369.418 73.543 370.203 73.543C370.965 73.543 371.566 73.8301 372.008 74.4043C372.453 74.9785 372.676 75.7773 372.676 76.8008V76.9004ZM371.592 76.7773C371.592 76.0625 371.439 75.498 371.135 75.084C370.83 74.6699 370.412 74.4629 369.881 74.4629C369.225 74.4629 368.732 74.7539 368.404 75.3359V78.3652C368.729 78.9434 369.225 79.2324 369.893 79.2324C370.412 79.2324 370.824 79.0273 371.129 78.6172C371.438 78.2031 371.592 77.5898 371.592 76.7773ZM379.414 76.9004C379.414 77.8652 379.193 78.6426 378.752 79.2324C378.311 79.8223 377.713 80.1172 376.959 80.1172C376.189 80.1172 375.584 79.873 375.143 79.3848V82.4375H374.059V73.6602H375.049L375.102 74.3633C375.543 73.8164 376.156 73.543 376.941 73.543C377.703 73.543 378.305 73.8301 378.746 74.4043C379.191 74.9785 379.414 75.7773 379.414 76.8008V76.9004ZM378.33 76.7773C378.33 76.0625 378.178 75.498 377.873 75.084C377.568 74.6699 377.15 74.4629 376.619 74.4629C375.963 74.4629 375.471 74.7539 375.143 75.3359V78.3652C375.467 78.9434 375.963 79.2324 376.631 79.2324C377.15 79.2324 377.562 79.0273 377.867 78.6172C378.176 78.2031 378.33 77.5898 378.33 76.7773ZM386.152 76.9004C386.152 77.8652 385.932 78.6426 385.49 79.2324C385.049 79.8223 384.451 80.1172 383.697 80.1172C382.928 80.1172 382.322 79.873 381.881 79.3848V82.4375H380.797V73.6602H381.787L381.84 74.3633C382.281 73.8164 382.895 73.543 383.68 73.543C384.441 73.543 385.043 73.8301 385.484 74.4043C385.93 74.9785 386.152 75.7773 386.152 76.8008V76.9004ZM385.068 76.7773C385.068 76.0625 384.916 75.498 384.611 75.084C384.307 74.6699 383.889 74.4629 383.357 74.4629C382.701 74.4629 382.209 74.7539 381.881 75.3359V78.3652C382.205 78.9434 382.701 79.2324 383.369 79.2324C383.889 79.2324 384.301 79.0273 384.605 78.6172C384.914 78.2031 385.068 77.5898 385.068 76.7773ZM392.891 76.9004C392.891 77.8652 392.67 78.6426 392.229 79.2324C391.787 79.8223 391.189 80.1172 390.436 80.1172C389.666 80.1172 389.061 79.873 388.619 79.3848V82.4375H387.535V73.6602H388.525L388.578 74.3633C389.02 73.8164 389.633 73.543 390.418 73.543C391.18 73.543 391.781 73.8301 392.223 74.4043C392.668 74.9785 392.891 75.7773 392.891 76.8008V76.9004ZM391.807 76.7773C391.807 76.0625 391.654 75.498 391.35 75.084C391.045 74.6699 390.627 74.4629 390.096 74.4629C389.439 74.4629 388.947 74.7539 388.619 75.3359V78.3652C388.943 78.9434 389.439 79.2324 390.107 79.2324C390.627 79.2324 391.039 79.0273 391.344 78.6172C391.652 78.2031 391.807 77.5898 391.807 76.7773ZM399.629 76.9004C399.629 77.8652 399.408 78.6426 398.967 79.2324C398.525 79.8223 397.928 80.1172 397.174 80.1172C396.404 80.1172 395.799 79.873 395.357 79.3848V82.4375H394.273V73.6602H395.264L395.316 74.3633C395.758 73.8164 396.371 73.543 397.156 73.543C397.918 73.543 398.52 73.8301 398.961 74.4043C399.406 74.9785 399.629 75.7773 399.629 76.8008V76.9004ZM398.545 76.7773C398.545 76.0625 398.393 75.498 398.088 75.084C397.783 74.6699 397.365 74.4629 396.834 74.4629C396.178 74.4629 395.686 74.7539 395.357 75.3359V78.3652C395.682 78.9434 396.178 79.2324 396.846 79.2324C397.365 79.2324 397.777 79.0273 398.082 78.6172C398.391 78.2031 398.545 77.5898 398.545 76.7773ZM406.367 76.9004C406.367 77.8652 406.146 78.6426 405.705 79.2324C405.264 79.8223 404.666 80.1172 403.912 80.1172C403.143 80.1172 402.537 79.873 402.096 79.3848V82.4375H401.012V73.6602H402.002L402.055 74.3633C402.496 73.8164 403.109 73.543 403.895 73.543C404.656 73.543 405.258 73.8301 405.699 74.4043C406.145 74.9785 406.367 75.7773 406.367 76.8008V76.9004ZM405.283 76.7773C405.283 76.0625 405.131 75.498 404.826 75.084C404.521 74.6699 404.104 74.4629 403.572 74.4629C402.916 74.4629 402.424 74.7539 402.096 75.3359V78.3652C402.42 78.9434 402.916 79.2324 403.584 79.2324C404.104 79.2324 404.516 79.0273 404.82 78.6172C405.129 78.2031 405.283 77.5898 405.283 76.7773ZM413.105 76.9004C413.105 77.8652 412.885 78.6426 412.443 79.2324C412.002 79.8223 411.404 80.1172 410.65 80.1172C409.881 80.1172 409.275 79.873 408.834 79.3848V82.4375H407.75V73.6602H408.74L408.793 74.3633C409.234 73.8164 409.848 73.543 410.633 73.543C411.395 73.543 411.996 73.8301 412.438 74.4043C412.883 74.9785 413.105 75.7773 413.105 76.8008V76.9004ZM412.021 76.7773C412.021 76.0625 411.869 75.498 411.564 75.084C411.26 74.6699 410.842 74.4629 410.311 74.4629C409.654 74.4629 409.162 74.7539 408.834 75.3359V78.3652C409.158 78.9434 409.654 79.2324 410.322 79.2324C410.842 79.2324 411.254 79.0273 411.559 78.6172C411.867 78.2031 412.021 77.5898 412.021 76.7773ZM421.379 80C421.316 79.875 421.266 79.6523 421.227 79.332C420.723 79.8555 420.121 80.1172 419.422 80.1172C418.797 80.1172 418.283 79.9414 417.881 79.5898C417.482 79.2344 417.283 78.7852 417.283 78.2422C417.283 77.582 417.533 77.0703 418.033 76.707C418.537 76.3398 419.244 76.1562 420.154 76.1562H421.209V75.6582C421.209 75.2793 421.096 74.9785 420.869 74.7559C420.643 74.5293 420.309 74.416 419.867 74.416C419.48 74.416 419.156 74.5137 418.895 74.709C418.633 74.9043 418.502 75.1406 418.502 75.418H417.412C417.412 75.1016 417.523 74.7969 417.746 74.5039C417.973 74.207 418.277 73.9727 418.66 73.8008C419.047 73.6289 419.471 73.543 419.932 73.543C420.662 73.543 421.234 73.7266 421.648 74.0938C422.062 74.457 422.277 74.959 422.293 75.5996V78.5176C422.293 79.0996 422.367 79.5625 422.516 79.9062V80H421.379ZM419.58 79.1738C419.92 79.1738 420.242 79.0859 420.547 78.9102C420.852 78.7344 421.072 78.5059 421.209 78.2246V76.9238H420.359C419.031 76.9238 418.367 77.3125 418.367 78.0898C418.367 78.4297 418.48 78.6953 418.707 78.8867C418.934 79.0781 419.225 79.1738 419.58 79.1738ZM427.684 78.3184C427.684 78.0254 427.572 77.7988 427.35 77.6387C427.131 77.4746 426.746 77.334 426.195 77.2168C425.648 77.0996 425.213 76.959 424.889 76.7949C424.568 76.6309 424.33 76.4355 424.174 76.209C424.021 75.9824 423.945 75.7129 423.945 75.4004C423.945 74.8809 424.164 74.4414 424.602 74.082C425.043 73.7227 425.605 73.543 426.289 73.543C427.008 73.543 427.59 73.7285 428.035 74.0996C428.484 74.4707 428.709 74.9453 428.709 75.5234H427.619C427.619 75.2266 427.492 74.9707 427.238 74.7559C426.988 74.541 426.672 74.4336 426.289 74.4336C425.895 74.4336 425.586 74.5195 425.363 74.6914C425.141 74.8633 425.029 75.0879 425.029 75.3652C425.029 75.627 425.133 75.8242 425.34 75.957C425.547 76.0898 425.92 76.2168 426.459 76.3379C427.002 76.459 427.441 76.6035 427.777 76.7715C428.113 76.9395 428.361 77.1426 428.521 77.3809C428.686 77.6152 428.768 77.9023 428.768 78.2422C428.768 78.8086 428.541 79.2637 428.088 79.6074C427.635 79.9473 427.047 80.1172 426.324 80.1172C425.816 80.1172 425.367 80.0273 424.977 79.8477C424.586 79.668 424.279 79.418 424.057 79.0977C423.838 78.7734 423.729 78.4238 423.729 78.0488H424.812C424.832 78.4121 424.977 78.7012 425.246 78.916C425.52 79.127 425.879 79.2324 426.324 79.2324C426.734 79.2324 427.062 79.1504 427.309 78.9863C427.559 78.8184 427.684 78.5957 427.684 78.3184ZM429.916 76.7773C429.916 75.8047 430.146 75.0234 430.607 74.4336C431.068 73.8398 431.672 73.543 432.418 73.543C433.16 73.543 433.748 73.7969 434.182 74.3047V71H435.266V80H434.27L434.217 79.3203C433.783 79.8516 433.18 80.1172 432.406 80.1172C431.672 80.1172 431.072 79.8164 430.607 79.2148C430.146 78.6133 429.916 77.8281 429.916 76.8594V76.7773ZM431 76.9004C431 77.6191 431.148 78.1816 431.445 78.5879C431.742 78.9941 432.152 79.1973 432.676 79.1973C433.363 79.1973 433.865 78.8887 434.182 78.2715V75.3594C433.857 74.7617 433.359 74.4629 432.688 74.4629C432.156 74.4629 431.742 74.668 431.445 75.0781C431.148 75.4883 431 76.0957 431 76.9004ZM437.486 80V74.498H436.484V73.6602H437.486V73.0098C437.486 72.3301 437.668 71.8047 438.031 71.4336C438.395 71.0625 438.908 70.877 439.572 70.877C439.822 70.877 440.07 70.9102 440.316 70.9766L440.258 71.8555C440.074 71.8203 439.879 71.8027 439.672 71.8027C439.32 71.8027 439.049 71.9062 438.857 72.1133C438.666 72.3164 438.57 72.6094 438.57 72.9922V73.6602H439.924V74.498H438.57V80H437.486ZM445.039 80C444.977 79.875 444.926 79.6523 444.887 79.332C444.383 79.8555 443.781 80.1172 443.082 80.1172C442.457 80.1172 441.943 79.9414 441.541 79.5898C441.143 79.2344 440.943 78.7852 440.943 78.2422C440.943 77.582 441.193 77.0703 441.693 76.707C442.197 76.3398 442.904 76.1562 443.814 76.1562H444.869V75.6582C444.869 75.2793 444.756 74.9785 444.529 74.7559C444.303 74.5293 443.969 74.416 443.527 74.416C443.141 74.416 442.816 74.5137 442.555 74.709C442.293 74.9043 442.162 75.1406 442.162 75.418H441.072C441.072 75.1016 441.184 74.7969 441.406 74.5039C441.633 74.207 441.938 73.9727 442.32 73.8008C442.707 73.6289 443.131 73.543 443.592 73.543C444.322 73.543 444.895 73.7266 445.309 74.0938C445.723 74.457 445.938 74.959 445.953 75.5996V78.5176C445.953 79.0996 446.027 79.5625 446.176 79.9062V80H445.039ZM443.24 79.1738C443.58 79.1738 443.902 79.0859 444.207 78.9102C444.512 78.7344 444.732 78.5059 444.869 78.2246V76.9238H444.02C442.691 76.9238 442.027 77.3125 442.027 78.0898C442.027 78.4297 442.141 78.6953 442.367 78.8867C442.594 79.0781 442.885 79.1738 443.24 79.1738ZM451.344 78.3184C451.344 78.0254 451.232 77.7988 451.01 77.6387C450.791 77.4746 450.406 77.334 449.855 77.2168C449.309 77.0996 448.873 76.959 448.549 76.7949C448.229 76.6309 447.99 76.4355 447.834 76.209C447.682 75.9824 447.605 75.7129 447.605 75.4004C447.605 74.8809 447.824 74.4414 448.262 74.082C448.703 73.7227 449.266 73.543 449.949 73.543C450.668 73.543 451.25 73.7285 451.695 74.0996C452.145 74.4707 452.369 74.9453 452.369 75.5234H451.279C451.279 75.2266 451.152 74.9707 450.898 74.7559C450.648 74.541 450.332 74.4336 449.949 74.4336C449.555 74.4336 449.246 74.5195 449.023 74.6914C448.801 74.8633 448.689 75.0879 448.689 75.3652C448.689 75.627 448.793 75.8242 449 75.957C449.207 76.0898 449.58 76.2168 450.119 76.3379C450.662 76.459 451.102 76.6035 451.438 76.7715C451.773 76.9395 452.021 77.1426 452.182 77.3809C452.346 77.6152 452.428 77.9023 452.428 78.2422C452.428 78.8086 452.201 79.2637 451.748 79.6074C451.295 79.9473 450.707 80.1172 449.984 80.1172C449.477 80.1172 449.027 80.0273 448.637 79.8477C448.246 79.668 447.939 79.418 447.717 79.0977C447.498 78.7734 447.389 78.4238 447.389 78.0488H448.473C448.492 78.4121 448.637 78.7012 448.906 78.916C449.18 79.127 449.539 79.2324 449.984 79.2324C450.395 79.2324 450.723 79.1504 450.969 78.9863C451.219 78.8184 451.344 78.5957 451.344 78.3184ZM453.576 76.7773C453.576 75.8047 453.807 75.0234 454.268 74.4336C454.729 73.8398 455.332 73.543 456.078 73.543C456.82 73.543 457.408 73.7969 457.842 74.3047V71H458.926V80H457.93L457.877 79.3203C457.443 79.8516 456.84 80.1172 456.066 80.1172C455.332 80.1172 454.732 79.8164 454.268 79.2148C453.807 78.6133 453.576 77.8281 453.576 76.8594V76.7773ZM454.66 76.9004C454.66 77.6191 454.809 78.1816 455.105 78.5879C455.402 78.9941 455.812 79.1973 456.336 79.1973C457.023 79.1973 457.525 78.8887 457.842 78.2715V75.3594C457.518 74.7617 457.02 74.4629 456.348 74.4629C455.816 74.4629 455.402 74.668 455.105 75.0781C454.809 75.4883 454.66 76.0957 454.66 76.9004ZM461.146 80V74.498H460.145V73.6602H461.146V73.0098C461.146 72.3301 461.328 71.8047 461.691 71.4336C462.055 71.0625 462.568 70.877 463.232 70.877C463.482 70.877 463.73 70.9102 463.977 70.9766L463.918 71.8555C463.734 71.8203 463.539 71.8027 463.332 71.8027C462.98 71.8027 462.709 71.9062 462.518 72.1133C462.326 72.3164 462.23 72.6094 462.23 72.9922V73.6602H463.584V74.498H462.23V80H461.146Z" fill="#0ACF83"/>
</g>
<path d="M443.238 74.4178C443.224 71.7656 444.434 69.7639 446.884 68.2896C445.513 66.3457 443.443 65.2762 440.708 65.0666C438.12 64.8643 435.29 66.5625 434.255 66.5625C433.161 66.5625 430.653 65.1389 428.684 65.1389C424.615 65.2039 420.292 68.3547 420.292 74.7646C420.292 76.658 420.642 78.614 421.342 80.6326C422.275 83.2848 425.644 89.7887 429.158 89.6803C430.996 89.6369 432.294 88.3867 434.685 88.3867C437.004 88.3867 438.207 89.6803 440.256 89.6803C443.8 89.6297 446.848 83.7184 447.737 81.059C442.983 78.8404 443.238 74.5551 443.238 74.4178ZM439.111 62.5518C441.102 60.2104 440.92 58.0785 440.861 57.3125C439.104 57.4137 437.07 58.4977 435.91 59.8346C434.634 61.2654 433.883 63.0359 434.044 65.0305C435.947 65.175 437.682 64.2066 439.111 62.5518Z" fill="#666666"/>
<rect x="486" y="60" width="349" height="32" rx="8" fill="#C4C4C4"/>
<path d="M597.698 79.6602H592.337L591.133 83H589.393L594.279 70.2031H595.756L600.651 83H598.92L597.698 79.6602ZM592.847 78.2715H597.197L595.018 72.2861L592.847 78.2715ZM610.152 78.3506C610.152 79.7979 609.821 80.9639 609.159 81.8486C608.497 82.7334 607.601 83.1758 606.47 83.1758C605.315 83.1758 604.407 82.8096 603.745 82.0771V86.6562H602.119V73.4902H603.604L603.684 74.5449C604.346 73.7246 605.266 73.3145 606.443 73.3145C607.586 73.3145 608.488 73.7451 609.15 74.6064C609.818 75.4678 610.152 76.666 610.152 78.2012V78.3506ZM608.526 78.166C608.526 77.0938 608.298 76.2471 607.841 75.626C607.384 75.0049 606.757 74.6943 605.96 74.6943C604.976 74.6943 604.237 75.1309 603.745 76.0039V80.5479C604.231 81.415 604.976 81.8486 605.978 81.8486C606.757 81.8486 607.375 81.541 607.832 80.9258C608.295 80.3047 608.526 79.3848 608.526 78.166ZM620.26 78.3506C620.26 79.7979 619.929 80.9639 619.267 81.8486C618.604 82.7334 617.708 83.1758 616.577 83.1758C615.423 83.1758 614.515 82.8096 613.853 82.0771V86.6562H612.227V73.4902H613.712L613.791 74.5449C614.453 73.7246 615.373 73.3145 616.551 73.3145C617.693 73.3145 618.596 73.7451 619.258 74.6064C619.926 75.4678 620.26 76.666 620.26 78.2012V78.3506ZM618.634 78.166C618.634 77.0938 618.405 76.2471 617.948 75.626C617.491 75.0049 616.864 74.6943 616.067 74.6943C615.083 74.6943 614.345 75.1309 613.853 76.0039V80.5479C614.339 81.415 615.083 81.8486 616.085 81.8486C616.864 81.8486 617.482 81.541 617.939 80.9258C618.402 80.3047 618.634 79.3848 618.634 78.166ZM624.101 83H622.475V69.5H624.101V83ZM630.657 83.1758C629.368 83.1758 628.319 82.7539 627.511 81.9102C626.702 81.0605 626.298 79.9268 626.298 78.5088V78.21C626.298 77.2666 626.477 76.4258 626.834 75.6875C627.197 74.9434 627.701 74.3633 628.346 73.9473C628.996 73.5254 629.699 73.3145 630.455 73.3145C631.691 73.3145 632.652 73.7217 633.338 74.5361C634.023 75.3506 634.366 76.5166 634.366 78.0342V78.7109H627.924C627.947 79.6484 628.22 80.4072 628.741 80.9873C629.269 81.5615 629.937 81.8486 630.745 81.8486C631.319 81.8486 631.806 81.7314 632.204 81.4971C632.603 81.2627 632.951 80.9521 633.25 80.5654L634.243 81.3389C633.446 82.5635 632.251 83.1758 630.657 83.1758ZM630.455 74.6504C629.799 74.6504 629.248 74.8906 628.803 75.3711C628.357 75.8457 628.082 76.5137 627.977 77.375H632.74V77.252C632.693 76.4258 632.471 75.7871 632.072 75.3359C631.674 74.8789 631.135 74.6504 630.455 74.6504ZM650.811 83H649.114V77.085H642.663V83H640.976V70.2031H642.663V75.7051H649.114V70.2031H650.811V83ZM657.499 83.1758C656.21 83.1758 655.161 82.7539 654.353 81.9102C653.544 81.0605 653.14 79.9268 653.14 78.5088V78.21C653.14 77.2666 653.318 76.4258 653.676 75.6875C654.039 74.9434 654.543 74.3633 655.188 73.9473C655.838 73.5254 656.541 73.3145 657.297 73.3145C658.533 73.3145 659.494 73.7217 660.18 74.5361C660.865 75.3506 661.208 76.5166 661.208 78.0342V78.7109H654.766C654.789 79.6484 655.062 80.4072 655.583 80.9873C656.11 81.5615 656.778 81.8486 657.587 81.8486C658.161 81.8486 658.647 81.7314 659.046 81.4971C659.444 81.2627 659.793 80.9521 660.092 80.5654L661.085 81.3389C660.288 82.5635 659.093 83.1758 657.499 83.1758ZM657.297 74.6504C656.641 74.6504 656.09 74.8906 655.645 75.3711C655.199 75.8457 654.924 76.5137 654.818 77.375H659.582V77.252C659.535 76.4258 659.312 75.7871 658.914 75.3359C658.516 74.8789 657.977 74.6504 657.297 74.6504ZM668.969 83C668.875 82.8125 668.799 82.4785 668.74 81.998C667.984 82.7832 667.082 83.1758 666.033 83.1758C665.096 83.1758 664.325 82.9121 663.722 82.3848C663.124 81.8516 662.825 81.1777 662.825 80.3633C662.825 79.373 663.2 78.6055 663.95 78.0605C664.706 77.5098 665.767 77.2344 667.132 77.2344H668.714V76.4873C668.714 75.9189 668.544 75.4678 668.204 75.1338C667.864 74.7939 667.363 74.624 666.701 74.624C666.121 74.624 665.635 74.7705 665.242 75.0635C664.85 75.3564 664.653 75.7109 664.653 76.127H663.019C663.019 75.6523 663.186 75.1953 663.52 74.7559C663.859 74.3105 664.316 73.959 664.891 73.7012C665.471 73.4434 666.106 73.3145 666.798 73.3145C667.894 73.3145 668.752 73.5898 669.373 74.1406C669.994 74.6855 670.316 75.4385 670.34 76.3994V80.7764C670.34 81.6494 670.451 82.3438 670.674 82.8594V83H668.969ZM666.271 81.7607C666.78 81.7607 667.264 81.6289 667.721 81.3652C668.178 81.1016 668.509 80.7588 668.714 80.3369V78.3857H667.439C665.447 78.3857 664.451 78.9688 664.451 80.1348C664.451 80.6445 664.621 81.043 664.961 81.3301C665.301 81.6172 665.737 81.7607 666.271 81.7607ZM674.655 83H673.029V69.5H674.655V83ZM679.472 71.1875V73.4902H681.247V74.7471H679.472V80.6445C679.472 81.0254 679.551 81.3125 679.709 81.5059C679.867 81.6934 680.137 81.7871 680.518 81.7871C680.705 81.7871 680.963 81.752 681.291 81.6816V83C680.863 83.1172 680.447 83.1758 680.043 83.1758C679.316 83.1758 678.769 82.9561 678.399 82.5166C678.03 82.0771 677.846 81.4531 677.846 80.6445V74.7471H676.114V73.4902H677.846V71.1875H679.472ZM684.78 74.6416C685.501 73.7568 686.438 73.3145 687.593 73.3145C689.603 73.3145 690.616 74.4482 690.634 76.7158V83H689.008V76.707C689.002 76.0215 688.844 75.5146 688.533 75.1865C688.229 74.8584 687.751 74.6943 687.101 74.6943C686.573 74.6943 686.11 74.835 685.712 75.1162C685.313 75.3975 685.003 75.7666 684.78 76.2236V83H683.154V69.5H684.78V74.6416ZM701.04 77.0498L699.476 78.6758V83H697.788V70.2031H699.476V76.5312L705.162 70.2031H707.201L702.165 75.8545L707.597 83H705.575L701.04 77.0498ZM710.585 83H708.959V73.4902H710.585V83ZM708.827 70.9678C708.827 70.7041 708.906 70.4814 709.064 70.2998C709.229 70.1182 709.469 70.0273 709.785 70.0273C710.102 70.0273 710.342 70.1182 710.506 70.2998C710.67 70.4814 710.752 70.7041 710.752 70.9678C710.752 71.2314 710.67 71.4512 710.506 71.627C710.342 71.8027 710.102 71.8906 709.785 71.8906C709.469 71.8906 709.229 71.8027 709.064 71.627C708.906 71.4512 708.827 71.2314 708.827 70.9678ZM715.401 71.1875V73.4902H717.177V74.7471H715.401V80.6445C715.401 81.0254 715.48 81.3125 715.639 81.5059C715.797 81.6934 716.066 81.7871 716.447 81.7871C716.635 81.7871 716.893 81.752 717.221 81.6816V83C716.793 83.1172 716.377 83.1758 715.973 83.1758C715.246 83.1758 714.698 82.9561 714.329 82.5166C713.96 82.0771 713.775 81.4531 713.775 80.6445V74.7471H712.044V73.4902H713.775V71.1875H715.401Z" fill="black"/>
<path d="M866.753 59.6635L883.221 72.8962C884.727 74.1514 884.727 76.0867 883.221 77.2896L866.753 90.5223C865.195 91.7776 864 91.15 864 89.2148V60.971C864 58.9835 865.195 58.4082 866.753 59.6635Z" fill="#691E83"/>
<rect width="1120" height="80" transform="translate(151 119)" fill="white"/>
<rect width="280" height="40" transform="translate(151 119)" fill="white"/>
<path d="M151 123C151 120.791 152.791 119 155 119H431V159H151V123Z" fill="#E5E5E5" stroke="#828282"/>
<path d="M165.494 143C168.597 143 170.476 141.081 170.476 137.899C170.476 134.727 168.597 132.818 165.524 132.818H161.885V143H165.494ZM164.038 141.156V134.663H165.41C167.319 134.663 168.328 135.637 168.328 137.899C168.328 140.171 167.319 141.156 165.405 141.156H164.038ZM174.208 143.144C175.337 143.144 176.068 142.652 176.441 141.941H176.5V143H178.509V137.849C178.509 136.03 176.968 135.264 175.267 135.264C173.438 135.264 172.235 136.139 171.941 137.531L173.9 137.69C174.044 137.183 174.497 136.81 175.257 136.81C175.978 136.81 176.391 137.173 176.391 137.8V137.83C176.391 138.322 175.869 138.386 174.541 138.516C173.03 138.655 171.673 139.162 171.673 140.867C171.673 142.379 172.752 143.144 174.208 143.144ZM174.815 141.683C174.164 141.683 173.696 141.379 173.696 140.798C173.696 140.201 174.188 139.908 174.934 139.803C175.396 139.739 176.152 139.629 176.406 139.46V140.271C176.406 141.071 175.744 141.683 174.815 141.683ZM184.214 135.364H182.777V133.534H180.659V135.364H179.615V136.955H180.659V140.932C180.649 142.428 181.668 143.169 183.204 143.104C183.751 143.085 184.139 142.975 184.353 142.906L184.02 141.33C183.915 141.349 183.692 141.399 183.493 141.399C183.07 141.399 182.777 141.24 182.777 140.653V136.955H184.214V135.364ZM188.991 143.149C190.881 143.149 192.153 142.229 192.452 140.812L190.493 140.683C190.279 141.265 189.732 141.568 189.026 141.568C187.967 141.568 187.296 140.867 187.296 139.729V139.724H192.496V139.142C192.496 136.547 190.925 135.264 188.907 135.264C186.66 135.264 185.203 136.86 185.203 139.217C185.203 141.638 186.64 143.149 188.991 143.149ZM187.296 138.411C187.341 137.541 188.002 136.845 188.942 136.845C189.861 136.845 190.498 137.501 190.503 138.411H187.296Z" fill="black"/>
<rect width="280" height="40" transform="translate(431 119)" fill="white"/>
<rect x="431" y="119" width="280" height="40" fill="#E5E5E5" stroke="#828282"/>
<path d="M441.497 134.593H444.614V143H446.742V134.593H449.859V132.818H441.497V134.593ZM451.629 145.864C453.205 145.864 454.04 145.058 454.473 143.825L457.441 135.374L455.199 135.364L453.603 140.972H453.523L451.942 135.364H449.715L452.455 143.219L452.33 143.542C452.052 144.258 451.52 144.293 450.774 144.064L450.297 145.645C450.6 145.774 451.092 145.864 451.629 145.864ZM458.525 145.864H460.643V141.777H460.707C461.001 142.413 461.642 143.124 462.875 143.124C464.615 143.124 465.972 141.747 465.972 139.192C465.972 136.567 464.555 135.264 462.88 135.264C461.602 135.264 460.991 136.025 460.707 136.646H460.613V135.364H458.525V145.864ZM460.598 139.182C460.598 137.82 461.175 136.95 462.204 136.95C463.253 136.95 463.81 137.859 463.81 139.182C463.81 140.514 463.243 141.439 462.204 141.439C461.185 141.439 460.598 140.544 460.598 139.182ZM470.864 143.149C472.754 143.149 474.026 142.229 474.325 140.812L472.366 140.683C472.152 141.265 471.605 141.568 470.899 141.568C469.84 141.568 469.169 140.867 469.169 139.729V139.724H474.369V139.142C474.369 136.547 472.798 135.264 470.78 135.264C468.533 135.264 467.076 136.86 467.076 139.217C467.076 141.638 468.513 143.149 470.864 143.149ZM469.169 138.411C469.214 137.541 469.875 136.845 470.815 136.845C471.734 136.845 472.371 137.501 472.376 138.411H469.169ZM480.186 132.341H478.362L475.08 144.531H476.905L480.186 132.341ZM484.856 143C487.958 143 489.837 141.081 489.837 137.899C489.837 134.727 487.958 132.818 484.885 132.818H481.246V143H484.856ZM483.399 141.156V134.663H484.771C486.68 134.663 487.689 135.637 487.689 137.899C487.689 140.171 486.68 141.156 484.766 141.156H483.399ZM494.872 143.149C496.761 143.149 498.034 142.229 498.332 140.812L496.374 140.683C496.16 141.265 495.613 141.568 494.907 141.568C493.848 141.568 493.177 140.867 493.177 139.729V139.724H498.377V139.142C498.377 136.547 496.806 135.264 494.788 135.264C492.54 135.264 491.084 136.86 491.084 139.217C491.084 141.638 492.521 143.149 494.872 143.149ZM493.177 138.411C493.222 137.541 493.883 136.845 494.822 136.845C495.742 136.845 496.379 137.501 496.384 138.411H493.177ZM506.113 137.541C505.924 136.134 504.79 135.264 502.862 135.264C500.908 135.264 499.62 136.169 499.625 137.641C499.62 138.784 500.341 139.525 501.832 139.823L503.155 140.087C503.821 140.221 504.124 140.464 504.134 140.847C504.124 141.3 503.632 141.623 502.891 141.623C502.136 141.623 501.634 141.3 501.504 140.678L499.421 140.788C499.62 142.249 500.863 143.149 502.886 143.149C504.865 143.149 506.282 142.14 506.287 140.634C506.282 139.53 505.561 138.869 504.08 138.565L502.697 138.287C501.987 138.133 501.723 137.889 501.728 137.521C501.723 137.064 502.24 136.766 502.896 136.766C503.632 136.766 504.07 137.168 504.174 137.661L506.113 137.541ZM511.071 143.149C513.104 143.149 514.382 141.956 514.481 140.201H512.483C512.358 141.016 511.822 141.474 511.096 141.474C510.106 141.474 509.465 140.643 509.465 139.182C509.465 137.74 510.111 136.915 511.096 136.915C511.871 136.915 512.368 137.427 512.483 138.188H514.481C514.392 136.423 513.055 135.264 511.061 135.264C508.744 135.264 507.312 136.87 507.312 139.212C507.312 141.533 508.719 143.149 511.071 143.149ZM515.837 143H517.955V138.68C517.955 137.74 518.641 137.094 519.576 137.094C519.869 137.094 520.272 137.143 520.471 137.208V135.329C520.282 135.284 520.018 135.254 519.805 135.254C518.95 135.254 518.249 135.751 517.97 136.696H517.891V135.364H515.837V143ZM521.566 143H523.684V135.364H521.566V143ZM522.63 134.379C523.261 134.379 523.778 133.897 523.778 133.305C523.778 132.719 523.261 132.237 522.63 132.237C522.003 132.237 521.486 132.719 521.486 133.305C521.486 133.897 522.003 134.379 522.63 134.379ZM525.38 145.864H527.498V141.777H527.563C527.856 142.413 528.498 143.124 529.73 143.124C531.471 143.124 532.828 141.747 532.828 139.192C532.828 136.567 531.411 135.264 529.735 135.264C528.458 135.264 527.846 136.025 527.563 136.646H527.468V135.364H525.38V145.864ZM527.453 139.182C527.453 137.82 528.03 136.95 529.059 136.95C530.108 136.95 530.665 137.859 530.665 139.182C530.665 140.514 530.098 141.439 529.059 141.439C528.04 141.439 527.453 140.544 527.453 139.182ZM538.301 135.364H536.865V133.534H534.747V135.364H533.703V136.955H534.747V140.932C534.737 142.428 535.756 143.169 537.292 143.104C537.839 143.085 538.227 142.975 538.441 142.906L538.108 141.33C538.003 141.349 537.779 141.399 537.581 141.399C537.158 141.399 536.865 141.24 536.865 140.653V136.955H538.301V135.364ZM539.681 143H541.799V135.364H539.681V143ZM540.745 134.379C541.376 134.379 541.893 133.897 541.893 133.305C541.893 132.719 541.376 132.237 540.745 132.237C540.119 132.237 539.602 132.719 539.602 133.305C539.602 133.897 540.119 134.379 540.745 134.379ZM546.946 143.149C549.263 143.149 550.704 141.563 550.704 139.212C550.704 136.845 549.263 135.264 546.946 135.264C544.629 135.264 543.187 136.845 543.187 139.212C543.187 141.563 544.629 143.149 546.946 143.149ZM546.956 141.509C545.887 141.509 545.34 140.529 545.34 139.197C545.34 137.864 545.887 136.88 546.956 136.88C548.005 136.88 548.552 137.864 548.552 139.197C548.552 140.529 548.005 141.509 546.956 141.509ZM554.199 138.585C554.204 137.601 554.791 137.024 555.646 137.024C556.496 137.024 557.008 137.581 557.003 138.516V143H559.121V138.138C559.121 136.358 558.077 135.264 556.486 135.264C555.353 135.264 554.532 135.821 554.189 136.711H554.1V135.364H552.081V143H554.199V138.585Z" fill="black"/>
<rect width="280" height="40" transform="translate(711 119)" fill="white"/>
<rect x="711" y="119" width="280" height="40" fill="#E5E5E5" stroke="#828282"/>
<path d="M721.497 134.593H724.614V143H726.742V134.593H729.859V132.818H721.497V134.593ZM733.315 138.585C733.32 137.601 733.921 137.024 734.786 137.024C735.646 137.024 736.153 137.576 736.148 138.516V143H738.266V138.138C738.271 136.348 737.217 135.264 735.626 135.264C734.468 135.264 733.692 135.811 733.344 136.711H733.255V132.818H731.197V143H733.315V138.585ZM739.933 143H742.051V138.68C742.051 137.74 742.737 137.094 743.672 137.094C743.965 137.094 744.368 137.143 744.567 137.208V135.329C744.378 135.284 744.114 135.254 743.9 135.254C743.045 135.254 742.344 135.751 742.066 136.696H741.986V135.364H739.933V143ZM748.786 143.149C750.675 143.149 751.948 142.229 752.246 140.812L750.288 140.683C750.074 141.265 749.527 141.568 748.821 141.568C747.762 141.568 747.091 140.867 747.091 139.729V139.724H752.291V139.142C752.291 136.547 750.72 135.264 748.702 135.264C746.455 135.264 744.998 136.86 744.998 139.217C744.998 141.638 746.435 143.149 748.786 143.149ZM747.091 138.411C747.136 137.541 747.797 136.845 748.737 136.845C749.656 136.845 750.293 137.501 750.298 138.411H747.091ZM755.851 143.144C756.979 143.144 757.71 142.652 758.083 141.941H758.143V143H760.151V137.849C760.151 136.03 758.61 135.264 756.91 135.264C755.08 135.264 753.877 136.139 753.584 137.531L755.543 137.69C755.687 137.183 756.139 136.81 756.9 136.81C757.621 136.81 758.033 137.173 758.033 137.8V137.83C758.033 138.322 757.511 138.386 756.184 138.516C754.673 138.655 753.315 139.162 753.315 140.867C753.315 142.379 754.394 143.144 755.851 143.144ZM756.457 141.683C755.806 141.683 755.339 141.379 755.339 140.798C755.339 140.201 755.831 139.908 756.577 139.803C757.039 139.739 757.795 139.629 758.048 139.46V140.271C758.048 141.071 757.387 141.683 756.457 141.683ZM765.856 135.364H764.419V133.534H762.301V135.364H761.257V136.955H762.301V140.932C762.292 142.428 763.311 143.169 764.847 143.104C765.394 143.085 765.782 142.975 765.995 142.906L765.662 141.33C765.558 141.349 765.334 141.399 765.135 141.399C764.713 141.399 764.419 141.24 764.419 140.653V136.955H765.856V135.364ZM770.516 143H777.034V141.225H772.669V132.818H770.516V143ZM781.9 143.149C783.789 143.149 785.061 142.229 785.36 140.812L783.401 140.683C783.187 141.265 782.64 141.568 781.934 141.568C780.875 141.568 780.204 140.867 780.204 139.729V139.724H785.404V139.142C785.404 136.547 783.833 135.264 781.815 135.264C779.568 135.264 778.111 136.86 778.111 139.217C778.111 141.638 779.548 143.149 781.9 143.149ZM780.204 138.411C780.249 137.541 780.91 136.845 781.85 136.845C782.77 136.845 783.406 137.501 783.411 138.411H780.204ZM793.687 135.364H791.445L789.864 140.827H789.784L788.199 135.364H785.961L788.631 143H791.017L793.687 135.364ZM797.991 143.149C799.881 143.149 801.153 142.229 801.452 140.812L799.493 140.683C799.279 141.265 798.732 141.568 798.026 141.568C796.967 141.568 796.296 140.867 796.296 139.729V139.724H801.496V139.142C801.496 136.547 799.925 135.264 797.907 135.264C795.66 135.264 794.203 136.86 794.203 139.217C794.203 141.638 795.64 143.149 797.991 143.149ZM796.296 138.411C796.341 137.541 797.002 136.845 797.942 136.845C798.861 136.845 799.498 137.501 799.503 138.411H796.296ZM804.996 132.818H802.878V143H804.996V132.818Z" fill="black"/>
<rect width="280" height="40" transform="translate(991 119)" fill="white"/>
<path d="M991 119H1267C1269.21 119 1271 120.791 1271 123V159H991V119Z" fill="#E5E5E5" stroke="#828282"/>
<path d="M1003.64 143L1004.4 140.678H1008.07L1008.83 143H1011.13L1007.62 132.818H1004.85L1001.33 143H1003.64ZM1004.94 138.998L1006.2 135.145H1006.27L1007.53 138.998H1004.94ZM1015.41 143.149C1017.45 143.149 1018.72 141.956 1018.82 140.201H1016.82C1016.7 141.016 1016.16 141.474 1015.44 141.474C1014.45 141.474 1013.81 140.643 1013.81 139.182C1013.81 137.74 1014.45 136.915 1015.44 136.915C1016.21 136.915 1016.71 137.427 1016.82 138.188H1018.82C1018.73 136.423 1017.4 135.264 1015.4 135.264C1013.09 135.264 1011.65 136.87 1011.65 139.212C1011.65 141.533 1013.06 143.149 1015.41 143.149ZM1024.24 135.364H1022.8V133.534H1020.69V135.364H1019.64V136.955H1020.69V140.932C1020.68 142.428 1021.7 143.169 1023.23 143.104C1023.78 143.085 1024.17 142.975 1024.38 142.906L1024.05 141.33C1023.94 141.349 1023.72 141.399 1023.52 141.399C1023.1 141.399 1022.8 141.24 1022.8 140.653V136.955H1024.24V135.364ZM1025.62 143H1027.74V135.364H1025.62V143ZM1026.68 134.379C1027.32 134.379 1027.83 133.897 1027.83 133.305C1027.83 132.719 1027.32 132.237 1026.68 132.237C1026.06 132.237 1025.54 132.719 1025.54 133.305C1025.54 133.897 1026.06 134.379 1026.68 134.379ZM1032.89 143.149C1035.2 143.149 1036.64 141.563 1036.64 139.212C1036.64 136.845 1035.2 135.264 1032.89 135.264C1030.57 135.264 1029.13 136.845 1029.13 139.212C1029.13 141.563 1030.57 143.149 1032.89 143.149ZM1032.9 141.509C1031.83 141.509 1031.28 140.529 1031.28 139.197C1031.28 137.864 1031.83 136.88 1032.9 136.88C1033.94 136.88 1034.49 137.864 1034.49 139.197C1034.49 140.529 1033.94 141.509 1032.9 141.509ZM1040.14 138.585C1040.14 137.601 1040.73 137.024 1041.59 137.024C1042.44 137.024 1042.95 137.581 1042.94 138.516V143H1045.06V138.138C1045.06 136.358 1044.02 135.264 1042.43 135.264C1041.29 135.264 1040.47 135.821 1040.13 136.711H1040.04V135.364H1038.02V143H1040.14V138.585Z" fill="black"/>
<rect width="280" height="40" transform="translate(151 159)" fill="white"/>
<path d="M151 159H431V199H155C152.791 199 151 197.209 151 195V159Z" fill="white" stroke="#828282"/>
<path d="M161.815 180.912H166.608V183H167.781V180.912H169.173V179.818H167.781V172.818H166.29L161.815 179.898V180.912ZM166.608 179.818H163.148V179.739L166.528 174.389H166.608V179.818ZM174.656 172.341H173.582L170.301 184.531H171.374L174.656 172.341ZM179.606 172.818H178.373L175.828 174.509V175.761L178.314 174.111H178.373V183H179.606V172.818ZM185.975 183.139C187.949 183.139 189.415 181.901 189.415 180.236C189.415 178.943 188.65 178.004 187.367 177.79V177.71C188.396 177.397 189.037 176.552 189.037 175.403C189.037 173.962 187.899 172.679 186.015 172.679C184.255 172.679 182.793 173.763 182.733 175.364H183.926C183.971 174.349 184.936 173.753 185.995 173.753C187.118 173.753 187.844 174.434 187.844 175.463C187.844 176.537 187.004 177.233 185.796 177.233H184.98V178.327H185.796C187.342 178.327 188.202 179.112 188.202 180.236C188.202 181.315 187.262 182.045 185.955 182.045C184.777 182.045 183.842 181.439 183.767 180.455H182.515C182.589 182.055 184.001 183.139 185.975 183.139ZM195.068 172.341H193.994L190.713 184.531H191.787L195.068 172.341ZM196.439 183H202.862V181.906H198.129V181.827L200.416 179.381C202.166 177.506 202.683 176.631 202.683 175.503C202.683 173.932 201.41 172.679 199.621 172.679C197.836 172.679 196.479 173.892 196.479 175.682H197.652C197.652 174.523 198.403 173.753 199.581 173.753C200.684 173.753 201.53 174.429 201.53 175.503C201.53 176.442 200.978 177.138 199.8 178.426L196.439 182.105V183ZM208.236 183.139C210.483 183.139 211.776 181.235 211.776 177.909C211.776 174.608 210.464 172.679 208.236 172.679C206.009 172.679 204.697 174.608 204.697 177.909C204.697 181.235 205.989 183.139 208.236 183.139ZM208.236 182.045C206.755 182.045 205.89 180.559 205.89 177.909C205.89 175.264 206.765 173.753 208.236 173.753C209.708 173.753 210.583 175.264 210.583 177.909C210.583 180.559 209.718 182.045 208.236 182.045ZM213.665 183H220.089V181.906H215.356V181.827L217.643 179.381C219.393 177.506 219.91 176.631 219.91 175.503C219.91 173.932 218.637 172.679 216.847 172.679C215.062 172.679 213.705 173.892 213.705 175.682H214.878C214.878 174.523 215.629 173.753 216.807 173.753C217.911 173.753 218.756 174.429 218.756 175.503C218.756 176.442 218.204 177.138 217.026 178.426L213.665 182.105V183ZM225.721 172.818H224.488L221.943 174.509V175.761L224.429 174.111H224.488V183H225.721V172.818Z" fill="black"/>
<rect width="280" height="40" transform="translate(431 159)" fill="white"/>
<rect x="431" y="159" width="280" height="40" fill="white" stroke="#828282"/>
<path d="M445.494 183.139C447.468 183.139 448.935 181.901 448.935 180.236C448.935 178.943 448.169 178.004 446.886 177.79V177.71C447.915 177.397 448.557 176.552 448.557 175.403C448.557 173.962 447.418 172.679 445.534 172.679C443.774 172.679 442.312 173.763 442.253 175.364H443.446C443.491 174.349 444.455 173.753 445.514 173.753C446.638 173.753 447.364 174.434 447.364 175.463C447.364 176.537 446.523 177.233 445.315 177.233H444.5V178.327H445.315C446.862 178.327 447.722 179.112 447.722 180.236C447.722 181.315 446.782 182.045 445.474 182.045C444.296 182.045 443.362 181.439 443.287 180.455H442.034C442.109 182.055 443.521 183.139 445.494 183.139ZM450.988 183H452.161V178.168C452.161 177.134 452.977 176.378 454.09 176.378C454.403 176.378 454.727 176.438 454.806 176.457V175.264C454.672 175.254 454.364 175.244 454.19 175.244C453.275 175.244 452.479 175.761 452.201 176.517H452.121V175.364H450.988V183ZM458.848 183.159C460.32 183.159 460.817 182.244 461.075 181.827H461.214V183H462.348V172.818H461.175V176.577H461.075C460.817 176.179 460.359 175.264 458.868 175.264C456.939 175.264 455.607 176.795 455.607 179.202C455.607 181.628 456.939 183.159 458.848 183.159ZM459.007 182.105C457.536 182.105 456.78 180.812 456.78 179.182C456.78 177.571 457.516 176.318 459.007 176.318C460.439 176.318 461.195 177.472 461.195 179.182C461.195 180.912 460.419 182.105 459.007 182.105ZM468.756 183H469.989V179.281H472.217C474.588 179.281 475.657 177.839 475.657 176.04C475.657 174.24 474.588 172.818 472.197 172.818H468.756V183ZM469.989 178.188V173.912H472.157C473.812 173.912 474.444 174.817 474.444 176.04C474.444 177.263 473.812 178.188 472.177 178.188H469.989ZM479.731 183.179C481.064 183.179 481.76 182.463 481.998 181.966H482.058V183H483.231V177.969C483.231 175.543 481.382 175.264 480.407 175.264C479.254 175.264 477.941 175.662 477.345 177.054L478.458 177.452C478.717 176.895 479.328 176.298 480.447 176.298C481.526 176.298 482.058 176.87 482.058 177.849V177.889C482.058 178.456 481.481 178.406 480.089 178.585C478.672 178.769 477.126 179.082 477.126 180.832C477.126 182.324 478.279 183.179 479.731 183.179ZM479.91 182.125C478.975 182.125 478.299 181.707 478.299 180.892C478.299 179.997 479.115 179.719 480.029 179.599C480.527 179.54 481.859 179.401 482.058 179.162V180.236C482.058 181.19 481.302 182.125 479.91 182.125ZM485.373 183H486.546V178.168C486.546 177.134 487.361 176.378 488.475 176.378C488.788 176.378 489.111 176.438 489.191 176.457V175.264C489.057 175.254 488.748 175.244 488.574 175.244C487.66 175.244 486.864 175.761 486.586 176.517H486.506V175.364H485.373V183ZM494.381 175.364H492.751V173.534H491.577V175.364H490.424V176.358H491.577V181.131C491.577 182.463 492.651 183.099 493.645 183.099C494.083 183.099 494.361 183.02 494.52 182.96L494.282 181.906C494.182 181.926 494.023 181.966 493.765 181.966C493.248 181.966 492.751 181.807 492.751 180.812V176.358H494.381V175.364ZM496.902 185.864C497.961 185.864 498.706 185.302 499.149 184.114L502.4 175.384L501.118 175.364L499.01 181.449H498.93L496.822 175.364H495.55L498.373 183.04L498.155 183.636C497.727 184.8 497.2 184.909 496.345 184.69L496.047 185.724C496.166 185.784 496.504 185.864 496.902 185.864ZM511.191 183C514.294 183 516.044 181.071 516.044 177.889C516.044 174.727 514.294 172.818 511.331 172.818H508.049V183H511.191ZM509.282 181.906V173.912H511.251C513.637 173.912 514.85 175.423 514.85 177.889C514.85 180.375 513.637 181.906 511.112 181.906H509.282ZM520.2 183.179C521.532 183.179 522.228 182.463 522.467 181.966H522.527V183H523.7V177.969C523.7 175.543 521.85 175.264 520.876 175.264C519.723 175.264 518.41 175.662 517.814 177.054L518.927 177.452C519.186 176.895 519.797 176.298 520.916 176.298C521.995 176.298 522.527 176.87 522.527 177.849V177.889C522.527 178.456 521.95 178.406 520.558 178.585C519.141 178.769 517.595 179.082 517.595 180.832C517.595 182.324 518.748 183.179 520.2 183.179ZM520.379 182.125C519.444 182.125 518.768 181.707 518.768 180.892C518.768 179.997 519.583 179.719 520.498 179.599C520.995 179.54 522.328 179.401 522.527 179.162V180.236C522.527 181.19 521.771 182.125 520.379 182.125ZM529.162 175.364H527.532V173.534H526.358V175.364H525.205V176.358H526.358V181.131C526.358 182.463 527.432 183.099 528.427 183.099C528.864 183.099 529.143 183.02 529.302 182.96L529.063 181.906C528.964 181.926 528.805 181.966 528.546 181.966C528.029 181.966 527.532 181.807 527.532 180.812V176.358H529.162V175.364ZM533.175 183.179C534.507 183.179 535.203 182.463 535.442 181.966H535.501V183H536.675V177.969C536.675 175.543 534.825 175.264 533.851 175.264C532.697 175.264 531.385 175.662 530.788 177.054L531.902 177.452C532.16 176.895 532.772 176.298 533.89 176.298C534.969 176.298 535.501 176.87 535.501 177.849V177.889C535.501 178.456 534.925 178.406 533.532 178.585C532.116 178.769 530.569 179.082 530.569 180.832C530.569 182.324 531.723 183.179 533.175 183.179ZM533.354 182.125C532.419 182.125 531.743 181.707 531.743 180.892C531.743 179.997 532.558 179.719 533.473 179.599C533.97 179.54 535.302 179.401 535.501 179.162V180.236C535.501 181.19 534.746 182.125 533.354 182.125ZM544.146 172.818H542.913V183H544.146V172.818ZM551.868 177.074C551.5 175.99 550.675 175.264 549.163 175.264C547.552 175.264 546.359 176.179 546.359 177.472C546.359 178.526 546.986 179.232 548.388 179.56L549.66 179.858C550.431 180.037 550.794 180.405 550.794 180.932C550.794 181.588 550.098 182.125 549.004 182.125C548.045 182.125 547.443 181.712 547.234 180.892L546.121 181.17C546.394 182.468 547.463 183.159 549.024 183.159C550.799 183.159 552.007 182.19 552.007 180.872C552.007 179.808 551.341 179.137 549.979 178.804L548.845 178.526C547.94 178.302 547.532 177.999 547.532 177.412C547.532 176.756 548.229 176.278 549.163 176.278C550.187 176.278 550.61 176.845 550.814 177.372L551.868 177.074ZM559.182 177.074C558.814 175.99 557.989 175.264 556.478 175.264C554.867 175.264 553.674 176.179 553.674 177.472C553.674 178.526 554.3 179.232 555.702 179.56L556.975 179.858C557.745 180.037 558.108 180.405 558.108 180.932C558.108 181.588 557.412 182.125 556.319 182.125C555.359 182.125 554.757 181.712 554.549 180.892L553.435 181.17C553.708 182.468 554.777 183.159 556.338 183.159C558.113 183.159 559.321 182.19 559.321 180.872C559.321 179.808 558.655 179.137 557.293 178.804L556.159 178.526C555.255 178.302 554.847 177.999 554.847 177.412C554.847 176.756 555.543 176.278 556.478 176.278C557.502 176.278 557.924 176.845 558.128 177.372L559.182 177.074ZM565.9 179.878C565.9 181.31 564.806 181.966 563.931 181.966C562.957 181.966 562.261 181.25 562.261 180.136V175.364H561.088V180.216C561.088 182.165 562.122 183.099 563.553 183.099C564.707 183.099 565.463 182.483 565.82 181.707H565.9V183H567.073V175.364H565.9V179.878ZM572.424 183.159C573.975 183.159 575.109 182.384 575.467 181.23L574.333 180.912C574.035 181.707 573.344 182.105 572.424 182.105C571.047 182.105 570.097 181.215 570.043 179.58H575.586V179.082C575.586 176.239 573.896 175.264 572.305 175.264C570.237 175.264 568.864 176.895 568.864 179.241C568.864 181.588 570.217 183.159 572.424 183.159ZM570.043 178.565C570.122 177.377 570.962 176.318 572.305 176.318C573.577 176.318 574.393 177.273 574.393 178.565H570.043Z" fill="black"/>
<rect width="280" height="40" transform="translate(711 159)" fill="white"/>
<rect x="711" y="159" width="280" height="40" fill="white" stroke="#828282"/>
<path d="M722.233 183H728.199V181.906H723.466V172.818H722.233V183ZM733.051 183.159C735.119 183.159 736.511 181.588 736.511 179.222C736.511 176.835 735.119 175.264 733.051 175.264C730.983 175.264 729.591 176.835 729.591 179.222C729.591 181.588 730.983 183.159 733.051 183.159ZM733.051 182.105C731.48 182.105 730.764 180.753 730.764 179.222C730.764 177.69 731.48 176.318 733.051 176.318C734.622 176.318 735.338 177.69 735.338 179.222C735.338 180.753 734.622 182.105 733.051 182.105ZM739.773 183H740.926L742.597 177.134H742.716L744.386 183H745.54L747.866 175.364H746.634L744.983 181.19H744.903L743.293 175.364H742.04L740.409 181.21H740.33L738.679 175.364H737.446L739.773 183Z" fill="black"/>
<rect width="280" height="40" transform="translate(991 159)" fill="white"/>
<path d="M991 159H1271V195C1271 197.209 1269.21 199 1267 199H991V159Z" fill="white" stroke="#828282"/>
<path d="M1003.47 172.818H1002.23V183H1003.47V172.818ZM1006.95 178.406C1006.95 177.074 1007.78 176.318 1008.9 176.318C1009.99 176.318 1010.65 177.029 1010.65 178.227V183H1011.82V178.148C1011.82 176.199 1010.79 175.264 1009.24 175.264C1008.09 175.264 1007.37 175.781 1007.01 176.557H1006.91V175.364H1005.78V183H1006.95V178.406ZM1019.38 177.074C1019.01 175.99 1018.18 175.264 1016.67 175.264C1015.06 175.264 1013.87 176.179 1013.87 177.472C1013.87 178.526 1014.5 179.232 1015.9 179.56L1017.17 179.858C1017.94 180.037 1018.3 180.405 1018.3 180.932C1018.3 181.588 1017.61 182.125 1016.51 182.125C1015.55 182.125 1014.95 181.712 1014.74 180.892L1013.63 181.17C1013.9 182.468 1014.97 183.159 1016.53 183.159C1018.31 183.159 1019.52 182.19 1019.52 180.872C1019.52 179.808 1018.85 179.137 1017.49 178.804L1016.35 178.526C1015.45 178.302 1015.04 177.999 1015.04 177.412C1015.04 176.756 1015.74 176.278 1016.67 176.278C1017.7 176.278 1018.12 176.845 1018.32 177.372L1019.38 177.074ZM1024.6 175.364H1022.97V173.534H1021.8V175.364H1020.65V176.358H1021.8V181.131C1021.8 182.463 1022.87 183.099 1023.87 183.099C1024.31 183.099 1024.58 183.02 1024.74 182.96L1024.5 181.906C1024.41 181.926 1024.25 181.966 1023.99 181.966C1023.47 181.966 1022.97 181.807 1022.97 180.812V176.358H1024.6V175.364ZM1026.37 183H1027.54V178.168C1027.54 177.134 1028.36 176.378 1029.47 176.378C1029.78 176.378 1030.11 176.438 1030.19 176.457V175.264C1030.05 175.254 1029.74 175.244 1029.57 175.244C1028.66 175.244 1027.86 175.761 1027.58 176.517H1027.5V175.364H1026.37V183ZM1036.39 179.878C1036.39 181.31 1035.3 181.966 1034.42 181.966C1033.45 181.966 1032.75 181.25 1032.75 180.136V175.364H1031.58V180.216C1031.58 182.165 1032.61 183.099 1034.04 183.099C1035.2 183.099 1035.95 182.483 1036.31 181.707H1036.39V183H1037.56V175.364H1036.39V179.878ZM1042.81 183.159C1044.51 183.159 1045.62 182.125 1045.82 180.773H1044.64C1044.43 181.608 1043.73 182.105 1042.81 182.105C1041.42 182.105 1040.53 180.952 1040.53 179.182C1040.53 177.452 1041.44 176.318 1042.81 176.318C1043.85 176.318 1044.47 176.955 1044.64 177.651H1045.82C1045.62 176.219 1044.41 175.264 1042.79 175.264C1040.73 175.264 1039.35 176.895 1039.35 179.222C1039.35 181.509 1040.67 183.159 1042.81 183.159ZM1050.85 175.364H1049.22V173.534H1048.05V175.364H1046.9V176.358H1048.05V181.131C1048.05 182.463 1049.12 183.099 1050.12 183.099C1050.56 183.099 1050.83 183.02 1050.99 182.96L1050.75 181.906C1050.66 181.926 1050.5 181.966 1050.24 181.966C1049.72 181.966 1049.22 181.807 1049.22 180.812V176.358H1050.85V175.364ZM1052.62 183H1053.79V175.364H1052.62V183ZM1053.22 174.091C1053.67 174.091 1054.05 173.733 1054.05 173.295C1054.05 172.858 1053.67 172.5 1053.22 172.5C1052.76 172.5 1052.38 172.858 1052.38 173.295C1052.38 173.733 1052.76 174.091 1053.22 174.091ZM1059.04 183.159C1061.11 183.159 1062.5 181.588 1062.5 179.222C1062.5 176.835 1061.11 175.264 1059.04 175.264C1056.98 175.264 1055.58 176.835 1055.58 179.222C1055.58 181.588 1056.98 183.159 1059.04 183.159ZM1059.04 182.105C1057.47 182.105 1056.76 180.753 1056.76 179.222C1056.76 177.69 1057.47 176.318 1059.04 176.318C1060.61 176.318 1061.33 177.69 1061.33 179.222C1061.33 180.753 1060.61 182.105 1059.04 182.105ZM1065.47 178.406C1065.47 177.074 1066.29 176.318 1067.42 176.318C1068.51 176.318 1069.17 177.029 1069.17 178.227V183H1070.34V178.148C1070.34 176.199 1069.3 175.264 1067.75 175.264C1066.6 175.264 1065.89 175.781 1065.53 176.557H1065.43V175.364H1064.29V183H1065.47V178.406ZM1077.89 177.074C1077.53 175.99 1076.7 175.264 1075.19 175.264C1073.58 175.264 1072.38 176.179 1072.38 177.472C1072.38 178.526 1073.01 179.232 1074.41 179.56L1075.69 179.858C1076.46 180.037 1076.82 180.405 1076.82 180.932C1076.82 181.588 1076.12 182.125 1075.03 182.125C1074.07 182.125 1073.47 181.712 1073.26 180.892L1072.15 181.17C1072.42 182.468 1073.49 183.159 1075.05 183.159C1076.82 183.159 1078.03 182.19 1078.03 180.872C1078.03 179.808 1077.37 179.137 1076 178.804L1074.87 178.526C1073.97 178.302 1073.56 177.999 1073.56 177.412C1073.56 176.756 1074.25 176.278 1075.19 176.278C1076.21 176.278 1076.64 176.845 1076.84 177.372L1077.89 177.074Z" fill="black"/>
<path d="M1127 171L1135 179L1127 187" stroke="black" stroke-width="2" stroke-linecap="round" stroke-linejoin="round"/>
<path d="M493.91 38V20.9375H499.16C500.66 20.9375 502 21.2773 503.18 21.957C504.367 22.6289 505.293 23.5898 505.957 24.8398C506.621 26.082 506.953 27.4961 506.953 29.082V29.8672C506.953 31.4531 506.625 32.8633 505.969 34.0977C505.32 35.332 504.402 36.2891 503.215 36.9688C502.027 37.6484 500.688 37.9922 499.195 38H493.91ZM497.426 23.7852V35.1758H499.125C500.5 35.1758 501.551 34.7266 502.277 33.8281C503.004 32.9297 503.375 31.6445 503.391 29.9727V29.0703C503.391 27.3359 503.031 26.0234 502.312 25.1328C501.594 24.2344 500.543 23.7852 499.16 23.7852H497.426ZM516.645 38C516.488 37.6953 516.375 37.3164 516.305 36.8633C515.484 37.7773 514.418 38.2344 513.105 38.2344C511.863 38.2344 510.832 37.875 510.012 37.1562C509.199 36.4375 508.793 35.5312 508.793 34.4375C508.793 33.0938 509.289 32.0625 510.281 31.3438C511.281 30.625 512.723 30.2617 514.605 30.2539H516.164V29.5273C516.164 28.9414 516.012 28.4727 515.707 28.1211C515.41 27.7695 514.938 27.5938 514.289 27.5938C513.719 27.5938 513.27 27.7305 512.941 28.0039C512.621 28.2773 512.461 28.6523 512.461 29.1289H509.074C509.074 28.3945 509.301 27.7148 509.754 27.0898C510.207 26.4648 510.848 25.9766 511.676 25.625C512.504 25.2656 513.434 25.0859 514.465 25.0859C516.027 25.0859 517.266 25.4805 518.18 26.2695C519.102 27.0508 519.562 28.1523 519.562 29.5742V35.0703C519.57 36.2734 519.738 37.1836 520.066 37.8008V38H516.645ZM513.844 35.6445C514.344 35.6445 514.805 35.5352 515.227 35.3164C515.648 35.0898 515.961 34.7891 516.164 34.4141V32.2344H514.898C513.203 32.2344 512.301 32.8203 512.191 33.9922L512.18 34.1914C512.18 34.6133 512.328 34.9609 512.625 35.2344C512.922 35.5078 513.328 35.6445 513.844 35.6445ZM526.219 22.2031V25.3203H528.387V27.8047H526.219V34.1328C526.219 34.6016 526.309 34.9375 526.488 35.1406C526.668 35.3438 527.012 35.4453 527.52 35.4453C527.895 35.4453 528.227 35.418 528.516 35.3633V37.9297C527.852 38.1328 527.168 38.2344 526.465 38.2344C524.09 38.2344 522.879 37.0352 522.832 34.6367V27.8047H520.98V25.3203H522.832V22.2031H526.219ZM537.621 38C537.465 37.6953 537.352 37.3164 537.281 36.8633C536.461 37.7773 535.395 38.2344 534.082 38.2344C532.84 38.2344 531.809 37.875 530.988 37.1562C530.176 36.4375 529.77 35.5312 529.77 34.4375C529.77 33.0938 530.266 32.0625 531.258 31.3438C532.258 30.625 533.699 30.2617 535.582 30.2539H537.141V29.5273C537.141 28.9414 536.988 28.4727 536.684 28.1211C536.387 27.7695 535.914 27.5938 535.266 27.5938C534.695 27.5938 534.246 27.7305 533.918 28.0039C533.598 28.2773 533.438 28.6523 533.438 29.1289H530.051C530.051 28.3945 530.277 27.7148 530.73 27.0898C531.184 26.4648 531.824 25.9766 532.652 25.625C533.48 25.2656 534.41 25.0859 535.441 25.0859C537.004 25.0859 538.242 25.4805 539.156 26.2695C540.078 27.0508 540.539 28.1523 540.539 29.5742V35.0703C540.547 36.2734 540.715 37.1836 541.043 37.8008V38H537.621ZM534.82 35.6445C535.32 35.6445 535.781 35.5352 536.203 35.3164C536.625 35.0898 536.938 34.7891 537.141 34.4141V32.2344H535.875C534.18 32.2344 533.277 32.8203 533.168 33.9922L533.156 34.1914C533.156 34.6133 533.305 34.9609 533.602 35.2344C533.898 35.5078 534.305 35.6445 534.82 35.6445ZM558.188 33.5234C558.188 32.8594 557.953 32.3516 557.484 32C557.016 31.6406 556.172 31.2656 554.953 30.875C553.734 30.4766 552.77 30.0859 552.059 29.7031C550.121 28.6562 549.152 27.2461 549.152 25.4727C549.152 24.5508 549.41 23.7305 549.926 23.0117C550.449 22.2852 551.195 21.7188 552.164 21.3125C553.141 20.9062 554.234 20.7031 555.445 20.7031C556.664 20.7031 557.75 20.9258 558.703 21.3711C559.656 21.8086 560.395 22.4297 560.918 23.2344C561.449 24.0391 561.715 24.9531 561.715 25.9766H558.199C558.199 25.1953 557.953 24.5898 557.461 24.1602C556.969 23.7227 556.277 23.5039 555.387 23.5039C554.527 23.5039 553.859 23.6875 553.383 24.0547C552.906 24.4141 552.668 24.8906 552.668 25.4844C552.668 26.0391 552.945 26.5039 553.5 26.8789C554.062 27.2539 554.887 27.6055 555.973 27.9336C557.973 28.5352 559.43 29.2812 560.344 30.1719C561.258 31.0625 561.715 32.1719 561.715 33.5C561.715 34.9766 561.156 36.1367 560.039 36.9805C558.922 37.8164 557.418 38.2344 555.527 38.2344C554.215 38.2344 553.02 37.9961 551.941 37.5195C550.863 37.0352 550.039 36.375 549.469 35.5391C548.906 34.7031 548.625 33.7344 548.625 32.6328H552.152C552.152 34.5156 553.277 35.457 555.527 35.457C556.363 35.457 557.016 35.2891 557.484 34.9531C557.953 34.6094 558.188 34.1328 558.188 33.5234ZM563.355 31.543C563.355 30.2852 563.598 29.1641 564.082 28.1797C564.566 27.1953 565.262 26.4336 566.168 25.8945C567.082 25.3555 568.141 25.0859 569.344 25.0859C571.055 25.0859 572.449 25.6094 573.527 26.6562C574.613 27.7031 575.219 29.125 575.344 30.9219L575.367 31.7891C575.367 33.7344 574.824 35.2969 573.738 36.4766C572.652 37.6484 571.195 38.2344 569.367 38.2344C567.539 38.2344 566.078 37.6484 564.984 36.4766C563.898 35.3047 563.355 33.7109 563.355 31.6953V31.543ZM566.742 31.7891C566.742 32.9922 566.969 33.9141 567.422 34.5547C567.875 35.1875 568.523 35.5039 569.367 35.5039C570.188 35.5039 570.828 35.1914 571.289 34.5664C571.75 33.9336 571.98 32.9258 571.98 31.543C571.98 30.3633 571.75 29.4492 571.289 28.8008C570.828 28.1523 570.18 27.8281 569.344 27.8281C568.516 27.8281 567.875 28.1523 567.422 28.8008C566.969 29.4414 566.742 30.4375 566.742 31.7891ZM585.047 36.7109C584.211 37.7266 583.055 38.2344 581.578 38.2344C580.219 38.2344 579.18 37.8438 578.461 37.0625C577.75 36.2812 577.387 35.1367 577.371 33.6289V25.3203H580.758V33.5117C580.758 34.832 581.359 35.4922 582.562 35.4922C583.711 35.4922 584.5 35.0938 584.93 34.2969V25.3203H588.328V38H585.141L585.047 36.7109ZM598.008 28.4961C597.547 28.4336 597.141 28.4023 596.789 28.4023C595.508 28.4023 594.668 28.8359 594.27 29.7031V38H590.883V25.3203H594.082L594.176 26.832C594.855 25.668 595.797 25.0859 597 25.0859C597.375 25.0859 597.727 25.1367 598.055 25.2383L598.008 28.4961ZM604.688 35.5039C605.312 35.5039 605.82 35.332 606.211 34.9883C606.602 34.6445 606.805 34.1875 606.82 33.6172H609.996C609.988 34.4766 609.754 35.2656 609.293 35.9844C608.832 36.6953 608.199 37.25 607.395 37.6484C606.598 38.0391 605.715 38.2344 604.746 38.2344C602.934 38.2344 601.504 37.6602 600.457 36.5117C599.41 35.3555 598.887 33.7617 598.887 31.7305V31.5078C598.887 29.5547 599.406 27.9961 600.445 26.832C601.484 25.668 602.91 25.0859 604.723 25.0859C606.309 25.0859 607.578 25.5391 608.531 26.4453C609.492 27.3438 609.98 28.543 609.996 30.043H606.82C606.805 29.3867 606.602 28.8555 606.211 28.4492C605.82 28.0352 605.305 27.8281 604.664 27.8281C603.875 27.8281 603.277 28.1172 602.871 28.6953C602.473 29.2656 602.273 30.1953 602.273 31.4844V31.8359C602.273 33.1406 602.473 34.0781 602.871 34.6484C603.27 35.2188 603.875 35.5039 604.688 35.5039ZM617.766 38.2344C615.906 38.2344 614.391 37.6641 613.219 36.5234C612.055 35.3828 611.473 33.8633 611.473 31.9648V31.6367C611.473 30.3633 611.719 29.2266 612.211 28.2266C612.703 27.2188 613.398 26.4453 614.297 25.9062C615.203 25.3594 616.234 25.0859 617.391 25.0859C619.125 25.0859 620.488 25.6328 621.48 26.7266C622.48 27.8203 622.98 29.3711 622.98 31.3789V32.7617H614.906C615.016 33.5898 615.344 34.2539 615.891 34.7539C616.445 35.2539 617.145 35.5039 617.988 35.5039C619.293 35.5039 620.312 35.0312 621.047 34.0859L622.711 35.9492C622.203 36.668 621.516 37.2305 620.648 37.6367C619.781 38.0352 618.82 38.2344 617.766 38.2344ZM617.379 27.8281C616.707 27.8281 616.16 28.0547 615.738 28.5078C615.324 28.9609 615.059 29.6094 614.941 30.4531H619.652V30.1836C619.637 29.4336 619.434 28.8555 619.043 28.4492C618.652 28.0352 618.098 27.8281 617.379 27.8281Z" fill="black"/>
</g>
<defs>
<clipPath id="clip0">
<rect width="1440" height="420" fill="white"/>
</clipPath>
<clipPath id="clip1">
<path d="M151 74.5C151 69.8056 154.806 66 159.5 66H382.5C387.194 66 391 69.8056 391 74.5C391 79.1944 387.194 83 382.5 83H159.5C154.806 83 151 79.1944 151 74.5Z" fill="white"/>
</clipPath>
</defs>
</svg>
