<svg width="732" height="483" viewBox="0 0 732 483" fill="none" xmlns="http://www.w3.org/2000/svg">
<g clip-path="url(#clip0)">
<rect width="732" height="483" fill="white"/>
<path d="M0 8C0 3.58172 3.58172 0 8 0H825C829.418 0 833 3.58172 833 8V74H0V8Z" fill="#C4C4C4"/>
<path d="M163.525 38.436C163.525 35.988 164.089 33.792 165.217 31.848C166.369 29.904 167.917 28.392 169.861 27.312C171.829 26.208 173.977 25.656 176.305 25.656C178.969 25.656 181.333 26.316 183.397 27.636C185.485 28.932 186.997 30.78 187.933 33.18H183.001C182.353 31.86 181.453 30.876 180.301 30.228C179.149 29.58 177.817 29.256 176.305 29.256C174.649 29.256 173.173 29.628 171.877 30.372C170.581 31.116 169.561 32.184 168.817 33.576C168.097 34.968 167.737 36.588 167.737 38.436C167.737 40.284 168.097 41.904 168.817 43.296C169.561 44.688 170.581 45.768 171.877 46.536C173.173 47.28 174.649 47.652 176.305 47.652C177.817 47.652 179.149 47.328 180.301 46.68C181.453 46.032 182.353 45.048 183.001 43.728H187.933C186.997 46.128 185.485 47.976 183.397 49.272C181.333 50.568 178.969 51.216 176.305 51.216C173.953 51.216 171.805 50.676 169.861 49.596C167.917 48.492 166.369 46.968 165.217 45.024C164.089 43.08 163.525 40.884 163.525 38.436ZM196.841 34.044C197.441 33.036 198.233 32.256 199.217 31.704C200.225 31.128 201.413 30.84 202.781 30.84V35.088H201.737C200.129 35.088 198.905 35.496 198.065 36.312C197.249 37.128 196.841 38.544 196.841 40.56V51H192.737V31.164H196.841V34.044ZM224.734 40.596C224.734 41.34 224.686 42.012 224.59 42.612H209.434C209.554 44.196 210.142 45.468 211.198 46.428C212.254 47.388 213.55 47.868 215.086 47.868C217.294 47.868 218.854 46.944 219.766 45.096H224.194C223.594 46.92 222.502 48.42 220.918 49.596C219.358 50.748 217.414 51.324 215.086 51.324C213.19 51.324 211.486 50.904 209.974 50.064C208.486 49.2 207.31 48 206.446 46.464C205.606 44.904 205.186 43.104 205.186 41.064C205.186 39.024 205.594 37.236 206.41 35.7C207.25 34.14 208.414 32.94 209.902 32.1C211.414 31.26 213.142 30.84 215.086 30.84C216.958 30.84 218.626 31.248 220.09 32.064C221.554 32.88 222.694 34.032 223.51 35.52C224.326 36.984 224.734 38.676 224.734 40.596ZM220.45 39.3C220.426 37.788 219.886 36.576 218.83 35.664C217.774 34.752 216.466 34.296 214.906 34.296C213.49 34.296 212.278 34.752 211.27 35.664C210.262 36.552 209.662 37.764 209.47 39.3H220.45ZM227.404 40.992C227.404 39 227.812 37.236 228.628 35.7C229.468 34.164 230.596 32.976 232.012 32.136C233.452 31.272 235.036 30.84 236.764 30.84C238.324 30.84 239.68 31.152 240.832 31.776C242.008 32.376 242.944 33.132 243.64 34.044V31.164H247.78V51H243.64V48.048C242.944 48.984 241.996 49.764 240.796 50.388C239.596 51.012 238.228 51.324 236.692 51.324C234.988 51.324 233.428 50.892 232.012 50.028C230.596 49.14 229.468 47.916 228.628 46.356C227.812 44.772 227.404 42.984 227.404 40.992ZM243.64 41.064C243.64 39.696 243.352 38.508 242.776 37.5C242.224 36.492 241.492 35.724 240.58 35.196C239.668 34.668 238.684 34.404 237.628 34.404C236.572 34.404 235.588 34.668 234.676 35.196C233.764 35.7 233.02 36.456 232.444 37.464C231.892 38.448 231.616 39.624 231.616 40.992C231.616 42.36 231.892 43.56 232.444 44.592C233.02 45.624 233.764 46.416 234.676 46.968C235.612 47.496 236.596 47.76 237.628 47.76C238.684 47.76 239.668 47.496 240.58 46.968C241.492 46.44 242.224 45.672 242.776 44.664C243.352 43.632 243.64 42.432 243.64 41.064ZM257.959 34.512V45.492C257.959 46.236 258.127 46.776 258.463 47.112C258.823 47.424 259.423 47.58 260.263 47.58H262.783V51H259.543C257.695 51 256.279 50.568 255.295 49.704C254.311 48.84 253.819 47.436 253.819 45.492V34.512H251.479V31.164H253.819V26.232H257.959V31.164H262.783V34.512H257.959ZM284.745 40.596C284.745 41.34 284.697 42.012 284.601 42.612H269.445C269.565 44.196 270.153 45.468 271.209 46.428C272.265 47.388 273.561 47.868 275.097 47.868C277.305 47.868 278.865 46.944 279.777 45.096H284.205C283.605 46.92 282.513 48.42 280.929 49.596C279.369 50.748 277.425 51.324 275.097 51.324C273.201 51.324 271.497 50.904 269.985 50.064C268.497 49.2 267.321 48 266.457 46.464C265.617 44.904 265.197 43.104 265.197 41.064C265.197 39.024 265.605 37.236 266.421 35.7C267.261 34.14 268.425 32.94 269.913 32.1C271.425 31.26 273.153 30.84 275.097 30.84C276.969 30.84 278.637 31.248 280.101 32.064C281.565 32.88 282.705 34.032 283.521 35.52C284.337 36.984 284.745 38.676 284.745 40.596ZM280.461 39.3C280.437 37.788 279.897 36.576 278.841 35.664C277.785 34.752 276.477 34.296 274.917 34.296C273.501 34.296 272.289 34.752 271.281 35.664C270.273 36.552 269.673 37.764 269.481 39.3H280.461ZM318.692 51H314.588L302.24 32.316V51H298.136V25.944H302.24L314.588 44.592V25.944H318.692V51ZM342.261 40.596C342.261 41.34 342.213 42.012 342.117 42.612H326.961C327.081 44.196 327.669 45.468 328.725 46.428C329.781 47.388 331.077 47.868 332.613 47.868C334.821 47.868 336.381 46.944 337.293 45.096H341.721C341.121 46.92 340.029 48.42 338.445 49.596C336.885 50.748 334.941 51.324 332.613 51.324C330.717 51.324 329.013 50.904 327.501 50.064C326.013 49.2 324.837 48 323.973 46.464C323.133 44.904 322.713 43.104 322.713 41.064C322.713 39.024 323.121 37.236 323.937 35.7C324.777 34.14 325.941 32.94 327.429 32.1C328.941 31.26 330.669 30.84 332.613 30.84C334.485 30.84 336.153 31.248 337.617 32.064C339.081 32.88 340.221 34.032 341.037 35.52C341.853 36.984 342.261 38.676 342.261 40.596ZM337.977 39.3C337.953 37.788 337.413 36.576 336.357 35.664C335.301 34.752 333.993 34.296 332.433 34.296C331.017 34.296 329.805 34.752 328.797 35.664C327.789 36.552 327.189 37.764 326.997 39.3H337.977ZM372.94 31.164L366.784 51H362.464L358.468 36.348L354.472 51H350.152L343.96 31.164H348.136L352.276 47.112L356.488 31.164H360.772L364.804 47.04L368.908 31.164H372.94ZM402.854 33.432C402.854 34.704 402.554 35.904 401.954 37.032C401.354 38.16 400.394 39.084 399.074 39.804C397.754 40.5 396.062 40.848 393.998 40.848H389.462V51H385.358V25.98H393.998C395.918 25.98 397.538 26.316 398.858 26.988C400.202 27.636 401.198 28.524 401.846 29.652C402.518 30.78 402.854 32.04 402.854 33.432ZM393.998 37.5C395.558 37.5 396.722 37.152 397.49 36.456C398.258 35.736 398.642 34.728 398.642 33.432C398.642 30.696 397.094 29.328 393.998 29.328H389.462V37.5H393.998ZM405.4 40.992C405.4 39 405.808 37.236 406.624 35.7C407.464 34.164 408.592 32.976 410.008 32.136C411.448 31.272 413.032 30.84 414.76 30.84C416.32 30.84 417.676 31.152 418.828 31.776C420.004 32.376 420.94 33.132 421.636 34.044V31.164H425.776V51H421.636V48.048C420.94 48.984 419.992 49.764 418.792 50.388C417.592 51.012 416.224 51.324 414.688 51.324C412.984 51.324 411.424 50.892 410.008 50.028C408.592 49.14 407.464 47.916 406.624 46.356C405.808 44.772 405.4 42.984 405.4 40.992ZM421.636 41.064C421.636 39.696 421.348 38.508 420.772 37.5C420.22 36.492 419.488 35.724 418.576 35.196C417.664 34.668 416.68 34.404 415.624 34.404C414.568 34.404 413.584 34.668 412.672 35.196C411.76 35.7 411.016 36.456 410.44 37.464C409.888 38.448 409.612 39.624 409.612 40.992C409.612 42.36 409.888 43.56 410.44 44.592C411.016 45.624 411.76 46.416 412.672 46.968C413.608 47.496 414.592 47.76 415.624 47.76C416.68 47.76 417.664 47.496 418.576 46.968C419.488 46.44 420.22 45.672 420.772 44.664C421.348 43.632 421.636 42.432 421.636 41.064ZM438.367 51.324C436.807 51.324 435.403 51.048 434.155 50.496C432.931 49.92 431.959 49.152 431.239 48.192C430.519 47.208 430.135 46.116 430.087 44.916H434.335C434.407 45.756 434.803 46.464 435.523 47.04C436.267 47.592 437.191 47.868 438.295 47.868C439.447 47.868 440.335 47.652 440.959 47.22C441.607 46.764 441.931 46.188 441.931 45.492C441.931 44.748 441.571 44.196 440.851 43.836C440.155 43.476 439.039 43.08 437.503 42.648C436.015 42.24 434.803 41.844 433.867 41.46C432.931 41.076 432.115 40.488 431.419 39.696C430.747 38.904 430.411 37.86 430.411 36.564C430.411 35.508 430.723 34.548 431.347 33.684C431.971 32.796 432.859 32.1 434.011 31.596C435.187 31.092 436.531 30.84 438.043 30.84C440.299 30.84 442.111 31.416 443.479 32.568C444.871 33.696 445.615 35.244 445.711 37.212H441.607C441.535 36.324 441.175 35.616 440.527 35.088C439.879 34.56 439.003 34.296 437.899 34.296C436.819 34.296 435.991 34.5 435.415 34.908C434.839 35.316 434.551 35.856 434.551 36.528C434.551 37.056 434.743 37.5 435.127 37.86C435.511 38.22 435.979 38.508 436.531 38.724C437.083 38.916 437.899 39.168 438.979 39.48C440.419 39.864 441.595 40.26 442.507 40.668C443.443 41.052 444.247 41.628 444.919 42.396C445.591 43.164 445.939 44.184 445.963 45.456C445.963 46.584 445.651 47.592 445.027 48.48C444.403 49.368 443.515 50.064 442.363 50.568C441.235 51.072 439.903 51.324 438.367 51.324ZM457.597 51.324C456.037 51.324 454.633 51.048 453.385 50.496C452.161 49.92 451.189 49.152 450.469 48.192C449.749 47.208 449.365 46.116 449.317 44.916H453.565C453.637 45.756 454.033 46.464 454.753 47.04C455.497 47.592 456.421 47.868 457.525 47.868C458.677 47.868 459.565 47.652 460.189 47.22C460.837 46.764 461.161 46.188 461.161 45.492C461.161 44.748 460.801 44.196 460.081 43.836C459.385 43.476 458.269 43.08 456.733 42.648C455.245 42.24 454.033 41.844 453.097 41.46C452.161 41.076 451.345 40.488 450.649 39.696C449.977 38.904 449.641 37.86 449.641 36.564C449.641 35.508 449.953 34.548 450.577 33.684C451.201 32.796 452.089 32.1 453.241 31.596C454.417 31.092 455.761 30.84 457.273 30.84C459.529 30.84 461.341 31.416 462.709 32.568C464.101 33.696 464.845 35.244 464.941 37.212H460.837C460.765 36.324 460.405 35.616 459.757 35.088C459.109 34.56 458.233 34.296 457.129 34.296C456.049 34.296 455.221 34.5 454.645 34.908C454.069 35.316 453.781 35.856 453.781 36.528C453.781 37.056 453.973 37.5 454.357 37.86C454.741 38.22 455.209 38.508 455.761 38.724C456.313 38.916 457.129 39.168 458.209 39.48C459.649 39.864 460.825 40.26 461.737 40.668C462.673 41.052 463.477 41.628 464.149 42.396C464.821 43.164 465.169 44.184 465.193 45.456C465.193 46.584 464.881 47.592 464.257 48.48C463.633 49.368 462.745 50.064 461.593 50.568C460.465 51.072 459.133 51.324 457.597 51.324ZM496.268 31.164L490.112 51H485.792L481.796 36.348L477.8 51H473.48L467.288 31.164H471.464L475.604 47.112L479.816 31.164H484.1L488.132 47.04L492.236 31.164H496.268ZM507.939 51.324C506.067 51.324 504.375 50.904 502.863 50.064C501.351 49.2 500.163 48 499.299 46.464C498.435 44.904 498.003 43.104 498.003 41.064C498.003 39.048 498.447 37.26 499.335 35.7C500.223 34.14 501.435 32.94 502.971 32.1C504.507 31.26 506.223 30.84 508.119 30.84C510.015 30.84 511.731 31.26 513.267 32.1C514.803 32.94 516.015 34.14 516.903 35.7C517.791 37.26 518.235 39.048 518.235 41.064C518.235 43.08 517.779 44.868 516.867 46.428C515.955 47.988 514.707 49.2 513.123 50.064C511.563 50.904 509.835 51.324 507.939 51.324ZM507.939 47.76C508.995 47.76 509.979 47.508 510.891 47.004C511.827 46.5 512.583 45.744 513.159 44.736C513.735 43.728 514.023 42.504 514.023 41.064C514.023 39.624 513.747 38.412 513.195 37.428C512.643 36.42 511.911 35.664 510.999 35.16C510.087 34.656 509.103 34.404 508.047 34.404C506.991 34.404 506.007 34.656 505.095 35.16C504.207 35.664 503.499 36.42 502.971 37.428C502.443 38.412 502.179 39.624 502.179 41.064C502.179 43.2 502.719 44.856 503.799 46.032C504.903 47.184 506.283 47.76 507.939 47.76ZM526.396 34.044C526.996 33.036 527.788 32.256 528.772 31.704C529.78 31.128 530.968 30.84 532.336 30.84V35.088H531.292C529.684 35.088 528.46 35.496 527.62 36.312C526.804 37.128 526.396 38.544 526.396 40.56V51H522.292V31.164H526.396V34.044ZM534.74 40.992C534.74 39 535.148 37.236 535.964 35.7C536.804 34.164 537.932 32.976 539.348 32.136C540.788 31.272 542.384 30.84 544.136 30.84C545.432 30.84 546.704 31.128 547.952 31.704C549.224 32.256 550.232 33 550.976 33.936V24.36H555.116V51H550.976V48.012C550.304 48.972 549.368 49.764 548.168 50.388C546.992 51.012 545.636 51.324 544.1 51.324C542.372 51.324 540.788 50.892 539.348 50.028C537.932 49.14 536.804 47.916 535.964 46.356C535.148 44.772 534.74 42.984 534.74 40.992ZM550.976 41.064C550.976 39.696 550.688 38.508 550.112 37.5C549.56 36.492 548.828 35.724 547.916 35.196C547.004 34.668 546.02 34.404 544.964 34.404C543.908 34.404 542.924 34.668 542.012 35.196C541.1 35.7 540.356 36.456 539.78 37.464C539.228 38.448 538.952 39.624 538.952 40.992C538.952 42.36 539.228 43.56 539.78 44.592C540.356 45.624 541.1 46.416 542.012 46.968C542.948 47.496 543.932 47.76 544.964 47.76C546.02 47.76 547.004 47.496 547.916 46.968C548.828 46.44 549.56 45.672 550.112 44.664C550.688 43.632 550.976 42.432 550.976 41.064Z" fill="black"/>
<rect x="162" y="391" width="407" height="73" rx="8" fill="#691E83"/>
<path d="M306.046 438.252C304.366 438.252 302.854 437.964 301.51 437.388C300.166 436.788 299.11 435.948 298.342 434.868C297.574 433.788 297.19 432.528 297.19 431.088H301.582C301.678 432.168 302.098 433.056 302.842 433.752C303.61 434.448 304.678 434.796 306.046 434.796C307.462 434.796 308.566 434.46 309.358 433.788C310.15 433.092 310.546 432.204 310.546 431.124C310.546 430.284 310.294 429.6 309.79 429.072C309.31 428.544 308.698 428.136 307.954 427.848C307.234 427.56 306.226 427.248 304.93 426.912C303.298 426.48 301.966 426.048 300.934 425.616C299.926 425.16 299.062 424.464 298.342 423.528C297.622 422.592 297.262 421.344 297.262 419.784C297.262 418.344 297.622 417.084 298.342 416.004C299.062 414.924 300.07 414.096 301.366 413.52C302.662 412.944 304.162 412.656 305.866 412.656C308.29 412.656 310.27 413.268 311.806 414.492C313.366 415.692 314.23 417.348 314.398 419.46H309.862C309.79 418.548 309.358 417.768 308.566 417.12C307.774 416.472 306.73 416.148 305.434 416.148C304.258 416.148 303.298 416.448 302.554 417.048C301.81 417.648 301.438 418.512 301.438 419.64C301.438 420.408 301.666 421.044 302.122 421.548C302.602 422.028 303.202 422.412 303.922 422.7C304.642 422.988 305.626 423.3 306.874 423.636C308.53 424.092 309.874 424.548 310.906 425.004C311.962 425.46 312.85 426.168 313.57 427.128C314.314 428.064 314.686 429.324 314.686 430.908C314.686 432.18 314.338 433.38 313.642 434.508C312.97 435.636 311.974 436.548 310.654 437.244C309.358 437.916 307.822 438.252 306.046 438.252ZM337.492 418.164V438H333.388V435.66C332.74 436.476 331.888 437.124 330.832 437.604C329.8 438.06 328.696 438.288 327.52 438.288C325.96 438.288 324.556 437.964 323.308 437.316C322.084 436.668 321.112 435.708 320.392 434.436C319.696 433.164 319.348 431.628 319.348 429.828V418.164H323.416V429.216C323.416 430.992 323.86 432.36 324.748 433.32C325.636 434.256 326.848 434.724 328.384 434.724C329.92 434.724 331.132 434.256 332.02 433.32C332.932 432.36 333.388 430.992 333.388 429.216V418.164H337.492ZM347.011 421.116C347.707 420.156 348.655 419.376 349.855 418.776C351.079 418.152 352.435 417.84 353.923 417.84C355.675 417.84 357.259 418.26 358.675 419.1C360.091 419.94 361.207 421.14 362.023 422.7C362.839 424.236 363.247 426 363.247 427.992C363.247 429.984 362.839 431.772 362.023 433.356C361.207 434.916 360.079 436.14 358.639 437.028C357.223 437.892 355.651 438.324 353.923 438.324C352.387 438.324 351.019 438.024 349.819 437.424C348.643 436.824 347.707 436.056 347.011 435.12V438H342.907V411.36H347.011V421.116ZM359.071 427.992C359.071 426.624 358.783 425.448 358.207 424.464C357.655 423.456 356.911 422.7 355.975 422.196C355.063 421.668 354.079 421.404 353.023 421.404C351.991 421.404 351.007 421.668 350.071 422.196C349.159 422.724 348.415 423.492 347.839 424.5C347.287 425.508 347.011 426.696 347.011 428.064C347.011 429.432 347.287 430.632 347.839 431.664C348.415 432.672 349.159 433.44 350.071 433.968C351.007 434.496 351.991 434.76 353.023 434.76C354.079 434.76 355.063 434.496 355.975 433.968C356.911 433.416 357.655 432.624 358.207 431.592C358.783 430.56 359.071 429.36 359.071 427.992ZM391.317 417.84C392.877 417.84 394.269 418.164 395.493 418.812C396.741 419.46 397.713 420.42 398.409 421.692C399.129 422.964 399.489 424.5 399.489 426.3V438H395.421V426.912C395.421 425.136 394.977 423.78 394.089 422.844C393.201 421.884 391.989 421.404 390.453 421.404C388.917 421.404 387.693 421.884 386.781 422.844C385.893 423.78 385.449 425.136 385.449 426.912V438H381.381V426.912C381.381 425.136 380.937 423.78 380.049 422.844C379.161 421.884 377.949 421.404 376.413 421.404C374.877 421.404 373.653 421.884 372.741 422.844C371.853 423.78 371.409 425.136 371.409 426.912V438H367.305V418.164H371.409V420.432C372.081 419.616 372.933 418.98 373.965 418.524C374.997 418.068 376.101 417.84 377.277 417.84C378.861 417.84 380.277 418.176 381.525 418.848C382.773 419.52 383.733 420.492 384.405 421.764C385.005 420.564 385.941 419.616 387.213 418.92C388.485 418.2 389.853 417.84 391.317 417.84ZM406.8 415.536C406.056 415.536 405.432 415.284 404.928 414.78C404.424 414.276 404.172 413.652 404.172 412.908C404.172 412.164 404.424 411.54 404.928 411.036C405.432 410.532 406.056 410.28 406.8 410.28C407.52 410.28 408.132 410.532 408.636 411.036C409.14 411.54 409.392 412.164 409.392 412.908C409.392 413.652 409.14 414.276 408.636 414.78C408.132 415.284 407.52 415.536 406.8 415.536ZM408.816 418.164V438H404.712V418.164H408.816ZM418.992 421.512V432.492C418.992 433.236 419.16 433.776 419.496 434.112C419.856 434.424 420.456 434.58 421.296 434.58H423.816V438H420.576C418.728 438 417.312 437.568 416.328 436.704C415.344 435.84 414.852 434.436 414.852 432.492V421.512H412.512V418.164H414.852V413.232H418.992V418.164H423.816V421.512H418.992Z" fill="white"/>
<rect x="162.5" y="97.5" width="406" height="76" fill="white" stroke="black"/>
<rect x="162.5" y="197.5" width="406" height="76" fill="white" stroke="black"/>
<rect x="162.5" y="294.5" width="406" height="76" fill="white" stroke="black"/>
<path d="M205.059 245H201.639L191.349 229.43V245H187.929V224.12H191.349L201.639 239.66V224.12H205.059V245ZM224.7 236.33C224.7 236.95 224.66 237.51 224.58 238.01H211.95C212.05 239.33 212.54 240.39 213.42 241.19C214.3 241.99 215.38 242.39 216.66 242.39C218.5 242.39 219.8 241.62 220.56 240.08H224.25C223.75 241.6 222.84 242.85 221.52 243.83C220.22 244.79 218.6 245.27 216.66 245.27C215.08 245.27 213.66 244.92 212.4 244.22C211.16 243.5 210.18 242.5 209.46 241.22C208.76 239.92 208.41 238.42 208.41 236.72C208.41 235.02 208.75 233.53 209.43 232.25C210.13 230.95 211.1 229.95 212.34 229.25C213.6 228.55 215.04 228.2 216.66 228.2C218.22 228.2 219.61 228.54 220.83 229.22C222.05 229.9 223 230.86 223.68 232.1C224.36 233.32 224.7 234.73 224.7 236.33ZM221.13 235.25C221.11 233.99 220.66 232.98 219.78 232.22C218.9 231.46 217.81 231.08 216.51 231.08C215.33 231.08 214.32 231.46 213.48 232.22C212.64 232.96 212.14 233.97 211.98 235.25H221.13ZM250.265 228.47L245.135 245H241.535L238.205 232.79L234.875 245H231.275L226.115 228.47H229.595L233.045 241.76L236.555 228.47H240.125L243.485 241.7L246.905 228.47H250.265ZM275.194 230.36C275.194 231.42 274.944 232.42 274.444 233.36C273.944 234.3 273.144 235.07 272.044 235.67C270.944 236.25 269.534 236.54 267.814 236.54H264.034V245H260.614V224.15H267.814C269.414 224.15 270.764 224.43 271.864 224.99C272.984 225.53 273.814 226.27 274.354 227.21C274.914 228.15 275.194 229.2 275.194 230.36ZM267.814 233.75C269.114 233.75 270.084 233.46 270.724 232.88C271.364 232.28 271.684 231.44 271.684 230.36C271.684 228.08 270.394 226.94 267.814 226.94H264.034V233.75H267.814ZM277.316 236.66C277.316 235 277.656 233.53 278.336 232.25C279.036 230.97 279.976 229.98 281.156 229.28C282.356 228.56 283.676 228.2 285.116 228.2C286.416 228.2 287.546 228.46 288.506 228.98C289.486 229.48 290.266 230.11 290.846 230.87V228.47H294.296V245H290.846V242.54C290.266 243.32 289.476 243.97 288.476 244.49C287.476 245.01 286.336 245.27 285.056 245.27C283.636 245.27 282.336 244.91 281.156 244.19C279.976 243.45 279.036 242.43 278.336 241.13C277.656 239.81 277.316 238.32 277.316 236.66ZM290.846 236.72C290.846 235.58 290.606 234.59 290.126 233.75C289.666 232.91 289.056 232.27 288.296 231.83C287.536 231.39 286.716 231.17 285.836 231.17C284.956 231.17 284.136 231.39 283.376 231.83C282.616 232.25 281.996 232.88 281.516 233.72C281.056 234.54 280.826 235.52 280.826 236.66C280.826 237.8 281.056 238.8 281.516 239.66C281.996 240.52 282.616 241.18 283.376 241.64C284.156 242.08 284.976 242.3 285.836 242.3C286.716 242.3 287.536 242.08 288.296 241.64C289.056 241.2 289.666 240.56 290.126 239.72C290.606 238.86 290.846 237.86 290.846 236.72ZM304.788 245.27C303.488 245.27 302.318 245.04 301.278 244.58C300.258 244.1 299.448 243.46 298.848 242.66C298.248 241.84 297.928 240.93 297.888 239.93H301.428C301.488 240.63 301.818 241.22 302.418 241.7C303.038 242.16 303.808 242.39 304.728 242.39C305.688 242.39 306.428 242.21 306.948 241.85C307.488 241.47 307.758 240.99 307.758 240.41C307.758 239.79 307.458 239.33 306.858 239.03C306.278 238.73 305.348 238.4 304.068 238.04C302.828 237.7 301.818 237.37 301.038 237.05C300.258 236.73 299.578 236.24 298.998 235.58C298.438 234.92 298.158 234.05 298.158 232.97C298.158 232.09 298.418 231.29 298.938 230.57C299.458 229.83 300.198 229.25 301.158 228.83C302.138 228.41 303.258 228.2 304.518 228.2C306.398 228.2 307.908 228.68 309.048 229.64C310.208 230.58 310.828 231.87 310.908 233.51H307.488C307.428 232.77 307.128 232.18 306.588 231.74C306.048 231.3 305.318 231.08 304.398 231.08C303.498 231.08 302.808 231.25 302.328 231.59C301.848 231.93 301.608 232.38 301.608 232.94C301.608 233.38 301.768 233.75 302.088 234.05C302.408 234.35 302.798 234.59 303.258 234.77C303.718 234.93 304.398 235.14 305.298 235.4C306.498 235.72 307.478 236.05 308.238 236.39C309.018 236.71 309.688 237.19 310.248 237.83C310.808 238.47 311.098 239.32 311.118 240.38C311.118 241.32 310.858 242.16 310.338 242.9C309.818 243.64 309.078 244.22 308.118 244.64C307.178 245.06 306.068 245.27 304.788 245.27ZM320.813 245.27C319.513 245.27 318.343 245.04 317.303 244.58C316.283 244.1 315.473 243.46 314.873 242.66C314.273 241.84 313.953 240.93 313.913 239.93H317.453C317.513 240.63 317.843 241.22 318.443 241.7C319.063 242.16 319.833 242.39 320.753 242.39C321.713 242.39 322.453 242.21 322.973 241.85C323.513 241.47 323.783 240.99 323.783 240.41C323.783 239.79 323.483 239.33 322.883 239.03C322.303 238.73 321.373 238.4 320.093 238.04C318.853 237.7 317.843 237.37 317.063 237.05C316.283 236.73 315.603 236.24 315.023 235.58C314.463 234.92 314.183 234.05 314.183 232.97C314.183 232.09 314.443 231.29 314.963 230.57C315.483 229.83 316.223 229.25 317.183 228.83C318.163 228.41 319.283 228.2 320.543 228.2C322.423 228.2 323.933 228.68 325.073 229.64C326.233 230.58 326.853 231.87 326.933 233.51H323.513C323.453 232.77 323.153 232.18 322.613 231.74C322.073 231.3 321.343 231.08 320.423 231.08C319.523 231.08 318.833 231.25 318.353 231.59C317.873 231.93 317.633 232.38 317.633 232.94C317.633 233.38 317.793 233.75 318.113 234.05C318.433 234.35 318.823 234.59 319.283 234.77C319.743 234.93 320.423 235.14 321.323 235.4C322.523 235.72 323.503 236.05 324.263 236.39C325.043 236.71 325.713 237.19 326.273 237.83C326.833 238.47 327.123 239.32 327.143 240.38C327.143 241.32 326.883 242.16 326.363 242.9C325.843 243.64 325.103 244.22 324.143 244.64C323.203 245.06 322.093 245.27 320.813 245.27ZM353.039 228.47L347.909 245H344.309L340.979 232.79L337.649 245H334.049L328.889 228.47H332.369L335.819 241.76L339.329 228.47H342.899L346.259 241.7L349.679 228.47H353.039ZM362.765 245.27C361.205 245.27 359.795 244.92 358.535 244.22C357.275 243.5 356.285 242.5 355.565 241.22C354.845 239.92 354.485 238.42 354.485 236.72C354.485 235.04 354.855 233.55 355.595 232.25C356.335 230.95 357.345 229.95 358.625 229.25C359.905 228.55 361.335 228.2 362.915 228.2C364.495 228.2 365.925 228.55 367.205 229.25C368.485 229.95 369.495 230.95 370.235 232.25C370.975 233.55 371.345 235.04 371.345 236.72C371.345 238.4 370.965 239.89 370.205 241.19C369.445 242.49 368.405 243.5 367.085 244.22C365.785 244.92 364.345 245.27 362.765 245.27ZM362.765 242.3C363.645 242.3 364.465 242.09 365.225 241.67C366.005 241.25 366.635 240.62 367.115 239.78C367.595 238.94 367.835 237.92 367.835 236.72C367.835 235.52 367.605 234.51 367.145 233.69C366.685 232.85 366.075 232.22 365.315 231.8C364.555 231.38 363.735 231.17 362.855 231.17C361.975 231.17 361.155 231.38 360.395 231.8C359.655 232.22 359.065 232.85 358.625 233.69C358.185 234.51 357.965 235.52 357.965 236.72C357.965 238.5 358.415 239.88 359.315 240.86C360.235 241.82 361.385 242.3 362.765 242.3ZM378.146 230.87C378.646 230.03 379.306 229.38 380.126 228.92C380.966 228.44 381.956 228.2 383.096 228.2V231.74H382.226C380.886 231.74 379.866 232.08 379.166 232.76C378.486 233.44 378.146 234.62 378.146 236.3V245H374.726V228.47H378.146V230.87ZM385.099 236.66C385.099 235 385.439 233.53 386.119 232.25C386.819 230.97 387.759 229.98 388.939 229.28C390.139 228.56 391.469 228.2 392.929 228.2C394.009 228.2 395.069 228.44 396.109 228.92C397.169 229.38 398.009 230 398.629 230.78V222.8H402.079V245H398.629V242.51C398.069 243.31 397.289 243.97 396.289 244.49C395.309 245.01 394.179 245.27 392.899 245.27C391.459 245.27 390.139 244.91 388.939 244.19C387.759 243.45 386.819 242.43 386.119 241.13C385.439 239.81 385.099 238.32 385.099 236.66ZM398.629 236.72C398.629 235.58 398.389 234.59 397.909 233.75C397.449 232.91 396.839 232.27 396.079 231.83C395.319 231.39 394.499 231.17 393.619 231.17C392.739 231.17 391.919 231.39 391.159 231.83C390.399 232.25 389.779 232.88 389.299 233.72C388.839 234.54 388.609 235.52 388.609 236.66C388.609 237.8 388.839 238.8 389.299 239.66C389.779 240.52 390.399 241.18 391.159 241.64C391.939 242.08 392.759 242.3 393.619 242.3C394.499 242.3 395.319 242.08 396.079 241.64C396.839 241.2 397.449 240.56 397.909 239.72C398.389 238.86 398.629 237.86 398.629 236.72Z" fill="#666666"/>
<path d="M192.258 345L187.458 336.66H184.848V345H181.428V324.15H188.628C190.228 324.15 191.578 324.43 192.678 324.99C193.798 325.55 194.628 326.3 195.168 327.24C195.728 328.18 196.008 329.23 196.008 330.39C196.008 331.75 195.608 332.99 194.808 334.11C194.028 335.21 192.818 335.96 191.178 336.36L196.338 345H192.258ZM184.848 333.93H188.628C189.908 333.93 190.868 333.61 191.508 332.97C192.168 332.33 192.498 331.47 192.498 330.39C192.498 329.31 192.178 328.47 191.538 327.87C190.898 327.25 189.928 326.94 188.628 326.94H184.848V333.93ZM215.533 336.33C215.533 336.95 215.493 337.51 215.413 338.01H202.783C202.883 339.33 203.373 340.39 204.253 341.19C205.133 341.99 206.213 342.39 207.493 342.39C209.333 342.39 210.633 341.62 211.393 340.08H215.083C214.583 341.6 213.673 342.85 212.353 343.83C211.053 344.79 209.433 345.27 207.493 345.27C205.913 345.27 204.493 344.92 203.233 344.22C201.993 343.5 201.013 342.5 200.293 341.22C199.593 339.92 199.243 338.42 199.243 336.72C199.243 335.02 199.583 333.53 200.263 332.25C200.963 330.95 201.933 329.95 203.173 329.25C204.433 328.55 205.873 328.2 207.493 328.2C209.053 328.2 210.443 328.54 211.663 329.22C212.883 329.9 213.833 330.86 214.513 332.1C215.193 333.32 215.533 334.73 215.533 336.33ZM211.963 335.25C211.943 333.99 211.493 332.98 210.613 332.22C209.733 331.46 208.643 331.08 207.343 331.08C206.163 331.08 205.153 331.46 204.313 332.22C203.473 332.96 202.973 333.97 202.813 335.25H211.963ZM231.588 332.7V335.58H219.258V332.7H231.588ZM251.597 336.33C251.597 336.95 251.557 337.51 251.477 338.01H238.847C238.947 339.33 239.437 340.39 240.317 341.19C241.197 341.99 242.277 342.39 243.557 342.39C245.397 342.39 246.697 341.62 247.457 340.08H251.147C250.647 341.6 249.737 342.85 248.417 343.83C247.117 344.79 245.497 345.27 243.557 345.27C241.977 345.27 240.557 344.92 239.297 344.22C238.057 343.5 237.077 342.5 236.357 341.22C235.657 339.92 235.307 338.42 235.307 336.72C235.307 335.02 235.647 333.53 236.327 332.25C237.027 330.95 237.997 329.95 239.237 329.25C240.497 328.55 241.937 328.2 243.557 328.2C245.117 328.2 246.507 328.54 247.727 329.22C248.947 329.9 249.897 330.86 250.577 332.1C251.257 333.32 251.597 334.73 251.597 336.33ZM248.027 335.25C248.007 333.99 247.557 332.98 246.677 332.22C245.797 331.46 244.707 331.08 243.407 331.08C242.227 331.08 241.217 331.46 240.377 332.22C239.537 332.96 239.037 333.97 238.877 335.25H248.027ZM263.303 328.2C264.603 328.2 265.763 328.47 266.783 329.01C267.823 329.55 268.633 330.35 269.213 331.41C269.793 332.47 270.083 333.75 270.083 335.25V345H266.693V335.76C266.693 334.28 266.323 333.15 265.583 332.37C264.843 331.57 263.833 331.17 262.553 331.17C261.273 331.17 260.253 331.57 259.493 332.37C258.753 333.15 258.383 334.28 258.383 335.76V345H254.963V328.47H258.383V330.36C258.943 329.68 259.653 329.15 260.513 328.77C261.393 328.39 262.323 328.2 263.303 328.2ZM278.435 331.26V340.41C278.435 341.03 278.575 341.48 278.855 341.76C279.155 342.02 279.655 342.15 280.355 342.15H282.455V345H279.755C278.215 345 277.035 344.64 276.215 343.92C275.395 343.2 274.985 342.03 274.985 340.41V331.26H273.035V328.47H274.985V324.36H278.435V328.47H282.455V331.26H278.435ZM300.757 336.33C300.757 336.95 300.717 337.51 300.637 338.01H288.007C288.107 339.33 288.597 340.39 289.477 341.19C290.357 341.99 291.437 342.39 292.717 342.39C294.557 342.39 295.857 341.62 296.617 340.08H300.307C299.807 341.6 298.897 342.85 297.577 343.83C296.277 344.79 294.657 345.27 292.717 345.27C291.137 345.27 289.717 344.92 288.457 344.22C287.217 343.5 286.237 342.5 285.517 341.22C284.817 339.92 284.467 338.42 284.467 336.72C284.467 335.02 284.807 333.53 285.487 332.25C286.187 330.95 287.157 329.95 288.397 329.25C289.657 328.55 291.097 328.2 292.717 328.2C294.277 328.2 295.667 328.54 296.887 329.22C298.107 329.9 299.057 330.86 299.737 332.1C300.417 333.32 300.757 334.73 300.757 336.33ZM297.187 335.25C297.167 333.99 296.717 332.98 295.837 332.22C294.957 331.46 293.867 331.08 292.567 331.08C291.387 331.08 290.377 331.46 289.537 332.22C288.697 332.96 288.197 333.97 288.037 335.25H297.187ZM307.543 330.87C308.043 330.03 308.703 329.38 309.523 328.92C310.363 328.44 311.353 328.2 312.493 328.2V331.74H311.623C310.283 331.74 309.263 332.08 308.563 332.76C307.883 333.44 307.543 334.62 307.543 336.3V345H304.123V328.47H307.543V330.87ZM340.56 345H337.14L326.85 329.43V345H323.43V324.12H326.85L337.14 339.66V324.12H340.56V345ZM360.201 336.33C360.201 336.95 360.161 337.51 360.081 338.01H347.451C347.551 339.33 348.041 340.39 348.921 341.19C349.801 341.99 350.881 342.39 352.161 342.39C354.001 342.39 355.301 341.62 356.061 340.08H359.751C359.251 341.6 358.341 342.85 357.021 343.83C355.721 344.79 354.101 345.27 352.161 345.27C350.581 345.27 349.161 344.92 347.901 344.22C346.661 343.5 345.681 342.5 344.961 341.22C344.261 339.92 343.911 338.42 343.911 336.72C343.911 335.02 344.251 333.53 344.931 332.25C345.631 330.95 346.601 329.95 347.841 329.25C349.101 328.55 350.541 328.2 352.161 328.2C353.721 328.2 355.111 328.54 356.331 329.22C357.551 329.9 358.501 330.86 359.181 332.1C359.861 333.32 360.201 334.73 360.201 336.33ZM356.631 335.25C356.611 333.99 356.161 332.98 355.281 332.22C354.401 331.46 353.311 331.08 352.011 331.08C350.831 331.08 349.821 331.46 348.981 332.22C348.141 332.96 347.641 333.97 347.481 335.25H356.631ZM385.766 328.47L380.636 345H377.036L373.706 332.79L370.376 345H366.776L361.616 328.47H365.096L368.546 341.76L372.056 328.47H375.626L378.986 341.7L382.406 328.47H385.766ZM410.695 330.36C410.695 331.42 410.445 332.42 409.945 333.36C409.445 334.3 408.645 335.07 407.545 335.67C406.445 336.25 405.035 336.54 403.315 336.54H399.535V345H396.115V324.15H403.315C404.915 324.15 406.265 324.43 407.365 324.99C408.485 325.53 409.315 326.27 409.855 327.21C410.415 328.15 410.695 329.2 410.695 330.36ZM403.315 333.75C404.615 333.75 405.585 333.46 406.225 332.88C406.865 332.28 407.185 331.44 407.185 330.36C407.185 328.08 405.895 326.94 403.315 326.94H399.535V333.75H403.315ZM412.817 336.66C412.817 335 413.157 333.53 413.837 332.25C414.537 330.97 415.477 329.98 416.657 329.28C417.857 328.56 419.177 328.2 420.617 328.2C421.917 328.2 423.047 328.46 424.007 328.98C424.987 329.48 425.767 330.11 426.347 330.87V328.47H429.797V345H426.347V342.54C425.767 343.32 424.977 343.97 423.977 344.49C422.977 345.01 421.837 345.27 420.557 345.27C419.137 345.27 417.837 344.91 416.657 344.19C415.477 343.45 414.537 342.43 413.837 341.13C413.157 339.81 412.817 338.32 412.817 336.66ZM426.347 336.72C426.347 335.58 426.107 334.59 425.627 333.75C425.167 332.91 424.557 332.27 423.797 331.83C423.037 331.39 422.217 331.17 421.337 331.17C420.457 331.17 419.637 331.39 418.877 331.83C418.117 332.25 417.497 332.88 417.017 333.72C416.557 334.54 416.327 335.52 416.327 336.66C416.327 337.8 416.557 338.8 417.017 339.66C417.497 340.52 418.117 341.18 418.877 341.64C419.657 342.08 420.477 342.3 421.337 342.3C422.217 342.3 423.037 342.08 423.797 341.64C424.557 341.2 425.167 340.56 425.627 339.72C426.107 338.86 426.347 337.86 426.347 336.72ZM440.289 345.27C438.989 345.27 437.819 345.04 436.779 344.58C435.759 344.1 434.949 343.46 434.349 342.66C433.749 341.84 433.429 340.93 433.389 339.93H436.929C436.989 340.63 437.319 341.22 437.919 341.7C438.539 342.16 439.309 342.39 440.229 342.39C441.189 342.39 441.929 342.21 442.449 341.85C442.989 341.47 443.259 340.99 443.259 340.41C443.259 339.79 442.959 339.33 442.359 339.03C441.779 338.73 440.849 338.4 439.569 338.04C438.329 337.7 437.319 337.37 436.539 337.05C435.759 336.73 435.079 336.24 434.499 335.58C433.939 334.92 433.659 334.05 433.659 332.97C433.659 332.09 433.919 331.29 434.439 330.57C434.959 329.83 435.699 329.25 436.659 328.83C437.639 328.41 438.759 328.2 440.019 328.2C441.899 328.2 443.409 328.68 444.549 329.64C445.709 330.58 446.329 331.87 446.409 333.51H442.989C442.929 332.77 442.629 332.18 442.089 331.74C441.549 331.3 440.819 331.08 439.899 331.08C438.999 331.08 438.309 331.25 437.829 331.59C437.349 331.93 437.109 332.38 437.109 332.94C437.109 333.38 437.269 333.75 437.589 334.05C437.909 334.35 438.299 334.59 438.759 334.77C439.219 334.93 439.899 335.14 440.799 335.4C441.999 335.72 442.979 336.05 443.739 336.39C444.519 336.71 445.189 337.19 445.749 337.83C446.309 338.47 446.599 339.32 446.619 340.38C446.619 341.32 446.359 342.16 445.839 342.9C445.319 343.64 444.579 344.22 443.619 344.64C442.679 345.06 441.569 345.27 440.289 345.27ZM456.314 345.27C455.014 345.27 453.844 345.04 452.804 344.58C451.784 344.1 450.974 343.46 450.374 342.66C449.774 341.84 449.454 340.93 449.414 339.93H452.954C453.014 340.63 453.344 341.22 453.944 341.7C454.564 342.16 455.334 342.39 456.254 342.39C457.214 342.39 457.954 342.21 458.474 341.85C459.014 341.47 459.284 340.99 459.284 340.41C459.284 339.79 458.984 339.33 458.384 339.03C457.804 338.73 456.874 338.4 455.594 338.04C454.354 337.7 453.344 337.37 452.564 337.05C451.784 336.73 451.104 336.24 450.524 335.58C449.964 334.92 449.684 334.05 449.684 332.97C449.684 332.09 449.944 331.29 450.464 330.57C450.984 329.83 451.724 329.25 452.684 328.83C453.664 328.41 454.784 328.2 456.044 328.2C457.924 328.2 459.434 328.68 460.574 329.64C461.734 330.58 462.354 331.87 462.434 333.51H459.014C458.954 332.77 458.654 332.18 458.114 331.74C457.574 331.3 456.844 331.08 455.924 331.08C455.024 331.08 454.334 331.25 453.854 331.59C453.374 331.93 453.134 332.38 453.134 332.94C453.134 333.38 453.294 333.75 453.614 334.05C453.934 334.35 454.324 334.59 454.784 334.77C455.244 334.93 455.924 335.14 456.824 335.4C458.024 335.72 459.004 336.05 459.764 336.39C460.544 336.71 461.214 337.19 461.774 337.83C462.334 338.47 462.624 339.32 462.644 340.38C462.644 341.32 462.384 342.16 461.864 342.9C461.344 343.64 460.604 344.22 459.644 344.64C458.704 345.06 457.594 345.27 456.314 345.27ZM488.54 328.47L483.41 345H479.81L476.48 332.79L473.15 345H469.55L464.39 328.47H467.87L471.32 341.76L474.83 328.47H478.4L481.76 341.7L485.18 328.47H488.54ZM498.266 345.27C496.706 345.27 495.296 344.92 494.036 344.22C492.776 343.5 491.786 342.5 491.066 341.22C490.346 339.92 489.986 338.42 489.986 336.72C489.986 335.04 490.356 333.55 491.096 332.25C491.836 330.95 492.846 329.95 494.126 329.25C495.406 328.55 496.836 328.2 498.416 328.2C499.996 328.2 501.426 328.55 502.706 329.25C503.986 329.95 504.996 330.95 505.736 332.25C506.476 333.55 506.846 335.04 506.846 336.72C506.846 338.4 506.466 339.89 505.706 341.19C504.946 342.49 503.906 343.5 502.586 344.22C501.286 344.92 499.846 345.27 498.266 345.27ZM498.266 342.3C499.146 342.3 499.966 342.09 500.726 341.67C501.506 341.25 502.136 340.62 502.616 339.78C503.096 338.94 503.336 337.92 503.336 336.72C503.336 335.52 503.106 334.51 502.646 333.69C502.186 332.85 501.576 332.22 500.816 331.8C500.056 331.38 499.236 331.17 498.356 331.17C497.476 331.17 496.656 331.38 495.896 331.8C495.156 332.22 494.566 332.85 494.126 333.69C493.686 334.51 493.466 335.52 493.466 336.72C493.466 338.5 493.916 339.88 494.816 340.86C495.736 341.82 496.886 342.3 498.266 342.3ZM513.647 330.87C514.147 330.03 514.807 329.38 515.627 328.92C516.467 328.44 517.457 328.2 518.597 328.2V331.74H517.727C516.387 331.74 515.367 332.08 514.667 332.76C513.987 333.44 513.647 334.62 513.647 336.3V345H510.227V328.47H513.647V330.87ZM520.6 336.66C520.6 335 520.94 333.53 521.62 332.25C522.32 330.97 523.26 329.98 524.44 329.28C525.64 328.56 526.97 328.2 528.43 328.2C529.51 328.2 530.57 328.44 531.61 328.92C532.67 329.38 533.51 330 534.13 330.78V322.8H537.58V345H534.13V342.51C533.57 343.31 532.79 343.97 531.79 344.49C530.81 345.01 529.68 345.27 528.4 345.27C526.96 345.27 525.64 344.91 524.44 344.19C523.26 343.45 522.32 342.43 521.62 341.13C520.94 339.81 520.6 338.32 520.6 336.66ZM534.13 336.72C534.13 335.58 533.89 334.59 533.41 333.75C532.95 332.91 532.34 332.27 531.58 331.83C530.82 331.39 530 331.17 529.12 331.17C528.24 331.17 527.42 331.39 526.66 331.83C525.9 332.25 525.28 332.88 524.8 333.72C524.34 334.54 524.11 335.52 524.11 336.66C524.11 337.8 524.34 338.8 524.8 339.66C525.28 340.52 525.9 341.18 526.66 341.64C527.44 342.08 528.26 342.3 529.12 342.3C530 342.3 530.82 342.08 531.58 341.64C532.34 341.2 532.95 340.56 533.41 339.72C533.89 338.86 534.13 337.86 534.13 336.72Z" fill="#666666"/>
<path d="M187.798 134.53C187.798 132.49 188.268 130.66 189.208 129.04C190.168 127.42 191.458 126.16 193.078 125.26C194.718 124.34 196.508 123.88 198.448 123.88C200.668 123.88 202.638 124.43 204.358 125.53C206.098 126.61 207.358 128.15 208.138 130.15H204.028C203.488 129.05 202.738 128.23 201.778 127.69C200.818 127.15 199.708 126.88 198.448 126.88C197.068 126.88 195.838 127.19 194.758 127.81C193.678 128.43 192.828 129.32 192.208 130.48C191.608 131.64 191.308 132.99 191.308 134.53C191.308 136.07 191.608 137.42 192.208 138.58C192.828 139.74 193.678 140.64 194.758 141.28C195.838 141.9 197.068 142.21 198.448 142.21C199.708 142.21 200.818 141.94 201.778 141.4C202.738 140.86 203.488 140.04 204.028 138.94H208.138C207.358 140.94 206.098 142.48 204.358 143.56C202.638 144.64 200.668 145.18 198.448 145.18C196.488 145.18 194.698 144.73 193.078 143.83C191.458 142.91 190.168 141.64 189.208 140.02C188.268 138.4 187.798 136.57 187.798 134.53ZM227.112 128.47V145H223.692V143.05C223.152 143.73 222.442 144.27 221.562 144.67C220.702 145.05 219.782 145.24 218.802 145.24C217.502 145.24 216.332 144.97 215.292 144.43C214.272 143.89 213.462 143.09 212.862 142.03C212.282 140.97 211.992 139.69 211.992 138.19V128.47H215.382V137.68C215.382 139.16 215.752 140.3 216.492 141.1C217.232 141.88 218.242 142.27 219.522 142.27C220.802 142.27 221.812 141.88 222.552 141.1C223.312 140.3 223.692 139.16 223.692 137.68V128.47H227.112ZM235.044 130.87C235.544 130.03 236.204 129.38 237.024 128.92C237.864 128.44 238.854 128.2 239.994 128.2V131.74H239.124C237.784 131.74 236.764 132.08 236.064 132.76C235.384 133.44 235.044 134.62 235.044 136.3V145H231.624V128.47H235.044V130.87ZM246.558 130.87C247.058 130.03 247.718 129.38 248.538 128.92C249.378 128.44 250.368 128.2 251.508 128.2V131.74H250.638C249.298 131.74 248.278 132.08 247.578 132.76C246.898 133.44 246.558 134.62 246.558 136.3V145H243.138V128.47H246.558V130.87ZM269.801 136.33C269.801 136.95 269.761 137.51 269.681 138.01H257.051C257.151 139.33 257.641 140.39 258.521 141.19C259.401 141.99 260.481 142.39 261.761 142.39C263.601 142.39 264.901 141.62 265.661 140.08H269.351C268.851 141.6 267.941 142.85 266.621 143.83C265.321 144.79 263.701 145.27 261.761 145.27C260.181 145.27 258.761 144.92 257.501 144.22C256.261 143.5 255.281 142.5 254.561 141.22C253.861 139.92 253.511 138.42 253.511 136.72C253.511 135.02 253.851 133.53 254.531 132.25C255.231 130.95 256.201 129.95 257.441 129.25C258.701 128.55 260.141 128.2 261.761 128.2C263.321 128.2 264.711 128.54 265.931 129.22C267.151 129.9 268.101 130.86 268.781 132.1C269.461 133.32 269.801 134.73 269.801 136.33ZM266.231 135.25C266.211 133.99 265.761 132.98 264.881 132.22C264.001 131.46 262.911 131.08 261.611 131.08C260.431 131.08 259.421 131.46 258.581 132.22C257.741 132.96 257.241 133.97 257.081 135.25H266.231ZM281.507 128.2C282.807 128.2 283.967 128.47 284.987 129.01C286.027 129.55 286.837 130.35 287.417 131.41C287.997 132.47 288.287 133.75 288.287 135.25V145H284.897V135.76C284.897 134.28 284.527 133.15 283.787 132.37C283.047 131.57 282.037 131.17 280.757 131.17C279.477 131.17 278.457 131.57 277.697 132.37C276.957 133.15 276.587 134.28 276.587 135.76V145H273.167V128.47H276.587V130.36C277.147 129.68 277.857 129.15 278.717 128.77C279.597 128.39 280.527 128.2 281.507 128.2ZM296.639 131.26V140.41C296.639 141.03 296.779 141.48 297.059 141.76C297.359 142.02 297.859 142.15 298.559 142.15H300.659V145H297.959C296.419 145 295.239 144.64 294.419 143.92C293.599 143.2 293.189 142.03 293.189 140.41V131.26H291.239V128.47H293.189V124.36H296.639V128.47H300.659V131.26H296.639ZM326.184 130.36C326.184 131.42 325.934 132.42 325.434 133.36C324.934 134.3 324.134 135.07 323.034 135.67C321.934 136.25 320.524 136.54 318.804 136.54H315.024V145H311.604V124.15H318.804C320.404 124.15 321.754 124.43 322.854 124.99C323.974 125.53 324.804 126.27 325.344 127.21C325.904 128.15 326.184 129.2 326.184 130.36ZM318.804 133.75C320.104 133.75 321.074 133.46 321.714 132.88C322.354 132.28 322.674 131.44 322.674 130.36C322.674 128.08 321.384 126.94 318.804 126.94H315.024V133.75H318.804ZM328.306 136.66C328.306 135 328.646 133.53 329.326 132.25C330.026 130.97 330.966 129.98 332.146 129.28C333.346 128.56 334.666 128.2 336.106 128.2C337.406 128.2 338.536 128.46 339.496 128.98C340.476 129.48 341.256 130.11 341.836 130.87V128.47H345.286V145H341.836V142.54C341.256 143.32 340.466 143.97 339.466 144.49C338.466 145.01 337.326 145.27 336.046 145.27C334.626 145.27 333.326 144.91 332.146 144.19C330.966 143.45 330.026 142.43 329.326 141.13C328.646 139.81 328.306 138.32 328.306 136.66ZM341.836 136.72C341.836 135.58 341.596 134.59 341.116 133.75C340.656 132.91 340.046 132.27 339.286 131.83C338.526 131.39 337.706 131.17 336.826 131.17C335.946 131.17 335.126 131.39 334.366 131.83C333.606 132.25 332.986 132.88 332.506 133.72C332.046 134.54 331.816 135.52 331.816 136.66C331.816 137.8 332.046 138.8 332.506 139.66C332.986 140.52 333.606 141.18 334.366 141.64C335.146 142.08 335.966 142.3 336.826 142.3C337.706 142.3 338.526 142.08 339.286 141.64C340.046 141.2 340.656 140.56 341.116 139.72C341.596 138.86 341.836 137.86 341.836 136.72ZM355.778 145.27C354.478 145.27 353.308 145.04 352.268 144.58C351.248 144.1 350.438 143.46 349.838 142.66C349.238 141.84 348.918 140.93 348.878 139.93H352.418C352.478 140.63 352.808 141.22 353.408 141.7C354.028 142.16 354.798 142.39 355.718 142.39C356.678 142.39 357.418 142.21 357.938 141.85C358.478 141.47 358.748 140.99 358.748 140.41C358.748 139.79 358.448 139.33 357.848 139.03C357.268 138.73 356.338 138.4 355.058 138.04C353.818 137.7 352.808 137.37 352.028 137.05C351.248 136.73 350.568 136.24 349.988 135.58C349.428 134.92 349.148 134.05 349.148 132.97C349.148 132.09 349.408 131.29 349.928 130.57C350.448 129.83 351.188 129.25 352.148 128.83C353.128 128.41 354.248 128.2 355.508 128.2C357.388 128.2 358.898 128.68 360.038 129.64C361.198 130.58 361.818 131.87 361.898 133.51H358.478C358.418 132.77 358.118 132.18 357.578 131.74C357.038 131.3 356.308 131.08 355.388 131.08C354.488 131.08 353.798 131.25 353.318 131.59C352.838 131.93 352.598 132.38 352.598 132.94C352.598 133.38 352.758 133.75 353.078 134.05C353.398 134.35 353.788 134.59 354.248 134.77C354.708 134.93 355.388 135.14 356.288 135.4C357.488 135.72 358.468 136.05 359.228 136.39C360.008 136.71 360.678 137.19 361.238 137.83C361.798 138.47 362.088 139.32 362.108 140.38C362.108 141.32 361.848 142.16 361.328 142.9C360.808 143.64 360.068 144.22 359.108 144.64C358.168 145.06 357.058 145.27 355.778 145.27ZM371.804 145.27C370.504 145.27 369.334 145.04 368.294 144.58C367.274 144.1 366.464 143.46 365.864 142.66C365.264 141.84 364.944 140.93 364.904 139.93H368.444C368.504 140.63 368.834 141.22 369.434 141.7C370.054 142.16 370.824 142.39 371.744 142.39C372.704 142.39 373.444 142.21 373.964 141.85C374.504 141.47 374.774 140.99 374.774 140.41C374.774 139.79 374.474 139.33 373.874 139.03C373.294 138.73 372.364 138.4 371.084 138.04C369.844 137.7 368.834 137.37 368.054 137.05C367.274 136.73 366.594 136.24 366.014 135.58C365.454 134.92 365.174 134.05 365.174 132.97C365.174 132.09 365.434 131.29 365.954 130.57C366.474 129.83 367.214 129.25 368.174 128.83C369.154 128.41 370.274 128.2 371.534 128.2C373.414 128.2 374.924 128.68 376.064 129.64C377.224 130.58 377.844 131.87 377.924 133.51H374.504C374.444 132.77 374.144 132.18 373.604 131.74C373.064 131.3 372.334 131.08 371.414 131.08C370.514 131.08 369.824 131.25 369.344 131.59C368.864 131.93 368.624 132.38 368.624 132.94C368.624 133.38 368.784 133.75 369.104 134.05C369.424 134.35 369.814 134.59 370.274 134.77C370.734 134.93 371.414 135.14 372.314 135.4C373.514 135.72 374.494 136.05 375.254 136.39C376.034 136.71 376.704 137.19 377.264 137.83C377.824 138.47 378.114 139.32 378.134 140.38C378.134 141.32 377.874 142.16 377.354 142.9C376.834 143.64 376.094 144.22 375.134 144.64C374.194 145.06 373.084 145.27 371.804 145.27ZM404.029 128.47L398.899 145H395.299L391.969 132.79L388.639 145H385.039L379.879 128.47H383.359L386.809 141.76L390.319 128.47H393.889L397.249 141.7L400.669 128.47H404.029ZM413.755 145.27C412.195 145.27 410.785 144.92 409.525 144.22C408.265 143.5 407.275 142.5 406.555 141.22C405.835 139.92 405.475 138.42 405.475 136.72C405.475 135.04 405.845 133.55 406.585 132.25C407.325 130.95 408.335 129.95 409.615 129.25C410.895 128.55 412.325 128.2 413.905 128.2C415.485 128.2 416.915 128.55 418.195 129.25C419.475 129.95 420.485 130.95 421.225 132.25C421.965 133.55 422.335 135.04 422.335 136.72C422.335 138.4 421.955 139.89 421.195 141.19C420.435 142.49 419.395 143.5 418.075 144.22C416.775 144.92 415.335 145.27 413.755 145.27ZM413.755 142.3C414.635 142.3 415.455 142.09 416.215 141.67C416.995 141.25 417.625 140.62 418.105 139.78C418.585 138.94 418.825 137.92 418.825 136.72C418.825 135.52 418.595 134.51 418.135 133.69C417.675 132.85 417.065 132.22 416.305 131.8C415.545 131.38 414.725 131.17 413.845 131.17C412.965 131.17 412.145 131.38 411.385 131.8C410.645 132.22 410.055 132.85 409.615 133.69C409.175 134.51 408.955 135.52 408.955 136.72C408.955 138.5 409.405 139.88 410.305 140.86C411.225 141.82 412.375 142.3 413.755 142.3ZM429.136 130.87C429.636 130.03 430.296 129.38 431.116 128.92C431.956 128.44 432.946 128.2 434.086 128.2V131.74H433.216C431.876 131.74 430.856 132.08 430.156 132.76C429.476 133.44 429.136 134.62 429.136 136.3V145H425.716V128.47H429.136V130.87ZM436.089 136.66C436.089 135 436.429 133.53 437.109 132.25C437.809 130.97 438.749 129.98 439.929 129.28C441.129 128.56 442.459 128.2 443.919 128.2C444.999 128.2 446.059 128.44 447.099 128.92C448.159 129.38 448.999 130 449.619 130.78V122.8H453.069V145H449.619V142.51C449.059 143.31 448.279 143.97 447.279 144.49C446.299 145.01 445.169 145.27 443.889 145.27C442.449 145.27 441.129 144.91 439.929 144.19C438.749 143.45 437.809 142.43 437.109 141.13C436.429 139.81 436.089 138.32 436.089 136.66ZM449.619 136.72C449.619 135.58 449.379 134.59 448.899 133.75C448.439 132.91 447.829 132.27 447.069 131.83C446.309 131.39 445.489 131.17 444.609 131.17C443.729 131.17 442.909 131.39 442.149 131.83C441.389 132.25 440.769 132.88 440.289 133.72C439.829 134.54 439.599 135.52 439.599 136.66C439.599 137.8 439.829 138.8 440.289 139.66C440.769 140.52 441.389 141.18 442.149 141.64C442.929 142.08 443.749 142.3 444.609 142.3C445.489 142.3 446.309 142.08 447.069 141.64C447.829 141.2 448.439 140.56 448.899 139.72C449.379 138.86 449.619 137.86 449.619 136.72Z" fill="#666666"/>
<path d="M703 34L697 40M703 40L697 34L703 40Z" stroke="black" stroke-width="2" stroke-linecap="round"/>
<path d="M700 47C705.523 47 710 42.5228 710 37C710 31.4772 705.523 27 700 27C694.477 27 690 31.4772 690 37C690 42.5228 694.477 47 700 47Z" stroke="black" stroke-width="2"/>
</g>
<defs>
<clipPath id="clip0">
<rect width="732" height="483" fill="white"/>
</clipPath>
</defs>
</svg>
