<svg width="732" height="483" viewBox="0 0 732 483" fill="none" xmlns="http://www.w3.org/2000/svg">
<g clip-path="url(#clip0)">
<rect width="732" height="483" fill="white"/>
<path d="M0 8C0 3.58172 3.58172 0 8 0H825C829.418 0 833 3.58172 833 8V74H0V8Z" fill="#C4C4C4"/>
<path d="M21.196 14.656C14.14 14.656 8.41598 19.948 8.41598 27.436C8.41598 34.96 14.14 40.216 21.196 40.216C27.928 40.216 32.824 35.284 33.58 29.488V26.284H19.792V29.56H29.188C28.576 33.772 25.732 36.508 21.196 36.508C16.228 36.508 12.628 32.944 12.628 27.436C12.628 21.928 16.228 18.4 21.196 18.4C24.184 18.4 26.56 19.66 27.892 22.18H32.824C30.916 17.284 26.416 14.656 21.196 14.656ZM45.9797 23.296C49.0397 23.296 51.4517 25.24 51.5237 28.3H40.5437C40.9757 25.168 43.2077 23.296 45.9797 23.296ZM55.2677 34.096H50.8397C50.0837 35.644 48.6797 36.868 46.1597 36.868C43.1357 36.868 40.7957 34.888 40.5077 31.612H55.6637C55.7717 30.928 55.8077 30.28 55.8077 29.596C55.8077 23.764 51.8117 19.84 46.1597 19.84C40.2917 19.84 36.2597 23.836 36.2597 30.064C36.2597 36.292 40.4717 40.324 46.1597 40.324C51.0197 40.324 54.1517 37.552 55.2677 34.096ZM60.4945 34.492C60.4945 38.524 62.6905 40 66.2185 40H69.4585V36.58H66.9385C65.2105 36.58 64.6345 35.968 64.6345 34.492V23.512H69.4585V20.164H64.6345V15.232H60.4945V20.164H58.1545V23.512H60.4945V34.492ZM73.889 34.492C73.889 38.524 76.085 40 79.613 40H82.853V36.58H80.333C78.605 36.58 78.029 35.968 78.029 34.492V23.512H82.853V20.164H78.029V15.232H73.889V20.164H71.549V23.512H73.889V34.492ZM86.6355 40H90.7395V20.164H86.6355V40ZM88.7235 17.536C90.1635 17.536 91.3155 16.384 91.3155 14.908C91.3155 13.432 90.1635 12.28 88.7235 12.28C87.2475 12.28 86.0955 13.432 86.0955 14.908C86.0955 16.384 87.2475 17.536 88.7235 17.536ZM110.204 40H114.272V28.3C114.272 22.756 110.78 19.84 106.136 19.84C103.76 19.84 101.564 20.812 100.232 22.432V20.164H96.1277V40H100.232V28.912C100.232 25.276 102.212 23.404 105.236 23.404C108.224 23.404 110.204 25.276 110.204 28.912V40ZM118.139 29.992C118.139 36.112 122.279 40.324 127.499 40.324C130.739 40.324 133.115 38.704 134.375 37.012V40.324C134.375 44.284 131.999 46.228 128.831 46.228C125.987 46.228 123.791 44.824 123.179 42.772H119.111C119.615 47.164 123.539 49.792 128.831 49.792C135.023 49.792 138.515 45.724 138.515 40.324V20.164H134.375V23.044C133.151 21.352 130.739 19.84 127.499 19.84C122.279 19.84 118.139 23.872 118.139 29.992ZM134.375 30.064C134.375 34.348 131.459 36.76 128.363 36.76C125.303 36.76 122.351 34.276 122.351 29.992C122.351 25.708 125.303 23.404 128.363 23.404C131.459 23.404 134.375 25.816 134.375 30.064ZM170.141 32.908C170.141 23.764 156.893 27.292 156.893 21.64C156.893 19.228 158.729 18.076 161.105 18.148C163.697 18.22 165.173 19.768 165.317 21.46H169.853C169.493 17.176 166.109 14.656 161.321 14.656C156.209 14.656 152.717 17.392 152.717 21.784C152.717 31 166.001 27.076 166.001 33.124C166.001 35.248 164.381 36.796 161.501 36.796C158.657 36.796 157.217 35.14 157.037 33.088H152.645C152.645 37.516 156.497 40.252 161.501 40.252C167.081 40.252 170.141 36.652 170.141 32.908ZM175.631 34.492C175.631 38.524 177.827 40 181.355 40H184.595V36.58H182.075C180.347 36.58 179.771 35.968 179.771 34.492V23.512H184.595V20.164H179.771V15.232H175.631V20.164H173.291V23.512H175.631V34.492ZM187.01 29.992C187.01 36.112 191.15 40.324 196.298 40.324C199.61 40.324 201.986 38.74 203.246 37.048V40H207.386V20.164H203.246V23.044C202.022 21.424 199.718 19.84 196.37 19.84C191.15 19.84 187.01 23.872 187.01 29.992ZM203.246 30.064C203.246 34.348 200.33 36.76 197.234 36.76C194.174 36.76 191.222 34.276 191.222 29.992C191.222 25.708 194.174 23.404 197.234 23.404C200.33 23.404 203.246 25.816 203.246 30.064ZM216.88 29.56C216.88 25.348 218.752 24.088 221.776 24.088H222.82V19.84C220.012 19.84 218.032 21.064 216.88 23.044V20.164H212.776V40H216.88V29.56ZM227.241 34.492C227.241 38.524 229.437 40 232.965 40H236.205V36.58H233.685C231.957 36.58 231.381 35.968 231.381 34.492V23.512H236.205V20.164H231.381V15.232H227.241V20.164H224.901V23.512H227.241V34.492ZM248.339 23.296C251.399 23.296 253.811 25.24 253.883 28.3H242.903C243.335 25.168 245.567 23.296 248.339 23.296ZM257.627 34.096H253.199C252.443 35.644 251.039 36.868 248.519 36.868C245.495 36.868 243.155 34.888 242.867 31.612H258.023C258.131 30.928 258.167 30.28 258.167 29.596C258.167 23.764 254.171 19.84 248.519 19.84C242.651 19.84 238.619 23.836 238.619 30.064C238.619 36.292 242.831 40.324 248.519 40.324C253.379 40.324 256.511 37.552 257.627 34.096ZM260.838 29.992C260.838 36.112 264.978 40.324 270.198 40.324C273.438 40.324 275.814 38.812 277.074 37.012V40H281.214V13.36H277.074V22.936C275.562 21.064 272.826 19.84 270.234 19.84C264.978 19.84 260.838 23.872 260.838 29.992ZM277.074 30.064C277.074 34.348 274.158 36.76 271.062 36.76C268.002 36.76 265.05 34.276 265.05 29.992C265.05 25.708 268.002 23.404 271.062 23.404C274.158 23.404 277.074 25.816 277.074 30.064ZM299.808 40H304.128L308.124 25.348L312.12 40H316.44L322.596 20.164H318.564L314.46 36.04L310.428 20.164H306.144L301.932 36.112L297.792 20.164H293.616L299.808 40ZM325.663 40H329.767V20.164H325.663V40ZM327.751 17.536C329.191 17.536 330.343 16.384 330.343 14.908C330.343 13.432 329.191 12.28 327.751 12.28C326.275 12.28 325.123 13.432 325.123 14.908C325.123 16.384 326.275 17.536 327.751 17.536ZM335.803 34.492C335.803 38.524 337.999 40 341.527 40H344.767V36.58H342.247C340.519 36.58 339.943 35.968 339.943 34.492V23.512H344.767V20.164H339.943V15.232H335.803V20.164H333.463V23.512H335.803V34.492ZM348.55 40H352.654V28.912C352.654 25.276 354.634 23.404 357.658 23.404C360.646 23.404 362.626 25.276 362.626 28.912V40H366.694V28.3C366.694 22.756 363.238 19.84 358.81 19.84C356.254 19.84 354.022 20.812 352.654 22.468V13.36H348.55V40ZM392.692 14.656C385.636 14.656 379.912 19.948 379.912 27.436C379.912 34.96 385.636 40.216 392.692 40.216C399.424 40.216 404.32 35.284 405.076 29.488V26.284H391.288V29.56H400.684C400.072 33.772 397.228 36.508 392.692 36.508C387.724 36.508 384.124 32.944 384.124 27.436C384.124 21.928 387.724 18.4 392.692 18.4C395.68 18.4 398.056 19.66 399.388 22.18H404.32C402.412 17.284 397.912 14.656 392.692 14.656ZM407.756 29.992C407.756 36.112 411.896 40.324 417.044 40.324C420.356 40.324 422.732 38.74 423.992 37.048V40H428.132V20.164H423.992V23.044C422.768 21.424 420.464 19.84 417.116 19.84C411.896 19.84 407.756 23.872 407.756 29.992ZM423.992 30.064C423.992 34.348 421.076 36.76 417.98 36.76C414.92 36.76 411.968 34.276 411.968 29.992C411.968 25.708 414.92 23.404 417.98 23.404C421.076 23.404 423.992 25.816 423.992 30.064ZM437.626 29.56C437.626 25.348 439.498 24.088 442.522 24.088H443.566V19.84C440.758 19.84 438.778 21.064 437.626 23.044V20.164H433.522V40H437.626V29.56ZM475.455 40H479.523V28.3C479.523 22.756 475.995 19.84 471.351 19.84C468.471 19.84 465.663 21.352 464.439 23.764C463.071 21.172 460.443 19.84 457.311 19.84C454.935 19.84 452.775 20.812 451.443 22.432V20.164H447.339V40H451.443V28.912C451.443 25.276 453.423 23.404 456.447 23.404C459.435 23.404 461.415 25.276 461.415 28.912V40H465.483V28.912C465.483 25.276 467.463 23.404 470.487 23.404C473.475 23.404 475.455 25.276 475.455 28.912V40ZM484.745 40H488.849V20.164H484.745V40ZM486.833 17.536C488.273 17.536 489.425 16.384 489.425 14.908C489.425 13.432 488.273 12.28 486.833 12.28C485.357 12.28 484.205 13.432 484.205 14.908C484.205 16.384 485.357 17.536 486.833 17.536ZM508.313 40H512.381V28.3C512.381 22.756 508.889 19.84 504.245 19.84C501.869 19.84 499.673 20.812 498.341 22.432V20.164H494.237V40H498.341V28.912C498.341 25.276 500.321 23.404 503.345 23.404C506.333 23.404 508.313 25.276 508.313 28.912V40Z" fill="black"/>
<path d="M29.434 100.296H20.218V117H29.434V114.768H22.954V109.656H28.714V107.424H22.954V102.528H29.434V100.296ZM42.1879 117H44.8999V109.2C44.8999 105.504 42.5719 103.56 39.4759 103.56C37.8919 103.56 36.4279 104.208 35.5399 105.288V103.776H32.8039V117H35.5399V109.608C35.5399 107.184 36.8599 105.936 38.8759 105.936C40.8679 105.936 42.1879 107.184 42.1879 109.608V117ZM47.4778 110.328C47.4778 114.408 50.2378 117.216 53.6698 117.216C55.8778 117.216 57.4618 116.16 58.3018 115.032V117H61.0618V103.776H58.3018V105.696C57.4858 104.616 55.9498 103.56 53.7178 103.56C50.2378 103.56 47.4778 106.248 47.4778 110.328ZM58.3018 110.376C58.3018 113.232 56.3578 114.84 54.2938 114.84C52.2538 114.84 50.2858 113.184 50.2858 110.328C50.2858 107.472 52.2538 105.936 54.2938 105.936C56.3578 105.936 58.3018 107.544 58.3018 110.376ZM67.3915 105.744V99.24H64.6555V117H67.3915V115.08C68.2555 116.232 69.8155 117.216 71.9995 117.216C75.4795 117.216 78.2155 114.408 78.2155 110.328C78.2155 106.248 75.5035 103.56 71.9995 103.56C69.9115 103.56 68.2555 104.544 67.3915 105.744ZM75.4315 110.328C75.4315 113.184 73.4635 114.84 71.3995 114.84C69.3595 114.84 67.3915 113.232 67.3915 110.376C67.3915 107.544 69.3595 105.936 71.3995 105.936C73.4635 105.936 75.4315 107.472 75.4315 110.328ZM80.9211 117H83.6571V99.24H80.9211V117ZM92.8172 105.864C94.8572 105.864 96.4652 107.16 96.5132 109.2H89.1932C89.4812 107.112 90.9692 105.864 92.8172 105.864ZM99.0092 113.064H96.0572C95.5532 114.096 94.6172 114.912 92.9372 114.912C90.9212 114.912 89.3612 113.592 89.1692 111.408H99.2732C99.3452 110.952 99.3692 110.52 99.3692 110.064C99.3692 106.176 96.7052 103.56 92.9372 103.56C89.0252 103.56 86.3372 106.224 86.3372 110.376C86.3372 114.528 89.1452 117.216 92.9372 117.216C96.1772 117.216 98.2652 115.368 99.0092 113.064ZM118.16 113.304C118.016 108.528 110.552 110.016 110.552 107.352C110.552 106.464 111.32 105.864 112.784 105.864C114.272 105.864 115.16 106.656 115.256 107.808H117.992C117.848 105.168 115.88 103.56 112.88 103.56C109.76 103.56 107.792 105.264 107.792 107.376C107.792 112.224 115.472 110.736 115.472 113.328C115.472 114.24 114.632 114.912 113.048 114.912C111.536 114.912 110.504 114.024 110.408 112.944H107.576C107.696 115.344 109.928 117.216 113.096 117.216C116.216 117.216 118.16 115.536 118.16 113.304ZM126.684 105.864C128.724 105.864 130.332 107.16 130.38 109.2H123.06C123.348 107.112 124.836 105.864 126.684 105.864ZM132.876 113.064H129.924C129.42 114.096 128.484 114.912 126.804 114.912C124.788 114.912 123.228 113.592 123.036 111.408H133.14C133.212 110.952 133.236 110.52 133.236 110.064C133.236 106.176 130.572 103.56 126.804 103.56C122.892 103.56 120.204 106.224 120.204 110.376C120.204 114.528 123.012 117.216 126.804 117.216C130.044 117.216 132.132 115.368 132.876 113.064ZM135.017 110.328C135.017 114.408 137.777 117.216 141.209 117.216C143.417 117.216 145.001 116.16 145.841 115.032V117H148.601V103.776H145.841V105.696C145.025 104.616 143.489 103.56 141.257 103.56C137.777 103.56 135.017 106.248 135.017 110.328ZM145.841 110.376C145.841 113.232 143.897 114.84 141.833 114.84C139.793 114.84 137.825 113.184 137.825 110.328C137.825 107.472 139.793 105.936 141.833 105.936C143.897 105.936 145.841 107.544 145.841 110.376ZM170.939 117H173.651V109.2C173.651 105.504 171.299 103.56 168.203 103.56C166.283 103.56 164.411 104.568 163.595 106.176C162.683 104.448 160.931 103.56 158.843 103.56C157.259 103.56 155.819 104.208 154.931 105.288V103.776H152.195V117H154.931V109.608C154.931 107.184 156.251 105.936 158.267 105.936C160.259 105.936 161.579 107.184 161.579 109.608V117H164.291V109.608C164.291 107.184 165.611 105.936 167.627 105.936C169.619 105.936 170.939 107.184 170.939 109.608V117ZM177.132 117H179.868V99.24H177.132V117ZM189.028 105.864C191.068 105.864 192.676 107.16 192.724 109.2H185.404C185.692 107.112 187.18 105.864 189.028 105.864ZM195.22 113.064H192.268C191.764 114.096 190.828 114.912 189.148 114.912C187.132 114.912 185.572 113.592 185.38 111.408H195.484C195.556 110.952 195.58 110.52 195.58 110.064C195.58 106.176 192.916 103.56 189.148 103.56C185.236 103.56 182.548 106.224 182.548 110.376C182.548 114.528 185.356 117.216 189.148 117.216C192.388 117.216 194.476 115.368 195.22 113.064ZM208.137 113.304C207.993 108.528 200.529 110.016 200.529 107.352C200.529 106.464 201.297 105.864 202.761 105.864C204.249 105.864 205.137 106.656 205.233 107.808H207.969C207.825 105.168 205.857 103.56 202.857 103.56C199.737 103.56 197.769 105.264 197.769 107.376C197.769 112.224 205.449 110.736 205.449 113.328C205.449 114.24 204.609 114.912 203.025 114.912C201.513 114.912 200.481 114.024 200.385 112.944H197.553C197.673 115.344 199.905 117.216 203.073 117.216C206.193 117.216 208.137 115.536 208.137 113.304ZM220.957 113.304C220.813 108.528 213.349 110.016 213.349 107.352C213.349 106.464 214.117 105.864 215.581 105.864C217.069 105.864 217.957 106.656 218.053 107.808H220.789C220.645 105.168 218.677 103.56 215.677 103.56C212.557 103.56 210.589 105.264 210.589 107.376C210.589 112.224 218.269 110.736 218.269 113.328C218.269 114.24 217.429 114.912 215.845 114.912C214.333 114.912 213.301 114.024 213.205 112.944H210.373C210.493 115.344 212.725 117.216 215.893 117.216C219.013 117.216 220.957 115.536 220.957 113.304ZM240.012 113.304C239.868 108.528 232.404 110.016 232.404 107.352C232.404 106.464 233.172 105.864 234.636 105.864C236.124 105.864 237.012 106.656 237.108 107.808H239.844C239.7 105.168 237.732 103.56 234.732 103.56C231.612 103.56 229.644 105.264 229.644 107.376C229.644 112.224 237.324 110.736 237.324 113.328C237.324 114.24 236.484 114.912 234.9 114.912C233.388 114.912 232.356 114.024 232.26 112.944H229.428C229.548 115.344 231.78 117.216 234.948 117.216C238.068 117.216 240.012 115.536 240.012 113.304ZM248.176 113.856L244.456 103.776H241.408L246.616 116.784L243.928 123.216H246.76L254.872 103.776H252.04L248.176 113.856ZM266.321 117H269.033V109.2C269.033 105.504 266.705 103.56 263.609 103.56C262.025 103.56 260.561 104.208 259.673 105.288V103.776H256.937V117H259.673V109.608C259.673 107.184 260.993 105.936 263.009 105.936C265.001 105.936 266.321 107.184 266.321 109.608V117ZM271.611 110.376C271.611 114.528 274.299 117.216 278.091 117.216C281.331 117.216 283.443 115.416 284.187 112.824H281.235C280.731 114.192 279.723 114.912 278.091 114.912C275.883 114.912 274.419 113.28 274.419 110.376C274.419 107.496 275.883 105.864 278.091 105.864C279.723 105.864 280.779 106.68 281.235 107.952H284.187C283.443 105.168 281.331 103.56 278.091 103.56C274.299 103.56 271.611 106.248 271.611 110.376ZM286.913 117H289.649V103.776H286.913V117ZM288.305 102.024C289.265 102.024 290.033 101.256 290.033 100.272C290.033 99.288 289.265 98.52 288.305 98.52C287.321 98.52 286.553 99.288 286.553 100.272C286.553 101.256 287.321 102.024 288.305 102.024ZM302.625 117H305.337V109.2C305.337 105.504 303.009 103.56 299.913 103.56C298.329 103.56 296.865 104.208 295.977 105.288V103.776H293.241V117H295.977V109.608C295.977 107.184 297.297 105.936 299.313 105.936C301.305 105.936 302.625 107.184 302.625 109.608V117ZM307.915 110.328C307.915 114.408 310.675 117.216 314.155 117.216C316.315 117.216 317.899 116.136 318.739 115.008V117.216C318.739 119.856 317.155 121.152 315.043 121.152C313.147 121.152 311.683 120.216 311.275 118.848H308.563C308.899 121.776 311.515 123.528 315.043 123.528C319.171 123.528 321.499 120.816 321.499 117.216V103.776H318.739V105.696C317.923 104.568 316.315 103.56 314.155 103.56C310.675 103.56 307.915 106.248 307.915 110.328ZM318.739 110.376C318.739 113.232 316.795 114.84 314.731 114.84C312.691 114.84 310.723 113.184 310.723 110.328C310.723 107.472 312.691 105.936 314.731 105.936C316.795 105.936 318.739 107.544 318.739 110.376ZM334.063 105.744V99.24H331.327V117H334.063V115.08C334.927 116.232 336.487 117.216 338.671 117.216C342.151 117.216 344.887 114.408 344.887 110.328C344.887 106.248 342.175 103.56 338.671 103.56C336.583 103.56 334.927 104.544 334.063 105.744ZM342.103 110.328C342.103 113.184 340.135 114.84 338.071 114.84C336.031 114.84 334.063 113.232 334.063 110.376C334.063 107.544 336.031 105.936 338.071 105.936C340.135 105.936 342.103 107.472 342.103 110.328ZM352.801 113.856L349.081 103.776H346.033L351.241 116.784L348.553 123.216H351.385L359.497 103.776H356.665L352.801 113.856ZM367.796 117H370.532V99.24H367.796V117ZM374.124 117H376.86V103.776H374.124V117ZM375.516 102.024C376.476 102.024 377.244 101.256 377.244 100.272C377.244 99.288 376.476 98.52 375.516 98.52C374.532 98.52 373.764 99.288 373.764 100.272C373.764 101.256 374.532 102.024 375.516 102.024ZM389.836 117H392.548V109.2C392.548 105.504 390.22 103.56 387.124 103.56C385.54 103.56 384.076 104.208 383.188 105.288V103.776H380.452V117H383.188V109.608C383.188 107.184 384.508 105.936 386.524 105.936C388.516 105.936 389.836 107.184 389.836 109.608V117ZM396.038 117H398.774V111.312L403.67 117H407.366L401.27 110.4L407.366 103.776H403.574L398.774 109.56V99.24H396.038V117ZM409.327 117H412.063V103.776H409.327V117ZM410.719 102.024C411.679 102.024 412.447 101.256 412.447 100.272C412.447 99.288 411.679 98.52 410.719 98.52C409.735 98.52 408.967 99.288 408.967 100.272C408.967 101.256 409.735 102.024 410.719 102.024ZM425.039 117H427.751V109.2C427.751 105.504 425.423 103.56 422.327 103.56C420.743 103.56 419.279 104.208 418.391 105.288V103.776H415.655V117H418.391V109.608C418.391 107.184 419.711 105.936 421.727 105.936C423.719 105.936 425.039 107.184 425.039 109.608V117ZM430.329 110.328C430.329 114.408 433.089 117.216 436.569 117.216C438.729 117.216 440.313 116.136 441.153 115.008V117.216C441.153 119.856 439.569 121.152 437.457 121.152C435.561 121.152 434.097 120.216 433.689 118.848H430.977C431.313 121.776 433.929 123.528 437.457 123.528C441.585 123.528 443.913 120.816 443.913 117.216V103.776H441.153V105.696C440.337 104.568 438.729 103.56 436.569 103.56C433.089 103.56 430.329 106.248 430.329 110.328ZM441.153 110.376C441.153 113.232 439.209 114.84 437.145 114.84C435.105 114.84 433.137 113.184 433.137 110.328C433.137 107.472 435.105 105.936 437.145 105.936C439.209 105.936 441.153 107.544 441.153 110.376ZM458.949 113.856L455.229 103.776H452.181L457.389 116.784L454.701 123.216H457.533L465.645 103.776H462.813L458.949 113.856ZM480.31 110.376C480.31 106.224 477.334 103.56 473.566 103.56C469.798 103.56 466.822 106.224 466.822 110.376C466.822 114.528 469.678 117.216 473.446 117.216C477.238 117.216 480.31 114.528 480.31 110.376ZM469.606 110.376C469.606 107.376 471.454 105.936 473.518 105.936C475.558 105.936 477.502 107.376 477.502 110.376C477.502 113.376 475.486 114.84 473.446 114.84C471.382 114.84 469.606 113.376 469.606 110.376ZM494.991 103.776H492.255V111.144C492.255 113.568 490.935 114.816 488.919 114.816C486.927 114.816 485.607 113.568 485.607 111.144V103.776H482.895V111.552C482.895 115.248 485.247 117.192 488.343 117.192C489.903 117.192 491.391 116.544 492.255 115.416V117H494.991V103.776ZM501.337 110.04C501.337 107.232 502.585 106.392 504.601 106.392H505.297V103.56C503.425 103.56 502.105 104.376 501.337 105.696V103.776H498.601V117H501.337V110.04ZM525.302 112.272C525.302 106.176 516.47 108.528 516.47 104.76C516.47 103.152 517.694 102.384 519.278 102.432C521.006 102.48 521.99 103.512 522.086 104.64H525.11C524.87 101.784 522.614 100.104 519.422 100.104C516.014 100.104 513.686 101.928 513.686 104.856C513.686 111 522.542 108.384 522.542 112.416C522.542 113.832 521.462 114.864 519.542 114.864C517.646 114.864 516.686 113.76 516.566 112.392H513.638C513.638 115.344 516.206 117.168 519.542 117.168C523.262 117.168 525.302 114.768 525.302 112.272ZM528.962 113.328C528.962 116.016 530.426 117 532.778 117H534.938V114.72H533.258C532.106 114.72 531.722 114.312 531.722 113.328V106.008H534.938V103.776H531.722V100.488H528.962V103.776H527.402V106.008H528.962V113.328ZM540.196 110.04C540.196 107.232 541.444 106.392 543.46 106.392H544.156V103.56C542.284 103.56 540.964 104.376 540.196 105.696V103.776H537.46V117H540.196V110.04ZM545.759 110.328C545.759 114.408 548.519 117.216 551.951 117.216C554.159 117.216 555.743 116.16 556.583 115.032V117H559.343V103.776H556.583V105.696C555.767 104.616 554.231 103.56 551.999 103.56C548.519 103.56 545.759 106.248 545.759 110.328ZM556.583 110.376C556.583 113.232 554.639 114.84 552.575 114.84C550.535 114.84 548.567 113.184 548.567 110.328C548.567 107.472 550.535 105.936 552.575 105.936C554.639 105.936 556.583 107.544 556.583 110.376ZM561.377 103.776L566.393 117H569.657L574.697 103.776H571.793L568.049 114.552L564.305 103.776H561.377ZM575.853 110.328C575.853 114.408 578.613 117.216 582.045 117.216C584.253 117.216 585.837 116.16 586.677 115.032V117H589.437V103.776H586.677V105.696C585.861 104.616 584.325 103.56 582.093 103.56C578.613 103.56 575.853 106.248 575.853 110.328ZM586.677 110.376C586.677 113.232 584.733 114.84 582.669 114.84C580.629 114.84 578.661 113.184 578.661 110.328C578.661 107.472 580.629 105.936 582.669 105.936C584.733 105.936 586.677 107.544 586.677 110.376ZM598.353 110.328C598.353 114.408 601.113 117.216 604.545 117.216C606.753 117.216 608.337 116.16 609.177 115.032V117H611.937V103.776H609.177V105.696C608.361 104.616 606.825 103.56 604.593 103.56C601.113 103.56 598.353 106.248 598.353 110.328ZM609.177 110.376C609.177 113.232 607.233 114.84 605.169 114.84C603.129 114.84 601.161 113.184 601.161 110.328C601.161 107.472 603.129 105.936 605.169 105.936C607.233 105.936 609.177 107.544 609.177 110.376ZM624.914 117H627.626V109.2C627.626 105.504 625.298 103.56 622.202 103.56C620.618 103.56 619.154 104.208 618.266 105.288V103.776H615.53V117H618.266V109.608C618.266 107.184 619.586 105.936 621.602 105.936C623.594 105.936 624.914 107.184 624.914 109.608V117ZM630.204 110.328C630.204 114.408 632.964 117.216 636.444 117.216C638.604 117.216 640.188 116.208 641.028 115.008V117H643.788V99.24H641.028V105.624C640.02 104.376 638.196 103.56 636.468 103.56C632.964 103.56 630.204 106.248 630.204 110.328ZM641.028 110.376C641.028 113.232 639.084 114.84 637.02 114.84C634.98 114.84 633.012 113.184 633.012 110.328C633.012 107.472 634.98 105.936 637.02 105.936C639.084 105.936 641.028 107.544 641.028 110.376ZM37.7869 136.104C33.0829 136.104 29.2669 139.632 29.2669 144.624C29.2669 149.64 33.0829 153.144 37.7869 153.144C42.2749 153.144 45.5389 149.856 46.0429 145.992V143.856H36.8509V146.04H43.1149C42.7069 148.848 40.8109 150.672 37.7869 150.672C34.4749 150.672 32.0749 148.296 32.0749 144.624C32.0749 140.952 34.4749 138.6 37.7869 138.6C39.7789 138.6 41.3629 139.44 42.2509 141.12H45.5389C44.2669 137.856 41.2669 136.104 37.7869 136.104ZM47.8294 146.328C47.8294 150.408 50.5894 153.216 54.0214 153.216C56.2294 153.216 57.8134 152.16 58.6534 151.032V153H61.4134V139.776H58.6534V141.696C57.8374 140.616 56.3014 139.56 54.0694 139.56C50.5894 139.56 47.8294 142.248 47.8294 146.328ZM58.6534 146.376C58.6534 149.232 56.7094 150.84 54.6454 150.84C52.6054 150.84 50.6374 149.184 50.6374 146.328C50.6374 143.472 52.6054 141.936 54.6454 141.936C56.7094 141.936 58.6534 143.544 58.6534 146.376ZM67.743 146.04C67.743 143.232 68.991 142.392 71.007 142.392H71.703V139.56C69.831 139.56 68.511 140.376 67.743 141.696V139.776H65.007V153H67.743V146.04ZM92.962 153H95.674V145.2C95.674 141.504 93.322 139.56 90.226 139.56C88.306 139.56 86.434 140.568 85.618 142.176C84.706 140.448 82.954 139.56 80.866 139.56C79.282 139.56 77.842 140.208 76.954 141.288V139.776H74.218V153H76.954V145.608C76.954 143.184 78.274 141.936 80.29 141.936C82.282 141.936 83.602 143.184 83.602 145.608V153H86.314V145.608C86.314 143.184 87.634 141.936 89.65 141.936C91.642 141.936 92.962 143.184 92.962 145.608V153ZM99.1555 153H101.891V139.776H99.1555V153ZM100.547 138.024C101.507 138.024 102.275 137.256 102.275 136.272C102.275 135.288 101.507 134.52 100.547 134.52C99.5635 134.52 98.7955 135.288 98.7955 136.272C98.7955 137.256 99.5635 138.024 100.547 138.024ZM114.868 153H117.58V145.2C117.58 141.504 115.252 139.56 112.156 139.56C110.572 139.56 109.108 140.208 108.22 141.288V139.776H105.484V153H108.22V145.608C108.22 143.184 109.54 141.936 111.556 141.936C113.548 141.936 114.868 143.184 114.868 145.608V153ZM126.392 144.624C126.392 149.64 130.208 153.144 134.912 153.144C138.392 153.144 141.392 151.416 142.664 148.152H139.376C138.488 149.928 136.904 150.768 134.912 150.768C131.6 150.768 129.2 148.392 129.2 144.624C129.2 140.856 131.6 138.504 134.912 138.504C136.904 138.504 138.488 139.344 139.376 141.12H142.664C141.392 137.856 138.392 136.104 134.912 136.104C130.208 136.104 126.392 139.632 126.392 144.624ZM158.466 146.376C158.466 142.224 155.49 139.56 151.722 139.56C147.954 139.56 144.978 142.224 144.978 146.376C144.978 150.528 147.834 153.216 151.602 153.216C155.394 153.216 158.466 150.528 158.466 146.376ZM147.762 146.376C147.762 143.376 149.61 141.936 151.674 141.936C153.714 141.936 155.658 143.376 155.658 146.376C155.658 149.376 153.642 150.84 151.602 150.84C149.538 150.84 147.762 149.376 147.762 146.376ZM170.555 153H173.267V145.2C173.267 141.504 170.939 139.56 167.843 139.56C166.259 139.56 164.795 140.208 163.907 141.288V139.776H161.171V153H163.907V145.608C163.907 143.184 165.227 141.936 167.243 141.936C169.235 141.936 170.555 143.184 170.555 145.608V153ZM186.141 153H188.853V145.2C188.853 141.504 186.525 139.56 183.429 139.56C181.845 139.56 180.381 140.208 179.493 141.288V139.776H176.757V153H179.493V145.608C179.493 143.184 180.813 141.936 182.829 141.936C184.821 141.936 186.141 143.184 186.141 145.608V153ZM197.911 141.864C199.951 141.864 201.559 143.16 201.607 145.2H194.287C194.575 143.112 196.063 141.864 197.911 141.864ZM204.103 149.064H201.151C200.647 150.096 199.711 150.912 198.031 150.912C196.015 150.912 194.455 149.592 194.263 147.408H204.367C204.439 146.952 204.463 146.52 204.463 146.064C204.463 142.176 201.799 139.56 198.031 139.56C194.119 139.56 191.431 142.224 191.431 146.376C191.431 150.528 194.239 153.216 198.031 153.216C201.271 153.216 203.359 151.368 204.103 149.064ZM206.243 146.376C206.243 150.528 208.931 153.216 212.723 153.216C215.963 153.216 218.075 151.416 218.819 148.824H215.867C215.363 150.192 214.355 150.912 212.723 150.912C210.515 150.912 209.051 149.28 209.051 146.376C209.051 143.496 210.515 141.864 212.723 141.864C214.355 141.864 215.411 142.68 215.867 143.952H218.819C218.075 141.168 215.963 139.56 212.723 139.56C208.931 139.56 206.243 142.248 206.243 146.376ZM221.978 149.328C221.978 152.016 223.442 153 225.794 153H227.954V150.72H226.274C225.122 150.72 224.738 150.312 224.738 149.328V142.008H227.954V139.776H224.738V136.488H221.978V139.776H220.418V142.008H221.978V149.328ZM235.798 146.328C235.798 150.408 238.558 153.216 241.99 153.216C244.198 153.216 245.782 152.16 246.622 151.032V153H249.382V139.776H246.622V141.696C245.806 140.616 244.27 139.56 242.038 139.56C238.558 139.56 235.798 142.248 235.798 146.328ZM246.622 146.376C246.622 149.232 244.678 150.84 242.614 150.84C240.574 150.84 238.606 149.184 238.606 146.328C238.606 143.472 240.574 141.936 242.614 141.936C244.678 141.936 246.622 143.544 246.622 146.376ZM252.064 146.376C252.064 150.528 254.752 153.216 258.544 153.216C261.784 153.216 263.896 151.416 264.64 148.824H261.688C261.184 150.192 260.176 150.912 258.544 150.912C256.336 150.912 254.872 149.28 254.872 146.376C254.872 143.496 256.336 141.864 258.544 141.864C260.176 141.864 261.232 142.68 261.688 143.952H264.64C263.896 141.168 261.784 139.56 258.544 139.56C254.752 139.56 252.064 142.248 252.064 146.376ZM266.454 146.376C266.454 150.528 269.142 153.216 272.934 153.216C276.174 153.216 278.286 151.416 279.03 148.824H276.078C275.574 150.192 274.566 150.912 272.934 150.912C270.726 150.912 269.262 149.28 269.262 146.376C269.262 143.496 270.726 141.864 272.934 141.864C274.566 141.864 275.622 142.68 276.078 143.952H279.03C278.286 141.168 276.174 139.56 272.934 139.56C269.142 139.56 266.454 142.248 266.454 146.376ZM294.357 146.376C294.357 142.224 291.381 139.56 287.613 139.56C283.845 139.56 280.869 142.224 280.869 146.376C280.869 150.528 283.725 153.216 287.493 153.216C291.285 153.216 294.357 150.528 294.357 146.376ZM283.653 146.376C283.653 143.376 285.501 141.936 287.565 141.936C289.605 141.936 291.549 143.376 291.549 146.376C291.549 149.376 289.533 150.84 287.493 150.84C285.429 150.84 283.653 149.376 283.653 146.376ZM309.038 139.776H306.302V147.144C306.302 149.568 304.982 150.816 302.966 150.816C300.974 150.816 299.654 149.568 299.654 147.144V139.776H296.942V147.552C296.942 151.248 299.294 153.192 302.39 153.192C303.95 153.192 305.438 152.544 306.302 151.416V153H309.038V139.776ZM322.032 153H324.744V145.2C324.744 141.504 322.416 139.56 319.32 139.56C317.736 139.56 316.272 140.208 315.384 141.288V139.776H312.648V153H315.384V145.608C315.384 143.184 316.704 141.936 318.72 141.936C320.712 141.936 322.032 143.184 322.032 145.608V153ZM328.666 149.328C328.666 152.016 330.13 153 332.482 153H334.642V150.72H332.962C331.81 150.72 331.426 150.312 331.426 149.328V142.008H334.642V139.776H331.426V136.488H328.666V139.776H327.106V142.008H328.666V149.328ZM347.027 149.304C346.883 144.528 339.419 146.016 339.419 143.352C339.419 142.464 340.187 141.864 341.651 141.864C343.139 141.864 344.027 142.656 344.123 143.808H346.859C346.715 141.168 344.747 139.56 341.747 139.56C338.627 139.56 336.659 141.264 336.659 143.376C336.659 148.224 344.339 146.736 344.339 149.328C344.339 150.24 343.499 150.912 341.915 150.912C340.403 150.912 339.371 150.024 339.275 148.944H336.443C336.563 151.344 338.795 153.216 341.963 153.216C345.083 153.216 347.027 151.536 347.027 149.304ZM352.816 151.416C352.816 150.432 352.048 149.664 351.088 149.664C350.104 149.664 349.336 150.432 349.336 151.416C349.336 152.4 350.104 153.168 351.088 153.168C352.048 153.168 352.816 152.4 352.816 151.416ZM373.263 153H376.143L370.167 136.296H366.999L361.023 153H363.879L365.079 149.592H372.063L373.263 153ZM371.295 147.36H365.847L368.583 139.608L371.295 147.36ZM377.829 146.376C377.829 150.528 380.517 153.216 384.309 153.216C387.549 153.216 389.661 151.416 390.405 148.824H387.453C386.949 150.192 385.941 150.912 384.309 150.912C382.101 150.912 380.637 149.28 380.637 146.376C380.637 143.496 382.101 141.864 384.309 141.864C385.941 141.864 386.997 142.68 387.453 143.952H390.405C389.661 141.168 387.549 139.56 384.309 139.56C380.517 139.56 377.829 142.248 377.829 146.376ZM393.564 149.328C393.564 152.016 395.028 153 397.38 153H399.54V150.72H397.86C396.708 150.72 396.324 150.312 396.324 149.328V142.008H399.54V139.776H396.324V136.488H393.564V139.776H392.004V142.008H393.564V149.328ZM402.062 153H404.798V139.776H402.062V153ZM403.454 138.024C404.414 138.024 405.182 137.256 405.182 136.272C405.182 135.288 404.414 134.52 403.454 134.52C402.47 134.52 401.702 135.288 401.702 136.272C401.702 137.256 402.47 138.024 403.454 138.024ZM406.83 139.776L411.846 153H415.11L420.15 139.776H417.246L413.502 150.552L409.758 139.776H406.83ZM422.218 153H424.954V139.776H422.218V153ZM423.61 138.024C424.57 138.024 425.338 137.256 425.338 136.272C425.338 135.288 424.57 134.52 423.61 134.52C422.626 134.52 421.858 135.288 421.858 136.272C421.858 137.256 422.626 138.024 423.61 138.024ZM428.978 149.328C428.978 152.016 430.442 153 432.794 153H434.954V150.72H433.274C432.122 150.72 431.738 150.312 431.738 149.328V142.008H434.954V139.776H431.738V136.488H428.978V139.776H427.418V142.008H428.978V149.328ZM437.476 153H440.212V139.776H437.476V153ZM438.868 138.024C439.828 138.024 440.596 137.256 440.596 136.272C440.596 135.288 439.828 134.52 438.868 134.52C437.884 134.52 437.116 135.288 437.116 136.272C437.116 137.256 437.884 138.024 438.868 138.024ZM449.372 141.864C451.412 141.864 453.02 143.16 453.068 145.2H445.748C446.036 143.112 447.524 141.864 449.372 141.864ZM455.564 149.064H452.612C452.108 150.096 451.172 150.912 449.492 150.912C447.476 150.912 445.916 149.592 445.724 147.408H455.828C455.9 146.952 455.924 146.52 455.924 146.064C455.924 142.176 453.26 139.56 449.492 139.56C445.58 139.56 442.892 142.224 442.892 146.376C442.892 150.528 445.7 153.216 449.492 153.216C452.732 153.216 454.82 151.368 455.564 149.064ZM468.48 149.304C468.336 144.528 460.872 146.016 460.872 143.352C460.872 142.464 461.64 141.864 463.104 141.864C464.592 141.864 465.48 142.656 465.576 143.808H468.312C468.168 141.168 466.2 139.56 463.2 139.56C460.08 139.56 458.112 141.264 458.112 143.376C458.112 148.224 465.792 146.736 465.792 149.328C465.792 150.24 464.952 150.912 463.368 150.912C461.856 150.912 460.824 150.024 460.728 148.944H457.896C458.016 151.344 460.248 153.216 463.416 153.216C466.536 153.216 468.48 151.536 468.48 149.304ZM489.647 139.776H486.911V147.144C486.911 149.568 485.591 150.816 483.575 150.816C481.583 150.816 480.263 149.568 480.263 147.144V139.776H477.551V147.552C477.551 151.248 479.903 153.192 482.999 153.192C484.559 153.192 486.047 152.544 486.911 151.416V153H489.647V139.776ZM495.993 141.72V139.776H493.257V159.288H495.993V151.08C496.857 152.112 498.417 153.216 500.601 153.216C504.081 153.216 506.817 150.408 506.817 146.328C506.817 142.248 504.081 139.56 500.601 139.56C498.441 139.56 496.833 140.616 495.993 141.72ZM504.033 146.328C504.033 149.184 502.065 150.84 500.001 150.84C497.961 150.84 495.993 149.232 495.993 146.376C495.993 143.544 497.961 141.936 500.001 141.936C502.065 141.936 504.033 143.472 504.033 146.328ZM509.523 153H512.259V135.24H509.523V153ZM528.451 146.376C528.451 142.224 525.475 139.56 521.707 139.56C517.939 139.56 514.963 142.224 514.963 146.376C514.963 150.528 517.819 153.216 521.587 153.216C525.379 153.216 528.451 150.528 528.451 146.376ZM517.747 146.376C517.747 143.376 519.595 141.936 521.659 141.936C523.699 141.936 525.643 143.376 525.643 146.376C525.643 149.376 523.627 150.84 521.587 150.84C519.523 150.84 517.747 149.376 517.747 146.376ZM530.243 146.328C530.243 150.408 533.003 153.216 536.435 153.216C538.643 153.216 540.227 152.16 541.067 151.032V153H543.827V139.776H541.067V141.696C540.251 140.616 538.715 139.56 536.483 139.56C533.003 139.56 530.243 142.248 530.243 146.328ZM541.067 146.376C541.067 149.232 539.123 150.84 537.059 150.84C535.019 150.84 533.051 149.184 533.051 146.328C533.051 143.472 535.019 141.936 537.059 141.936C539.123 141.936 541.067 143.544 541.067 146.376ZM546.509 146.328C546.509 150.408 549.269 153.216 552.749 153.216C554.909 153.216 556.493 152.208 557.333 151.008V153H560.093V135.24H557.333V141.624C556.325 140.376 554.501 139.56 552.773 139.56C549.269 139.56 546.509 142.248 546.509 146.328ZM557.333 146.376C557.333 149.232 555.389 150.84 553.325 150.84C551.285 150.84 549.317 149.184 549.317 146.328C549.317 143.472 551.285 141.936 553.325 141.936C555.389 141.936 557.333 143.544 557.333 146.376ZM569.255 141.864C571.295 141.864 572.903 143.16 572.951 145.2H565.631C565.919 143.112 567.407 141.864 569.255 141.864ZM575.447 149.064H572.495C571.991 150.096 571.055 150.912 569.375 150.912C567.359 150.912 565.799 149.592 565.607 147.408H575.711C575.783 146.952 575.807 146.52 575.807 146.064C575.807 142.176 573.143 139.56 569.375 139.56C565.463 139.56 562.775 142.224 562.775 146.376C562.775 150.528 565.583 153.216 569.375 153.216C572.615 153.216 574.703 151.368 575.447 149.064ZM577.587 146.328C577.587 150.408 580.347 153.216 583.827 153.216C585.987 153.216 587.571 152.208 588.411 151.008V153H591.171V135.24H588.411V141.624C587.403 140.376 585.579 139.56 583.851 139.56C580.347 139.56 577.587 142.248 577.587 146.328ZM588.411 146.376C588.411 149.232 586.467 150.84 584.403 150.84C582.363 150.84 580.395 149.184 580.395 146.328C580.395 143.472 582.363 141.936 584.403 141.936C586.467 141.936 588.411 143.544 588.411 146.376ZM599.439 139.776L604.455 153H607.719L612.759 139.776H609.855L606.111 150.552L602.367 139.776H599.439ZM614.827 153H617.563V139.776H614.827V153ZM616.219 138.024C617.179 138.024 617.947 137.256 617.947 136.272C617.947 135.288 617.179 134.52 616.219 134.52C615.235 134.52 614.467 135.288 614.467 136.272C614.467 137.256 615.235 138.024 616.219 138.024ZM620.243 146.328C620.243 150.408 623.003 153.216 626.435 153.216C628.643 153.216 630.227 152.16 631.067 151.032V153H633.827V139.776H631.067V141.696C630.251 140.616 628.715 139.56 626.483 139.56C623.003 139.56 620.243 142.248 620.243 146.328ZM631.067 146.376C631.067 149.232 629.123 150.84 627.059 150.84C625.019 150.84 623.051 149.184 623.051 146.328C623.051 143.472 625.019 141.936 627.059 141.936C629.123 141.936 631.067 143.544 631.067 146.376ZM13.6814 172.104C8.97744 172.104 5.16144 175.632 5.16144 180.624C5.16144 185.64 8.97744 189.144 13.6814 189.144C18.1694 189.144 21.4334 185.856 21.9374 181.992V179.856H12.7454V182.04H19.0094C18.6014 184.848 16.7054 186.672 13.6814 186.672C10.3694 186.672 7.96944 184.296 7.96944 180.624C7.96944 176.952 10.3694 174.6 13.6814 174.6C15.6734 174.6 17.2574 175.44 18.1454 177.12H21.4334C20.1614 173.856 17.1614 172.104 13.6814 172.104ZM23.7239 182.328C23.7239 186.408 26.4839 189.216 29.9159 189.216C32.1239 189.216 33.7079 188.16 34.5479 187.032V189H37.3079V175.776H34.5479V177.696C33.7319 176.616 32.1959 175.56 29.9639 175.56C26.4839 175.56 23.7239 178.248 23.7239 182.328ZM34.5479 182.376C34.5479 185.232 32.6039 186.84 30.5399 186.84C28.4999 186.84 26.5319 185.184 26.5319 182.328C26.5319 179.472 28.4999 177.936 30.5399 177.936C32.6039 177.936 34.5479 179.544 34.5479 182.376ZM43.6376 182.04C43.6376 179.232 44.8856 178.392 46.9016 178.392H47.5976V175.56C45.7256 175.56 44.4056 176.376 43.6376 177.696V175.776H40.9016V189H43.6376V182.04ZM68.8565 189H71.5685V181.2C71.5685 177.504 69.2165 175.56 66.1205 175.56C64.2005 175.56 62.3285 176.568 61.5125 178.176C60.6005 176.448 58.8485 175.56 56.7605 175.56C55.1765 175.56 53.7365 176.208 52.8485 177.288V175.776H50.1125V189H52.8485V181.608C52.8485 179.184 54.1685 177.936 56.1845 177.936C58.1765 177.936 59.4965 179.184 59.4965 181.608V189H62.2085V181.608C62.2085 179.184 63.5285 177.936 65.5445 177.936C67.5365 177.936 68.8565 179.184 68.8565 181.608V189ZM75.05 189H77.786V175.776H75.05V189ZM76.442 174.024C77.402 174.024 78.17 173.256 78.17 172.272C78.17 171.288 77.402 170.52 76.442 170.52C75.458 170.52 74.69 171.288 74.69 172.272C74.69 173.256 75.458 174.024 76.442 174.024ZM90.7621 189H93.4741V181.2C93.4741 177.504 91.1461 175.56 88.0501 175.56C86.4661 175.56 85.0021 176.208 84.1141 177.288V175.776H81.3781V189H84.1141V181.608C84.1141 179.184 85.4341 177.936 87.4501 177.936C89.4421 177.936 90.7621 179.184 90.7621 181.608V189ZM112.414 172.296H103.198V189H112.414V186.768H105.934V181.656H111.694V179.424H105.934V174.528H112.414V172.296ZM122.624 189H125.72L121.448 182.304L125.72 175.776H122.864L120.176 180.264L117.32 175.776H114.224L118.496 182.496L114.224 189H117.08L119.768 184.512L122.624 189ZM130.497 177.72V175.776H127.761V195.288H130.497V187.08C131.361 188.112 132.921 189.216 135.105 189.216C138.585 189.216 141.321 186.408 141.321 182.328C141.321 178.248 138.585 175.56 135.105 175.56C132.945 175.56 131.337 176.616 130.497 177.72ZM138.537 182.328C138.537 185.184 136.569 186.84 134.505 186.84C132.465 186.84 130.497 185.232 130.497 182.376C130.497 179.544 132.465 177.936 134.505 177.936C136.569 177.936 138.537 179.472 138.537 182.328ZM146.763 182.04C146.763 179.232 148.011 178.392 150.027 178.392H150.723V175.56C148.851 175.56 147.531 176.376 146.763 177.696V175.776H144.027V189H146.763V182.04ZM158.806 177.864C160.846 177.864 162.454 179.16 162.502 181.2H155.182C155.47 179.112 156.958 177.864 158.806 177.864ZM164.997 185.064H162.046C161.542 186.096 160.606 186.912 158.926 186.912C156.91 186.912 155.35 185.592 155.158 183.408H165.262C165.334 182.952 165.358 182.52 165.358 182.064C165.358 178.176 162.694 175.56 158.926 175.56C155.014 175.56 152.326 178.224 152.326 182.376C152.326 186.528 155.134 189.216 158.926 189.216C162.166 189.216 164.254 187.368 164.997 185.064ZM177.914 185.304C177.77 180.528 170.306 182.016 170.306 179.352C170.306 178.464 171.074 177.864 172.538 177.864C174.026 177.864 174.914 178.656 175.01 179.808H177.746C177.602 177.168 175.634 175.56 172.634 175.56C169.514 175.56 167.546 177.264 167.546 179.376C167.546 184.224 175.226 182.736 175.226 185.328C175.226 186.24 174.386 186.912 172.802 186.912C171.29 186.912 170.258 186.024 170.162 184.944H167.33C167.45 187.344 169.682 189.216 172.85 189.216C175.97 189.216 177.914 187.536 177.914 185.304ZM190.734 185.304C190.59 180.528 183.126 182.016 183.126 179.352C183.126 178.464 183.894 177.864 185.358 177.864C186.846 177.864 187.734 178.656 187.83 179.808H190.566C190.422 177.168 188.454 175.56 185.454 175.56C182.334 175.56 180.366 177.264 180.366 179.376C180.366 184.224 188.046 182.736 188.046 185.328C188.046 186.24 187.206 186.912 185.622 186.912C184.11 186.912 183.078 186.024 182.982 184.944H180.15C180.27 187.344 182.502 189.216 185.67 189.216C188.79 189.216 190.734 187.536 190.734 185.304ZM212.525 182.376C212.525 178.224 209.549 175.56 205.781 175.56C202.013 175.56 199.037 178.224 199.037 182.376C199.037 186.528 201.893 189.216 205.661 189.216C209.453 189.216 212.525 186.528 212.525 182.376ZM201.821 182.376C201.821 179.376 203.669 177.936 205.733 177.936C207.773 177.936 209.717 179.376 209.717 182.376C209.717 185.376 207.701 186.84 205.661 186.84C203.597 186.84 201.821 185.376 201.821 182.376ZM217.966 182.04C217.966 179.232 219.214 178.392 221.23 178.392H221.926V175.56C220.054 175.56 218.734 176.376 217.966 177.696V175.776H215.23V189H217.966V182.04ZM238.283 172.104C233.579 172.104 229.763 175.632 229.763 180.624C229.763 185.64 233.579 189.144 238.283 189.144C242.771 189.144 246.035 185.856 246.539 181.992V179.856H237.347V182.04H243.611C243.203 184.848 241.307 186.672 238.283 186.672C234.971 186.672 232.571 184.296 232.571 180.624C232.571 176.952 234.971 174.6 238.283 174.6C240.275 174.6 241.859 175.44 242.747 177.12H246.035C244.763 173.856 241.763 172.104 238.283 172.104ZM248.326 182.328C248.326 186.408 251.086 189.216 254.518 189.216C256.726 189.216 258.31 188.16 259.15 187.032V189H261.91V175.776H259.15V177.696C258.334 176.616 256.798 175.56 254.566 175.56C251.086 175.56 248.326 178.248 248.326 182.328ZM259.15 182.376C259.15 185.232 257.206 186.84 255.142 186.84C253.102 186.84 251.134 185.184 251.134 182.328C251.134 179.472 253.102 177.936 255.142 177.936C257.206 177.936 259.15 179.544 259.15 182.376ZM268.239 182.04C268.239 179.232 269.487 178.392 271.503 178.392H272.199V175.56C270.327 175.56 269.007 176.376 268.239 177.696V175.776H265.503V189H268.239V182.04ZM293.458 189H296.17V181.2C296.17 177.504 293.818 175.56 290.722 175.56C288.802 175.56 286.93 176.568 286.114 178.176C285.202 176.448 283.45 175.56 281.362 175.56C279.778 175.56 278.338 176.208 277.45 177.288V175.776H274.714V189H277.45V181.608C277.45 179.184 278.77 177.936 280.786 177.936C282.778 177.936 284.098 179.184 284.098 181.608V189H286.81V181.608C286.81 179.184 288.13 177.936 290.146 177.936C292.138 177.936 293.458 179.184 293.458 181.608V189ZM299.652 189H302.388V175.776H299.652V189ZM301.044 174.024C302.004 174.024 302.772 173.256 302.772 172.272C302.772 171.288 302.004 170.52 301.044 170.52C300.06 170.52 299.292 171.288 299.292 172.272C299.292 173.256 300.06 174.024 301.044 174.024ZM315.364 189H318.076V181.2C318.076 177.504 315.748 175.56 312.652 175.56C311.068 175.56 309.604 176.208 308.716 177.288V175.776H305.98V189H308.716V181.608C308.716 179.184 310.036 177.936 312.052 177.936C314.044 177.936 315.364 179.184 315.364 181.608V189ZM326.888 180.624C326.888 185.64 330.704 189.144 335.408 189.144C338.888 189.144 341.888 187.416 343.16 184.152H339.872C338.984 185.928 337.4 186.768 335.408 186.768C332.096 186.768 329.696 184.392 329.696 180.624C329.696 176.856 332.096 174.504 335.408 174.504C337.4 174.504 338.984 175.344 339.872 177.12H343.16C341.888 173.856 338.888 172.104 335.408 172.104C330.704 172.104 326.888 175.632 326.888 180.624ZM358.963 182.376C358.963 178.224 355.987 175.56 352.219 175.56C348.451 175.56 345.475 178.224 345.475 182.376C345.475 186.528 348.331 189.216 352.099 189.216C355.891 189.216 358.963 186.528 358.963 182.376ZM348.259 182.376C348.259 179.376 350.107 177.936 352.171 177.936C354.211 177.936 356.155 179.376 356.155 182.376C356.155 185.376 354.139 186.84 352.099 186.84C350.035 186.84 348.259 185.376 348.259 182.376ZM371.051 189H373.763V181.2C373.763 177.504 371.435 175.56 368.339 175.56C366.755 175.56 365.291 176.208 364.403 177.288V175.776H361.667V189H364.403V181.608C364.403 179.184 365.723 177.936 367.739 177.936C369.731 177.936 371.051 179.184 371.051 181.608V189ZM386.637 189H389.349V181.2C389.349 177.504 387.021 175.56 383.925 175.56C382.341 175.56 380.877 176.208 379.989 177.288V175.776H377.253V189H379.989V181.608C379.989 179.184 381.309 177.936 383.325 177.936C385.317 177.936 386.637 179.184 386.637 181.608V189ZM398.407 177.864C400.447 177.864 402.055 179.16 402.103 181.2H394.783C395.071 179.112 396.559 177.864 398.407 177.864ZM404.599 185.064H401.647C401.143 186.096 400.207 186.912 398.527 186.912C396.511 186.912 394.951 185.592 394.759 183.408H404.863C404.935 182.952 404.959 182.52 404.959 182.064C404.959 178.176 402.295 175.56 398.527 175.56C394.615 175.56 391.927 178.224 391.927 182.376C391.927 186.528 394.735 189.216 398.527 189.216C401.767 189.216 403.855 187.368 404.599 185.064ZM406.74 182.376C406.74 186.528 409.428 189.216 413.22 189.216C416.46 189.216 418.572 187.416 419.316 184.824H416.364C415.86 186.192 414.852 186.912 413.22 186.912C411.012 186.912 409.548 185.28 409.548 182.376C409.548 179.496 411.012 177.864 413.22 177.864C414.852 177.864 415.908 178.68 416.364 179.952H419.316C418.572 177.168 416.46 175.56 413.22 175.56C409.428 175.56 406.74 178.248 406.74 182.376ZM422.474 185.328C422.474 188.016 423.938 189 426.29 189H428.45V186.72H426.77C425.618 186.72 425.234 186.312 425.234 185.328V178.008H428.45V175.776H425.234V172.488H422.474V175.776H420.914V178.008H422.474V185.328ZM455.95 189H458.662V181.2C458.662 177.504 456.31 175.56 453.214 175.56C451.294 175.56 449.422 176.568 448.606 178.176C447.694 176.448 445.942 175.56 443.854 175.56C442.27 175.56 440.83 176.208 439.942 177.288V175.776H437.206V189H439.942V181.608C439.942 179.184 441.262 177.936 443.278 177.936C445.27 177.936 446.59 179.184 446.59 181.608V189H449.302V181.608C449.302 179.184 450.622 177.936 452.638 177.936C454.63 177.936 455.95 179.184 455.95 181.608V189ZM474.744 182.376C474.744 178.224 471.768 175.56 468 175.56C464.232 175.56 461.256 178.224 461.256 182.376C461.256 186.528 464.112 189.216 467.88 189.216C471.672 189.216 474.744 186.528 474.744 182.376ZM464.04 182.376C464.04 179.376 465.888 177.936 467.952 177.936C469.992 177.936 471.936 179.376 471.936 182.376C471.936 185.376 469.92 186.84 467.88 186.84C465.816 186.84 464.04 185.376 464.04 182.376ZM480.184 177.744V171.24H477.448V189H480.184V187.08C481.048 188.232 482.608 189.216 484.792 189.216C488.272 189.216 491.008 186.408 491.008 182.328C491.008 178.248 488.296 175.56 484.792 175.56C482.704 175.56 481.048 176.544 480.184 177.744ZM488.224 182.328C488.224 185.184 486.256 186.84 484.192 186.84C482.152 186.84 480.184 185.232 480.184 182.376C480.184 179.544 482.152 177.936 484.192 177.936C486.256 177.936 488.224 179.472 488.224 182.328ZM493.714 189H496.45V175.776H493.714V189ZM495.106 174.024C496.066 174.024 496.834 173.256 496.834 172.272C496.834 171.288 496.066 170.52 495.106 170.52C494.122 170.52 493.354 171.288 493.354 172.272C493.354 173.256 494.122 174.024 495.106 174.024ZM500.042 189H502.778V171.24H500.042V189ZM511.938 177.864C513.978 177.864 515.586 179.16 515.634 181.2H508.314C508.602 179.112 510.09 177.864 511.938 177.864ZM518.13 185.064H515.178C514.674 186.096 513.738 186.912 512.058 186.912C510.042 186.912 508.482 185.592 508.29 183.408H518.394C518.466 182.952 518.49 182.52 518.49 182.064C518.49 178.176 515.826 175.56 512.058 175.56C508.146 175.56 505.458 178.224 505.458 182.376C505.458 186.528 508.266 189.216 512.058 189.216C515.298 189.216 517.386 187.368 518.13 185.064ZM529.985 189H532.865L535.529 179.232L538.193 189H541.073L545.177 175.776H542.489L539.753 186.36L537.065 175.776H534.209L531.401 186.408L528.641 175.776H525.857L529.985 189ZM547.222 189H549.958V175.776H547.222V189ZM548.614 174.024C549.574 174.024 550.342 173.256 550.342 172.272C550.342 171.288 549.574 170.52 548.614 170.52C547.63 170.52 546.862 171.288 546.862 172.272C546.862 173.256 547.63 174.024 548.614 174.024ZM553.55 189H556.286V171.24H553.55V189ZM559.878 189H562.614V171.24H559.878V189ZM571.529 182.328C571.529 186.408 574.289 189.216 577.721 189.216C579.929 189.216 581.513 188.16 582.353 187.032V189H585.113V175.776H582.353V177.696C581.537 176.616 580.001 175.56 577.769 175.56C574.289 175.56 571.529 178.248 571.529 182.328ZM582.353 182.376C582.353 185.232 580.409 186.84 578.345 186.84C576.305 186.84 574.337 185.184 574.337 182.328C574.337 179.472 576.305 177.936 578.345 177.936C580.409 177.936 582.353 179.544 582.353 182.376ZM591.442 177.72V175.776H588.706V195.288H591.442V187.08C592.306 188.112 593.866 189.216 596.05 189.216C599.53 189.216 602.266 186.408 602.266 182.328C602.266 178.248 599.53 175.56 596.05 175.56C593.89 175.56 592.282 176.616 591.442 177.72ZM599.482 182.328C599.482 185.184 597.514 186.84 595.45 186.84C593.41 186.84 591.442 185.232 591.442 182.376C591.442 179.544 593.41 177.936 595.45 177.936C597.514 177.936 599.482 179.472 599.482 182.328ZM607.708 177.72V175.776H604.972V195.288H607.708V187.08C608.572 188.112 610.132 189.216 612.316 189.216C615.796 189.216 618.532 186.408 618.532 182.328C618.532 178.248 615.796 175.56 612.316 175.56C610.156 175.56 608.548 176.616 607.708 177.72ZM615.748 182.328C615.748 185.184 613.78 186.84 611.716 186.84C609.676 186.84 607.708 185.232 607.708 182.376C607.708 179.544 609.676 177.936 611.716 177.936C613.78 177.936 615.748 179.472 615.748 182.328ZM626.806 177.864C628.846 177.864 630.454 179.16 630.502 181.2H623.182C623.47 179.112 624.958 177.864 626.806 177.864ZM632.997 185.064H630.046C629.542 186.096 628.606 186.912 626.926 186.912C624.91 186.912 623.35 185.592 623.158 183.408H633.262C633.334 182.952 633.358 182.52 633.358 182.064C633.358 178.176 630.694 175.56 626.926 175.56C623.014 175.56 620.326 178.224 620.326 182.376C620.326 186.528 623.134 189.216 626.926 189.216C630.166 189.216 632.254 187.368 632.997 185.064ZM635.138 182.328C635.138 186.408 637.898 189.216 641.33 189.216C643.538 189.216 645.122 188.16 645.962 187.032V189H648.722V175.776H645.962V177.696C645.146 176.616 643.61 175.56 641.378 175.56C637.898 175.56 635.138 178.248 635.138 182.328ZM645.962 182.376C645.962 185.232 644.018 186.84 641.954 186.84C639.914 186.84 637.946 185.184 637.946 182.328C637.946 179.472 639.914 177.936 641.954 177.936C644.018 177.936 645.962 179.544 645.962 182.376ZM655.052 182.04C655.052 179.232 656.3 178.392 658.316 178.392H659.012V175.56C657.14 175.56 655.82 176.376 655.052 177.696V175.776H652.316V189H655.052V182.04ZM39.9547 218.376C39.9547 214.224 36.9787 211.56 33.2107 211.56C29.4427 211.56 26.4667 214.224 26.4667 218.376C26.4667 222.528 29.3227 225.216 33.0907 225.216C36.8827 225.216 39.9547 222.528 39.9547 218.376ZM29.2507 218.376C29.2507 215.376 31.0987 213.936 33.1627 213.936C35.2027 213.936 37.1467 215.376 37.1467 218.376C37.1467 221.376 35.1307 222.84 33.0907 222.84C31.0267 222.84 29.2507 221.376 29.2507 218.376ZM52.0434 225H54.7554V217.2C54.7554 213.504 52.4274 211.56 49.3314 211.56C47.7474 211.56 46.2834 212.208 45.3954 213.288V211.776H42.6594V225H45.3954V217.608C45.3954 215.184 46.7154 213.936 48.7314 213.936C50.7234 213.936 52.0434 215.184 52.0434 217.608V225ZM75.7357 220.272C75.7357 214.176 66.9037 216.528 66.9037 212.76C66.9037 211.152 68.1277 210.384 69.7117 210.432C71.4397 210.48 72.4237 211.512 72.5197 212.64H75.5437C75.3037 209.784 73.0477 208.104 69.8557 208.104C66.4477 208.104 64.1197 209.928 64.1197 212.856C64.1197 219 72.9757 216.384 72.9757 220.416C72.9757 221.832 71.8957 222.864 69.9757 222.864C68.0797 222.864 67.1197 221.76 66.9997 220.392H64.0717C64.0717 223.344 66.6397 225.168 69.9757 225.168C73.6957 225.168 75.7357 222.768 75.7357 220.272ZM79.3961 221.328C79.3961 224.016 80.8601 225 83.2121 225H85.3721V222.72H83.6921C82.5401 222.72 82.1561 222.312 82.1561 221.328V214.008H85.3721V211.776H82.1561V208.488H79.3961V211.776H77.8361V214.008H79.3961V221.328ZM90.6298 218.04C90.6298 215.232 91.8778 214.392 93.8938 214.392H94.5898V211.56C92.7178 211.56 91.3978 212.376 90.6298 213.696V211.776H87.8938V225H90.6298V218.04ZM96.1927 218.328C96.1927 222.408 98.9527 225.216 102.385 225.216C104.593 225.216 106.177 224.16 107.017 223.032V225H109.777V211.776H107.017V213.696C106.201 212.616 104.665 211.56 102.433 211.56C98.9527 211.56 96.1927 214.248 96.1927 218.328ZM107.017 218.376C107.017 221.232 105.073 222.84 103.009 222.84C100.969 222.84 99.0007 221.184 99.0007 218.328C99.0007 215.472 100.969 213.936 103.009 213.936C105.073 213.936 107.017 215.544 107.017 218.376ZM111.81 211.776L116.826 225H120.09L125.13 211.776H122.226L118.482 222.552L114.738 211.776H111.81ZM126.286 218.328C126.286 222.408 129.046 225.216 132.478 225.216C134.686 225.216 136.27 224.16 137.11 223.032V225H139.87V211.776H137.11V213.696C136.294 212.616 134.758 211.56 132.526 211.56C129.046 211.56 126.286 214.248 126.286 218.328ZM137.11 218.376C137.11 221.232 135.166 222.84 133.102 222.84C131.062 222.84 129.094 221.184 129.094 218.328C129.094 215.472 131.062 213.936 133.102 213.936C135.166 213.936 137.11 215.544 137.11 218.376ZM152.266 225H155.146L157.81 215.232L160.474 225H163.354L167.458 211.776H164.77L162.034 222.36L159.346 211.776H156.49L153.682 222.408L150.922 211.776H148.138L152.266 225ZM169.503 225H172.239V211.776H169.503V225ZM170.895 210.024C171.855 210.024 172.623 209.256 172.623 208.272C172.623 207.288 171.855 206.52 170.895 206.52C169.911 206.52 169.143 207.288 169.143 208.272C169.143 209.256 169.911 210.024 170.895 210.024ZM176.263 221.328C176.263 224.016 177.727 225 180.079 225H182.239V222.72H180.559C179.407 222.72 179.023 222.312 179.023 221.328V214.008H182.239V211.776H179.023V208.488H176.263V211.776H174.703V214.008H176.263V221.328ZM184.761 225H187.497V217.608C187.497 215.184 188.817 213.936 190.833 213.936C192.825 213.936 194.145 215.184 194.145 217.608V225H196.857V217.2C196.857 213.504 194.553 211.56 191.601 211.56C189.897 211.56 188.409 212.208 187.497 213.312V207.24H184.761V225ZM200.347 225H203.083V211.776H200.347V225ZM201.739 210.024C202.699 210.024 203.467 209.256 203.467 208.272C203.467 207.288 202.699 206.52 201.739 206.52C200.755 206.52 199.987 207.288 199.987 208.272C199.987 209.256 200.755 210.024 201.739 210.024ZM216.059 225H218.771V217.2C218.771 213.504 216.443 211.56 213.347 211.56C211.763 211.56 210.299 212.208 209.411 213.288V211.776H206.675V225H209.411V217.608C209.411 215.184 210.731 213.936 212.747 213.936C214.739 213.936 216.059 215.184 216.059 217.608V225ZM247.239 225H249.951V217.2C249.951 213.504 247.599 211.56 244.503 211.56C242.583 211.56 240.711 212.568 239.895 214.176C238.983 212.448 237.231 211.56 235.143 211.56C233.559 211.56 232.119 212.208 231.231 213.288V211.776H228.495V225H231.231V217.608C231.231 215.184 232.551 213.936 234.567 213.936C236.559 213.936 237.879 215.184 237.879 217.608V225H240.591V217.608C240.591 215.184 241.911 213.936 243.927 213.936C245.919 213.936 247.239 215.184 247.239 217.608V225ZM253.433 225H256.169V211.776H253.433V225ZM254.825 210.024C255.785 210.024 256.553 209.256 256.553 208.272C256.553 207.288 255.785 206.52 254.825 206.52C253.841 206.52 253.073 207.288 253.073 208.272C253.073 209.256 253.841 210.024 254.825 210.024ZM269.145 225H271.857V217.2C271.857 213.504 269.529 211.56 266.433 211.56C264.849 211.56 263.385 212.208 262.497 213.288V211.776H259.761V225H262.497V217.608C262.497 215.184 263.817 213.936 265.833 213.936C267.825 213.936 269.145 215.184 269.145 217.608V225ZM287.323 211.776H284.587V219.144C284.587 221.568 283.267 222.816 281.251 222.816C279.259 222.816 277.939 221.568 277.939 219.144V211.776H275.227V219.552C275.227 223.248 277.579 225.192 280.675 225.192C282.235 225.192 283.723 224.544 284.587 223.416V225H287.323V211.776ZM291.365 221.328C291.365 224.016 292.829 225 295.181 225H297.341V222.72H295.661C294.509 222.72 294.125 222.312 294.125 221.328V214.008H297.341V211.776H294.125V208.488H291.365V211.776H289.805V214.008H291.365V221.328ZM305.431 213.864C307.471 213.864 309.079 215.16 309.127 217.2H301.807C302.095 215.112 303.583 213.864 305.431 213.864ZM311.622 221.064H308.671C308.167 222.096 307.231 222.912 305.551 222.912C303.535 222.912 301.975 221.592 301.783 219.408H311.887C311.959 218.952 311.983 218.52 311.983 218.064C311.983 214.176 309.319 211.56 305.551 211.56C301.639 211.56 298.951 214.224 298.951 218.376C298.951 222.528 301.759 225.216 305.551 225.216C308.791 225.216 310.879 223.368 311.622 221.064ZM324.539 221.304C324.395 216.528 316.931 218.016 316.931 215.352C316.931 214.464 317.699 213.864 319.163 213.864C320.651 213.864 321.539 214.656 321.635 215.808H324.371C324.227 213.168 322.259 211.56 319.259 211.56C316.139 211.56 314.171 213.264 314.171 215.376C314.171 220.224 321.851 218.736 321.851 221.328C321.851 222.24 321.011 222.912 319.427 222.912C317.915 222.912 316.883 222.024 316.787 220.944H313.955C314.075 223.344 316.307 225.216 319.475 225.216C322.595 225.216 324.539 223.536 324.539 221.304ZM330.327 223.416C330.327 222.432 329.559 221.664 328.599 221.664C327.615 221.664 326.847 222.432 326.847 223.416C326.847 224.4 327.615 225.168 328.599 225.168C329.559 225.168 330.327 224.4 330.327 223.416ZM350.775 220.272C350.775 214.176 341.943 216.528 341.943 212.76C341.943 211.152 343.167 210.384 344.751 210.432C346.479 210.48 347.463 211.512 347.559 212.64H350.583C350.343 209.784 348.087 208.104 344.895 208.104C341.487 208.104 339.159 209.928 339.159 212.856C339.159 219 348.015 216.384 348.015 220.416C348.015 221.832 346.935 222.864 345.015 222.864C343.119 222.864 342.159 221.76 342.039 220.392H339.111C339.111 223.344 341.679 225.168 345.015 225.168C348.735 225.168 350.775 222.768 350.775 220.272ZM365.979 211.776H363.243V219.144C363.243 221.568 361.923 222.816 359.907 222.816C357.915 222.816 356.595 221.568 356.595 219.144V211.776H353.883V219.552C353.883 223.248 356.235 225.192 359.331 225.192C360.891 225.192 362.379 224.544 363.243 223.416V225H365.979V211.776ZM372.325 213.744V207.24H369.589V225H372.325V223.08C373.189 224.232 374.749 225.216 376.933 225.216C380.413 225.216 383.149 222.408 383.149 218.328C383.149 214.248 380.437 211.56 376.933 211.56C374.845 211.56 373.189 212.544 372.325 213.744ZM380.365 218.328C380.365 221.184 378.397 222.84 376.333 222.84C374.293 222.84 372.325 221.232 372.325 218.376C372.325 215.544 374.293 213.936 376.333 213.936C378.397 213.936 380.365 215.472 380.365 218.328ZM395.719 221.304C395.575 216.528 388.111 218.016 388.111 215.352C388.111 214.464 388.879 213.864 390.343 213.864C391.831 213.864 392.719 214.656 392.815 215.808H395.551C395.407 213.168 393.439 211.56 390.439 211.56C387.319 211.56 385.351 213.264 385.351 215.376C385.351 220.224 393.031 218.736 393.031 221.328C393.031 222.24 392.191 222.912 390.607 222.912C389.095 222.912 388.063 222.024 387.967 220.944H385.135C385.255 223.344 387.487 225.216 390.655 225.216C393.775 225.216 395.719 223.536 395.719 221.304ZM397.763 218.376C397.763 222.528 400.451 225.216 404.243 225.216C407.483 225.216 409.595 223.416 410.339 220.824H407.387C406.883 222.192 405.875 222.912 404.243 222.912C402.035 222.912 400.571 221.28 400.571 218.376C400.571 215.496 402.035 213.864 404.243 213.864C405.875 213.864 406.931 214.68 407.387 215.952H410.339C409.595 213.168 407.483 211.56 404.243 211.56C400.451 211.56 397.763 214.248 397.763 218.376ZM415.802 218.04C415.802 215.232 417.05 214.392 419.066 214.392H419.762V211.56C417.89 211.56 416.57 212.376 415.802 213.696V211.776H413.066V225H415.802V218.04ZM422.277 225H425.013V211.776H422.277V225ZM423.669 210.024C424.629 210.024 425.397 209.256 425.397 208.272C425.397 207.288 424.629 206.52 423.669 206.52C422.685 206.52 421.917 207.288 421.917 208.272C421.917 209.256 422.685 210.024 423.669 210.024ZM431.341 213.744V207.24H428.605V225H431.341V223.08C432.205 224.232 433.765 225.216 435.949 225.216C439.429 225.216 442.165 222.408 442.165 218.328C442.165 214.248 439.453 211.56 435.949 211.56C433.861 211.56 432.205 212.544 431.341 213.744ZM439.381 218.328C439.381 221.184 437.413 222.84 435.349 222.84C433.309 222.84 431.341 221.232 431.341 218.376C431.341 215.544 433.309 213.936 435.349 213.936C437.413 213.936 439.381 215.472 439.381 218.328ZM444.87 225H447.606V211.776H444.87V225ZM446.262 210.024C447.222 210.024 447.99 209.256 447.99 208.272C447.99 207.288 447.222 206.52 446.262 206.52C445.278 206.52 444.51 207.288 444.51 208.272C444.51 209.256 445.278 210.024 446.262 210.024ZM460.582 225H463.294V217.2C463.294 213.504 460.966 211.56 457.87 211.56C456.286 211.56 454.822 212.208 453.934 213.288V211.776H451.198V225H453.934V217.608C453.934 215.184 455.254 213.936 457.27 213.936C459.262 213.936 460.582 215.184 460.582 217.608V225ZM465.872 218.328C465.872 222.408 468.632 225.216 472.112 225.216C474.272 225.216 475.856 224.136 476.696 223.008V225.216C476.696 227.856 475.112 229.152 473 229.152C471.104 229.152 469.64 228.216 469.232 226.848H466.52C466.856 229.776 469.472 231.528 473 231.528C477.128 231.528 479.456 228.816 479.456 225.216V211.776H476.696V213.696C475.88 212.568 474.272 211.56 472.112 211.56C468.632 211.56 465.872 214.248 465.872 218.328ZM476.696 218.376C476.696 221.232 474.752 222.84 472.688 222.84C470.648 222.84 468.68 221.184 468.68 218.328C468.68 215.472 470.648 213.936 472.688 213.936C474.752 213.936 476.696 215.544 476.696 218.376ZM488.372 218.328C488.372 222.408 491.132 225.216 494.564 225.216C496.772 225.216 498.356 224.16 499.196 223.032V225H501.956V211.776H499.196V213.696C498.38 212.616 496.844 211.56 494.612 211.56C491.132 211.56 488.372 214.248 488.372 218.328ZM499.196 218.376C499.196 221.232 497.252 222.84 495.188 222.84C493.148 222.84 491.18 221.184 491.18 218.328C491.18 215.472 493.148 213.936 495.188 213.936C497.252 213.936 499.196 215.544 499.196 218.376ZM505.982 221.328C505.982 224.016 507.446 225 509.798 225H511.958V222.72H510.278C509.126 222.72 508.742 222.312 508.742 221.328V214.008H511.958V211.776H508.742V208.488H505.982V211.776H504.422V214.008H505.982V221.328ZM514.48 225H517.216V217.608C517.216 215.184 518.536 213.936 520.552 213.936C522.544 213.936 523.864 215.184 523.864 217.608V225H526.576V217.2C526.576 213.504 524.272 211.56 521.32 211.56C519.616 211.56 518.128 212.208 517.216 213.312V207.24H514.48V225ZM530.066 225H532.802V207.24H530.066V225ZM541.962 213.864C544.002 213.864 545.61 215.16 545.658 217.2H538.338C538.626 215.112 540.114 213.864 541.962 213.864ZM548.154 221.064H545.202C544.698 222.096 543.762 222.912 542.082 222.912C540.066 222.912 538.506 221.592 538.314 219.408H548.418C548.49 218.952 548.514 218.52 548.514 218.064C548.514 214.176 545.85 211.56 542.082 211.56C538.17 211.56 535.482 214.224 535.482 218.376C535.482 222.528 538.29 225.216 542.082 225.216C545.322 225.216 547.41 223.368 548.154 221.064ZM551.638 221.328C551.638 224.016 553.102 225 555.454 225H557.614V222.72H555.934C554.782 222.72 554.398 222.312 554.398 221.328V214.008H557.614V211.776H554.398V208.488H551.638V211.776H550.078V214.008H551.638V221.328ZM565.704 213.864C567.744 213.864 569.352 215.16 569.4 217.2H562.08C562.368 215.112 563.856 213.864 565.704 213.864ZM571.896 221.064H568.944C568.44 222.096 567.504 222.912 565.824 222.912C563.808 222.912 562.248 221.592 562.056 219.408H572.16C572.232 218.952 572.256 218.52 572.256 218.064C572.256 214.176 569.592 211.56 565.824 211.56C561.912 211.56 559.224 214.224 559.224 218.376C559.224 222.528 562.032 225.216 565.824 225.216C569.064 225.216 571.152 223.368 571.896 221.064ZM584.812 221.304C584.668 216.528 577.204 218.016 577.204 215.352C577.204 214.464 577.972 213.864 579.436 213.864C580.924 213.864 581.812 214.656 581.908 215.808H584.644C584.5 213.168 582.532 211.56 579.532 211.56C576.412 211.56 574.444 213.264 574.444 215.376C574.444 220.224 582.124 218.736 582.124 221.328C582.124 222.24 581.284 222.912 579.7 222.912C578.188 222.912 577.156 222.024 577.06 220.944H574.228C574.348 223.344 576.58 225.216 579.748 225.216C582.868 225.216 584.812 223.536 584.812 221.304ZM593.091 218.376C593.091 222.528 595.779 225.216 599.571 225.216C602.811 225.216 604.923 223.416 605.667 220.824H602.715C602.211 222.192 601.203 222.912 599.571 222.912C597.363 222.912 595.899 221.28 595.899 218.376C595.899 215.496 597.363 213.864 599.571 213.864C601.203 213.864 602.259 214.68 602.715 215.952H605.667C604.923 213.168 602.811 211.56 599.571 211.56C595.779 211.56 593.091 214.248 593.091 218.376ZM607.482 218.328C607.482 222.408 610.242 225.216 613.674 225.216C615.882 225.216 617.466 224.16 618.306 223.032V225H621.066V211.776H618.306V213.696C617.49 212.616 615.954 211.56 613.722 211.56C610.242 211.56 607.482 214.248 607.482 218.328ZM618.306 218.376C618.306 221.232 616.362 222.84 614.298 222.84C612.258 222.84 610.29 221.184 610.29 218.328C610.29 215.472 612.258 213.936 614.298 213.936C616.362 213.936 618.306 215.544 618.306 218.376ZM634.043 225H636.755V217.2C636.755 213.504 634.427 211.56 631.331 211.56C629.747 211.56 628.283 212.208 627.395 213.288V211.776H624.659V225H627.395V217.608C627.395 215.184 628.715 213.936 630.731 213.936C632.723 213.936 634.043 215.184 634.043 217.608V225ZM11.4544 254.328C11.4544 258.408 14.2144 261.216 17.6464 261.216C19.8544 261.216 21.4384 260.16 22.2784 259.032V261H25.0384V247.776H22.2784V249.696C21.4624 248.616 19.9264 247.56 17.6944 247.56C14.2144 247.56 11.4544 250.248 11.4544 254.328ZM22.2784 254.376C22.2784 257.232 20.3344 258.84 18.2704 258.84C16.2304 258.84 14.2624 257.184 14.2624 254.328C14.2624 251.472 16.2304 249.936 18.2704 249.936C20.3344 249.936 22.2784 251.544 22.2784 254.376ZM28.632 261H31.368V243.24H28.632V261ZM44.8242 257.304C44.6802 252.528 37.2162 254.016 37.2162 251.352C37.2162 250.464 37.9842 249.864 39.4482 249.864C40.9362 249.864 41.8242 250.656 41.9202 251.808H44.6562C44.5122 249.168 42.5442 247.56 39.5442 247.56C36.4242 247.56 34.4562 249.264 34.4562 251.376C34.4562 256.224 42.1362 254.736 42.1362 257.328C42.1362 258.24 41.2962 258.912 39.7122 258.912C38.2002 258.912 37.1682 258.024 37.0722 256.944H34.2402C34.3602 259.344 36.5922 261.216 39.7602 261.216C42.8802 261.216 44.8242 259.536 44.8242 257.304ZM60.3805 254.376C60.3805 250.224 57.4045 247.56 53.6365 247.56C49.8685 247.56 46.8925 250.224 46.8925 254.376C46.8925 258.528 49.7485 261.216 53.5165 261.216C57.3085 261.216 60.3805 258.528 60.3805 254.376ZM49.6765 254.376C49.6765 251.376 51.5245 249.936 53.5885 249.936C55.6285 249.936 57.5725 251.376 57.5725 254.376C57.5725 257.376 55.5565 258.84 53.5165 258.84C51.4525 258.84 49.6765 257.376 49.6765 254.376ZM74.8875 249.864C76.9275 249.864 78.5355 251.16 78.5835 253.2H71.2635C71.5515 251.112 73.0395 249.864 74.8875 249.864ZM81.0795 257.064H78.1275C77.6235 258.096 76.6875 258.912 75.0075 258.912C72.9915 258.912 71.4315 257.592 71.2395 255.408H81.3435C81.4155 254.952 81.4395 254.52 81.4395 254.064C81.4395 250.176 78.7755 247.56 75.0075 247.56C71.0955 247.56 68.4075 250.224 68.4075 254.376C68.4075 258.528 71.2155 261.216 75.0075 261.216C78.2475 261.216 80.3355 259.368 81.0795 257.064ZM90.972 261H94.068L89.796 254.304L94.068 247.776H91.212L88.524 252.264L85.668 247.776H82.572L86.844 254.496L82.572 261H85.428L88.116 256.512L90.972 261ZM98.8446 249.72V247.776H96.1086V267.288H98.8446V259.08C99.7086 260.112 101.269 261.216 103.453 261.216C106.933 261.216 109.669 258.408 109.669 254.328C109.669 250.248 106.933 247.56 103.453 247.56C101.293 247.56 99.6846 248.616 98.8446 249.72ZM106.885 254.328C106.885 257.184 104.917 258.84 102.853 258.84C100.813 258.84 98.8446 257.232 98.8446 254.376C98.8446 251.544 100.813 249.936 102.853 249.936C104.917 249.936 106.885 251.472 106.885 254.328ZM117.942 249.864C119.982 249.864 121.59 251.16 121.638 253.2H114.318C114.606 251.112 116.094 249.864 117.942 249.864ZM124.134 257.064H121.182C120.678 258.096 119.742 258.912 118.062 258.912C116.046 258.912 114.486 257.592 114.294 255.408H124.398C124.47 254.952 124.494 254.52 124.494 254.064C124.494 250.176 121.83 247.56 118.062 247.56C114.15 247.56 111.462 250.224 111.462 254.376C111.462 258.528 114.27 261.216 118.062 261.216C121.302 261.216 123.39 259.368 124.134 257.064ZM129.923 254.04C129.923 251.232 131.171 250.392 133.187 250.392H133.883V247.56C132.011 247.56 130.691 248.376 129.923 249.696V247.776H127.187V261H129.923V254.04ZM136.398 261H139.134V247.776H136.398V261ZM137.79 246.024C138.75 246.024 139.518 245.256 139.518 244.272C139.518 243.288 138.75 242.52 137.79 242.52C136.806 242.52 136.038 243.288 136.038 244.272C136.038 245.256 136.806 246.024 137.79 246.024ZM148.294 249.864C150.334 249.864 151.942 251.16 151.99 253.2H144.67C144.958 251.112 146.446 249.864 148.294 249.864ZM154.486 257.064H151.534C151.03 258.096 150.094 258.912 148.414 258.912C146.398 258.912 144.838 257.592 144.646 255.408H154.75C154.822 254.952 154.846 254.52 154.846 254.064C154.846 250.176 152.182 247.56 148.414 247.56C144.502 247.56 141.814 250.224 141.814 254.376C141.814 258.528 144.622 261.216 148.414 261.216C151.654 261.216 153.742 259.368 154.486 257.064ZM166.922 261H169.634V253.2C169.634 249.504 167.306 247.56 164.21 247.56C162.626 247.56 161.162 248.208 160.274 249.288V247.776H157.538V261H160.274V253.608C160.274 251.184 161.594 249.936 163.61 249.936C165.602 249.936 166.922 251.184 166.922 253.608V261ZM172.212 254.376C172.212 258.528 174.9 261.216 178.692 261.216C181.932 261.216 184.044 259.416 184.788 256.824H181.836C181.332 258.192 180.324 258.912 178.692 258.912C176.484 258.912 175.02 257.28 175.02 254.376C175.02 251.496 176.484 249.864 178.692 249.864C180.324 249.864 181.38 250.68 181.836 251.952H184.788C184.044 249.168 181.932 247.56 178.692 247.56C174.9 247.56 172.212 250.248 172.212 254.376ZM193.083 249.864C195.123 249.864 196.731 251.16 196.779 253.2H189.459C189.747 251.112 191.235 249.864 193.083 249.864ZM199.275 257.064H196.323C195.819 258.096 194.883 258.912 193.203 258.912C191.187 258.912 189.627 257.592 189.435 255.408H199.539C199.611 254.952 199.635 254.52 199.635 254.064C199.635 250.176 196.971 247.56 193.203 247.56C189.291 247.56 186.603 250.224 186.603 254.376C186.603 258.528 189.411 261.216 193.203 261.216C196.443 261.216 198.531 259.368 199.275 257.064ZM219.818 256.272C219.818 250.176 210.986 252.528 210.986 248.76C210.986 247.152 212.21 246.384 213.794 246.432C215.522 246.48 216.506 247.512 216.602 248.64H219.626C219.386 245.784 217.13 244.104 213.938 244.104C210.53 244.104 208.202 245.928 208.202 248.856C208.202 255 217.058 252.384 217.058 256.416C217.058 257.832 215.978 258.864 214.058 258.864C212.162 258.864 211.202 257.76 211.082 256.392H208.154C208.154 259.344 210.722 261.168 214.058 261.168C217.778 261.168 219.818 258.768 219.818 256.272ZM223.478 257.328C223.478 260.016 224.942 261 227.294 261H229.454V258.72H227.774C226.622 258.72 226.238 258.312 226.238 257.328V250.008H229.454V247.776H226.238V244.488H223.478V247.776H221.918V250.008H223.478V257.328ZM234.712 254.04C234.712 251.232 235.96 250.392 237.976 250.392H238.672V247.56C236.8 247.56 235.48 248.376 234.712 249.696V247.776H231.976V261H234.712V254.04ZM240.275 254.328C240.275 258.408 243.035 261.216 246.467 261.216C248.675 261.216 250.259 260.16 251.099 259.032V261H253.859V247.776H251.099V249.696C250.283 248.616 248.747 247.56 246.515 247.56C243.035 247.56 240.275 250.248 240.275 254.328ZM251.099 254.376C251.099 257.232 249.155 258.84 247.091 258.84C245.051 258.84 243.083 257.184 243.083 254.328C243.083 251.472 245.051 249.936 247.091 249.936C249.155 249.936 251.099 251.544 251.099 254.376ZM255.892 247.776L260.908 261H264.172L269.212 247.776H266.308L262.564 258.552L258.82 247.776H255.892ZM270.368 254.328C270.368 258.408 273.128 261.216 276.56 261.216C278.768 261.216 280.352 260.16 281.192 259.032V261H283.952V247.776H281.192V249.696C280.376 248.616 278.84 247.56 276.608 247.56C273.128 247.56 270.368 250.248 270.368 254.328ZM281.192 254.376C281.192 257.232 279.248 258.84 277.184 258.84C275.144 258.84 273.176 257.184 273.176 254.328C273.176 251.472 275.144 249.936 277.184 249.936C279.248 249.936 281.192 251.544 281.192 254.376ZM303.644 257.304C303.5 252.528 296.036 254.016 296.036 251.352C296.036 250.464 296.804 249.864 298.268 249.864C299.756 249.864 300.644 250.656 300.74 251.808H303.476C303.332 249.168 301.364 247.56 298.364 247.56C295.244 247.56 293.276 249.264 293.276 251.376C293.276 256.224 300.956 254.736 300.956 257.328C300.956 258.24 300.116 258.912 298.532 258.912C297.02 258.912 295.988 258.024 295.892 256.944H293.06C293.18 259.344 295.412 261.216 298.58 261.216C301.7 261.216 303.644 259.536 303.644 257.304ZM312.169 249.864C314.209 249.864 315.817 251.16 315.865 253.2H308.545C308.833 251.112 310.321 249.864 312.169 249.864ZM318.361 257.064H315.409C314.905 258.096 313.969 258.912 312.289 258.912C310.273 258.912 308.713 257.592 308.521 255.408H318.625C318.697 254.952 318.721 254.52 318.721 254.064C318.721 250.176 316.057 247.56 312.289 247.56C308.377 247.56 305.689 250.224 305.689 254.376C305.689 258.528 308.497 261.216 312.289 261.216C315.529 261.216 317.617 259.368 318.361 257.064ZM320.501 254.328C320.501 258.408 323.261 261.216 326.741 261.216C328.901 261.216 330.485 260.136 331.325 259.008V261.216C331.325 263.856 329.741 265.152 327.629 265.152C325.733 265.152 324.269 264.216 323.861 262.848H321.149C321.485 265.776 324.101 267.528 327.629 267.528C331.757 267.528 334.085 264.816 334.085 261.216V247.776H331.325V249.696C330.509 248.568 328.901 247.56 326.741 247.56C323.261 247.56 320.501 250.248 320.501 254.328ZM331.325 254.376C331.325 257.232 329.381 258.84 327.317 258.84C325.277 258.84 323.309 257.184 323.309 254.328C323.309 251.472 325.277 249.936 327.317 249.936C329.381 249.936 331.325 251.544 331.325 254.376ZM356.423 261H359.135V253.2C359.135 249.504 356.783 247.56 353.687 247.56C351.767 247.56 349.895 248.568 349.079 250.176C348.167 248.448 346.415 247.56 344.327 247.56C342.743 247.56 341.303 248.208 340.415 249.288V247.776H337.679V261H340.415V253.608C340.415 251.184 341.735 249.936 343.751 249.936C345.743 249.936 347.063 251.184 347.063 253.608V261H349.775V253.608C349.775 251.184 351.095 249.936 353.111 249.936C355.103 249.936 356.423 251.184 356.423 253.608V261ZM368.184 249.864C370.224 249.864 371.832 251.16 371.88 253.2H364.56C364.848 251.112 366.336 249.864 368.184 249.864ZM374.376 257.064H371.424C370.92 258.096 369.984 258.912 368.304 258.912C366.288 258.912 364.728 257.592 364.536 255.408H374.64C374.712 254.952 374.736 254.52 374.736 254.064C374.736 250.176 372.072 247.56 368.304 247.56C364.392 247.56 361.704 250.224 361.704 254.376C361.704 258.528 364.512 261.216 368.304 261.216C371.544 261.216 373.632 259.368 374.376 257.064ZM386.813 261H389.525V253.2C389.525 249.504 387.197 247.56 384.101 247.56C382.517 247.56 381.053 248.208 380.165 249.288V247.776H377.429V261H380.165V253.608C380.165 251.184 381.485 249.936 383.501 249.936C385.493 249.936 386.813 251.184 386.813 253.608V261ZM393.447 257.328C393.447 260.016 394.911 261 397.263 261H399.423V258.72H397.743C396.591 258.72 396.207 258.312 396.207 257.328V250.008H399.423V247.776H396.207V244.488H393.447V247.776H391.887V250.008H393.447V257.328ZM411.809 257.304C411.665 252.528 404.201 254.016 404.201 251.352C404.201 250.464 404.969 249.864 406.433 249.864C407.921 249.864 408.809 250.656 408.905 251.808H411.641C411.497 249.168 409.529 247.56 406.529 247.56C403.409 247.56 401.441 249.264 401.441 251.376C401.441 256.224 409.121 254.736 409.121 257.328C409.121 258.24 408.281 258.912 406.697 258.912C405.185 258.912 404.153 258.024 404.057 256.944H401.225C401.345 259.344 403.577 261.216 406.745 261.216C409.865 261.216 411.809 259.536 411.809 257.304ZM420.999 261H423.735V247.776H420.999V261ZM422.391 246.024C423.351 246.024 424.119 245.256 424.119 244.272C424.119 243.288 423.351 242.52 422.391 242.52C421.407 242.52 420.639 243.288 420.639 244.272C420.639 245.256 421.407 246.024 422.391 246.024ZM436.711 261H439.423V253.2C439.423 249.504 437.095 247.56 433.999 247.56C432.415 247.56 430.951 248.208 430.063 249.288V247.776H427.327V261H430.063V253.608C430.063 251.184 431.383 249.936 433.399 249.936C435.391 249.936 436.711 251.184 436.711 253.608V261ZM451.884 254.04C451.884 251.232 453.132 250.392 455.148 250.392H455.844V247.56C453.972 247.56 452.652 248.376 451.884 249.696V247.776H449.148V261H451.884V254.04ZM463.927 249.864C465.967 249.864 467.575 251.16 467.623 253.2H460.303C460.591 251.112 462.079 249.864 463.927 249.864ZM470.119 257.064H467.167C466.663 258.096 465.727 258.912 464.047 258.912C462.031 258.912 460.471 257.592 460.279 255.408H470.383C470.455 254.952 470.479 254.52 470.479 254.064C470.479 250.176 467.815 247.56 464.047 247.56C460.135 247.56 457.447 250.224 457.447 254.376C457.447 258.528 460.255 261.216 464.047 261.216C467.287 261.216 469.375 259.368 470.119 257.064ZM472.259 254.328C472.259 258.408 475.019 261.216 478.451 261.216C480.659 261.216 482.243 260.16 483.083 259.032V261H485.843V247.776H483.083V249.696C482.267 248.616 480.731 247.56 478.499 247.56C475.019 247.56 472.259 250.248 472.259 254.328ZM483.083 254.376C483.083 257.232 481.139 258.84 479.075 258.84C477.035 258.84 475.067 257.184 475.067 254.328C475.067 251.472 477.035 249.936 479.075 249.936C481.139 249.936 483.083 251.544 483.083 254.376ZM489.437 261H492.173V243.24H489.437V261ZM502.431 257.328C502.431 260.016 503.895 261 506.247 261H508.407V258.72H506.727C505.575 258.72 505.191 258.312 505.191 257.328V250.008H508.407V247.776H505.191V244.488H502.431V247.776H500.871V250.008H502.431V257.328ZM510.929 261H513.665V247.776H510.929V261ZM512.321 246.024C513.281 246.024 514.049 245.256 514.049 244.272C514.049 243.288 513.281 242.52 512.321 242.52C511.337 242.52 510.569 243.288 510.569 244.272C510.569 245.256 511.337 246.024 512.321 246.024ZM536.001 261H538.713V253.2C538.713 249.504 536.361 247.56 533.265 247.56C531.345 247.56 529.473 248.568 528.657 250.176C527.745 248.448 525.993 247.56 523.905 247.56C522.321 247.56 520.881 248.208 519.993 249.288V247.776H517.257V261H519.993V253.608C519.993 251.184 521.313 249.936 523.329 249.936C525.321 249.936 526.641 251.184 526.641 253.608V261H529.353V253.608C529.353 251.184 530.673 249.936 532.689 249.936C534.681 249.936 536.001 251.184 536.001 253.608V261ZM547.763 249.864C549.803 249.864 551.411 251.16 551.459 253.2H544.139C544.427 251.112 545.915 249.864 547.763 249.864ZM553.955 257.064H551.003C550.499 258.096 549.563 258.912 547.883 258.912C545.867 258.912 544.307 257.592 544.115 255.408H554.219C554.291 254.952 554.315 254.52 554.315 254.064C554.315 250.176 551.651 247.56 547.883 247.56C543.971 247.56 541.283 250.224 541.283 254.376C541.283 258.528 544.091 261.216 547.883 261.216C551.123 261.216 553.211 259.368 553.955 257.064ZM575.841 254.376C575.841 250.224 572.865 247.56 569.097 247.56C565.329 247.56 562.353 250.224 562.353 254.376C562.353 258.528 565.209 261.216 568.977 261.216C572.769 261.216 575.841 258.528 575.841 254.376ZM565.137 254.376C565.137 251.376 566.985 249.936 569.049 249.936C571.089 249.936 573.033 251.376 573.033 254.376C573.033 257.376 571.017 258.84 568.977 258.84C566.913 258.84 565.137 257.376 565.137 254.376ZM587.93 261H590.642V253.2C590.642 249.504 588.314 247.56 585.218 247.56C583.634 247.56 582.17 248.208 581.282 249.288V247.776H578.546V261H581.282V253.608C581.282 251.184 582.602 249.936 584.618 249.936C586.61 249.936 587.93 251.184 587.93 253.608V261ZM600.798 257.328C600.798 260.016 602.262 261 604.614 261H606.774V258.72H605.094C603.942 258.72 603.558 258.312 603.558 257.328V250.008H606.774V247.776H603.558V244.488H600.798V247.776H599.238V250.008H600.798V257.328ZM609.296 261H612.032V253.608C612.032 251.184 613.352 249.936 615.368 249.936C617.36 249.936 618.68 251.184 618.68 253.608V261H621.392V253.2C621.392 249.504 619.088 247.56 616.136 247.56C614.432 247.56 612.944 248.208 612.032 249.312V243.24H609.296V261ZM630.45 249.864C632.49 249.864 634.098 251.16 634.146 253.2H626.826C627.114 251.112 628.602 249.864 630.45 249.864ZM636.642 257.064H633.69C633.186 258.096 632.25 258.912 630.57 258.912C628.554 258.912 626.994 257.592 626.802 255.408H636.906C636.978 254.952 637.002 254.52 637.002 254.064C637.002 250.176 634.338 247.56 630.57 247.56C626.658 247.56 623.97 250.224 623.97 254.376C623.97 258.528 626.778 261.216 630.57 261.216C633.81 261.216 635.898 259.368 636.642 257.064ZM639.695 261H642.431V247.776H639.695V261ZM641.087 246.024C642.047 246.024 642.815 245.256 642.815 244.272C642.815 243.288 642.047 242.52 641.087 242.52C640.103 242.52 639.335 243.288 639.335 244.272C639.335 245.256 640.103 246.024 641.087 246.024ZM648.759 254.04C648.759 251.232 650.007 250.392 652.023 250.392H652.719V247.56C650.847 247.56 649.527 248.376 648.759 249.696V247.776H646.023V261H648.759V254.04ZM168.416 280.104C163.712 280.104 159.896 283.632 159.896 288.624C159.896 293.64 163.712 297.144 168.416 297.144C172.904 297.144 176.168 293.856 176.672 289.992V287.856H167.48V290.04H173.744C173.336 292.848 171.44 294.672 168.416 294.672C165.104 294.672 162.704 292.296 162.704 288.624C162.704 284.952 165.104 282.6 168.416 282.6C170.408 282.6 171.992 283.44 172.88 285.12H176.168C174.896 281.856 171.896 280.104 168.416 280.104ZM178.458 290.328C178.458 294.408 181.218 297.216 184.65 297.216C186.858 297.216 188.442 296.16 189.282 295.032V297H192.042V283.776H189.282V285.696C188.466 284.616 186.93 283.56 184.698 283.56C181.218 283.56 178.458 286.248 178.458 290.328ZM189.282 290.376C189.282 293.232 187.338 294.84 185.274 294.84C183.234 294.84 181.266 293.184 181.266 290.328C181.266 287.472 183.234 285.936 185.274 285.936C187.338 285.936 189.282 287.544 189.282 290.376ZM198.372 290.04C198.372 287.232 199.62 286.392 201.636 286.392H202.332V283.56C200.46 283.56 199.14 284.376 198.372 285.696V283.776H195.636V297H198.372V290.04ZM223.591 297H226.303V289.2C226.303 285.504 223.951 283.56 220.855 283.56C218.935 283.56 217.063 284.568 216.247 286.176C215.335 284.448 213.583 283.56 211.495 283.56C209.911 283.56 208.471 284.208 207.583 285.288V283.776H204.847V297H207.583V289.608C207.583 287.184 208.903 285.936 210.919 285.936C212.911 285.936 214.231 287.184 214.231 289.608V297H216.943V289.608C216.943 287.184 218.263 285.936 220.279 285.936C222.271 285.936 223.591 287.184 223.591 289.608V297ZM229.784 297H232.52V283.776H229.784V297ZM231.176 282.024C232.136 282.024 232.904 281.256 232.904 280.272C232.904 279.288 232.136 278.52 231.176 278.52C230.192 278.52 229.424 279.288 229.424 280.272C229.424 281.256 230.192 282.024 231.176 282.024ZM245.497 297H248.209V289.2C248.209 285.504 245.881 283.56 242.785 283.56C241.201 283.56 239.737 284.208 238.849 285.288V283.776H236.113V297H238.849V289.608C238.849 287.184 240.169 285.936 242.185 285.936C244.177 285.936 245.497 287.184 245.497 289.608V297ZM263.381 280.32H257.933V297H263.381C268.733 297 272.237 293.856 272.237 288.72C272.237 283.56 268.733 280.32 263.381 280.32ZM260.669 294.768V282.552H263.381C267.317 282.552 269.429 284.904 269.429 288.72C269.429 292.512 267.317 294.768 263.381 294.768H260.669ZM280.516 285.864C282.556 285.864 284.164 287.16 284.212 289.2H276.892C277.18 287.112 278.668 285.864 280.516 285.864ZM286.708 293.064H283.756C283.252 294.096 282.316 294.912 280.636 294.912C278.62 294.912 277.06 293.592 276.868 291.408H286.972C287.044 290.952 287.068 290.52 287.068 290.064C287.068 286.176 284.404 283.56 280.636 283.56C276.724 283.56 274.036 286.224 274.036 290.376C274.036 294.528 276.844 297.216 280.636 297.216C283.876 297.216 285.964 295.368 286.708 293.064ZM288.201 283.776L293.217 297H296.481L301.521 283.776H298.617L294.873 294.552L291.129 283.776H288.201ZM303.589 297H306.325V283.776H303.589V297ZM304.981 282.024C305.941 282.024 306.709 281.256 306.709 280.272C306.709 279.288 305.941 278.52 304.981 278.52C303.997 278.52 303.229 279.288 303.229 280.272C303.229 281.256 303.997 282.024 304.981 282.024ZM309.005 290.376C309.005 294.528 311.693 297.216 315.485 297.216C318.725 297.216 320.837 295.416 321.581 292.824H318.629C318.125 294.192 317.117 294.912 315.485 294.912C313.277 294.912 311.813 293.28 311.813 290.376C311.813 287.496 313.277 285.864 315.485 285.864C317.117 285.864 318.173 286.68 318.629 287.952H321.581C320.837 285.168 318.725 283.56 315.485 283.56C311.693 283.56 309.005 286.248 309.005 290.376ZM329.876 285.864C331.916 285.864 333.524 287.16 333.572 289.2H326.252C326.54 287.112 328.028 285.864 329.876 285.864ZM336.068 293.064H333.116C332.612 294.096 331.676 294.912 329.996 294.912C327.98 294.912 326.42 293.592 326.228 291.408H336.332C336.404 290.952 336.428 290.52 336.428 290.064C336.428 286.176 333.764 283.56 329.996 283.56C326.084 283.56 323.396 286.224 323.396 290.376C323.396 294.528 326.204 297.216 329.996 297.216C333.236 297.216 335.324 295.368 336.068 293.064ZM348.984 293.304C348.84 288.528 341.376 290.016 341.376 287.352C341.376 286.464 342.144 285.864 343.608 285.864C345.096 285.864 345.984 286.656 346.08 287.808H348.816C348.672 285.168 346.704 283.56 343.704 283.56C340.584 283.56 338.616 285.264 338.616 287.376C338.616 292.224 346.296 290.736 346.296 293.328C346.296 294.24 345.456 294.912 343.872 294.912C342.36 294.912 341.328 294.024 341.232 292.944H338.4C338.52 295.344 340.752 297.216 343.92 297.216C347.04 297.216 348.984 295.536 348.984 293.304ZM354.773 295.416C354.773 294.432 354.005 293.664 353.045 293.664C352.061 293.664 351.293 294.432 351.293 295.416C351.293 296.4 352.061 297.168 353.045 297.168C354.005 297.168 354.773 296.4 354.773 295.416ZM363.964 280.32V297H372.34V294.792H366.7V280.32H363.964ZM380.196 285.864C382.236 285.864 383.844 287.16 383.892 289.2H376.572C376.86 287.112 378.348 285.864 380.196 285.864ZM386.388 293.064H383.436C382.932 294.096 381.996 294.912 380.316 294.912C378.3 294.912 376.74 293.592 376.548 291.408H386.652C386.724 290.952 386.748 290.52 386.748 290.064C386.748 286.176 384.084 283.56 380.316 283.56C376.404 283.56 373.716 286.224 373.716 290.376C373.716 294.528 376.524 297.216 380.316 297.216C383.556 297.216 385.644 295.368 386.388 293.064ZM388.529 290.328C388.529 294.408 391.289 297.216 394.721 297.216C396.929 297.216 398.513 296.16 399.353 295.032V297H402.113V283.776H399.353V285.696C398.537 284.616 397.001 283.56 394.769 283.56C391.289 283.56 388.529 286.248 388.529 290.328ZM399.353 290.376C399.353 293.232 397.409 294.84 395.345 294.84C393.305 294.84 391.337 293.184 391.337 290.328C391.337 287.472 393.305 285.936 395.345 285.936C397.409 285.936 399.353 287.544 399.353 290.376ZM408.442 290.04C408.442 287.232 409.69 286.392 411.706 286.392H412.402V283.56C410.53 283.56 409.21 284.376 408.442 285.696V283.776H405.706V297H408.442V290.04ZM424.301 297H427.013V289.2C427.013 285.504 424.685 283.56 421.589 283.56C420.005 283.56 418.541 284.208 417.653 285.288V283.776H414.917V297H417.653V289.608C417.653 287.184 418.973 285.936 420.989 285.936C422.981 285.936 424.301 287.184 424.301 289.608V297ZM455.482 297H458.194V289.2C458.194 285.504 455.842 283.56 452.746 283.56C450.826 283.56 448.954 284.568 448.138 286.176C447.226 284.448 445.474 283.56 443.386 283.56C441.802 283.56 440.362 284.208 439.474 285.288V283.776H436.738V297H439.474V289.608C439.474 287.184 440.794 285.936 442.81 285.936C444.802 285.936 446.122 287.184 446.122 289.608V297H448.834V289.608C448.834 287.184 450.154 285.936 452.17 285.936C454.162 285.936 455.482 287.184 455.482 289.608V297ZM474.275 290.376C474.275 286.224 471.299 283.56 467.531 283.56C463.763 283.56 460.787 286.224 460.787 290.376C460.787 294.528 463.643 297.216 467.411 297.216C471.203 297.216 474.275 294.528 474.275 290.376ZM463.571 290.376C463.571 287.376 465.419 285.936 467.483 285.936C469.523 285.936 471.467 287.376 471.467 290.376C471.467 293.376 469.451 294.84 467.411 294.84C465.347 294.84 463.571 293.376 463.571 290.376ZM479.716 290.04C479.716 287.232 480.964 286.392 482.98 286.392H483.676V283.56C481.804 283.56 480.484 284.376 479.716 285.696V283.776H476.98V297H479.716V290.04ZM491.759 285.864C493.799 285.864 495.407 287.16 495.455 289.2H488.135C488.423 287.112 489.911 285.864 491.759 285.864ZM497.951 293.064H494.999C494.495 294.096 493.559 294.912 491.879 294.912C489.863 294.912 488.303 293.592 488.111 291.408H498.215C498.287 290.952 498.311 290.52 498.311 290.064C498.311 286.176 495.647 283.56 491.879 283.56C487.967 283.56 485.279 286.224 485.279 290.376C485.279 294.528 488.087 297.216 491.879 297.216C495.119 297.216 497.207 295.368 497.951 293.064ZM503.835 295.416C503.835 294.432 503.067 293.664 502.107 293.664C501.123 293.664 500.355 294.432 500.355 295.416C500.355 296.4 501.123 297.168 502.107 297.168C503.067 297.168 503.835 296.4 503.835 295.416Z" fill="black"/>
<rect x="23" y="347" width="407" height="73" rx="8" fill="#691E83"/>
<path d="M29.4472 381.436C29.4472 388.96 35.1712 394.216 42.2272 394.216C47.4472 394.216 51.9472 391.624 53.8552 386.728H48.9232C47.5912 389.392 45.2152 390.652 42.2272 390.652C37.2592 390.652 33.6592 387.088 33.6592 381.436C33.6592 375.784 37.2592 372.256 42.2272 372.256C45.2152 372.256 47.5912 373.516 48.9232 376.18H53.8552C51.9472 371.284 47.4472 368.656 42.2272 368.656C35.1712 368.656 29.4472 373.948 29.4472 381.436ZM77.559 384.064C77.559 377.836 73.095 373.84 67.443 373.84C61.791 373.84 57.327 377.836 57.327 384.064C57.327 390.292 61.611 394.324 67.263 394.324C72.951 394.324 77.559 390.292 77.559 384.064ZM61.503 384.064C61.503 379.564 64.275 377.404 67.371 377.404C70.431 377.404 73.347 379.564 73.347 384.064C73.347 388.564 70.323 390.76 67.263 390.76C64.167 390.76 61.503 388.564 61.503 384.064ZM95.692 394H99.76V382.3C99.76 376.756 96.268 373.84 91.624 373.84C89.248 373.84 87.052 374.812 85.72 376.432V374.164H81.616V394H85.72V382.912C85.72 379.276 87.7 377.404 90.724 377.404C93.712 377.404 95.692 379.276 95.692 382.912V394ZM119.071 394H123.139V382.3C123.139 376.756 119.647 373.84 115.003 373.84C112.627 373.84 110.431 374.812 109.099 376.432V374.164H104.995V394H109.099V382.912C109.099 379.276 111.079 377.404 114.103 377.404C117.091 377.404 119.071 379.276 119.071 382.912V394ZM136.726 377.296C139.786 377.296 142.198 379.24 142.27 382.3H131.29C131.722 379.168 133.954 377.296 136.726 377.296ZM146.014 388.096H141.586C140.83 389.644 139.426 390.868 136.906 390.868C133.882 390.868 131.542 388.888 131.254 385.612H146.41C146.518 384.928 146.554 384.28 146.554 383.596C146.554 377.764 142.558 373.84 136.906 373.84C131.038 373.84 127.006 377.836 127.006 384.064C127.006 390.292 131.218 394.324 136.906 394.324C141.766 394.324 144.898 391.552 146.014 388.096ZM149.225 384.064C149.225 390.292 153.257 394.324 158.945 394.324C163.805 394.324 166.973 391.624 168.089 387.736H163.661C162.905 389.788 161.393 390.868 158.945 390.868C155.633 390.868 153.437 388.42 153.437 384.064C153.437 379.744 155.633 377.296 158.945 377.296C161.393 377.296 162.977 378.52 163.661 380.428H168.089C166.973 376.252 163.805 373.84 158.945 373.84C153.257 373.84 149.225 377.872 149.225 384.064ZM172.827 388.492C172.827 392.524 175.023 394 178.551 394H181.791V390.58H179.271C177.543 390.58 176.967 389.968 176.967 388.492V377.512H181.791V374.164H176.967V369.232H172.827V374.164H170.487V377.512H172.827V388.492ZM198.777 394H203.097L207.093 379.348L211.089 394H215.409L221.565 374.164H217.533L213.429 390.04L209.397 374.164H205.113L200.901 390.112L196.761 374.164H192.585L198.777 394ZM224.632 394H228.736V374.164H224.632V394ZM226.72 371.536C228.16 371.536 229.312 370.384 229.312 368.908C229.312 367.432 228.16 366.28 226.72 366.28C225.244 366.28 224.092 367.432 224.092 368.908C224.092 370.384 225.244 371.536 226.72 371.536ZM234.772 388.492C234.772 392.524 236.968 394 240.496 394H243.736V390.58H241.216C239.488 390.58 238.912 389.968 238.912 388.492V377.512H243.736V374.164H238.912V369.232H234.772V374.164H232.432V377.512H234.772V388.492ZM247.518 394H251.622V382.912C251.622 379.276 253.602 377.404 256.626 377.404C259.614 377.404 261.594 379.276 261.594 382.912V394H265.662V382.3C265.662 376.756 262.206 373.84 257.778 373.84C255.222 373.84 252.99 374.812 251.622 376.468V367.36H247.518V394ZM291.661 368.656C284.605 368.656 278.881 373.948 278.881 381.436C278.881 388.96 284.605 394.216 291.661 394.216C298.393 394.216 303.289 389.284 304.045 383.488V380.284H290.257V383.56H299.653C299.041 387.772 296.197 390.508 291.661 390.508C286.693 390.508 283.093 386.944 283.093 381.436C283.093 375.928 286.693 372.4 291.661 372.4C294.649 372.4 297.025 373.66 298.357 376.18H303.289C301.381 371.284 296.881 368.656 291.661 368.656ZM306.725 383.992C306.725 390.112 310.865 394.324 316.013 394.324C319.325 394.324 321.701 392.74 322.961 391.048V394H327.101V374.164H322.961V377.044C321.737 375.424 319.433 373.84 316.085 373.84C310.865 373.84 306.725 377.872 306.725 383.992ZM322.961 384.064C322.961 388.348 320.045 390.76 316.949 390.76C313.889 390.76 310.937 388.276 310.937 383.992C310.937 379.708 313.889 377.404 316.949 377.404C320.045 377.404 322.961 379.816 322.961 384.064ZM336.595 383.56C336.595 379.348 338.467 378.088 341.491 378.088H342.535V373.84C339.727 373.84 337.747 375.064 336.595 377.044V374.164H332.491V394H336.595V383.56ZM374.423 394H378.491V382.3C378.491 376.756 374.963 373.84 370.319 373.84C367.439 373.84 364.631 375.352 363.407 377.764C362.039 375.172 359.411 373.84 356.279 373.84C353.903 373.84 351.743 374.812 350.411 376.432V374.164H346.307V394H350.411V382.912C350.411 379.276 352.391 377.404 355.415 377.404C358.403 377.404 360.383 379.276 360.383 382.912V394H364.451V382.912C364.451 379.276 366.431 377.404 369.455 377.404C372.443 377.404 374.423 379.276 374.423 382.912V394ZM383.714 394H387.818V374.164H383.714V394ZM385.802 371.536C387.242 371.536 388.394 370.384 388.394 368.908C388.394 367.432 387.242 366.28 385.802 366.28C384.326 366.28 383.174 367.432 383.174 368.908C383.174 370.384 384.326 371.536 385.802 371.536ZM407.282 394H411.35V382.3C411.35 376.756 407.858 373.84 403.214 373.84C400.838 373.84 398.642 374.812 397.31 376.432V374.164H393.206V394H397.31V382.912C397.31 379.276 399.29 377.404 402.314 377.404C405.302 377.404 407.282 379.276 407.282 382.912V394Z" fill="white"/>
</g>
<defs>
<clipPath id="clip0">
<rect width="732" height="483" fill="white"/>
</clipPath>
</defs>
</svg>
