<svg width="715" height="482" viewBox="0 0 715 482" fill="none" xmlns="http://www.w3.org/2000/svg">
<g filter="url(#filter0_dddddd)">
<path d="M544.687 1.41217H170.313C168.483 1.41217 167 2.46442 167 3.76241C167 5.06041 168.483 6.11262 170.313 6.11262H544.687C546.517 6.11262 548 5.06041 548 3.76241C548 2.46442 546.517 1.41217 544.687 1.41217Z" fill="#DBDFF1"/>
<path d="M380.691 0.237457H171.97C169.225 0.237457 167 1.81581 167 3.7628C167 5.7098 169.225 7.28815 171.97 7.28815H380.691C383.436 7.28815 385.661 5.7098 385.661 3.7628C385.661 1.81581 383.436 0.237457 380.691 0.237457Z" fill="#8676FF"/>
<path d="M544.687 50.7678H170.313C168.483 50.7678 167 51.8201 167 53.1181C167 54.4161 168.483 55.4683 170.313 55.4683H544.687C546.517 55.4683 548 54.4161 548 53.1181C548 51.8201 546.517 50.7678 544.687 50.7678Z" fill="#DBDFF1"/>
<path d="M461.861 49.5909H171.97C169.225 49.5909 167 51.1692 167 53.1162C167 55.0632 169.225 56.6415 171.97 56.6415H461.861C464.605 56.6415 466.83 55.0632 466.83 53.1162C466.83 51.1692 464.605 49.5909 461.861 49.5909Z" fill="#FF708B"/>
<path d="M544.687 100.121H170.313C168.483 100.121 167 101.173 167 102.471C167 103.769 168.483 104.821 170.313 104.821H544.687C546.517 104.821 548 103.769 548 102.471C548 101.173 546.517 100.121 544.687 100.121Z" fill="#DBDFF1"/>
<path d="M423.761 98.9493H171.97C169.225 98.9493 167 100.528 167 102.475C167 104.422 169.225 106 171.97 106H423.761C426.506 106 428.731 104.422 428.731 102.475C428.731 100.528 426.506 98.9493 423.761 98.9493Z" fill="#FFBA69"/>
</g>
<defs>
<filter id="filter0_dddddd" x="0.0597992" y="0.237457" width="714.88" height="481.378" filterUnits="userSpaceOnUse" color-interpolation-filters="sRGB">
<feFlood flood-opacity="0" result="BackgroundImageFix"/>
<feColorMatrix in="SourceAlpha" type="matrix" values="0 0 0 0 0 0 0 0 0 0 0 0 0 0 0 0 0 0 127 0"/>
<feOffset dy="5.77458"/>
<feGaussianBlur stdDeviation="2.30983"/>
<feColorMatrix type="matrix" values="0 0 0 0 0.423529 0 0 0 0 0.286275 0 0 0 0 0.67451 0 0 0 0.0196802 0"/>
<feBlend mode="normal" in2="BackgroundImageFix" result="effect1_dropShadow"/>
<feColorMatrix in="SourceAlpha" type="matrix" values="0 0 0 0 0 0 0 0 0 0 0 0 0 0 0 0 0 0 127 0"/>
<feOffset dy="13.8771"/>
<feGaussianBlur stdDeviation="5.55085"/>
<feColorMatrix type="matrix" values="0 0 0 0 0.423529 0 0 0 0 0.286275 0 0 0 0 0.67451 0 0 0 0.0282725 0"/>
<feBlend mode="normal" in2="effect1_dropShadow" result="effect2_dropShadow"/>
<feColorMatrix in="SourceAlpha" type="matrix" values="0 0 0 0 0 0 0 0 0 0 0 0 0 0 0 0 0 0 127 0"/>
<feOffset dy="26.1294"/>
<feGaussianBlur stdDeviation="10.4518"/>
<feColorMatrix type="matrix" values="0 0 0 0 0.423529 0 0 0 0 0.286275 0 0 0 0 0.67451 0 0 0 0.035 0"/>
<feBlend mode="normal" in2="effect2_dropShadow" result="effect3_dropShadow"/>
<feColorMatrix in="SourceAlpha" type="matrix" values="0 0 0 0 0 0 0 0 0 0 0 0 0 0 0 0 0 0 127 0"/>
<feOffset dy="46.6104"/>
<feGaussianBlur stdDeviation="18.6441"/>
<feColorMatrix type="matrix" values="0 0 0 0 0.423529 0 0 0 0 0.286275 0 0 0 0 0.67451 0 0 0 0.0417275 0"/>
<feBlend mode="normal" in2="effect3_dropShadow" result="effect4_dropShadow"/>
<feColorMatrix in="SourceAlpha" type="matrix" values="0 0 0 0 0 0 0 0 0 0 0 0 0 0 0 0 0 0 127 0"/>
<feOffset dy="87.1796"/>
<feGaussianBlur stdDeviation="34.8718"/>
<feColorMatrix type="matrix" values="0 0 0 0 0.423529 0 0 0 0 0.286275 0 0 0 0 0.67451 0 0 0 0.0503198 0"/>
<feBlend mode="normal" in2="effect4_dropShadow" result="effect5_dropShadow"/>
<feColorMatrix in="SourceAlpha" type="matrix" values="0 0 0 0 0 0 0 0 0 0 0 0 0 0 0 0 0 0 127 0"/>
<feOffset dy="208.675"/>
<feGaussianBlur stdDeviation="83.4701"/>
<feColorMatrix type="matrix" values="0 0 0 0 0.423529 0 0 0 0 0.286275 0 0 0 0 0.67451 0 0 0 0.07 0"/>
<feBlend mode="normal" in2="effect5_dropShadow" result="effect6_dropShadow"/>
<feBlend mode="normal" in="SourceGraphic" in2="effect6_dropShadow" result="shape"/>
</filter>
</defs>
</svg>
