<svg width="403" height="45" viewBox="0 0 403 45" fill="none" xmlns="http://www.w3.org/2000/svg">
<path d="M7.44531 35H0.414062V0.875H7.44531V35ZM19.7734 9.64062L19.9844 12.5703C21.7969 10.3047 24.2266 9.17188 27.2734 9.17188C29.9609 9.17188 31.9609 9.96094 33.2734 11.5391C34.5859 13.1172 35.2578 15.4766 35.2891 18.6172V35H28.5156V18.7812C28.5156 17.3438 28.2031 16.3047 27.5781 15.6641C26.9531 15.0078 25.9141 14.6797 24.4609 14.6797C22.5547 14.6797 21.125 15.4922 20.1719 17.1172V35H13.3984V9.64062H19.7734ZM53.6172 23.1172H40.4219V17.6562H53.6172V23.1172ZM78.7656 27.9688H66.4375L64.0938 35H56.6172L69.3203 0.875H75.8359L88.6094 35H81.1328L78.7656 27.9688ZM68.3359 22.2734H76.8672L72.5781 9.5L68.3359 22.2734ZM113.055 22.5547C113.055 26.4609 112.164 29.5938 110.383 31.9531C108.617 34.2969 106.227 35.4688 103.211 35.4688C100.648 35.4688 98.5781 34.5781 97 32.7969V44.75H90.2266V9.64062H96.5078L96.7422 12.125C98.3828 10.1562 100.523 9.17188 103.164 9.17188C106.289 9.17188 108.719 10.3281 110.453 12.6406C112.188 14.9531 113.055 18.1406 113.055 22.2031V22.5547ZM106.281 22.0625C106.281 19.7031 105.859 17.8828 105.016 16.6016C104.188 15.3203 102.977 14.6797 101.383 14.6797C99.2578 14.6797 97.7969 15.4922 97 17.1172V27.5C97.8281 29.1719 99.3047 30.0078 101.43 30.0078C104.664 30.0078 106.281 27.3594 106.281 22.0625ZM140.102 22.5547C140.102 26.4609 139.211 29.5938 137.43 31.9531C135.664 34.2969 133.273 35.4688 130.258 35.4688C127.695 35.4688 125.625 34.5781 124.047 32.7969V44.75H117.273V9.64062H123.555L123.789 12.125C125.43 10.1562 127.57 9.17188 130.211 9.17188C133.336 9.17188 135.766 10.3281 137.5 12.6406C139.234 14.9531 140.102 18.1406 140.102 22.2031V22.5547ZM133.328 22.0625C133.328 19.7031 132.906 17.8828 132.062 16.6016C131.234 15.3203 130.023 14.6797 128.43 14.6797C126.305 14.6797 124.844 15.4922 124.047 17.1172V27.5C124.875 29.1719 126.352 30.0078 128.477 30.0078C131.711 30.0078 133.328 27.3594 133.328 22.0625ZM184.492 35H177.461V20.375H163.75V35H156.719V0.875H163.75V14.7031H177.461V0.875H184.492V35ZM189.156 22.0859C189.156 19.5703 189.641 17.3281 190.609 15.3594C191.578 13.3906 192.969 11.8672 194.781 10.7891C196.609 9.71094 198.727 9.17188 201.133 9.17188C204.555 9.17188 207.344 10.2188 209.5 12.3125C211.672 14.4062 212.883 17.25 213.133 20.8438L213.18 22.5781C213.18 26.4688 212.094 29.5938 209.922 31.9531C207.75 34.2969 204.836 35.4688 201.18 35.4688C197.523 35.4688 194.602 34.2969 192.414 31.9531C190.242 29.6094 189.156 26.4219 189.156 22.3906V22.0859ZM195.93 22.5781C195.93 24.9844 196.383 26.8281 197.289 28.1094C198.195 29.375 199.492 30.0078 201.18 30.0078C202.82 30.0078 204.102 29.3828 205.023 28.1328C205.945 26.8672 206.406 24.8516 206.406 22.0859C206.406 19.7266 205.945 17.8984 205.023 16.6016C204.102 15.3047 202.805 14.6562 201.133 14.6562C199.477 14.6562 198.195 15.3047 197.289 16.6016C196.383 17.8828 195.93 19.875 195.93 22.5781ZM223.703 9.64062L223.914 12.4766C225.711 10.2734 228.141 9.17188 231.203 9.17188C234.469 9.17188 236.711 10.4609 237.93 13.0391C239.711 10.4609 242.25 9.17188 245.547 9.17188C248.297 9.17188 250.344 9.97656 251.688 11.5859C253.031 13.1797 253.703 15.5859 253.703 18.8047V35H246.906V18.8281C246.906 17.3906 246.625 16.3438 246.062 15.6875C245.5 15.0156 244.508 14.6797 243.086 14.6797C241.055 14.6797 239.648 15.6484 238.867 17.5859L238.891 35H232.117V18.8516C232.117 17.3828 231.828 16.3203 231.25 15.6641C230.672 15.0078 229.688 14.6797 228.297 14.6797C226.375 14.6797 224.984 15.4766 224.125 17.0703V35H217.352V9.64062H223.703ZM270.602 35.4688C266.883 35.4688 263.852 34.3281 261.508 32.0469C259.18 29.7656 258.016 26.7266 258.016 22.9297V22.2734C258.016 19.7266 258.508 17.4531 259.492 15.4531C260.477 13.4375 261.867 11.8906 263.664 10.8125C265.477 9.71875 267.539 9.17188 269.852 9.17188C273.32 9.17188 276.047 10.2656 278.031 12.4531C280.031 14.6406 281.031 17.7422 281.031 21.7578V24.5234H264.883C265.102 26.1797 265.758 27.5078 266.852 28.5078C267.961 29.5078 269.359 30.0078 271.047 30.0078C273.656 30.0078 275.695 29.0625 277.164 27.1719L280.492 30.8984C279.477 32.3359 278.102 33.4609 276.367 34.2734C274.633 35.0703 272.711 35.4688 270.602 35.4688ZM269.828 14.6562C268.484 14.6562 267.391 15.1094 266.547 16.0156C265.719 16.9219 265.188 18.2188 264.953 19.9062H274.375V19.3672C274.344 17.8672 273.938 16.7109 273.156 15.8984C272.375 15.0703 271.266 14.6562 269.828 14.6562ZM304.328 22.9766V35H297.297V0.875H310.609C313.172 0.875 315.422 1.34375 317.359 2.28125C319.312 3.21875 320.812 4.55469 321.859 6.28906C322.906 8.00781 323.43 9.96875 323.43 12.1719C323.43 15.5156 322.281 18.1562 319.984 20.0938C317.703 22.0156 314.539 22.9766 310.492 22.9766H304.328ZM304.328 17.2812H310.609C312.469 17.2812 313.883 16.8438 314.852 15.9688C315.836 15.0938 316.328 13.8438 316.328 12.2188C316.328 10.5469 315.836 9.19531 314.852 8.16406C313.867 7.13281 312.508 6.60156 310.773 6.57031H304.328V17.2812ZM342.25 35C341.938 34.3906 341.711 33.6328 341.57 32.7266C339.93 34.5547 337.797 35.4688 335.172 35.4688C332.688 35.4688 330.625 34.75 328.984 33.3125C327.359 31.875 326.547 30.0625 326.547 27.875C326.547 25.1875 327.539 23.125 329.523 21.6875C331.523 20.25 334.406 19.5234 338.172 19.5078H341.289V18.0547C341.289 16.8828 340.984 15.9453 340.375 15.2422C339.781 14.5391 338.836 14.1875 337.539 14.1875C336.398 14.1875 335.5 14.4609 334.844 15.0078C334.203 15.5547 333.883 16.3047 333.883 17.2578H327.109C327.109 15.7891 327.562 14.4297 328.469 13.1797C329.375 11.9297 330.656 10.9531 332.312 10.25C333.969 9.53125 335.828 9.17188 337.891 9.17188C341.016 9.17188 343.492 9.96094 345.32 11.5391C347.164 13.1016 348.086 15.3047 348.086 18.1484V29.1406C348.102 31.5469 348.438 33.3672 349.094 34.6016V35H342.25ZM336.648 30.2891C337.648 30.2891 338.57 30.0703 339.414 29.6328C340.258 29.1797 340.883 28.5781 341.289 27.8281V23.4688H338.758C335.367 23.4688 333.562 24.6406 333.344 26.9844L333.32 27.3828C333.32 28.2266 333.617 28.9219 334.211 29.4688C334.805 30.0156 335.617 30.2891 336.648 30.2891ZM352.305 22.1328C352.305 18.2422 353.227 15.1094 355.07 12.7344C356.93 10.3594 359.43 9.17188 362.57 9.17188C365.352 9.17188 367.516 10.125 369.062 12.0312L369.344 9.64062H375.484V34.1562C375.484 36.375 374.977 38.3047 373.961 39.9453C372.961 41.5859 371.547 42.8359 369.719 43.6953C367.891 44.5547 365.75 44.9844 363.297 44.9844C361.438 44.9844 359.625 44.6094 357.859 43.8594C356.094 43.125 354.758 42.1719 353.852 41L356.852 36.875C358.539 38.7656 360.586 39.7109 362.992 39.7109C364.789 39.7109 366.188 39.2266 367.188 38.2578C368.188 37.3047 368.688 35.9453 368.688 34.1797V32.8203C367.125 34.5859 365.07 35.4688 362.523 35.4688C359.477 35.4688 357.008 34.2812 355.117 31.9062C353.242 29.5156 352.305 26.3516 352.305 22.4141V22.1328ZM359.078 22.625C359.078 24.9219 359.539 26.7266 360.461 28.0391C361.383 29.3359 362.648 29.9844 364.258 29.9844C366.32 29.9844 367.797 29.2109 368.688 27.6641V17C367.781 15.4531 366.32 14.6797 364.305 14.6797C362.68 14.6797 361.398 15.3438 360.461 16.6719C359.539 18 359.078 19.9844 359.078 22.625ZM392.383 35.4688C388.664 35.4688 385.633 34.3281 383.289 32.0469C380.961 29.7656 379.797 26.7266 379.797 22.9297V22.2734C379.797 19.7266 380.289 17.4531 381.273 15.4531C382.258 13.4375 383.648 11.8906 385.445 10.8125C387.258 9.71875 389.32 9.17188 391.633 9.17188C395.102 9.17188 397.828 10.2656 399.812 12.4531C401.812 14.6406 402.812 17.7422 402.812 21.7578V24.5234H386.664C386.883 26.1797 387.539 27.5078 388.633 28.5078C389.742 29.5078 391.141 30.0078 392.828 30.0078C395.438 30.0078 397.477 29.0625 398.945 27.1719L402.273 30.8984C401.258 32.3359 399.883 33.4609 398.148 34.2734C396.414 35.0703 394.492 35.4688 392.383 35.4688ZM391.609 14.6562C390.266 14.6562 389.172 15.1094 388.328 16.0156C387.5 16.9219 386.969 18.2188 386.734 19.9062H396.156V19.3672C396.125 17.8672 395.719 16.7109 394.938 15.8984C394.156 15.0703 393.047 14.6562 391.609 14.6562Z" fill="black"/>
</svg>
