<svg width="121" height="49" viewBox="0 0 121 49" fill="none" xmlns="http://www.w3.org/2000/svg">
<path d="M0 0H121V49H0V0Z" fill="white"/>
<path d="M7.0918 31V16.7812H11.4668C12.7168 16.7812 13.8333 17.0645 14.8164 17.6309C15.806 18.1908 16.5775 18.9915 17.1309 20.0332C17.6842 21.0684 17.9609 22.2467 17.9609 23.5684V24.2227C17.9609 25.5443 17.6875 26.7194 17.1406 27.748C16.6003 28.7767 15.8353 29.5742 14.8457 30.1406C13.8561 30.707 12.7396 30.9935 11.4961 31H7.0918ZM10.0215 19.1543V28.6465H11.4375C12.5833 28.6465 13.459 28.2721 14.0645 27.5234C14.6699 26.7747 14.9792 25.7038 14.9922 24.3105V23.5586C14.9922 22.1133 14.6927 21.0195 14.0938 20.2773C13.4948 19.5286 12.6191 19.1543 11.4668 19.1543H10.0215ZM26.0371 31C25.9069 30.7461 25.8125 30.4303 25.7539 30.0527C25.0703 30.8145 24.1816 31.1953 23.0879 31.1953C22.0527 31.1953 21.1934 30.8958 20.5098 30.2969C19.8327 29.6979 19.4941 28.9427 19.4941 28.0312C19.4941 26.9115 19.9076 26.0521 20.7344 25.4531C21.5677 24.8542 22.7689 24.5514 24.3379 24.5449H25.6367V23.9395C25.6367 23.4512 25.5098 23.0605 25.2559 22.7676C25.0085 22.4746 24.6146 22.3281 24.0742 22.3281C23.599 22.3281 23.2246 22.4421 22.9512 22.6699C22.6842 22.8978 22.5508 23.2103 22.5508 23.6074H19.7285C19.7285 22.9954 19.9173 22.429 20.2949 21.9082C20.6725 21.3874 21.2064 20.9805 21.8965 20.6875C22.5866 20.388 23.3613 20.2383 24.2207 20.2383C25.5228 20.2383 26.5547 20.5671 27.3164 21.2246C28.0846 21.8757 28.4688 22.7936 28.4688 23.9785V28.5586C28.4753 29.5612 28.6152 30.3197 28.8887 30.834V31H26.0371ZM23.7031 29.0371C24.1198 29.0371 24.5039 28.946 24.8555 28.7637C25.207 28.5749 25.4674 28.3242 25.6367 28.0117V26.1953H24.582C23.1693 26.1953 22.4173 26.6836 22.3262 27.6602L22.3164 27.8262C22.3164 28.1777 22.4401 28.4674 22.6875 28.6953C22.9349 28.9232 23.2734 29.0371 23.7031 29.0371ZM34.0156 17.8359V20.4336H35.8223V22.5039H34.0156V27.7773C34.0156 28.168 34.0905 28.4479 34.2402 28.6172C34.39 28.7865 34.6764 28.8711 35.0996 28.8711C35.4121 28.8711 35.6888 28.8483 35.9297 28.8027V30.9414C35.3763 31.1107 34.8066 31.1953 34.2207 31.1953C32.2415 31.1953 31.2324 30.196 31.1934 28.1973V22.5039H29.6504V20.4336H31.1934V17.8359H34.0156ZM43.5176 31C43.3874 30.7461 43.293 30.4303 43.2344 30.0527C42.5508 30.8145 41.6621 31.1953 40.5684 31.1953C39.5332 31.1953 38.6738 30.8958 37.9902 30.2969C37.3132 29.6979 36.9746 28.9427 36.9746 28.0312C36.9746 26.9115 37.388 26.0521 38.2148 25.4531C39.0482 24.8542 40.2493 24.5514 41.8184 24.5449H43.1172V23.9395C43.1172 23.4512 42.9902 23.0605 42.7363 22.7676C42.4889 22.4746 42.0951 22.3281 41.5547 22.3281C41.0794 22.3281 40.7051 22.4421 40.4316 22.6699C40.1647 22.8978 40.0312 23.2103 40.0312 23.6074H37.209C37.209 22.9954 37.3978 22.429 37.7754 21.9082C38.153 21.3874 38.6868 20.9805 39.377 20.6875C40.0671 20.388 40.8418 20.2383 41.7012 20.2383C43.0033 20.2383 44.0352 20.5671 44.7969 21.2246C45.5651 21.8757 45.9492 22.7936 45.9492 23.9785V28.5586C45.9557 29.5612 46.0957 30.3197 46.3691 30.834V31H43.5176ZM41.1836 29.0371C41.6003 29.0371 41.9844 28.946 42.3359 28.7637C42.6875 28.5749 42.9479 28.3242 43.1172 28.0117V26.1953H42.0625C40.6497 26.1953 39.8978 26.6836 39.8066 27.6602L39.7969 27.8262C39.7969 28.1777 39.9206 28.4674 40.168 28.6953C40.4154 28.9232 40.7539 29.0371 41.1836 29.0371ZM60.6562 27.2695C60.6562 26.7161 60.4609 26.293 60.0703 26C59.6797 25.7005 58.9766 25.388 57.9609 25.0625C56.9453 24.7305 56.1413 24.4049 55.5488 24.0859C53.9342 23.2135 53.127 22.0384 53.127 20.5605C53.127 19.7923 53.3418 19.1087 53.7715 18.5098C54.2077 17.9043 54.8294 17.4323 55.6367 17.0938C56.4505 16.7552 57.362 16.5859 58.3711 16.5859C59.3867 16.5859 60.2917 16.7715 61.0859 17.1426C61.8802 17.5072 62.4954 18.0247 62.9316 18.6953C63.3743 19.3659 63.5957 20.1276 63.5957 20.9805H60.666C60.666 20.3294 60.4609 19.8249 60.0508 19.4668C59.6406 19.1022 59.0645 18.9199 58.3223 18.9199C57.6061 18.9199 57.0495 19.0729 56.6523 19.3789C56.2552 19.6784 56.0566 20.0755 56.0566 20.5703C56.0566 21.0326 56.2878 21.4199 56.75 21.7324C57.2188 22.0449 57.9056 22.3379 58.8105 22.6113C60.4772 23.1126 61.6914 23.7344 62.4531 24.4766C63.2148 25.2188 63.5957 26.1432 63.5957 27.25C63.5957 28.4805 63.1302 29.4473 62.1992 30.1504C61.2682 30.847 60.015 31.1953 58.4395 31.1953C57.3457 31.1953 56.3496 30.9967 55.4512 30.5996C54.5527 30.196 53.8659 29.6458 53.3906 28.9492C52.9219 28.2526 52.6875 27.4453 52.6875 26.5273H55.627C55.627 28.0964 56.5645 28.8809 58.4395 28.8809C59.1361 28.8809 59.6797 28.7409 60.0703 28.4609C60.4609 28.1745 60.6562 27.7773 60.6562 27.2695ZM64.9629 25.6191C64.9629 24.571 65.1647 23.6367 65.5684 22.8164C65.972 21.9961 66.5514 21.3613 67.3066 20.9121C68.0684 20.4629 68.9505 20.2383 69.9531 20.2383C71.3789 20.2383 72.541 20.6745 73.4395 21.5469C74.3444 22.4193 74.849 23.6042 74.9531 25.1016L74.9727 25.8242C74.9727 27.4453 74.5202 28.7474 73.6152 29.7305C72.7103 30.707 71.4961 31.1953 69.9727 31.1953C68.4492 31.1953 67.2318 30.707 66.3203 29.7305C65.4154 28.7539 64.9629 27.4258 64.9629 25.7461V25.6191ZM67.7852 25.8242C67.7852 26.8268 67.974 27.5951 68.3516 28.1289C68.7292 28.6562 69.2695 28.9199 69.9727 28.9199C70.6562 28.9199 71.1901 28.6595 71.5742 28.1387C71.9583 27.6113 72.1504 26.7715 72.1504 25.6191C72.1504 24.6361 71.9583 23.8743 71.5742 23.334C71.1901 22.7936 70.6497 22.5234 69.9531 22.5234C69.263 22.5234 68.7292 22.7936 68.3516 23.334C67.974 23.8678 67.7852 24.6979 67.7852 25.8242ZM83.0391 29.9258C82.3424 30.7721 81.3789 31.1953 80.1484 31.1953C79.0156 31.1953 78.1497 30.8698 77.5508 30.2188C76.9583 29.5677 76.6556 28.6139 76.6426 27.3574V20.4336H79.4648V27.2598C79.4648 28.36 79.9661 28.9102 80.9688 28.9102C81.9258 28.9102 82.5833 28.5781 82.9414 27.9141V20.4336H85.7734V31H83.1172L83.0391 29.9258ZM93.8398 23.0801C93.4557 23.028 93.1172 23.002 92.8242 23.002C91.7565 23.002 91.0566 23.3633 90.7246 24.0859V31H87.9023V20.4336H90.5684L90.6465 21.6934C91.2129 20.7233 91.9974 20.2383 93 20.2383C93.3125 20.2383 93.6055 20.2806 93.8789 20.3652L93.8398 23.0801ZM99.4062 28.9199C99.9271 28.9199 100.35 28.7767 100.676 28.4902C101.001 28.2038 101.171 27.8229 101.184 27.3477H103.83C103.824 28.0638 103.628 28.7214 103.244 29.3203C102.86 29.9128 102.333 30.375 101.662 30.707C100.998 31.0326 100.262 31.1953 99.4551 31.1953C97.9447 31.1953 96.7533 30.7168 95.8809 29.7598C95.0085 28.7962 94.5723 27.4681 94.5723 25.7754V25.5898C94.5723 23.9622 95.0052 22.6634 95.8711 21.6934C96.737 20.7233 97.9251 20.2383 99.4355 20.2383C100.757 20.2383 101.815 20.6159 102.609 21.3711C103.41 22.1198 103.817 23.1191 103.83 24.3691H101.184C101.171 23.8223 101.001 23.3796 100.676 23.041C100.35 22.696 99.9206 22.5234 99.3867 22.5234C98.7292 22.5234 98.2311 22.7643 97.8926 23.2461C97.5605 23.7214 97.3945 24.4961 97.3945 25.5703V25.8633C97.3945 26.9505 97.5605 27.7318 97.8926 28.207C98.2246 28.6823 98.7292 28.9199 99.4062 28.9199ZM110.305 31.1953C108.755 31.1953 107.492 30.7201 106.516 29.7695C105.546 28.819 105.061 27.5527 105.061 25.9707V25.6973C105.061 24.6361 105.266 23.6888 105.676 22.8555C106.086 22.0156 106.665 21.3711 107.414 20.9219C108.169 20.4661 109.029 20.2383 109.992 20.2383C111.438 20.2383 112.574 20.694 113.4 21.6055C114.234 22.5169 114.65 23.8092 114.65 25.4824V26.6348H107.922C108.013 27.3249 108.286 27.8783 108.742 28.2949C109.204 28.7116 109.787 28.9199 110.49 28.9199C111.577 28.9199 112.427 28.526 113.039 27.7383L114.426 29.291C114.003 29.89 113.43 30.3587 112.707 30.6973C111.984 31.0293 111.184 31.1953 110.305 31.1953ZM109.982 22.5234C109.423 22.5234 108.967 22.7122 108.615 23.0898C108.27 23.4674 108.049 24.0078 107.951 24.7109H111.877V24.4863C111.864 23.8613 111.695 23.3796 111.369 23.041C111.044 22.696 110.581 22.5234 109.982 22.5234Z" fill="black"/>
<path d="M0 0V-1H-1V0H0ZM121 0H122V-1H121V0ZM121 49V50H122V49H121ZM0 49H-1V50H0V49ZM0 1H121V-1H0V1ZM120 0V49H122V0H120ZM121 48H0V50H121V48ZM1 49V0H-1V49H1Z" fill="white"/>
</svg>
