<svg width="102" height="49" viewBox="0 0 102 49" fill="none" xmlns="http://www.w3.org/2000/svg">
<path d="M0 0H102V49H0V0Z" fill="white"/>
<path d="M22.2012 27.2695C22.2012 26.7161 22.0059 26.293 21.6152 26C21.2246 25.7005 20.5215 25.388 19.5059 25.0625C18.4902 24.7305 17.6862 24.4049 17.0938 24.0859C15.4792 23.2135 14.6719 22.0384 14.6719 20.5605C14.6719 19.7923 14.8867 19.1087 15.3164 18.5098C15.7526 17.9043 16.3743 17.4323 17.1816 17.0938C17.9954 16.7552 18.9069 16.5859 19.916 16.5859C20.9316 16.5859 21.8366 16.7715 22.6309 17.1426C23.4251 17.5072 24.0404 18.0247 24.4766 18.6953C24.9193 19.3659 25.1406 20.1276 25.1406 20.9805H22.2109C22.2109 20.3294 22.0059 19.8249 21.5957 19.4668C21.1855 19.1022 20.6094 18.9199 19.8672 18.9199C19.151 18.9199 18.5944 19.0729 18.1973 19.3789C17.8001 19.6784 17.6016 20.0755 17.6016 20.5703C17.6016 21.0326 17.8327 21.4199 18.2949 21.7324C18.7637 22.0449 19.4505 22.3379 20.3555 22.6113C22.0221 23.1126 23.2363 23.7344 23.998 24.4766C24.7598 25.2188 25.1406 26.1432 25.1406 27.25C25.1406 28.4805 24.6751 29.4473 23.7441 30.1504C22.8132 30.847 21.5599 31.1953 19.9844 31.1953C18.8906 31.1953 17.8945 30.9967 16.9961 30.5996C16.0977 30.196 15.4108 29.6458 14.9355 28.9492C14.4668 28.2526 14.2324 27.4453 14.2324 26.5273H17.1719C17.1719 28.0964 18.1094 28.8809 19.9844 28.8809C20.681 28.8809 21.2246 28.7409 21.6152 28.4609C22.0059 28.1745 22.2012 27.7773 22.2012 27.2695ZM31.8105 31.1953C30.2611 31.1953 28.998 30.7201 28.0215 29.7695C27.0514 28.819 26.5664 27.5527 26.5664 25.9707V25.6973C26.5664 24.6361 26.7715 23.6888 27.1816 22.8555C27.5918 22.0156 28.1712 21.3711 28.9199 20.9219C29.6751 20.4661 30.5345 20.2383 31.498 20.2383C32.9434 20.2383 34.0794 20.694 34.9062 21.6055C35.7396 22.5169 36.1562 23.8092 36.1562 25.4824V26.6348H29.4277C29.5189 27.3249 29.7923 27.8783 30.248 28.2949C30.7103 28.7116 31.293 28.9199 31.9961 28.9199C33.0833 28.9199 33.9329 28.526 34.5449 27.7383L35.9316 29.291C35.5085 29.89 34.9355 30.3587 34.2129 30.6973C33.4902 31.0293 32.6895 31.1953 31.8105 31.1953ZM31.4883 22.5234C30.9284 22.5234 30.4727 22.7122 30.1211 23.0898C29.776 23.4674 29.5547 24.0078 29.457 24.7109H33.3828V24.4863C33.3698 23.8613 33.2005 23.3796 32.875 23.041C32.5495 22.696 32.0872 22.5234 31.4883 22.5234ZM41.1465 17.8359V20.4336H42.9531V22.5039H41.1465V27.7773C41.1465 28.168 41.2214 28.4479 41.3711 28.6172C41.5208 28.7865 41.8073 28.8711 42.2305 28.8711C42.543 28.8711 42.8197 28.8483 43.0605 28.8027V30.9414C42.5072 31.1107 41.9375 31.1953 41.3516 31.1953C39.3724 31.1953 38.3633 30.196 38.3242 28.1973V22.5039H36.7812V20.4336H38.3242V17.8359H41.1465ZM47.9043 17.8359V20.4336H49.7109V22.5039H47.9043V27.7773C47.9043 28.168 47.9792 28.4479 48.1289 28.6172C48.2786 28.7865 48.5651 28.8711 48.9883 28.8711C49.3008 28.8711 49.5775 28.8483 49.8184 28.8027V30.9414C49.265 31.1107 48.6953 31.1953 48.1094 31.1953C46.1302 31.1953 45.1211 30.196 45.082 28.1973V22.5039H43.5391V20.4336H45.082V17.8359H47.9043ZM54.2617 31H51.4297V20.4336H54.2617V31ZM51.2637 17.6992C51.2637 17.276 51.4036 16.9277 51.6836 16.6543C51.9701 16.3809 52.3574 16.2441 52.8457 16.2441C53.3275 16.2441 53.7116 16.3809 53.998 16.6543C54.2845 16.9277 54.4277 17.276 54.4277 17.6992C54.4277 18.1289 54.2812 18.4805 53.9883 18.7539C53.7018 19.0273 53.321 19.1641 52.8457 19.1641C52.3704 19.1641 51.9863 19.0273 51.6934 18.7539C51.4069 18.4805 51.2637 18.1289 51.2637 17.6992ZM59.1934 20.4336L59.2812 21.6543C60.0365 20.7103 61.0488 20.2383 62.3184 20.2383C63.4382 20.2383 64.2715 20.5671 64.8184 21.2246C65.3652 21.8822 65.6452 22.8652 65.6582 24.1738V31H62.8359V24.2422C62.8359 23.6432 62.7057 23.2103 62.4453 22.9434C62.1849 22.6699 61.752 22.5332 61.1465 22.5332C60.3522 22.5332 59.7565 22.8717 59.3594 23.5488V31H56.5371V20.4336H59.1934ZM67.3965 25.6387C67.3965 24.0176 67.7806 22.7122 68.5488 21.7227C69.3236 20.7331 70.3652 20.2383 71.6738 20.2383C72.8327 20.2383 73.7344 20.6354 74.3789 21.4297L74.4961 20.4336H77.0547V30.6484C77.0547 31.5729 76.8431 32.377 76.4199 33.0605C76.0033 33.7441 75.4141 34.265 74.6523 34.623C73.8906 34.9811 72.9987 35.1602 71.9766 35.1602C71.2018 35.1602 70.4466 35.0039 69.7109 34.6914C68.9753 34.3854 68.4186 33.9883 68.041 33.5L69.291 31.7812C69.9941 32.569 70.847 32.9629 71.8496 32.9629C72.5983 32.9629 73.181 32.7611 73.5977 32.3574C74.0143 31.9603 74.2227 31.3939 74.2227 30.6582V30.0918C73.5716 30.8275 72.7155 31.1953 71.6543 31.1953C70.3848 31.1953 69.3561 30.7005 68.5684 29.7109C67.7871 28.7148 67.3965 27.3965 67.3965 25.7559V25.6387ZM70.2188 25.8438C70.2188 26.8008 70.4108 27.5527 70.7949 28.0996C71.179 28.64 71.7064 28.9102 72.377 28.9102C73.2363 28.9102 73.8516 28.5879 74.2227 27.9434V23.5C73.8451 22.8555 73.2363 22.5332 72.3965 22.5332C71.7194 22.5332 71.1855 22.8099 70.7949 23.3633C70.4108 23.9167 70.2188 24.7435 70.2188 25.8438ZM84.9551 28.0801C84.9551 27.735 84.7826 27.4648 84.4375 27.2695C84.099 27.0677 83.5521 26.8887 82.7969 26.7324C80.2839 26.2051 79.0273 25.1374 79.0273 23.5293C79.0273 22.5918 79.4147 21.8105 80.1895 21.1855C80.9707 20.554 81.9896 20.2383 83.2461 20.2383C84.5872 20.2383 85.6582 20.554 86.459 21.1855C87.2663 21.8171 87.6699 22.6374 87.6699 23.6465H84.8477C84.8477 23.2428 84.7174 22.9108 84.457 22.6504C84.1966 22.3835 83.7897 22.25 83.2363 22.25C82.7611 22.25 82.3932 22.3574 82.1328 22.5723C81.8724 22.7871 81.7422 23.0605 81.7422 23.3926C81.7422 23.7051 81.8887 23.959 82.1816 24.1543C82.4811 24.3431 82.9824 24.5091 83.6855 24.6523C84.3887 24.7891 84.9811 24.9453 85.4629 25.1211C86.9538 25.668 87.6992 26.6152 87.6992 27.9629C87.6992 28.9264 87.2858 29.7077 86.459 30.3066C85.6322 30.8991 84.5645 31.1953 83.2559 31.1953C82.3704 31.1953 81.5827 31.0391 80.8926 30.7266C80.209 30.4076 79.6719 29.9746 79.2812 29.4277C78.8906 28.8743 78.6953 28.2786 78.6953 27.6406H81.3711C81.3971 28.1419 81.5827 28.526 81.9277 28.793C82.2728 29.0599 82.735 29.1934 83.3145 29.1934C83.8548 29.1934 84.2617 29.0924 84.5352 28.8906C84.8151 28.6823 84.9551 28.4121 84.9551 28.0801Z" fill="black"/>
<path d="M0 0V-1H-1V0H0ZM102 0H103V-1H102V0ZM102 49V50H103V49H102ZM0 49H-1V50H0V49ZM0 1H102V-1H0V1ZM101 0V49H103V0H101ZM102 48H0V50H102V48ZM1 49V0H-1V49H1Z" fill="white"/>
</svg>
