<svg width="86" height="49" viewBox="0 0 86 49" fill="none" xmlns="http://www.w3.org/2000/svg">
<path d="M0 0H86V49H0V0Z" fill="white"/>
<path d="M17.4629 25.9902V31H14.5332V16.7812H20.0801C21.1478 16.7812 22.0853 16.9766 22.8926 17.3672C23.7064 17.7578 24.3314 18.3145 24.7676 19.0371C25.2038 19.7533 25.4219 20.5703 25.4219 21.4883C25.4219 22.8815 24.9434 23.9818 23.9863 24.7891C23.0358 25.5898 21.7174 25.9902 20.0312 25.9902H17.4629ZM17.4629 23.6172H20.0801C20.8548 23.6172 21.444 23.4349 21.8477 23.0703C22.2578 22.7057 22.4629 22.1849 22.4629 21.5078C22.4629 20.8112 22.2578 20.248 21.8477 19.8184C21.4375 19.3887 20.8711 19.1673 20.1484 19.1543H17.4629V23.6172ZM33.1953 23.0801C32.8112 23.028 32.4727 23.002 32.1797 23.002C31.112 23.002 30.4121 23.3633 30.0801 24.0859V31H27.2578V20.4336H29.9238L30.002 21.6934C30.5684 20.7233 31.3529 20.2383 32.3555 20.2383C32.668 20.2383 32.9609 20.2806 33.2344 20.3652L33.1953 23.0801ZM33.7715 25.6191C33.7715 24.571 33.9733 23.6367 34.377 22.8164C34.7806 21.9961 35.36 21.3613 36.1152 20.9121C36.877 20.4629 37.7591 20.2383 38.7617 20.2383C40.1875 20.2383 41.3496 20.6745 42.248 21.5469C43.153 22.4193 43.6576 23.6042 43.7617 25.1016L43.7812 25.8242C43.7812 27.4453 43.3288 28.7474 42.4238 29.7305C41.5189 30.707 40.3047 31.1953 38.7812 31.1953C37.2578 31.1953 36.0404 30.707 35.1289 29.7305C34.224 28.7539 33.7715 27.4258 33.7715 25.7461V25.6191ZM36.5938 25.8242C36.5938 26.8268 36.7826 27.5951 37.1602 28.1289C37.5378 28.6562 38.0781 28.9199 38.7812 28.9199C39.4648 28.9199 39.9987 28.6595 40.3828 28.1387C40.7669 27.6113 40.959 26.7715 40.959 25.6191C40.959 24.6361 40.7669 23.8743 40.3828 23.334C39.9987 22.7936 39.4583 22.5234 38.7617 22.5234C38.0716 22.5234 37.5378 22.7936 37.1602 23.334C36.7826 23.8678 36.5938 24.6979 36.5938 25.8242ZM46.2031 31V22.5039H44.6309V20.4336H46.2031V19.9453C46.2161 18.6172 46.623 17.5951 47.4238 16.8789C48.2311 16.1562 49.3672 15.7949 50.832 15.7949C51.7109 15.7949 52.7786 15.987 54.0352 16.3711L53.625 18.7051C52.987 18.5163 52.4922 18.3958 52.1406 18.3438C51.7891 18.2852 51.4115 18.2559 51.0078 18.2559C49.6927 18.2559 49.0352 18.8385 49.0352 20.0039V20.4336H51.1152V22.5039H49.0352V31H46.2031ZM55.3535 31H52.5215V20.4336H55.3535V31ZM60.666 31H57.834V16H60.666V31ZM67.8633 31.1953C66.3138 31.1953 65.0508 30.7201 64.0742 29.7695C63.1042 28.819 62.6191 27.5527 62.6191 25.9707V25.6973C62.6191 24.6361 62.8242 23.6888 63.2344 22.8555C63.6445 22.0156 64.224 21.3711 64.9727 20.9219C65.7279 20.4661 66.5872 20.2383 67.5508 20.2383C68.9961 20.2383 70.1322 20.694 70.959 21.6055C71.7923 22.5169 72.209 23.8092 72.209 25.4824V26.6348H65.4805C65.5716 27.3249 65.8451 27.8783 66.3008 28.2949C66.763 28.7116 67.3457 28.9199 68.0488 28.9199C69.1361 28.9199 69.9857 28.526 70.5977 27.7383L71.9844 29.291C71.5612 29.89 70.9883 30.3587 70.2656 30.6973C69.543 31.0293 68.7422 31.1953 67.8633 31.1953ZM67.541 22.5234C66.9811 22.5234 66.5254 22.7122 66.1738 23.0898C65.8288 23.4674 65.6074 24.0078 65.5098 24.7109H69.4355V24.4863C69.4225 23.8613 69.2533 23.3796 68.9277 23.041C68.6022 22.696 68.14 22.5234 67.541 22.5234Z" fill="black"/>
<path d="M0 0V-1H-1V0H0ZM86 0H87V-1H86V0ZM86 49V50H87V49H86ZM0 49H-1V50H0V49ZM0 1H86V-1H0V1ZM85 0V49H87V0H85ZM86 48H0V50H86V48ZM1 49V0H-1V49H1Z" fill="white"/>
</svg>
