<svg width="102" height="49" viewBox="0 0 102 49" fill="none" xmlns="http://www.w3.org/2000/svg">
<path d="M0 0H102V49H0V0Z" fill="white"/>
<path d="M21.4883 26.2637C21.3776 27.7936 20.8112 28.998 19.7891 29.877C18.7734 30.7559 17.4323 31.1953 15.7656 31.1953C13.9427 31.1953 12.5072 30.5833 11.459 29.3594C10.4173 28.1289 9.89648 26.4427 9.89648 24.3008V23.4316C9.89648 22.0645 10.1374 20.86 10.6191 19.8184C11.1009 18.7767 11.7878 17.9792 12.6797 17.4258C13.5781 16.8659 14.6198 16.5859 15.8047 16.5859C17.4453 16.5859 18.7669 17.0254 19.7695 17.9043C20.7721 18.7832 21.3516 20.0169 21.5078 21.6055H18.5781C18.5065 20.6875 18.2493 20.0234 17.8066 19.6133C17.3704 19.1966 16.7031 18.9883 15.8047 18.9883C14.8281 18.9883 14.0957 19.3398 13.6074 20.043C13.1257 20.7396 12.8783 21.8236 12.8652 23.2949V24.3691C12.8652 25.9056 13.0964 27.0286 13.5586 27.7383C14.0273 28.4479 14.763 28.8027 15.7656 28.8027C16.6706 28.8027 17.3444 28.5977 17.7871 28.1875C18.2363 27.7708 18.4935 27.1296 18.5586 26.2637H21.4883ZM25.9805 21.5859C26.7292 20.6875 27.6699 20.2383 28.8027 20.2383C31.0944 20.2383 32.2565 21.5697 32.2891 24.2324V31H29.4668V24.3105C29.4668 23.7051 29.3366 23.2591 29.0762 22.9727C28.8158 22.6797 28.3828 22.5332 27.7773 22.5332C26.9505 22.5332 26.3516 22.8522 25.9805 23.4902V31H23.1582V16H25.9805V21.5859ZM39.2812 31.1953C37.7318 31.1953 36.4688 30.7201 35.4922 29.7695C34.5221 28.819 34.0371 27.5527 34.0371 25.9707V25.6973C34.0371 24.6361 34.2422 23.6888 34.6523 22.8555C35.0625 22.0156 35.6419 21.3711 36.3906 20.9219C37.1458 20.4661 38.0052 20.2383 38.9688 20.2383C40.4141 20.2383 41.5501 20.694 42.377 21.6055C43.2103 22.5169 43.627 23.8092 43.627 25.4824V26.6348H36.8984C36.9896 27.3249 37.263 27.8783 37.7188 28.2949C38.181 28.7116 38.7637 28.9199 39.4668 28.9199C40.554 28.9199 41.4036 28.526 42.0156 27.7383L43.4023 29.291C42.9792 29.89 42.4062 30.3587 41.6836 30.6973C40.9609 31.0293 40.1602 31.1953 39.2812 31.1953ZM38.959 22.5234C38.3991 22.5234 37.9434 22.7122 37.5918 23.0898C37.2467 23.4674 37.0254 24.0078 36.9277 24.7109H40.8535V24.4863C40.8405 23.8613 40.6712 23.3796 40.3457 23.041C40.0202 22.696 39.5579 22.5234 38.959 22.5234ZM49.6328 28.9199C50.1536 28.9199 50.5768 28.7767 50.9023 28.4902C51.2279 28.2038 51.3971 27.8229 51.4102 27.3477H54.0566C54.0501 28.0638 53.8548 28.7214 53.4707 29.3203C53.0866 29.9128 52.5592 30.375 51.8887 30.707C51.2246 31.0326 50.4889 31.1953 49.6816 31.1953C48.1712 31.1953 46.9798 30.7168 46.1074 29.7598C45.235 28.7962 44.7988 27.4681 44.7988 25.7754V25.5898C44.7988 23.9622 45.2318 22.6634 46.0977 21.6934C46.9635 20.7233 48.1517 20.2383 49.6621 20.2383C50.9837 20.2383 52.0417 20.6159 52.8359 21.3711C53.6367 22.1198 54.0436 23.1191 54.0566 24.3691H51.4102C51.3971 23.8223 51.2279 23.3796 50.9023 23.041C50.5768 22.696 50.1471 22.5234 49.6133 22.5234C48.9557 22.5234 48.4577 22.7643 48.1191 23.2461C47.7871 23.7214 47.6211 24.4961 47.6211 25.5703V25.8633C47.6211 26.9505 47.7871 27.7318 48.1191 28.207C48.4512 28.6823 48.9557 28.9199 49.6328 28.9199ZM59.5059 26.7617L58.4902 27.7773V31H55.668V16H58.4902V24.3105L59.0371 23.6074L61.7422 20.4336H65.1309L61.3125 24.8379L65.4629 31H62.2207L59.5059 26.7617ZM69.3301 31H66.498V16H69.3301V31ZM74.6426 31H71.8105V20.4336H74.6426V31ZM71.6445 17.6992C71.6445 17.276 71.7845 16.9277 72.0645 16.6543C72.3509 16.3809 72.7383 16.2441 73.2266 16.2441C73.7083 16.2441 74.0924 16.3809 74.3789 16.6543C74.6654 16.9277 74.8086 17.276 74.8086 17.6992C74.8086 18.1289 74.6621 18.4805 74.3691 18.7539C74.0827 19.0273 73.7018 19.1641 73.2266 19.1641C72.7513 19.1641 72.3672 19.0273 72.0742 18.7539C71.7878 18.4805 71.6445 18.1289 71.6445 17.6992ZM82.6992 28.0801C82.6992 27.735 82.5267 27.4648 82.1816 27.2695C81.8431 27.0677 81.2962 26.8887 80.541 26.7324C78.028 26.2051 76.7715 25.1374 76.7715 23.5293C76.7715 22.5918 77.1589 21.8105 77.9336 21.1855C78.7148 20.554 79.7337 20.2383 80.9902 20.2383C82.3314 20.2383 83.4023 20.554 84.2031 21.1855C85.0104 21.8171 85.4141 22.6374 85.4141 23.6465H82.5918C82.5918 23.2428 82.4616 22.9108 82.2012 22.6504C81.9408 22.3835 81.5339 22.25 80.9805 22.25C80.5052 22.25 80.1374 22.3574 79.877 22.5723C79.6165 22.7871 79.4863 23.0605 79.4863 23.3926C79.4863 23.7051 79.6328 23.959 79.9258 24.1543C80.2253 24.3431 80.7266 24.5091 81.4297 24.6523C82.1328 24.7891 82.7253 24.9453 83.207 25.1211C84.6979 25.668 85.4434 26.6152 85.4434 27.9629C85.4434 28.9264 85.0299 29.7077 84.2031 30.3066C83.3763 30.8991 82.3086 31.1953 81 31.1953C80.1146 31.1953 79.3268 31.0391 78.6367 30.7266C77.9531 30.4076 77.416 29.9746 77.0254 29.4277C76.6348 28.8743 76.4395 28.2786 76.4395 27.6406H79.1152C79.1413 28.1419 79.3268 28.526 79.6719 28.793C80.0169 29.0599 80.4792 29.1934 81.0586 29.1934C81.599 29.1934 82.0059 29.0924 82.2793 28.8906C82.5592 28.6823 82.6992 28.4121 82.6992 28.0801ZM90.6484 17.8359V20.4336H92.4551V22.5039H90.6484V27.7773C90.6484 28.168 90.7233 28.4479 90.873 28.6172C91.0228 28.7865 91.3092 28.8711 91.7324 28.8711C92.0449 28.8711 92.3216 28.8483 92.5625 28.8027V30.9414C92.0091 31.1107 91.4395 31.1953 90.8535 31.1953C88.8743 31.1953 87.8652 30.196 87.8262 28.1973V22.5039H86.2832V20.4336H87.8262V17.8359H90.6484Z" fill="black"/>
<path d="M0 0V-1H-1V0H0ZM102 0H103V-1H102V0ZM102 49V50H103V49H102ZM0 49H-1V50H0V49ZM0 1H102V-1H0V1ZM101 0V49H103V0H101ZM102 48H0V50H102V48ZM1 49V0H-1V49H1Z" fill="white"/>
</svg>
