<svg width="115" height="49" viewBox="0 0 115 49" fill="none" xmlns="http://www.w3.org/2000/svg">
<path d="M0 0H115V49H0V0Z" fill="white"/>
<path d="M12.3438 16.7812L15.9961 27.0938L19.6289 16.7812H23.4766V31H20.5371V27.1133L20.8301 20.4043L16.9922 31H14.9805L11.1523 20.4141L11.4453 27.1133V31H8.51562V16.7812H12.3438ZM30.7129 31.1953C29.1634 31.1953 27.9004 30.7201 26.9238 29.7695C25.9538 28.819 25.4688 27.5527 25.4688 25.9707V25.6973C25.4688 24.6361 25.6738 23.6888 26.084 22.8555C26.4941 22.0156 27.0736 21.3711 27.8223 20.9219C28.5775 20.4661 29.4368 20.2383 30.4004 20.2383C31.8457 20.2383 32.9818 20.694 33.8086 21.6055C34.6419 22.5169 35.0586 23.8092 35.0586 25.4824V26.6348H28.3301C28.4212 27.3249 28.6947 27.8783 29.1504 28.2949C29.6126 28.7116 30.1953 28.9199 30.8984 28.9199C31.9857 28.9199 32.8353 28.526 33.4473 27.7383L34.834 29.291C34.4108 29.89 33.8379 30.3587 33.1152 30.6973C32.3926 31.0293 31.5918 31.1953 30.7129 31.1953ZM30.3906 22.5234C29.8307 22.5234 29.375 22.7122 29.0234 23.0898C28.6784 23.4674 28.457 24.0078 28.3594 24.7109H32.2852V24.4863C32.2721 23.8613 32.1029 23.3796 31.7773 23.041C31.4518 22.696 30.9896 22.5234 30.3906 22.5234ZM42.3926 28.0801C42.3926 27.735 42.2201 27.4648 41.875 27.2695C41.5365 27.0677 40.9896 26.8887 40.2344 26.7324C37.7214 26.2051 36.4648 25.1374 36.4648 23.5293C36.4648 22.5918 36.8522 21.8105 37.627 21.1855C38.4082 20.554 39.4271 20.2383 40.6836 20.2383C42.0247 20.2383 43.0957 20.554 43.8965 21.1855C44.7038 21.8171 45.1074 22.6374 45.1074 23.6465H42.2852C42.2852 23.2428 42.1549 22.9108 41.8945 22.6504C41.6341 22.3835 41.2272 22.25 40.6738 22.25C40.1986 22.25 39.8307 22.3574 39.5703 22.5723C39.3099 22.7871 39.1797 23.0605 39.1797 23.3926C39.1797 23.7051 39.3262 23.959 39.6191 24.1543C39.9186 24.3431 40.4199 24.5091 41.123 24.6523C41.8262 24.7891 42.4186 24.9453 42.9004 25.1211C44.3913 25.668 45.1367 26.6152 45.1367 27.9629C45.1367 28.9264 44.7233 29.7077 43.8965 30.3066C43.0697 30.8991 42.002 31.1953 40.6934 31.1953C39.8079 31.1953 39.0202 31.0391 38.3301 30.7266C37.6465 30.4076 37.1094 29.9746 36.7188 29.4277C36.3281 28.8743 36.1328 28.2786 36.1328 27.6406H38.8086C38.8346 28.1419 39.0202 28.526 39.3652 28.793C39.7103 29.0599 40.1725 29.1934 40.752 29.1934C41.2923 29.1934 41.6992 29.0924 41.9727 28.8906C42.2526 28.6823 42.3926 28.4121 42.3926 28.0801ZM52.6855 28.0801C52.6855 27.735 52.513 27.4648 52.168 27.2695C51.8294 27.0677 51.2826 26.8887 50.5273 26.7324C48.0143 26.2051 46.7578 25.1374 46.7578 23.5293C46.7578 22.5918 47.1452 21.8105 47.9199 21.1855C48.7012 20.554 49.7201 20.2383 50.9766 20.2383C52.3177 20.2383 53.3887 20.554 54.1895 21.1855C54.9967 21.8171 55.4004 22.6374 55.4004 23.6465H52.5781C52.5781 23.2428 52.4479 22.9108 52.1875 22.6504C51.9271 22.3835 51.5202 22.25 50.9668 22.25C50.4915 22.25 50.1237 22.3574 49.8633 22.5723C49.6029 22.7871 49.4727 23.0605 49.4727 23.3926C49.4727 23.7051 49.6191 23.959 49.9121 24.1543C50.2116 24.3431 50.7129 24.5091 51.416 24.6523C52.1191 24.7891 52.7116 24.9453 53.1934 25.1211C54.6842 25.668 55.4297 26.6152 55.4297 27.9629C55.4297 28.9264 55.0163 29.7077 54.1895 30.3066C53.3626 30.8991 52.2949 31.1953 50.9863 31.1953C50.1009 31.1953 49.3132 31.0391 48.623 30.7266C47.9395 30.4076 47.4023 29.9746 47.0117 29.4277C46.6211 28.8743 46.4258 28.2786 46.4258 27.6406H49.1016C49.1276 28.1419 49.3132 28.526 49.6582 28.793C50.0033 29.0599 50.4655 29.1934 51.0449 29.1934C51.5853 29.1934 51.9922 29.0924 52.2656 28.8906C52.5456 28.6823 52.6855 28.4121 52.6855 28.0801ZM62.1191 31.1953C60.5697 31.1953 59.3066 30.7201 58.3301 29.7695C57.36 28.819 56.875 27.5527 56.875 25.9707V25.6973C56.875 24.6361 57.0801 23.6888 57.4902 22.8555C57.9004 22.0156 58.4798 21.3711 59.2285 20.9219C59.9837 20.4661 60.8431 20.2383 61.8066 20.2383C63.252 20.2383 64.388 20.694 65.2148 21.6055C66.0482 22.5169 66.4648 23.8092 66.4648 25.4824V26.6348H59.7363C59.8275 27.3249 60.1009 27.8783 60.5566 28.2949C61.0189 28.7116 61.6016 28.9199 62.3047 28.9199C63.3919 28.9199 64.2415 28.526 64.8535 27.7383L66.2402 29.291C65.8171 29.89 65.2441 30.3587 64.5215 30.6973C63.7988 31.0293 62.998 31.1953 62.1191 31.1953ZM61.7969 22.5234C61.237 22.5234 60.7812 22.7122 60.4297 23.0898C60.0846 23.4674 59.8633 24.0078 59.7656 24.7109H63.6914V24.4863C63.6784 23.8613 63.5091 23.3796 63.1836 23.041C62.8581 22.696 62.3958 22.5234 61.7969 22.5234ZM70.6738 20.4336L70.7617 21.6543C71.5169 20.7103 72.5293 20.2383 73.7988 20.2383C74.9186 20.2383 75.752 20.5671 76.2988 21.2246C76.8457 21.8822 77.1257 22.8652 77.1387 24.1738V31H74.3164V24.2422C74.3164 23.6432 74.1862 23.2103 73.9258 22.9434C73.6654 22.6699 73.2324 22.5332 72.627 22.5332C71.8327 22.5332 71.237 22.8717 70.8398 23.5488V31H68.0176V20.4336H70.6738ZM78.877 25.6387C78.877 24.0176 79.2611 22.7122 80.0293 21.7227C80.804 20.7331 81.8457 20.2383 83.1543 20.2383C84.3132 20.2383 85.2148 20.6354 85.8594 21.4297L85.9766 20.4336H88.5352V30.6484C88.5352 31.5729 88.3236 32.377 87.9004 33.0605C87.4837 33.7441 86.8945 34.265 86.1328 34.623C85.3711 34.9811 84.4792 35.1602 83.457 35.1602C82.6823 35.1602 81.9271 35.0039 81.1914 34.6914C80.4557 34.3854 79.8991 33.9883 79.5215 33.5L80.7715 31.7812C81.4746 32.569 82.3275 32.9629 83.3301 32.9629C84.0788 32.9629 84.6615 32.7611 85.0781 32.3574C85.4948 31.9603 85.7031 31.3939 85.7031 30.6582V30.0918C85.0521 30.8275 84.196 31.1953 83.1348 31.1953C81.8652 31.1953 80.8366 30.7005 80.0488 29.7109C79.2676 28.7148 78.877 27.3965 78.877 25.7559V25.6387ZM81.6992 25.8438C81.6992 26.8008 81.8913 27.5527 82.2754 28.0996C82.6595 28.64 83.1868 28.9102 83.8574 28.9102C84.7168 28.9102 85.332 28.5879 85.7031 27.9434V23.5C85.3255 22.8555 84.7168 22.5332 83.877 22.5332C83.1999 22.5332 82.666 22.8099 82.2754 23.3633C81.8913 23.9167 81.6992 24.7435 81.6992 25.8438ZM95.5762 31.1953C94.0267 31.1953 92.7637 30.7201 91.7871 29.7695C90.8171 28.819 90.332 27.5527 90.332 25.9707V25.6973C90.332 24.6361 90.5371 23.6888 90.9473 22.8555C91.3574 22.0156 91.9368 21.3711 92.6855 20.9219C93.4408 20.4661 94.3001 20.2383 95.2637 20.2383C96.709 20.2383 97.8451 20.694 98.6719 21.6055C99.5052 22.5169 99.9219 23.8092 99.9219 25.4824V26.6348H93.1934C93.2845 27.3249 93.5579 27.8783 94.0137 28.2949C94.4759 28.7116 95.0586 28.9199 95.7617 28.9199C96.849 28.9199 97.6986 28.526 98.3105 27.7383L99.6973 29.291C99.2741 29.89 98.7012 30.3587 97.9785 30.6973C97.2559 31.0293 96.4551 31.1953 95.5762 31.1953ZM95.2539 22.5234C94.694 22.5234 94.2383 22.7122 93.8867 23.0898C93.5417 23.4674 93.3203 24.0078 93.2227 24.7109H97.1484V24.4863C97.1354 23.8613 96.9661 23.3796 96.6406 23.041C96.3151 22.696 95.8529 22.5234 95.2539 22.5234ZM107.471 23.0801C107.087 23.028 106.748 23.002 106.455 23.002C105.387 23.002 104.688 23.3633 104.355 24.0859V31H101.533V20.4336H104.199L104.277 21.6934C104.844 20.7233 105.628 20.2383 106.631 20.2383C106.943 20.2383 107.236 20.2806 107.51 20.3652L107.471 23.0801Z" fill="black"/>
<path d="M0 0V-1H-1V0H0ZM115 0H116V-1H115V0ZM115 49V50H116V49H115ZM0 49H-1V50H0V49ZM0 1H115V-1H0V1ZM114 0V49H116V0H114ZM115 48H0V50H115V48ZM1 49V0H-1V49H1Z" fill="white"/>
</svg>
