<svg width="117" height="49" viewBox="0 0 117 49" fill="none" xmlns="http://www.w3.org/2000/svg">
<path d="M0 0H117V49H0V0Z" fill="white"/>
<path d="M11.3223 31V16.7812H15.6973C16.9473 16.7812 18.0638 17.0645 19.0469 17.6309C20.0365 18.1908 20.8079 18.9915 21.3613 20.0332C21.9147 21.0684 22.1914 22.2467 22.1914 23.5684V24.2227C22.1914 25.5443 21.918 26.7194 21.3711 27.748C20.8307 28.7767 20.0658 29.5742 19.0762 30.1406C18.0866 30.707 16.9701 30.9935 15.7266 31H11.3223ZM14.252 19.1543V28.6465H15.668C16.8138 28.6465 17.6895 28.2721 18.2949 27.5234C18.9004 26.7747 19.2096 25.7038 19.2227 24.3105V23.5586C19.2227 22.1133 18.9232 21.0195 18.3242 20.2773C17.7253 19.5286 16.8496 19.1543 15.6973 19.1543H14.252ZM30.2676 31C30.1374 30.7461 30.043 30.4303 29.9844 30.0527C29.3008 30.8145 28.4121 31.1953 27.3184 31.1953C26.2832 31.1953 25.4238 30.8958 24.7402 30.2969C24.0632 29.6979 23.7246 28.9427 23.7246 28.0312C23.7246 26.9115 24.138 26.0521 24.9648 25.4531C25.7982 24.8542 26.9993 24.5514 28.5684 24.5449H29.8672V23.9395C29.8672 23.4512 29.7402 23.0605 29.4863 22.7676C29.2389 22.4746 28.8451 22.3281 28.3047 22.3281C27.8294 22.3281 27.4551 22.4421 27.1816 22.6699C26.9147 22.8978 26.7812 23.2103 26.7812 23.6074H23.959C23.959 22.9954 24.1478 22.429 24.5254 21.9082C24.903 21.3874 25.4368 20.9805 26.127 20.6875C26.8171 20.388 27.5918 20.2383 28.4512 20.2383C29.7533 20.2383 30.7852 20.5671 31.5469 21.2246C32.3151 21.8757 32.6992 22.7936 32.6992 23.9785V28.5586C32.7057 29.5612 32.8457 30.3197 33.1191 30.834V31H30.2676ZM27.9336 29.0371C28.3503 29.0371 28.7344 28.946 29.0859 28.7637C29.4375 28.5749 29.6979 28.3242 29.8672 28.0117V26.1953H28.8125C27.3997 26.1953 26.6478 26.6836 26.5566 27.6602L26.5469 27.8262C26.5469 28.1777 26.6706 28.4674 26.918 28.6953C27.1654 28.9232 27.5039 29.0371 27.9336 29.0371ZM40.5898 28.0801C40.5898 27.735 40.4173 27.4648 40.0723 27.2695C39.7337 27.0677 39.1868 26.8887 38.4316 26.7324C35.9186 26.2051 34.6621 25.1374 34.6621 23.5293C34.6621 22.5918 35.0495 21.8105 35.8242 21.1855C36.6055 20.554 37.6243 20.2383 38.8809 20.2383C40.222 20.2383 41.293 20.554 42.0938 21.1855C42.901 21.8171 43.3047 22.6374 43.3047 23.6465H40.4824C40.4824 23.2428 40.3522 22.9108 40.0918 22.6504C39.8314 22.3835 39.4245 22.25 38.8711 22.25C38.3958 22.25 38.028 22.3574 37.7676 22.5723C37.5072 22.7871 37.377 23.0605 37.377 23.3926C37.377 23.7051 37.5234 23.959 37.8164 24.1543C38.1159 24.3431 38.6172 24.5091 39.3203 24.6523C40.0234 24.7891 40.6159 24.9453 41.0977 25.1211C42.5885 25.668 43.334 26.6152 43.334 27.9629C43.334 28.9264 42.9206 29.7077 42.0938 30.3066C41.2669 30.8991 40.1992 31.1953 38.8906 31.1953C38.0052 31.1953 37.2174 31.0391 36.5273 30.7266C35.8438 30.4076 35.3066 29.9746 34.916 29.4277C34.5254 28.8743 34.3301 28.2786 34.3301 27.6406H37.0059C37.0319 28.1419 37.2174 28.526 37.5625 28.793C37.9076 29.0599 38.3698 29.1934 38.9492 29.1934C39.4896 29.1934 39.8965 29.0924 40.1699 28.8906C40.4499 28.6823 40.5898 28.4121 40.5898 28.0801ZM47.9141 21.5859C48.6628 20.6875 49.6035 20.2383 50.7363 20.2383C53.028 20.2383 54.1901 21.5697 54.2227 24.2324V31H51.4004V24.3105C51.4004 23.7051 51.2702 23.2591 51.0098 22.9727C50.7493 22.6797 50.3164 22.5332 49.7109 22.5332C48.8841 22.5332 48.2852 22.8522 47.9141 23.4902V31H45.0918V16H47.9141V21.5859ZM65.873 25.8145C65.873 27.5072 65.5117 28.8288 64.7891 29.7793C64.0664 30.7233 63.0573 31.1953 61.7617 31.1953C60.6159 31.1953 59.7012 30.7559 59.0176 29.877L58.8906 31H56.3516V16H59.1738V21.3809C59.8249 20.6191 60.681 20.2383 61.7422 20.2383C63.0312 20.2383 64.0404 20.7135 64.7695 21.6641C65.5052 22.6081 65.873 23.9395 65.873 25.6582V25.8145ZM63.0508 25.6094C63.0508 24.5417 62.8815 23.7637 62.543 23.2754C62.2044 22.7806 61.6999 22.5332 61.0293 22.5332C60.1309 22.5332 59.5124 22.901 59.1738 23.6367V27.8066C59.5189 28.5488 60.1439 28.9199 61.0488 28.9199C61.9603 28.9199 62.5592 28.4707 62.8457 27.5723C62.9824 27.1426 63.0508 26.4883 63.0508 25.6094ZM67.1816 25.6191C67.1816 24.571 67.3835 23.6367 67.7871 22.8164C68.1908 21.9961 68.7702 21.3613 69.5254 20.9121C70.2871 20.4629 71.1693 20.2383 72.1719 20.2383C73.5977 20.2383 74.7598 20.6745 75.6582 21.5469C76.5632 22.4193 77.0677 23.6042 77.1719 25.1016L77.1914 25.8242C77.1914 27.4453 76.7389 28.7474 75.834 29.7305C74.929 30.707 73.7148 31.1953 72.1914 31.1953C70.668 31.1953 69.4505 30.707 68.5391 29.7305C67.6341 28.7539 67.1816 27.4258 67.1816 25.7461V25.6191ZM70.0039 25.8242C70.0039 26.8268 70.1927 27.5951 70.5703 28.1289C70.9479 28.6562 71.4883 28.9199 72.1914 28.9199C72.875 28.9199 73.4089 28.6595 73.793 28.1387C74.1771 27.6113 74.3691 26.7715 74.3691 25.6191C74.3691 24.6361 74.1771 23.8743 73.793 23.334C73.4089 22.7936 72.8685 22.5234 72.1719 22.5234C71.4818 22.5234 70.9479 22.7936 70.5703 23.334C70.1927 23.8678 70.0039 24.6979 70.0039 25.8242ZM85.0527 31C84.9225 30.7461 84.8281 30.4303 84.7695 30.0527C84.0859 30.8145 83.1973 31.1953 82.1035 31.1953C81.0684 31.1953 80.209 30.8958 79.5254 30.2969C78.8483 29.6979 78.5098 28.9427 78.5098 28.0312C78.5098 26.9115 78.9232 26.0521 79.75 25.4531C80.5833 24.8542 81.7845 24.5514 83.3535 24.5449H84.6523V23.9395C84.6523 23.4512 84.5254 23.0605 84.2715 22.7676C84.0241 22.4746 83.6302 22.3281 83.0898 22.3281C82.6146 22.3281 82.2402 22.4421 81.9668 22.6699C81.6999 22.8978 81.5664 23.2103 81.5664 23.6074H78.7441C78.7441 22.9954 78.9329 22.429 79.3105 21.9082C79.6882 21.3874 80.222 20.9805 80.9121 20.6875C81.6022 20.388 82.377 20.2383 83.2363 20.2383C84.5384 20.2383 85.5703 20.5671 86.332 21.2246C87.1003 21.8757 87.4844 22.7936 87.4844 23.9785V28.5586C87.4909 29.5612 87.6309 30.3197 87.9043 30.834V31H85.0527ZM82.7188 29.0371C83.1354 29.0371 83.5195 28.946 83.8711 28.7637C84.2227 28.5749 84.4831 28.3242 84.6523 28.0117V26.1953H83.5977C82.1849 26.1953 81.4329 26.6836 81.3418 27.6602L81.332 27.8262C81.332 28.1777 81.4557 28.4674 81.7031 28.6953C81.9505 28.9232 82.2891 29.0371 82.7188 29.0371ZM95.5898 23.0801C95.2057 23.028 94.8672 23.002 94.5742 23.002C93.5065 23.002 92.8066 23.3633 92.4746 24.0859V31H89.6523V20.4336H92.3184L92.3965 21.6934C92.9629 20.7233 93.7474 20.2383 94.75 20.2383C95.0625 20.2383 95.3555 20.2806 95.6289 20.3652L95.5898 23.0801ZM96.3223 25.6387C96.3223 23.9915 96.6901 22.6797 97.4258 21.7031C98.168 20.7266 99.1803 20.2383 100.463 20.2383C101.492 20.2383 102.341 20.6224 103.012 21.3906V16H105.844V31H103.295L103.158 29.877C102.455 30.7559 101.55 31.1953 100.443 31.1953C99.1999 31.1953 98.2005 30.707 97.4453 29.7305C96.6966 28.7474 96.3223 27.3835 96.3223 25.6387ZM99.1445 25.8438C99.1445 26.8333 99.3171 27.5918 99.6621 28.1191C100.007 28.6465 100.508 28.9102 101.166 28.9102C102.038 28.9102 102.654 28.5423 103.012 27.8066V23.6367C102.66 22.901 102.051 22.5332 101.186 22.5332C99.8249 22.5332 99.1445 23.6367 99.1445 25.8438Z" fill="black"/>
<path d="M0 0V-1H-1V0H0ZM117 0H118V-1H117V0ZM117 49V50H118V49H117ZM0 49H-1V50H0V49ZM0 1H117V-1H0V1ZM116 0V49H118V0H116ZM117 48H0V50H117V48ZM1 49V0H-1V49H1Z" fill="white"/>
</svg>
