<svg width="102" height="49" viewBox="0 0 102 49" fill="none" xmlns="http://www.w3.org/2000/svg">
<path d="M0 0H102V49H0V0Z" fill="white"/>
<path d="M37.0449 31H34.1152V24.9062H28.4023V31H25.4727V16.7812H28.4023V22.543H34.1152V16.7812H37.0449V31ZM38.9883 25.6191C38.9883 24.571 39.1901 23.6367 39.5938 22.8164C39.9974 21.9961 40.5768 21.3613 41.332 20.9121C42.0938 20.4629 42.9759 20.2383 43.9785 20.2383C45.4043 20.2383 46.5664 20.6745 47.4648 21.5469C48.3698 22.4193 48.8743 23.6042 48.9785 25.1016L48.998 25.8242C48.998 27.4453 48.5456 28.7474 47.6406 29.7305C46.7357 30.707 45.5215 31.1953 43.998 31.1953C42.4746 31.1953 41.2572 30.707 40.3457 29.7305C39.4408 28.7539 38.9883 27.4258 38.9883 25.7461V25.6191ZM41.8105 25.8242C41.8105 26.8268 41.9993 27.5951 42.377 28.1289C42.7546 28.6562 43.2949 28.9199 43.998 28.9199C44.6816 28.9199 45.2155 28.6595 45.5996 28.1387C45.9837 27.6113 46.1758 26.7715 46.1758 25.6191C46.1758 24.6361 45.9837 23.8743 45.5996 23.334C45.2155 22.7936 44.6751 22.5234 43.9785 22.5234C43.2884 22.5234 42.7546 22.7936 42.377 23.334C41.9993 23.8678 41.8105 24.6979 41.8105 25.8242ZM53.3828 20.4336L53.4707 21.6152C54.2194 20.6973 55.2318 20.2383 56.5078 20.2383C57.8685 20.2383 58.8027 20.7754 59.3105 21.8496C60.0527 20.7754 61.1107 20.2383 62.4844 20.2383C63.6302 20.2383 64.4831 20.5736 65.043 21.2441C65.6029 21.9082 65.8828 22.9108 65.8828 24.252V31H63.0508V24.2617C63.0508 23.6628 62.9336 23.2266 62.6992 22.9531C62.4648 22.6732 62.0514 22.5332 61.459 22.5332C60.6126 22.5332 60.0267 22.9368 59.7012 23.7441L59.7109 31H56.8887V24.2715C56.8887 23.6595 56.7682 23.2168 56.5273 22.9434C56.2865 22.6699 55.8763 22.5332 55.2969 22.5332C54.4961 22.5332 53.9167 22.8652 53.5586 23.5293V31H50.7363V20.4336H53.3828ZM72.9238 31.1953C71.3743 31.1953 70.1113 30.7201 69.1348 29.7695C68.1647 28.819 67.6797 27.5527 67.6797 25.9707V25.6973C67.6797 24.6361 67.8848 23.6888 68.2949 22.8555C68.7051 22.0156 69.2845 21.3711 70.0332 20.9219C70.7884 20.4661 71.6478 20.2383 72.6113 20.2383C74.0566 20.2383 75.1927 20.694 76.0195 21.6055C76.8529 22.5169 77.2695 23.8092 77.2695 25.4824V26.6348H70.541C70.6322 27.3249 70.9056 27.8783 71.3613 28.2949C71.8236 28.7116 72.4062 28.9199 73.1094 28.9199C74.1966 28.9199 75.0462 28.526 75.6582 27.7383L77.0449 29.291C76.6217 29.89 76.0488 30.3587 75.3262 30.6973C74.6035 31.0293 73.8027 31.1953 72.9238 31.1953ZM72.6016 22.5234C72.0417 22.5234 71.5859 22.7122 71.2344 23.0898C70.8893 23.4674 70.668 24.0078 70.5703 24.7109H74.4961V24.4863C74.4831 23.8613 74.3138 23.3796 73.9883 23.041C73.6628 22.696 73.2005 22.5234 72.6016 22.5234Z" fill="black"/>
<path d="M0 0V-1H-1V0H0ZM102 0H103V-1H102V0ZM102 49V50H103V49H102ZM0 49H-1V50H0V49ZM0 1H102V-1H0V1ZM101 0V49H103V0H101ZM102 48H0V50H102V48ZM1 49V0H-1V49H1Z" fill="white"/>
</svg>
