<svg width="86" height="35" viewBox="0 0 86 35" fill="none" xmlns="http://www.w3.org/2000/svg">
<path d="M7.8125 22.9766V35H0.78125V0.875H14.0938C16.6562 0.875 18.9062 1.34375 20.8438 2.28125C22.7969 3.21875 24.2969 4.55469 25.3438 6.28906C26.3906 8.00781 26.9141 9.96875 26.9141 12.1719C26.9141 15.5156 25.7656 18.1562 23.4688 20.0938C21.1875 22.0156 18.0234 22.9766 13.9766 22.9766H7.8125ZM7.8125 17.2812H14.0938C15.9531 17.2812 17.3672 16.8438 18.3359 15.9688C19.3203 15.0938 19.8125 13.8438 19.8125 12.2188C19.8125 10.5469 19.3203 9.19531 18.3359 8.16406C17.3516 7.13281 15.9922 6.60156 14.2578 6.57031H7.8125V17.2812ZM54.4297 35H31.0391V30.3594L42.0781 18.5938C43.5938 16.9375 44.7109 15.4922 45.4297 14.2578C46.1641 13.0234 46.5312 11.8516 46.5312 10.7422C46.5312 9.22656 46.1484 8.03906 45.3828 7.17969C44.6172 6.30469 43.5234 5.86719 42.1016 5.86719C40.5703 5.86719 39.3594 6.39844 38.4688 7.46094C37.5938 8.50781 37.1562 9.89062 37.1562 11.6094H30.3594C30.3594 9.53125 30.8516 7.63281 31.8359 5.91406C32.8359 4.19531 34.2422 2.85156 36.0547 1.88281C37.8672 0.898438 39.9219 0.40625 42.2188 0.40625C45.7344 0.40625 48.4609 1.25 50.3984 2.9375C52.3516 4.625 53.3281 7.00781 53.3281 10.0859C53.3281 11.7734 52.8906 13.4922 52.0156 15.2422C51.1406 16.9922 49.6406 19.0312 47.5156 21.3594L39.7578 29.5391H54.4297V35ZM66.3594 22.9766V35H59.3281V0.875H72.6406C75.2031 0.875 77.4531 1.34375 79.3906 2.28125C81.3438 3.21875 82.8438 4.55469 83.8906 6.28906C84.9375 8.00781 85.4609 9.96875 85.4609 12.1719C85.4609 15.5156 84.3125 18.1562 82.0156 20.0938C79.7344 22.0156 76.5703 22.9766 72.5234 22.9766H66.3594ZM66.3594 17.2812H72.6406C74.5 17.2812 75.9141 16.8438 76.8828 15.9688C77.8672 15.0938 78.3594 13.8438 78.3594 12.2188C78.3594 10.5469 77.8672 9.19531 76.8828 8.16406C75.8984 7.13281 74.5391 6.60156 72.8047 6.57031H66.3594V17.2812Z" fill="black"/>
</svg>
