<svg width="177" height="46" viewBox="0 0 177 46" fill="none" xmlns="http://www.w3.org/2000/svg">
<path d="M19.3828 27.0469C19.3828 25.7188 18.9141 24.7031 17.9766 24C17.0391 23.2812 15.3516 22.5312 12.9141 21.75C10.4766 20.9531 8.54688 20.1719 7.125 19.4062C3.25 17.3125 1.3125 14.4922 1.3125 10.9453C1.3125 9.10156 1.82812 7.46094 2.85938 6.02344C3.90625 4.57031 5.39844 3.4375 7.33594 2.625C9.28906 1.8125 11.4766 1.40625 13.8984 1.40625C16.3359 1.40625 18.5078 1.85156 20.4141 2.74219C22.3203 3.61719 23.7969 4.85937 24.8438 6.46875C25.9062 8.07812 26.4375 9.90625 26.4375 11.9531H19.4062C19.4062 10.3906 18.9141 9.17969 17.9297 8.32031C16.9453 7.44531 15.5625 7.00781 13.7812 7.00781C12.0625 7.00781 10.7266 7.375 9.77344 8.10938C8.82031 8.82812 8.34375 9.78125 8.34375 10.9688C8.34375 12.0781 8.89844 13.0078 10.0078 13.7578C11.1328 14.5078 12.7812 15.2109 14.9531 15.8672C18.9531 17.0703 21.8672 18.5625 23.6953 20.3438C25.5234 22.125 26.4375 24.3438 26.4375 27C26.4375 29.9531 25.3203 32.2734 23.0859 33.9609C20.8516 35.6328 17.8438 36.4688 14.0625 36.4688C11.4375 36.4688 9.04688 35.9922 6.89062 35.0391C4.73438 34.0703 3.08594 32.75 1.94531 31.0781C0.820312 29.4062 0.257812 27.4688 0.257812 25.2656H7.3125C7.3125 29.0312 9.5625 30.9141 14.0625 30.9141C15.7344 30.9141 17.0391 30.5781 17.9766 29.9062C18.9141 29.2188 19.3828 28.2656 19.3828 27.0469ZM42.4453 36.4688C38.7266 36.4688 35.6953 35.3281 33.3516 33.0469C31.0234 30.7656 29.8594 27.7266 29.8594 23.9297V23.2734C29.8594 20.7266 30.3516 18.4531 31.3359 16.4531C32.3203 14.4375 33.7109 12.8906 35.5078 11.8125C37.3203 10.7188 39.3828 10.1719 41.6953 10.1719C45.1641 10.1719 47.8906 11.2656 49.875 13.4531C51.875 15.6406 52.875 18.7422 52.875 22.7578V25.5234H36.7266C36.9453 27.1797 37.6016 28.5078 38.6953 29.5078C39.8047 30.5078 41.2031 31.0078 42.8906 31.0078C45.5 31.0078 47.5391 30.0625 49.0078 28.1719L52.3359 31.8984C51.3203 33.3359 49.9453 34.4609 48.2109 35.2734C46.4766 36.0703 44.5547 36.4688 42.4453 36.4688ZM41.6719 15.6562C40.3281 15.6562 39.2344 16.1094 38.3906 17.0156C37.5625 17.9219 37.0312 19.2188 36.7969 20.9062H46.2188V20.3672C46.1875 18.8672 45.7812 17.7109 45 16.8984C44.2188 16.0703 43.1094 15.6562 41.6719 15.6562ZM64.8516 4.40625V10.6406H69.1875V15.6094H64.8516V28.2656C64.8516 29.2031 65.0312 29.875 65.3906 30.2812C65.75 30.6875 66.4375 30.8906 67.4531 30.8906C68.2031 30.8906 68.8672 30.8359 69.4453 30.7266V35.8594C68.1172 36.2656 66.75 36.4688 65.3438 36.4688C60.5938 36.4688 58.1719 34.0703 58.0781 29.2734V15.6094H54.375V10.6406H58.0781V4.40625H64.8516ZM81.0703 4.40625V10.6406H85.4062V15.6094H81.0703V28.2656C81.0703 29.2031 81.25 29.875 81.6094 30.2812C81.9688 30.6875 82.6562 30.8906 83.6719 30.8906C84.4219 30.8906 85.0859 30.8359 85.6641 30.7266V35.8594C84.3359 36.2656 82.9688 36.4688 81.5625 36.4688C76.8125 36.4688 74.3906 34.0703 74.2969 29.2734V15.6094H70.5938V10.6406H74.2969V4.40625H81.0703ZM96.3281 36H89.5312V10.6406H96.3281V36ZM89.1328 4.07812C89.1328 3.0625 89.4688 2.22656 90.1406 1.57031C90.8281 0.914062 91.7578 0.585938 92.9297 0.585938C94.0859 0.585938 95.0078 0.914062 95.6953 1.57031C96.3828 2.22656 96.7266 3.0625 96.7266 4.07812C96.7266 5.10938 96.375 5.95312 95.6719 6.60938C94.9844 7.26562 94.0703 7.59375 92.9297 7.59375C91.7891 7.59375 90.8672 7.26562 90.1641 6.60938C89.4766 5.95312 89.1328 5.10938 89.1328 4.07812ZM108.164 10.6406L108.375 13.5703C110.188 11.3047 112.617 10.1719 115.664 10.1719C118.352 10.1719 120.352 10.9609 121.664 12.5391C122.977 14.1172 123.648 16.4766 123.68 19.6172V36H116.906V19.7812C116.906 18.3438 116.594 17.3047 115.969 16.6641C115.344 16.0078 114.305 15.6797 112.852 15.6797C110.945 15.6797 109.516 16.4922 108.562 18.1172V36H101.789V10.6406H108.164ZM127.852 23.1328C127.852 19.2422 128.773 16.1094 130.617 13.7344C132.477 11.3594 134.977 10.1719 138.117 10.1719C140.898 10.1719 143.062 11.125 144.609 13.0312L144.891 10.6406H151.031V35.1562C151.031 37.375 150.523 39.3047 149.508 40.9453C148.508 42.5859 147.094 43.8359 145.266 44.6953C143.438 45.5547 141.297 45.9844 138.844 45.9844C136.984 45.9844 135.172 45.6094 133.406 44.8594C131.641 44.125 130.305 43.1719 129.398 42L132.398 37.875C134.086 39.7656 136.133 40.7109 138.539 40.7109C140.336 40.7109 141.734 40.2266 142.734 39.2578C143.734 38.3047 144.234 36.9453 144.234 35.1797V33.8203C142.672 35.5859 140.617 36.4688 138.07 36.4688C135.023 36.4688 132.555 35.2812 130.664 32.9062C128.789 30.5156 127.852 27.3516 127.852 23.4141V23.1328ZM134.625 23.625C134.625 25.9219 135.086 27.7266 136.008 29.0391C136.93 30.3359 138.195 30.9844 139.805 30.9844C141.867 30.9844 143.344 30.2109 144.234 28.6641V18C143.328 16.4531 141.867 15.6797 139.852 15.6797C138.227 15.6797 136.945 16.3438 136.008 17.6719C135.086 19 134.625 20.9844 134.625 23.625ZM169.992 28.9922C169.992 28.1641 169.578 27.5156 168.75 27.0469C167.938 26.5625 166.625 26.1328 164.812 25.7578C158.781 24.4922 155.766 21.9297 155.766 18.0703C155.766 15.8203 156.695 13.9453 158.555 12.4453C160.43 10.9297 162.875 10.1719 165.891 10.1719C169.109 10.1719 171.68 10.9297 173.602 12.4453C175.539 13.9609 176.508 15.9297 176.508 18.3516H169.734C169.734 17.3828 169.422 16.5859 168.797 15.9609C168.172 15.3203 167.195 15 165.867 15C164.727 15 163.844 15.2578 163.219 15.7734C162.594 16.2891 162.281 16.9453 162.281 17.7422C162.281 18.4922 162.633 19.1016 163.336 19.5703C164.055 20.0234 165.258 20.4219 166.945 20.7656C168.633 21.0938 170.055 21.4688 171.211 21.8906C174.789 23.2031 176.578 25.4766 176.578 28.7109C176.578 31.0234 175.586 32.8984 173.602 34.3359C171.617 35.7578 169.055 36.4688 165.914 36.4688C163.789 36.4688 161.898 36.0938 160.242 35.3438C158.602 34.5781 157.312 33.5391 156.375 32.2266C155.438 30.8984 154.969 29.4688 154.969 27.9375H161.391C161.453 29.1406 161.898 30.0625 162.727 30.7031C163.555 31.3438 164.664 31.6641 166.055 31.6641C167.352 31.6641 168.328 31.4219 168.984 30.9375C169.656 30.4375 169.992 29.7891 169.992 28.9922Z" fill="black"/>
</svg>
