<svg width="252" height="38" viewBox="0 0 252 38" fill="none" xmlns="http://www.w3.org/2000/svg">
<path d="M27.1328 2.875V25.3516C27.1328 29.0859 25.9609 32.0391 23.6172 34.2109C21.2891 36.3828 18.1016 37.4688 14.0547 37.4688C10.0703 37.4688 6.90625 36.4141 4.5625 34.3047C2.21875 32.1953 1.02344 29.2969 0.976562 25.6094V2.875H8.00781V25.3984C8.00781 27.6328 8.53906 29.2656 9.60156 30.2969C10.6797 31.3125 12.1641 31.8203 14.0547 31.8203C18.0078 31.8203 20.0156 29.7422 20.0781 25.5859V2.875H27.1328ZM46.1875 29.9922C46.1875 29.1641 45.7734 28.5156 44.9453 28.0469C44.1328 27.5625 42.8203 27.1328 41.0078 26.7578C34.9766 25.4922 31.9609 22.9297 31.9609 19.0703C31.9609 16.8203 32.8906 14.9453 34.75 13.4453C36.625 11.9297 39.0703 11.1719 42.0859 11.1719C45.3047 11.1719 47.875 11.9297 49.7969 13.4453C51.7344 14.9609 52.7031 16.9297 52.7031 19.3516H45.9297C45.9297 18.3828 45.6172 17.5859 44.9922 16.9609C44.3672 16.3203 43.3906 16 42.0625 16C40.9219 16 40.0391 16.2578 39.4141 16.7734C38.7891 17.2891 38.4766 17.9453 38.4766 18.7422C38.4766 19.4922 38.8281 20.1016 39.5312 20.5703C40.25 21.0234 41.4531 21.4219 43.1406 21.7656C44.8281 22.0938 46.25 22.4688 47.4062 22.8906C50.9844 24.2031 52.7734 26.4766 52.7734 29.7109C52.7734 32.0234 51.7812 33.8984 49.7969 35.3359C47.8125 36.7578 45.25 37.4688 42.1094 37.4688C39.9844 37.4688 38.0938 37.0938 36.4375 36.3438C34.7969 35.5781 33.5078 34.5391 32.5703 33.2266C31.6328 31.8984 31.1641 30.4688 31.1641 28.9375H37.5859C37.6484 30.1406 38.0938 31.0625 38.9219 31.7031C39.75 32.3438 40.8594 32.6641 42.25 32.6641C43.5469 32.6641 44.5234 32.4219 45.1797 31.9375C45.8516 31.4375 46.1875 30.7891 46.1875 29.9922ZM68.8281 37.4688C65.1094 37.4688 62.0781 36.3281 59.7344 34.0469C57.4062 31.7656 56.2422 28.7266 56.2422 24.9297V24.2734C56.2422 21.7266 56.7344 19.4531 57.7188 17.4531C58.7031 15.4375 60.0938 13.8906 61.8906 12.8125C63.7031 11.7188 65.7656 11.1719 68.0781 11.1719C71.5469 11.1719 74.2734 12.2656 76.2578 14.4531C78.2578 16.6406 79.2578 19.7422 79.2578 23.7578V26.5234H63.1094C63.3281 28.1797 63.9844 29.5078 65.0781 30.5078C66.1875 31.5078 67.5859 32.0078 69.2734 32.0078C71.8828 32.0078 73.9219 31.0625 75.3906 29.1719L78.7188 32.8984C77.7031 34.3359 76.3281 35.4609 74.5938 36.2734C72.8594 37.0703 70.9375 37.4688 68.8281 37.4688ZM68.0547 16.6562C66.7109 16.6562 65.6172 17.1094 64.7734 18.0156C63.9453 18.9219 63.4141 20.2188 63.1797 21.9062H72.6016V21.3672C72.5703 19.8672 72.1641 18.7109 71.3828 17.8984C70.6016 17.0703 69.4922 16.6562 68.0547 16.6562ZM97.375 17.9922C96.4531 17.8672 95.6406 17.8047 94.9375 17.8047C92.375 17.8047 90.6953 18.6719 89.8984 20.4062V37H83.125V11.6406H89.5234L89.7109 14.6641C91.0703 12.3359 92.9531 11.1719 95.3594 11.1719C96.1094 11.1719 96.8125 11.2734 97.4688 11.4766L97.375 17.9922ZM120.086 24.9766V37H113.055V2.875H126.367C128.93 2.875 131.18 3.34375 133.117 4.28125C135.07 5.21875 136.57 6.55469 137.617 8.28906C138.664 10.0078 139.188 11.9688 139.188 14.1719C139.188 17.5156 138.039 20.1562 135.742 22.0938C133.461 24.0156 130.297 24.9766 126.25 24.9766H120.086ZM120.086 19.2812H126.367C128.227 19.2812 129.641 18.8438 130.609 17.9688C131.594 17.0938 132.086 15.8438 132.086 14.2188C132.086 12.5469 131.594 11.1953 130.609 10.1641C129.625 9.13281 128.266 8.60156 126.531 8.57031H120.086V19.2812ZM157.844 17.9922C156.922 17.8672 156.109 17.8047 155.406 17.8047C152.844 17.8047 151.164 18.6719 150.367 20.4062V37H143.594V11.6406H149.992L150.18 14.6641C151.539 12.3359 153.422 11.1719 155.828 11.1719C156.578 11.1719 157.281 11.2734 157.938 11.4766L157.844 17.9922ZM159.227 24.0859C159.227 21.5703 159.711 19.3281 160.68 17.3594C161.648 15.3906 163.039 13.8672 164.852 12.7891C166.68 11.7109 168.797 11.1719 171.203 11.1719C174.625 11.1719 177.414 12.2188 179.57 14.3125C181.742 16.4062 182.953 19.25 183.203 22.8438L183.25 24.5781C183.25 28.4688 182.164 31.5938 179.992 33.9531C177.82 36.2969 174.906 37.4688 171.25 37.4688C167.594 37.4688 164.672 36.2969 162.484 33.9531C160.312 31.6094 159.227 28.4219 159.227 24.3906V24.0859ZM166 24.5781C166 26.9844 166.453 28.8281 167.359 30.1094C168.266 31.375 169.562 32.0078 171.25 32.0078C172.891 32.0078 174.172 31.3828 175.094 30.1328C176.016 28.8672 176.477 26.8516 176.477 24.0859C176.477 21.7266 176.016 19.8984 175.094 18.6016C174.172 17.3047 172.875 16.6562 171.203 16.6562C169.547 16.6562 168.266 17.3047 167.359 18.6016C166.453 19.8828 166 21.875 166 24.5781ZM189.062 37V16.6094H185.289V11.6406H189.062V10.4688C189.094 7.28125 190.07 4.82812 191.992 3.10938C193.93 1.375 196.656 0.507812 200.172 0.507812C202.281 0.507812 204.844 0.96875 207.859 1.89062L206.875 7.49219C205.344 7.03906 204.156 6.75 203.312 6.625C202.469 6.48438 201.562 6.41406 200.594 6.41406C197.438 6.41406 195.859 7.8125 195.859 10.6094V11.6406H200.852V16.6094H195.859V37H189.062ZM211.023 37H204.227V11.6406H211.023V37ZM223.773 37H216.977V1H223.773V37ZM241.047 37.4688C237.328 37.4688 234.297 36.3281 231.953 34.0469C229.625 31.7656 228.461 28.7266 228.461 24.9297V24.2734C228.461 21.7266 228.953 19.4531 229.938 17.4531C230.922 15.4375 232.312 13.8906 234.109 12.8125C235.922 11.7188 237.984 11.1719 240.297 11.1719C243.766 11.1719 246.492 12.2656 248.477 14.4531C250.477 16.6406 251.477 19.7422 251.477 23.7578V26.5234H235.328C235.547 28.1797 236.203 29.5078 237.297 30.5078C238.406 31.5078 239.805 32.0078 241.492 32.0078C244.102 32.0078 246.141 31.0625 247.609 29.1719L250.938 32.8984C249.922 34.3359 248.547 35.4609 246.812 36.2734C245.078 37.0703 243.156 37.4688 241.047 37.4688ZM240.273 16.6562C238.93 16.6562 237.836 17.1094 236.992 18.0156C236.164 18.9219 235.633 20.2188 235.398 21.9062H244.82V21.3672C244.789 19.8672 244.383 18.7109 243.602 17.8984C242.82 17.0703 241.711 16.6562 240.273 16.6562Z" fill="black"/>
</svg>
