<svg width="815" height="49" viewBox="0 0 815 49" fill="none" xmlns="http://www.w3.org/2000/svg">
<path d="M0.414062 38V3.875H10.9141C13.9141 3.875 16.5938 4.55469 18.9531 5.91406C21.3281 7.25781 23.1797 9.17969 24.5078 11.6797C25.8359 14.1641 26.5 16.9922 26.5 20.1641V21.7344C26.5 24.9062 25.8438 27.7266 24.5312 30.1953C23.2344 32.6641 21.3984 34.5781 19.0234 35.9375C16.6484 37.2969 13.9688 37.9844 10.9844 38H0.414062ZM7.44531 9.57031V32.3516H10.8438C13.5938 32.3516 15.6953 31.4531 17.1484 29.6562C18.6016 27.8594 19.3438 25.2891 19.375 21.9453V20.1406C19.375 16.6719 18.6562 14.0469 17.2188 12.2656C15.7812 10.4688 13.6797 9.57031 10.9141 9.57031H7.44531ZM45.8828 38C45.5703 37.3906 45.3438 36.6328 45.2031 35.7266C43.5625 37.5547 41.4297 38.4688 38.8047 38.4688C36.3203 38.4688 34.2578 37.75 32.6172 36.3125C30.9922 34.875 30.1797 33.0625 30.1797 30.875C30.1797 28.1875 31.1719 26.125 33.1562 24.6875C35.1562 23.25 38.0391 22.5234 41.8047 22.5078H44.9219V21.0547C44.9219 19.8828 44.6172 18.9453 44.0078 18.2422C43.4141 17.5391 42.4688 17.1875 41.1719 17.1875C40.0312 17.1875 39.1328 17.4609 38.4766 18.0078C37.8359 18.5547 37.5156 19.3047 37.5156 20.2578H30.7422C30.7422 18.7891 31.1953 17.4297 32.1016 16.1797C33.0078 14.9297 34.2891 13.9531 35.9453 13.25C37.6016 12.5312 39.4609 12.1719 41.5234 12.1719C44.6484 12.1719 47.125 12.9609 48.9531 14.5391C50.7969 16.1016 51.7188 18.3047 51.7188 21.1484V32.1406C51.7344 34.5469 52.0703 36.3672 52.7266 37.6016V38H45.8828ZM40.2812 33.2891C41.2812 33.2891 42.2031 33.0703 43.0469 32.6328C43.8906 32.1797 44.5156 31.5781 44.9219 30.8281V26.4688H42.3906C39 26.4688 37.1953 27.6406 36.9766 29.9844L36.9531 30.3828C36.9531 31.2266 37.25 31.9219 37.8438 32.4688C38.4375 33.0156 39.25 33.2891 40.2812 33.2891ZM65.0312 6.40625V12.6406H69.3672V17.6094H65.0312V30.2656C65.0312 31.2031 65.2109 31.875 65.5703 32.2812C65.9297 32.6875 66.6172 32.8906 67.6328 32.8906C68.3828 32.8906 69.0469 32.8359 69.625 32.7266V37.8594C68.2969 38.2656 66.9297 38.4688 65.5234 38.4688C60.7734 38.4688 58.3516 36.0703 58.2578 31.2734V17.6094H54.5547V12.6406H58.2578V6.40625H65.0312ZM87.8359 38C87.5234 37.3906 87.2969 36.6328 87.1562 35.7266C85.5156 37.5547 83.3828 38.4688 80.7578 38.4688C78.2734 38.4688 76.2109 37.75 74.5703 36.3125C72.9453 34.875 72.1328 33.0625 72.1328 30.875C72.1328 28.1875 73.125 26.125 75.1094 24.6875C77.1094 23.25 79.9922 22.5234 83.7578 22.5078H86.875V21.0547C86.875 19.8828 86.5703 18.9453 85.9609 18.2422C85.3672 17.5391 84.4219 17.1875 83.125 17.1875C81.9844 17.1875 81.0859 17.4609 80.4297 18.0078C79.7891 18.5547 79.4688 19.3047 79.4688 20.2578H72.6953C72.6953 18.7891 73.1484 17.4297 74.0547 16.1797C74.9609 14.9297 76.2422 13.9531 77.8984 13.25C79.5547 12.5312 81.4141 12.1719 83.4766 12.1719C86.6016 12.1719 89.0781 12.9609 90.9062 14.5391C92.75 16.1016 93.6719 18.3047 93.6719 21.1484V32.1406C93.6875 34.5469 94.0234 36.3672 94.6797 37.6016V38H87.8359ZM82.2344 33.2891C83.2344 33.2891 84.1562 33.0703 85 32.6328C85.8438 32.1797 86.4688 31.5781 86.875 30.8281V26.4688H84.3438C80.9531 26.4688 79.1484 27.6406 78.9297 29.9844L78.9062 30.3828C78.9062 31.2266 79.2031 31.9219 79.7969 32.4688C80.3906 33.0156 81.2031 33.2891 82.2344 33.2891ZM117.016 29.0469C117.016 27.7188 116.547 26.7031 115.609 26C114.672 25.2812 112.984 24.5312 110.547 23.75C108.109 22.9531 106.18 22.1719 104.758 21.4062C100.883 19.3125 98.9453 16.4922 98.9453 12.9453C98.9453 11.1016 99.4609 9.46094 100.492 8.02344C101.539 6.57031 103.031 5.4375 104.969 4.625C106.922 3.8125 109.109 3.40625 111.531 3.40625C113.969 3.40625 116.141 3.85156 118.047 4.74219C119.953 5.61719 121.43 6.85938 122.477 8.46875C123.539 10.0781 124.07 11.9062 124.07 13.9531H117.039C117.039 12.3906 116.547 11.1797 115.562 10.3203C114.578 9.44531 113.195 9.00781 111.414 9.00781C109.695 9.00781 108.359 9.375 107.406 10.1094C106.453 10.8281 105.977 11.7812 105.977 12.9688C105.977 14.0781 106.531 15.0078 107.641 15.7578C108.766 16.5078 110.414 17.2109 112.586 17.8672C116.586 19.0703 119.5 20.5625 121.328 22.3438C123.156 24.125 124.07 26.3438 124.07 29C124.07 31.9531 122.953 34.2734 120.719 35.9609C118.484 37.6328 115.477 38.4688 111.695 38.4688C109.07 38.4688 106.68 37.9922 104.523 37.0391C102.367 36.0703 100.719 34.75 99.5781 33.0781C98.4531 31.4062 97.8906 29.4688 97.8906 27.2656H104.945C104.945 31.0312 107.195 32.9141 111.695 32.9141C113.367 32.9141 114.672 32.5781 115.609 31.9062C116.547 31.2188 117.016 30.2656 117.016 29.0469ZM127.352 25.0859C127.352 22.5703 127.836 20.3281 128.805 18.3594C129.773 16.3906 131.164 14.8672 132.977 13.7891C134.805 12.7109 136.922 12.1719 139.328 12.1719C142.75 12.1719 145.539 13.2188 147.695 15.3125C149.867 17.4062 151.078 20.25 151.328 23.8438L151.375 25.5781C151.375 29.4688 150.289 32.5938 148.117 34.9531C145.945 37.2969 143.031 38.4688 139.375 38.4688C135.719 38.4688 132.797 37.2969 130.609 34.9531C128.438 32.6094 127.352 29.4219 127.352 25.3906V25.0859ZM134.125 25.5781C134.125 27.9844 134.578 29.8281 135.484 31.1094C136.391 32.375 137.688 33.0078 139.375 33.0078C141.016 33.0078 142.297 32.3828 143.219 31.1328C144.141 29.8672 144.602 27.8516 144.602 25.0859C144.602 22.7266 144.141 20.8984 143.219 19.6016C142.297 18.3047 141 17.6562 139.328 17.6562C137.672 17.6562 136.391 18.3047 135.484 19.6016C134.578 20.8828 134.125 22.875 134.125 25.5781ZM170.734 35.4219C169.062 37.4531 166.75 38.4688 163.797 38.4688C161.078 38.4688 159 37.6875 157.562 36.125C156.141 34.5625 155.414 32.2734 155.383 29.2578V12.6406H162.156V29.0234C162.156 31.6641 163.359 32.9844 165.766 32.9844C168.062 32.9844 169.641 32.1875 170.5 30.5938V12.6406H177.297V38H170.922L170.734 35.4219ZM196.656 18.9922C195.734 18.8672 194.922 18.8047 194.219 18.8047C191.656 18.8047 189.977 19.6719 189.18 21.4062V38H182.406V12.6406H188.805L188.992 15.6641C190.352 13.3359 192.234 12.1719 194.641 12.1719C195.391 12.1719 196.094 12.2734 196.75 12.4766L196.656 18.9922ZM210.016 33.0078C211.266 33.0078 212.281 32.6641 213.062 31.9766C213.844 31.2891 214.25 30.375 214.281 29.2344H220.633C220.617 30.9531 220.148 32.5312 219.227 33.9688C218.305 35.3906 217.039 36.5 215.43 37.2969C213.836 38.0781 212.07 38.4688 210.133 38.4688C206.508 38.4688 203.648 37.3203 201.555 35.0234C199.461 32.7109 198.414 29.5234 198.414 25.4609V25.0156C198.414 21.1094 199.453 17.9922 201.531 15.6641C203.609 13.3359 206.461 12.1719 210.086 12.1719C213.258 12.1719 215.797 13.0781 217.703 14.8906C219.625 16.6875 220.602 19.0859 220.633 22.0859H214.281C214.25 20.7734 213.844 19.7109 213.062 18.8984C212.281 18.0703 211.25 17.6562 209.969 17.6562C208.391 17.6562 207.195 18.2344 206.383 19.3906C205.586 20.5312 205.188 22.3906 205.188 24.9688V25.6719C205.188 28.2812 205.586 30.1562 206.383 31.2969C207.18 32.4375 208.391 33.0078 210.016 33.0078ZM236.172 38.4688C232.453 38.4688 229.422 37.3281 227.078 35.0469C224.75 32.7656 223.586 29.7266 223.586 25.9297V25.2734C223.586 22.7266 224.078 20.4531 225.062 18.4531C226.047 16.4375 227.438 14.8906 229.234 13.8125C231.047 12.7188 233.109 12.1719 235.422 12.1719C238.891 12.1719 241.617 13.2656 243.602 15.4531C245.602 17.6406 246.602 20.7422 246.602 24.7578V27.5234H230.453C230.672 29.1797 231.328 30.5078 232.422 31.5078C233.531 32.5078 234.93 33.0078 236.617 33.0078C239.227 33.0078 241.266 32.0625 242.734 30.1719L246.062 33.8984C245.047 35.3359 243.672 36.4609 241.938 37.2734C240.203 38.0703 238.281 38.4688 236.172 38.4688ZM235.398 17.6562C234.055 17.6562 232.961 18.1094 232.117 19.0156C231.289 19.9219 230.758 21.2188 230.523 22.9062H239.945V22.3672C239.914 20.8672 239.508 19.7109 238.727 18.8984C237.945 18.0703 236.836 17.6562 235.398 17.6562ZM283.398 23.2109H269.898V32.3516H285.742V38H262.867V3.875H285.695V9.57031H269.898V17.7031H283.398V23.2109ZM299.078 20.2109L303.344 12.6406H310.586L303.367 25.0625L310.891 38H303.625L299.102 30.0312L294.602 38H287.312L294.836 25.0625L287.641 12.6406H294.906L299.078 20.2109ZM323.922 33.0078C325.172 33.0078 326.188 32.6641 326.969 31.9766C327.75 31.2891 328.156 30.375 328.188 29.2344H334.539C334.523 30.9531 334.055 32.5312 333.133 33.9688C332.211 35.3906 330.945 36.5 329.336 37.2969C327.742 38.0781 325.977 38.4688 324.039 38.4688C320.414 38.4688 317.555 37.3203 315.461 35.0234C313.367 32.7109 312.32 29.5234 312.32 25.4609V25.0156C312.32 21.1094 313.359 17.9922 315.438 15.6641C317.516 13.3359 320.367 12.1719 323.992 12.1719C327.164 12.1719 329.703 13.0781 331.609 14.8906C333.531 16.6875 334.508 19.0859 334.539 22.0859H328.188C328.156 20.7734 327.75 19.7109 326.969 18.8984C326.188 18.0703 325.156 17.6562 323.875 17.6562C322.297 17.6562 321.102 18.2344 320.289 19.3906C319.492 20.5312 319.094 22.3906 319.094 24.9688V25.6719C319.094 28.2812 319.492 30.1562 320.289 31.2969C321.086 32.4375 322.297 33.0078 323.922 33.0078ZM345.016 15.4062C346.812 13.25 349.07 12.1719 351.789 12.1719C357.289 12.1719 360.078 15.3672 360.156 21.7578V38H353.383V21.9453C353.383 20.4922 353.07 19.4219 352.445 18.7344C351.82 18.0312 350.781 17.6797 349.328 17.6797C347.344 17.6797 345.906 18.4453 345.016 19.9766V38H338.242V2H345.016V15.4062ZM379.961 38C379.648 37.3906 379.422 36.6328 379.281 35.7266C377.641 37.5547 375.508 38.4688 372.883 38.4688C370.398 38.4688 368.336 37.75 366.695 36.3125C365.07 34.875 364.258 33.0625 364.258 30.875C364.258 28.1875 365.25 26.125 367.234 24.6875C369.234 23.25 372.117 22.5234 375.883 22.5078H379V21.0547C379 19.8828 378.695 18.9453 378.086 18.2422C377.492 17.5391 376.547 17.1875 375.25 17.1875C374.109 17.1875 373.211 17.4609 372.555 18.0078C371.914 18.5547 371.594 19.3047 371.594 20.2578H364.82C364.82 18.7891 365.273 17.4297 366.18 16.1797C367.086 14.9297 368.367 13.9531 370.023 13.25C371.68 12.5312 373.539 12.1719 375.602 12.1719C378.727 12.1719 381.203 12.9609 383.031 14.5391C384.875 16.1016 385.797 18.3047 385.797 21.1484V32.1406C385.812 34.5469 386.148 36.3672 386.805 37.6016V38H379.961ZM374.359 33.2891C375.359 33.2891 376.281 33.0703 377.125 32.6328C377.969 32.1797 378.594 31.5781 379 30.8281V26.4688H376.469C373.078 26.4688 371.273 27.6406 371.055 29.9844L371.031 30.3828C371.031 31.2266 371.328 31.9219 371.922 32.4688C372.516 33.0156 373.328 33.2891 374.359 33.2891ZM397.234 12.6406L397.445 15.5703C399.258 13.3047 401.688 12.1719 404.734 12.1719C407.422 12.1719 409.422 12.9609 410.734 14.5391C412.047 16.1172 412.719 18.4766 412.75 21.6172V38H405.977V21.7812C405.977 20.3438 405.664 19.3047 405.039 18.6641C404.414 18.0078 403.375 17.6797 401.922 17.6797C400.016 17.6797 398.586 18.4922 397.633 20.1172V38H390.859V12.6406H397.234ZM416.922 25.1328C416.922 21.2422 417.844 18.1094 419.688 15.7344C421.547 13.3594 424.047 12.1719 427.188 12.1719C429.969 12.1719 432.133 13.125 433.68 15.0312L433.961 12.6406H440.102V37.1562C440.102 39.375 439.594 41.3047 438.578 42.9453C437.578 44.5859 436.164 45.8359 434.336 46.6953C432.508 47.5547 430.367 47.9844 427.914 47.9844C426.055 47.9844 424.242 47.6094 422.477 46.8594C420.711 46.125 419.375 45.1719 418.469 44L421.469 39.875C423.156 41.7656 425.203 42.7109 427.609 42.7109C429.406 42.7109 430.805 42.2266 431.805 41.2578C432.805 40.3047 433.305 38.9453 433.305 37.1797V35.8203C431.742 37.5859 429.688 38.4688 427.141 38.4688C424.094 38.4688 421.625 37.2812 419.734 34.9062C417.859 32.5156 416.922 29.3516 416.922 25.4141V25.1328ZM423.695 25.625C423.695 27.9219 424.156 29.7266 425.078 31.0391C426 32.3359 427.266 32.9844 428.875 32.9844C430.938 32.9844 432.414 32.2109 433.305 30.6641V20C432.398 18.4531 430.938 17.6797 428.922 17.6797C427.297 17.6797 426.016 18.3438 425.078 19.6719C424.156 21 423.695 22.9844 423.695 25.625ZM457 38.4688C453.281 38.4688 450.25 37.3281 447.906 35.0469C445.578 32.7656 444.414 29.7266 444.414 25.9297V25.2734C444.414 22.7266 444.906 20.4531 445.891 18.4531C446.875 16.4375 448.266 14.8906 450.062 13.8125C451.875 12.7188 453.938 12.1719 456.25 12.1719C459.719 12.1719 462.445 13.2656 464.43 15.4531C466.43 17.6406 467.43 20.7422 467.43 24.7578V27.5234H451.281C451.5 29.1797 452.156 30.5078 453.25 31.5078C454.359 32.5078 455.758 33.0078 457.445 33.0078C460.055 33.0078 462.094 32.0625 463.562 30.1719L466.891 33.8984C465.875 35.3359 464.5 36.4609 462.766 37.2734C461.031 38.0703 459.109 38.4688 457 38.4688ZM456.227 17.6562C454.883 17.6562 453.789 18.1094 452.945 19.0156C452.117 19.9219 451.586 21.2188 451.352 22.9062H460.773V22.3672C460.742 20.8672 460.336 19.7109 459.555 18.8984C458.773 18.0703 457.664 17.6562 456.227 17.6562ZM483.555 24.125C483.555 20.5469 484.031 17.1406 484.984 13.9062C485.938 10.6719 487.344 7.8125 489.203 5.32812C491.062 2.82812 493.078 1.09375 495.25 0.125L496.562 3.78125C494.281 5.46875 492.5 8.07812 491.219 11.6094C489.938 15.1406 489.297 19.2656 489.297 23.9844V24.7109C489.297 29.4453 489.93 33.5859 491.195 37.1328C492.461 40.6797 494.25 43.3281 496.562 45.0781L495.25 48.6641C493.125 47.7109 491.141 46.0234 489.297 43.6016C487.469 41.1953 486.07 38.4141 485.102 35.2578C484.133 32.1016 483.617 28.8047 483.555 25.3672V24.125ZM508.047 38H501.016V3.875H508.047V38ZM520.492 12.6406L520.703 15.4766C522.5 13.2734 524.93 12.1719 527.992 12.1719C531.258 12.1719 533.5 13.4609 534.719 16.0391C536.5 13.4609 539.039 12.1719 542.336 12.1719C545.086 12.1719 547.133 12.9766 548.477 14.5859C549.82 16.1797 550.492 18.5859 550.492 21.8047V38H543.695V21.8281C543.695 20.3906 543.414 19.3438 542.852 18.6875C542.289 18.0156 541.297 17.6797 539.875 17.6797C537.844 17.6797 536.438 18.6484 535.656 20.5859L535.68 38H528.906V21.8516C528.906 20.3828 528.617 19.3203 528.039 18.6641C527.461 18.0078 526.477 17.6797 525.086 17.6797C523.164 17.6797 521.773 18.4766 520.914 20.0703V38H514.141V12.6406H520.492ZM578.547 25.5547C578.547 29.4609 577.656 32.5938 575.875 34.9531C574.109 37.2969 571.719 38.4688 568.703 38.4688C566.141 38.4688 564.07 37.5781 562.492 35.7969V47.75H555.719V12.6406H562L562.234 15.125C563.875 13.1562 566.016 12.1719 568.656 12.1719C571.781 12.1719 574.211 13.3281 575.945 15.6406C577.68 17.9531 578.547 21.1406 578.547 25.2031V25.5547ZM571.773 25.0625C571.773 22.7031 571.352 20.8828 570.508 19.6016C569.68 18.3203 568.469 17.6797 566.875 17.6797C564.75 17.6797 563.289 18.4922 562.492 20.1172V30.5C563.32 32.1719 564.797 33.0078 566.922 33.0078C570.156 33.0078 571.773 30.3594 571.773 25.0625ZM581.711 25.0859C581.711 22.5703 582.195 20.3281 583.164 18.3594C584.133 16.3906 585.523 14.8672 587.336 13.7891C589.164 12.7109 591.281 12.1719 593.688 12.1719C597.109 12.1719 599.898 13.2188 602.055 15.3125C604.227 17.4062 605.438 20.25 605.688 23.8438L605.734 25.5781C605.734 29.4688 604.648 32.5938 602.477 34.9531C600.305 37.2969 597.391 38.4688 593.734 38.4688C590.078 38.4688 587.156 37.2969 584.969 34.9531C582.797 32.6094 581.711 29.4219 581.711 25.3906V25.0859ZM588.484 25.5781C588.484 27.9844 588.938 29.8281 589.844 31.1094C590.75 32.375 592.047 33.0078 593.734 33.0078C595.375 33.0078 596.656 32.3828 597.578 31.1328C598.5 29.8672 598.961 27.8516 598.961 25.0859C598.961 22.7266 598.5 20.8984 597.578 19.6016C596.656 18.3047 595.359 17.6562 593.688 17.6562C592.031 17.6562 590.75 18.3047 589.844 19.6016C588.938 20.8828 588.484 22.875 588.484 25.5781ZM624.156 18.9922C623.234 18.8672 622.422 18.8047 621.719 18.8047C619.156 18.8047 617.477 19.6719 616.68 21.4062V38H609.906V12.6406H616.305L616.492 15.6641C617.852 13.3359 619.734 12.1719 622.141 12.1719C622.891 12.1719 623.594 12.2734 624.25 12.4766L624.156 18.9922ZM636.719 6.40625V12.6406H641.055V17.6094H636.719V30.2656C636.719 31.2031 636.898 31.875 637.258 32.2812C637.617 32.6875 638.305 32.8906 639.32 32.8906C640.07 32.8906 640.734 32.8359 641.312 32.7266V37.8594C639.984 38.2656 638.617 38.4688 637.211 38.4688C632.461 38.4688 630.039 36.0703 629.945 31.2734V17.6094H626.242V12.6406H629.945V6.40625H636.719ZM646.961 40.9297H641.922L654.484 3.875H659.523L646.961 40.9297ZM683.758 23.2109H670.258V32.3516H686.102V38H663.227V3.875H686.055V9.57031H670.258V17.7031H683.758V23.2109ZM699.438 20.2109L703.703 12.6406H710.945L703.727 25.0625L711.25 38H703.984L699.461 30.0312L694.961 38H687.672L695.195 25.0625L688 12.6406H695.266L699.438 20.2109ZM737.031 25.5547C737.031 29.4609 736.141 32.5938 734.359 34.9531C732.594 37.2969 730.203 38.4688 727.188 38.4688C724.625 38.4688 722.555 37.5781 720.977 35.7969V47.75H714.203V12.6406H720.484L720.719 15.125C722.359 13.1562 724.5 12.1719 727.141 12.1719C730.266 12.1719 732.695 13.3281 734.43 15.6406C736.164 17.9531 737.031 21.1406 737.031 25.2031V25.5547ZM730.258 25.0625C730.258 22.7031 729.836 20.8828 728.992 19.6016C728.164 18.3203 726.953 17.6797 725.359 17.6797C723.234 17.6797 721.773 18.4922 720.977 20.1172V30.5C721.805 32.1719 723.281 33.0078 725.406 33.0078C728.641 33.0078 730.258 30.3594 730.258 25.0625ZM740.195 25.0859C740.195 22.5703 740.68 20.3281 741.648 18.3594C742.617 16.3906 744.008 14.8672 745.82 13.7891C747.648 12.7109 749.766 12.1719 752.172 12.1719C755.594 12.1719 758.383 13.2188 760.539 15.3125C762.711 17.4062 763.922 20.25 764.172 23.8438L764.219 25.5781C764.219 29.4688 763.133 32.5938 760.961 34.9531C758.789 37.2969 755.875 38.4688 752.219 38.4688C748.562 38.4688 745.641 37.2969 743.453 34.9531C741.281 32.6094 740.195 29.4219 740.195 25.3906V25.0859ZM746.969 25.5781C746.969 27.9844 747.422 29.8281 748.328 31.1094C749.234 32.375 750.531 33.0078 752.219 33.0078C753.859 33.0078 755.141 32.3828 756.062 31.1328C756.984 29.8672 757.445 27.8516 757.445 25.0859C757.445 22.7266 756.984 20.8984 756.062 19.6016C755.141 18.3047 753.844 17.6562 752.172 17.6562C750.516 17.6562 749.234 18.3047 748.328 19.6016C747.422 20.8828 746.969 22.875 746.969 25.5781ZM782.641 18.9922C781.719 18.8672 780.906 18.8047 780.203 18.8047C777.641 18.8047 775.961 19.6719 775.164 21.4062V38H768.391V12.6406H774.789L774.977 15.6641C776.336 13.3359 778.219 12.1719 780.625 12.1719C781.375 12.1719 782.078 12.2734 782.734 12.4766L782.641 18.9922ZM795.203 6.40625V12.6406H799.539V17.6094H795.203V30.2656C795.203 31.2031 795.383 31.875 795.742 32.2812C796.102 32.6875 796.789 32.8906 797.805 32.8906C798.555 32.8906 799.219 32.8359 799.797 32.7266V37.8594C798.469 38.2656 797.102 38.4688 795.695 38.4688C790.945 38.4688 788.523 36.0703 788.43 31.2734V17.6094H784.727V12.6406H788.43V6.40625H795.203ZM814.984 24.6641C814.984 28.1953 814.477 31.5938 813.461 34.8594C812.445 38.125 810.984 41.0078 809.078 43.5078C807.172 46.0078 805.133 47.7266 802.961 48.6641L801.648 45.0781C803.867 43.4062 805.617 40.8281 806.898 37.3438C808.18 33.8594 808.844 29.8516 808.891 25.3203V24.0781C808.891 19.4062 808.25 15.2891 806.969 11.7266C805.703 8.16406 803.93 5.49219 801.648 3.71094L802.961 0.125C805.086 1.04687 807.086 2.71875 808.961 5.14062C810.852 7.5625 812.312 10.3828 813.344 13.6016C814.391 16.8203 814.938 20.1562 814.984 23.6094V24.6641Z" fill="black"/>
</svg>
